<svg width="609" height="434" viewBox="0 0 609 434" fill="none" xmlns="http://www.w3.org/2000/svg">
<mask id="mask0_437_1533" style="mask-type:alpha" maskUnits="userSpaceOnUse" x="0" y="0" width="609" height="434">
<rect width="609" height="434" fill="#57C3FF"/>
</mask>
<g mask="url(#mask0_437_1533)">
<mask id="mask1_437_1533" style="mask-type:luminance" maskUnits="userSpaceOnUse" x="-2" y="-204" width="615" height="827">
<path d="M-1.396 -203.323L-1.396 622.795H612.715V-203.323H-1.396ZM24.6447 613.052C22.5008 613.061 20.4026 612.433 18.6164 611.247C16.8301 610.062 15.4363 608.372 14.6118 606.393C13.7872 604.414 13.5692 602.235 13.9852 600.132C14.4013 598.029 15.4328 596.097 16.9487 594.581C18.4647 593.065 20.3968 592.033 22.4999 591.617C24.603 591.201 26.7823 591.419 28.7613 592.244C30.7403 593.068 32.4297 594.462 33.6153 596.248C34.8008 598.034 35.429 600.133 35.4201 602.276C35.4083 605.131 34.2692 607.865 32.251 609.883C30.2328 611.901 27.4988 613.04 24.6447 613.052ZM24.6447 582.162C22.5135 582.162 20.4302 581.53 18.6581 580.346C16.8861 579.162 15.505 577.479 14.6895 575.511C13.8739 573.542 13.6605 571.375 14.0763 569.285C14.492 567.195 15.5183 565.274 17.0253 563.767C18.5322 562.261 20.4522 561.234 22.5425 560.819C24.6327 560.403 26.7993 560.616 28.7682 561.432C30.7372 562.247 32.4201 563.628 33.6041 565.4C34.7881 567.172 35.4201 569.256 35.4201 571.387C35.4201 574.245 34.2848 576.986 32.2641 579.006C30.2433 581.027 27.5025 582.162 24.6447 582.162ZM24.6447 551.273C22.5135 551.273 20.4302 550.641 18.6581 549.457C16.8861 548.273 15.505 546.59 14.6895 544.621C13.8739 542.652 13.6605 540.485 14.0763 538.395C14.492 536.305 15.5183 534.385 17.0253 532.878C18.5322 531.371 20.4522 530.345 22.5425 529.929C24.6327 529.513 26.7993 529.726 28.7682 530.542C30.7372 531.358 32.4201 532.739 33.6041 534.511C34.7881 536.283 35.4201 538.366 35.4201 540.497C35.4201 543.355 34.2848 546.096 32.2641 548.117C30.2433 550.137 27.5025 551.273 24.6447 551.273ZM24.6447 520.428C22.5027 520.437 20.4063 519.81 18.621 518.626C16.8357 517.443 15.4419 515.756 14.616 513.78C13.7902 511.803 13.5695 509.626 13.9819 507.524C14.3943 505.423 15.4213 503.49 16.9327 501.973C18.4442 500.455 20.3721 499.42 22.4723 498.999C24.5724 498.577 26.7503 498.789 28.7301 499.607C30.7099 500.424 32.4024 501.811 33.5934 503.592C34.7843 505.372 35.4201 507.466 35.4201 509.608C35.4201 512.47 34.2863 515.215 32.2668 517.243C30.2473 519.271 27.5066 520.416 24.6447 520.428ZM24.6447 489.538C22.5027 489.547 20.4063 488.92 18.621 487.737C16.8357 486.553 15.4419 484.866 14.616 482.89C13.7902 480.914 13.5695 478.737 13.9819 476.635C14.3943 474.533 15.4213 472.601 16.9327 471.083C18.4442 469.565 20.3721 468.53 22.4723 468.109C24.5724 467.688 26.7503 467.9 28.7301 468.717C30.7099 469.535 32.4024 470.922 33.5934 472.702C34.7843 474.482 35.4201 476.576 35.4201 478.718C35.4201 481.58 34.2863 484.325 32.2668 486.353C30.2473 488.381 27.5066 489.527 24.6447 489.538ZM24.6447 458.649C22.5008 458.658 20.4026 458.03 18.6164 456.844C16.8301 455.658 15.4363 453.969 14.6118 451.99C13.7872 450.011 13.5692 447.832 13.9852 445.729C14.4013 443.625 15.4328 441.693 16.9487 440.177C18.4647 438.661 20.3968 437.63 22.4999 437.214C24.603 436.798 26.7823 437.016 28.7613 437.84C30.7403 438.665 32.4297 440.059 33.6153 441.845C34.8008 443.631 35.429 445.729 35.4201 447.873C35.4083 450.728 34.2692 453.461 32.251 455.48C30.2328 457.498 27.4988 458.637 24.6447 458.649ZM24.6447 427.759C22.5008 427.768 20.4026 427.14 18.6164 425.954C16.8301 424.769 15.4363 423.079 14.6118 421.1C13.7872 419.121 13.5692 416.942 13.9852 414.839C14.4013 412.736 15.4328 410.804 16.9487 409.288C18.4647 407.772 20.3968 406.74 22.4999 406.324C24.603 405.908 26.7823 406.126 28.7613 406.951C30.7403 407.775 32.4297 409.169 33.6153 410.955C34.8008 412.742 35.429 414.84 35.4201 416.984C35.4083 419.838 34.2692 422.572 32.251 424.59C30.2328 426.608 27.4988 427.747 24.6447 427.759ZM24.6447 396.87C22.5135 396.87 20.4302 396.238 18.6581 395.054C16.8861 393.87 15.505 392.187 14.6895 390.218C13.8739 388.249 13.6605 386.082 14.0763 383.992C14.492 381.902 15.5183 379.982 17.0253 378.475C18.5322 376.968 20.4522 375.942 22.5425 375.526C24.6327 375.11 26.7993 375.323 28.7682 376.139C30.7372 376.954 32.4201 378.336 33.6041 380.108C34.7881 381.88 35.4201 383.963 35.4201 386.094C35.4201 388.952 34.2848 391.693 32.2641 393.714C30.2433 395.734 27.5025 396.87 24.6447 396.87ZM24.6447 365.98C22.5135 365.98 20.4302 365.348 18.6581 364.164C16.8861 362.98 15.505 361.297 14.6895 359.328C13.8739 357.359 13.6605 355.193 14.0763 353.102C14.492 351.012 15.5183 349.092 17.0253 347.585C18.5322 346.078 20.4522 345.052 22.5425 344.636C24.6327 344.22 26.7993 344.434 28.7682 345.249C30.7372 346.065 32.4201 347.446 33.6041 349.218C34.7881 350.99 35.4201 353.073 35.4201 355.205C35.4201 358.062 34.2848 360.803 32.2641 362.824C30.2433 364.845 27.5025 365.98 24.6447 365.98ZM24.6447 335.135C22.5027 335.144 20.4063 334.517 18.621 333.334C16.8357 332.15 15.4419 330.463 14.616 328.487C13.7902 326.511 13.5695 324.334 13.9819 322.232C14.3943 320.13 15.4213 318.198 16.9327 316.68C18.4442 315.162 20.3721 314.127 22.4723 313.706C24.5724 313.285 26.7503 313.496 28.7301 314.314C30.7099 315.132 32.4024 316.518 33.5934 318.299C34.7843 320.079 35.4201 322.173 35.4201 324.315C35.4201 327.177 34.2863 329.922 32.2668 331.95C30.2473 333.978 27.5066 335.123 24.6447 335.135ZM24.6447 304.246C22.5027 304.255 20.4063 303.628 18.621 302.444C16.8357 301.26 15.4419 299.574 14.616 297.597C13.7902 295.621 13.5695 293.444 13.9819 291.342C14.3943 289.24 15.4213 287.308 16.9327 285.79C18.4442 284.272 20.3721 283.237 22.4723 282.816C24.5724 282.395 26.7503 282.607 28.7301 283.424C30.7099 284.242 32.4024 285.629 33.5934 287.409C34.7843 289.19 35.4201 291.283 35.4201 293.425C35.4201 296.287 34.2863 299.033 32.2668 301.061C30.2473 303.089 27.5066 304.234 24.6447 304.246ZM24.6447 273.356C22.5008 273.365 20.4026 272.737 18.6164 271.551C16.8301 270.366 15.4363 268.676 14.6118 266.697C13.7872 264.718 13.5692 262.539 13.9852 260.436C14.4013 258.333 15.4328 256.401 16.9487 254.885C18.4647 253.369 20.3968 252.337 22.4999 251.921C24.603 251.505 26.7823 251.723 28.7613 252.548C30.7403 253.372 32.4297 254.766 33.6153 256.552C34.8008 258.339 35.429 260.437 35.4201 262.581C35.4083 265.435 34.2692 268.169 32.251 270.187C30.2328 272.205 27.4988 273.344 24.6447 273.356ZM24.6447 242.466C22.5008 242.475 20.4026 241.847 18.6164 240.662C16.8301 239.476 15.4363 237.787 14.6118 235.808C13.7872 233.829 13.5692 231.649 13.9852 229.546C14.4013 227.443 15.4328 225.511 16.9487 223.995C18.4647 222.479 20.3968 221.448 22.4999 221.032C24.603 220.615 26.7823 220.834 28.7613 221.658C30.7403 222.483 32.4297 223.876 33.6153 225.663C34.8008 227.449 35.429 229.547 35.4201 231.691C35.4083 234.545 34.2692 237.279 32.251 239.297C30.2328 241.316 27.4988 242.455 24.6447 242.466ZM24.6447 211.577C22.5135 211.577 20.4302 210.945 18.6581 209.761C16.8861 208.577 15.505 206.894 14.6895 204.925C13.8739 202.956 13.6605 200.789 14.0763 198.699C14.492 196.609 15.5183 194.689 17.0253 193.182C18.5322 191.675 20.4522 190.649 22.5425 190.233C24.6327 189.817 26.7993 190.031 28.7682 190.846C30.7372 191.662 32.4201 193.043 33.6041 194.815C34.7881 196.587 35.4201 198.67 35.4201 200.801C35.3964 203.644 34.2507 206.361 32.2325 208.363C30.2143 210.364 27.487 211.487 24.6447 211.487V211.577ZM24.6447 180.687C22.5135 180.687 20.4302 180.055 18.6581 178.871C16.8861 177.687 15.505 176.004 14.6895 174.035C13.8739 172.066 13.6605 169.9 14.0763 167.81C14.492 165.719 15.5183 163.799 17.0253 162.292C18.5322 160.785 20.4522 159.759 22.5425 159.343C24.6327 158.928 26.7993 159.141 28.7682 159.957C30.7372 160.772 32.4201 162.153 33.6041 163.925C34.7881 165.697 35.4201 167.781 35.4201 169.912C35.4201 172.77 34.2848 175.51 32.2641 177.531C30.2433 179.552 27.5025 180.687 24.6447 180.687ZM24.6447 149.842C22.5027 149.851 20.4063 149.224 18.621 148.041C16.8357 146.857 15.4419 145.17 14.616 143.194C13.7902 141.218 13.5695 139.041 13.9819 136.939C14.3943 134.837 15.4213 132.905 16.9327 131.387C18.4442 129.869 20.3721 128.834 22.4723 128.413C24.5724 127.992 26.7503 128.204 28.7301 129.021C30.7099 129.839 32.4024 131.226 33.5934 133.006C34.7843 134.786 35.4201 136.88 35.4201 139.022C35.4201 141.884 34.2863 144.63 32.2668 146.657C30.2473 148.685 27.5066 149.831 24.6447 149.842ZM24.6447 118.953C22.4989 118.962 20.399 118.332 18.6118 117.145C16.8246 115.957 15.4308 114.265 14.6076 112.284C13.7845 110.302 13.5691 108.12 13.9888 106.016C14.4086 103.912 15.4445 101.98 16.965 100.466C18.4854 98.9514 20.4218 97.9235 22.5278 97.5126C24.6339 97.1016 26.8146 97.3261 28.7927 98.1575C30.7709 98.989 32.4572 100.39 33.6372 102.182C34.8173 103.974 35.4379 106.077 35.4201 108.222C35.3965 111.069 34.2522 113.791 32.2353 115.8C30.2183 117.808 27.4911 118.941 24.6447 118.953ZM24.6447 88.0633C22.5008 88.0722 20.4026 87.444 18.6164 86.2584C16.8301 85.0729 15.4363 83.3834 14.6118 81.4045C13.7872 79.4255 13.5692 77.2462 13.9852 75.1431C14.4013 73.0399 15.4328 71.1078 16.9487 69.5919C18.4647 68.0759 20.3968 67.0445 22.4999 66.6284C24.603 66.2123 26.7823 66.4304 28.7613 67.2549C30.7403 68.0794 32.4297 69.4733 33.6153 71.2595C34.8008 73.0458 35.429 75.144 35.4201 77.2878C35.4083 80.142 34.2692 82.8759 32.251 84.8941C30.2328 86.9124 27.4988 88.0515 24.6447 88.0633ZM24.6447 57.1736C22.5008 57.1825 20.4026 56.5544 18.6164 55.3688C16.8301 54.1833 15.4363 52.4938 14.6118 50.5149C13.7872 48.5359 13.5692 46.3566 13.9852 44.2534C14.4013 42.1503 15.4328 40.2182 16.9487 38.7023C18.4647 37.1863 20.3968 36.1549 22.4999 35.7388C24.603 35.3227 26.7823 35.5408 28.7613 36.3653C30.7403 37.1898 32.4297 38.5836 33.6153 40.3699C34.8008 42.1562 35.429 44.2543 35.4201 46.3982C35.4083 49.2524 34.2692 51.9863 32.251 54.0045C30.2328 56.0228 27.4988 57.1618 24.6447 57.1736ZM24.6447 26.284C22.5135 26.284 20.4302 25.6521 18.6581 24.4681C16.8861 23.284 15.505 21.6011 14.6895 19.6322C13.8739 17.6632 13.6605 15.4966 14.0763 13.4064C14.492 11.3162 15.5183 9.39617 17.0253 7.8892C18.5322 6.38222 20.4522 5.35597 22.5425 4.9402C24.6327 4.52443 26.7993 4.73782 28.7682 5.55339C30.7372 6.36895 32.4201 7.75007 33.6041 9.52208C34.7881 11.2941 35.4201 13.3774 35.4201 15.5086C35.4201 18.3664 34.2848 21.1072 32.2641 23.128C30.2433 25.1488 27.5025 26.284 24.6447 26.284ZM24.6447 -4.60558C22.5135 -4.60558 20.4302 -5.23754 18.6581 -6.42156C16.8861 -7.60559 15.505 -9.28848 14.6895 -11.2574C13.8739 -13.2264 13.6605 -15.393 14.0763 -17.4832C14.492 -19.5734 15.5183 -21.4934 17.0253 -23.0004C18.5322 -24.5074 20.4522 -25.5336 22.5425 -25.9494C24.6327 -26.3652 26.7993 -26.1518 28.7682 -25.3362C30.7372 -24.5207 32.4201 -23.1396 33.6041 -21.3675C34.7881 -19.5955 35.4201 -17.5122 35.4201 -15.381C35.4201 -12.5232 34.2848 -9.78241 32.2641 -7.76162C30.2433 -5.74084 27.5025 -4.60558 24.6447 -4.60558ZM24.6447 -35.4503C22.5027 -35.4414 20.4063 -36.0684 18.621 -37.252C16.8357 -38.4355 15.4419 -40.1223 14.616 -42.0987C13.7902 -44.075 13.5695 -46.252 13.9819 -48.3539C14.3943 -50.4558 15.4213 -52.388 16.9327 -53.9058C18.4442 -55.4235 20.3721 -56.4585 22.4723 -56.8797C24.5724 -57.3008 26.7503 -57.0892 28.7301 -56.2715C30.7099 -55.4539 32.4024 -54.0671 33.5934 -52.2867C34.7843 -50.5064 35.4201 -48.4126 35.4201 -46.2706C35.4201 -43.4087 34.2863 -40.6633 32.2668 -38.6353C30.2473 -36.6074 27.5066 -35.4622 24.6447 -35.4503ZM24.6447 -66.3399C22.5027 -66.331 20.4063 -66.9581 18.621 -68.1416C16.8357 -69.3251 15.4419 -71.0119 14.616 -72.9883C13.7902 -74.9646 13.5695 -77.1416 13.9819 -79.2435C14.3943 -81.3454 15.4213 -83.2776 16.9327 -84.7954C18.4442 -86.3131 20.3721 -87.3481 22.4723 -87.7693C24.5724 -88.1904 26.7503 -87.9788 28.7301 -87.1612C30.7099 -86.3435 32.4024 -84.9567 33.5934 -83.1763C34.7843 -81.396 35.4201 -79.3022 35.4201 -77.1602C35.4201 -74.2983 34.2863 -71.5529 32.2668 -69.5249C30.2473 -67.497 27.5066 -66.3518 24.6447 -66.3399ZM24.6447 -97.2295C22.5008 -97.2206 20.4026 -97.8488 18.6164 -99.0343C16.8301 -100.22 15.4363 -101.909 14.6118 -103.888C13.7872 -105.867 13.5692 -108.047 13.9852 -110.15C14.4013 -112.253 15.4328 -114.185 16.9487 -115.701C18.4647 -117.217 20.3968 -118.248 22.4999 -118.664C24.603 -119.08 26.7823 -118.862 28.7613 -118.038C30.7403 -117.213 32.4297 -115.82 33.6153 -114.033C34.8008 -112.247 35.429 -110.149 35.4201 -108.005C35.4083 -105.151 34.2692 -102.417 32.251 -100.399C30.2328 -98.3804 27.4988 -97.2413 24.6447 -97.2295ZM24.6447 -128.119C22.5008 -128.11 20.4026 -128.738 18.6164 -129.924C16.8301 -131.109 15.4363 -132.799 14.6118 -134.778C13.7872 -136.757 13.5692 -138.936 13.9852 -141.039C14.4013 -143.142 15.4328 -145.075 16.9487 -146.591C18.4647 -148.106 20.3968 -149.138 22.4999 -149.554C24.603 -149.97 26.7823 -149.752 28.7613 -148.927C30.7403 -148.103 32.4297 -146.709 33.6153 -144.923C34.8008 -143.137 35.429 -141.038 35.4201 -138.895C35.4083 -136.04 34.2692 -133.306 32.251 -131.288C30.2328 -129.27 27.4988 -128.131 24.6447 -128.119ZM24.6447 -159.009C22.5135 -159.009 20.4302 -159.641 18.6581 -160.825C16.8861 -162.009 15.505 -163.692 14.6895 -165.661C13.8739 -167.63 13.6605 -169.796 14.0763 -171.886C14.492 -173.977 15.5183 -175.897 17.0253 -177.404C18.5322 -178.911 20.4522 -179.937 22.5425 -180.353C24.6327 -180.768 26.7993 -180.555 28.7682 -179.739C30.7372 -178.924 32.4201 -177.543 33.6041 -175.771C34.7881 -173.999 35.4201 -171.915 35.4201 -169.784C35.4201 -166.926 34.2848 -164.186 32.2641 -162.165C30.2433 -160.144 27.5025 -159.009 24.6447 -159.009Z" fill="white"/>
</mask>
<g mask="url(#mask1_437_1533)">
<path d="M-1.396 -203.323L-1.396 622.795H612.715V-203.323H-1.396ZM24.6447 613.052C22.5008 613.061 20.4026 612.433 18.6164 611.247C16.8301 610.062 15.4363 608.372 14.6118 606.393C13.7872 604.414 13.5692 602.235 13.9852 600.132C14.4013 598.029 15.4328 596.097 16.9487 594.581C18.4647 593.065 20.3968 592.033 22.4999 591.617C24.603 591.201 26.7823 591.419 28.7613 592.244C30.7403 593.068 32.4297 594.462 33.6153 596.248C34.8008 598.034 35.429 600.133 35.4201 602.276C35.4083 605.131 34.2692 607.865 32.251 609.883C30.2328 611.901 27.4988 613.04 24.6447 613.052ZM24.6447 582.162C22.5135 582.162 20.4302 581.53 18.6581 580.346C16.8861 579.162 15.505 577.479 14.6895 575.511C13.8739 573.542 13.6605 571.375 14.0763 569.285C14.492 567.195 15.5183 565.274 17.0253 563.767C18.5322 562.261 20.4522 561.234 22.5425 560.819C24.6327 560.403 26.7993 560.616 28.7682 561.432C30.7372 562.247 32.4201 563.628 33.6041 565.4C34.7881 567.172 35.4201 569.256 35.4201 571.387C35.4201 574.245 34.2848 576.986 32.2641 579.006C30.2433 581.027 27.5025 582.162 24.6447 582.162ZM24.6447 551.273C22.5135 551.273 20.4302 550.641 18.6581 549.457C16.8861 548.273 15.505 546.59 14.6895 544.621C13.8739 542.652 13.6605 540.485 14.0763 538.395C14.492 536.305 15.5183 534.385 17.0253 532.878C18.5322 531.371 20.4522 530.345 22.5425 529.929C24.6327 529.513 26.7993 529.726 28.7682 530.542C30.7372 531.358 32.4201 532.739 33.6041 534.511C34.7881 536.283 35.4201 538.366 35.4201 540.497C35.4201 543.355 34.2848 546.096 32.2641 548.117C30.2433 550.137 27.5025 551.273 24.6447 551.273ZM24.6447 520.428C22.5027 520.437 20.4063 519.81 18.621 518.626C16.8357 517.443 15.4419 515.756 14.616 513.78C13.7902 511.803 13.5695 509.626 13.9819 507.524C14.3943 505.423 15.4213 503.49 16.9327 501.973C18.4442 500.455 20.3721 499.42 22.4723 498.999C24.5724 498.577 26.7503 498.789 28.7301 499.607C30.7099 500.424 32.4024 501.811 33.5934 503.592C34.7843 505.372 35.4201 507.466 35.4201 509.608C35.4201 512.47 34.2863 515.215 32.2668 517.243C30.2473 519.271 27.5066 520.416 24.6447 520.428ZM24.6447 489.538C22.5027 489.547 20.4063 488.92 18.621 487.737C16.8357 486.553 15.4419 484.866 14.616 482.89C13.7902 480.914 13.5695 478.737 13.9819 476.635C14.3943 474.533 15.4213 472.601 16.9327 471.083C18.4442 469.565 20.3721 468.53 22.4723 468.109C24.5724 467.688 26.7503 467.9 28.7301 468.717C30.7099 469.535 32.4024 470.922 33.5934 472.702C34.7843 474.482 35.4201 476.576 35.4201 478.718C35.4201 481.58 34.2863 484.325 32.2668 486.353C30.2473 488.381 27.5066 489.527 24.6447 489.538ZM24.6447 458.649C22.5008 458.658 20.4026 458.03 18.6164 456.844C16.8301 455.658 15.4363 453.969 14.6118 451.99C13.7872 450.011 13.5692 447.832 13.9852 445.729C14.4013 443.625 15.4328 441.693 16.9487 440.177C18.4647 438.661 20.3968 437.63 22.4999 437.214C24.603 436.798 26.7823 437.016 28.7613 437.84C30.7403 438.665 32.4297 440.059 33.6153 441.845C34.8008 443.631 35.429 445.729 35.4201 447.873C35.4083 450.728 34.2692 453.461 32.251 455.48C30.2328 457.498 27.4988 458.637 24.6447 458.649ZM24.6447 427.759C22.5008 427.768 20.4026 427.14 18.6164 425.954C16.8301 424.769 15.4363 423.079 14.6118 421.1C13.7872 419.121 13.5692 416.942 13.9852 414.839C14.4013 412.736 15.4328 410.804 16.9487 409.288C18.4647 407.772 20.3968 406.74 22.4999 406.324C24.603 405.908 26.7823 406.126 28.7613 406.951C30.7403 407.775 32.4297 409.169 33.6153 410.955C34.8008 412.742 35.429 414.84 35.4201 416.984C35.4083 419.838 34.2692 422.572 32.251 424.59C30.2328 426.608 27.4988 427.747 24.6447 427.759ZM24.6447 396.87C22.5135 396.87 20.4302 396.238 18.6581 395.054C16.8861 393.87 15.505 392.187 14.6895 390.218C13.8739 388.249 13.6605 386.082 14.0763 383.992C14.492 381.902 15.5183 379.982 17.0253 378.475C18.5322 376.968 20.4522 375.942 22.5425 375.526C24.6327 375.11 26.7993 375.323 28.7682 376.139C30.7372 376.954 32.4201 378.336 33.6041 380.108C34.7881 381.88 35.4201 383.963 35.4201 386.094C35.4201 388.952 34.2848 391.693 32.2641 393.714C30.2433 395.734 27.5025 396.87 24.6447 396.87ZM24.6447 365.98C22.5135 365.98 20.4302 365.348 18.6581 364.164C16.8861 362.98 15.505 361.297 14.6895 359.328C13.8739 357.359 13.6605 355.193 14.0763 353.102C14.492 351.012 15.5183 349.092 17.0253 347.585C18.5322 346.078 20.4522 345.052 22.5425 344.636C24.6327 344.22 26.7993 344.434 28.7682 345.249C30.7372 346.065 32.4201 347.446 33.6041 349.218C34.7881 350.99 35.4201 353.073 35.4201 355.205C35.4201 358.062 34.2848 360.803 32.2641 362.824C30.2433 364.845 27.5025 365.98 24.6447 365.98ZM24.6447 335.135C22.5027 335.144 20.4063 334.517 18.621 333.334C16.8357 332.15 15.4419 330.463 14.616 328.487C13.7902 326.511 13.5695 324.334 13.9819 322.232C14.3943 320.13 15.4213 318.198 16.9327 316.68C18.4442 315.162 20.3721 314.127 22.4723 313.706C24.5724 313.285 26.7503 313.496 28.7301 314.314C30.7099 315.132 32.4024 316.518 33.5934 318.299C34.7843 320.079 35.4201 322.173 35.4201 324.315C35.4201 327.177 34.2863 329.922 32.2668 331.95C30.2473 333.978 27.5066 335.123 24.6447 335.135ZM24.6447 304.246C22.5027 304.255 20.4063 303.628 18.621 302.444C16.8357 301.26 15.4419 299.574 14.616 297.597C13.7902 295.621 13.5695 293.444 13.9819 291.342C14.3943 289.24 15.4213 287.308 16.9327 285.79C18.4442 284.272 20.3721 283.237 22.4723 282.816C24.5724 282.395 26.7503 282.607 28.7301 283.424C30.7099 284.242 32.4024 285.629 33.5934 287.409C34.7843 289.19 35.4201 291.283 35.4201 293.425C35.4201 296.287 34.2863 299.033 32.2668 301.061C30.2473 303.089 27.5066 304.234 24.6447 304.246ZM24.6447 273.356C22.5008 273.365 20.4026 272.737 18.6164 271.551C16.8301 270.366 15.4363 268.676 14.6118 266.697C13.7872 264.718 13.5692 262.539 13.9852 260.436C14.4013 258.333 15.4328 256.401 16.9487 254.885C18.4647 253.369 20.3968 252.337 22.4999 251.921C24.603 251.505 26.7823 251.723 28.7613 252.548C30.7403 253.372 32.4297 254.766 33.6153 256.552C34.8008 258.339 35.429 260.437 35.4201 262.581C35.4083 265.435 34.2692 268.169 32.251 270.187C30.2328 272.205 27.4988 273.344 24.6447 273.356ZM24.6447 242.466C22.5008 242.475 20.4026 241.847 18.6164 240.662C16.8301 239.476 15.4363 237.787 14.6118 235.808C13.7872 233.829 13.5692 231.649 13.9852 229.546C14.4013 227.443 15.4328 225.511 16.9487 223.995C18.4647 222.479 20.3968 221.448 22.4999 221.032C24.603 220.615 26.7823 220.834 28.7613 221.658C30.7403 222.483 32.4297 223.876 33.6153 225.663C34.8008 227.449 35.429 229.547 35.4201 231.691C35.4083 234.545 34.2692 237.279 32.251 239.297C30.2328 241.316 27.4988 242.455 24.6447 242.466ZM24.6447 211.577C22.5135 211.577 20.4302 210.945 18.6581 209.761C16.8861 208.577 15.505 206.894 14.6895 204.925C13.8739 202.956 13.6605 200.789 14.0763 198.699C14.492 196.609 15.5183 194.689 17.0253 193.182C18.5322 191.675 20.4522 190.649 22.5425 190.233C24.6327 189.817 26.7993 190.031 28.7682 190.846C30.7372 191.662 32.4201 193.043 33.6041 194.815C34.7881 196.587 35.4201 198.67 35.4201 200.801C35.3964 203.644 34.2507 206.361 32.2325 208.363C30.2143 210.364 27.487 211.487 24.6447 211.487V211.577ZM24.6447 180.687C22.5135 180.687 20.4302 180.055 18.6581 178.871C16.8861 177.687 15.505 176.004 14.6895 174.035C13.8739 172.066 13.6605 169.9 14.0763 167.81C14.492 165.719 15.5183 163.799 17.0253 162.292C18.5322 160.785 20.4522 159.759 22.5425 159.343C24.6327 158.928 26.7993 159.141 28.7682 159.957C30.7372 160.772 32.4201 162.153 33.6041 163.925C34.7881 165.697 35.4201 167.781 35.4201 169.912C35.4201 172.77 34.2848 175.51 32.2641 177.531C30.2433 179.552 27.5025 180.687 24.6447 180.687ZM24.6447 149.842C22.5027 149.851 20.4063 149.224 18.621 148.041C16.8357 146.857 15.4419 145.17 14.616 143.194C13.7902 141.218 13.5695 139.041 13.9819 136.939C14.3943 134.837 15.4213 132.905 16.9327 131.387C18.4442 129.869 20.3721 128.834 22.4723 128.413C24.5724 127.992 26.7503 128.204 28.7301 129.021C30.7099 129.839 32.4024 131.226 33.5934 133.006C34.7843 134.786 35.4201 136.88 35.4201 139.022C35.4201 141.884 34.2863 144.63 32.2668 146.657C30.2473 148.685 27.5066 149.831 24.6447 149.842ZM24.6447 118.953C22.4989 118.962 20.399 118.332 18.6118 117.145C16.8246 115.957 15.4308 114.265 14.6076 112.284C13.7845 110.302 13.5691 108.12 13.9888 106.016C14.4086 103.912 15.4445 101.98 16.965 100.466C18.4854 98.9514 20.4218 97.9235 22.5278 97.5126C24.6339 97.1016 26.8146 97.3261 28.7927 98.1575C30.7709 98.989 32.4572 100.39 33.6372 102.182C34.8173 103.974 35.4379 106.077 35.4201 108.222C35.3965 111.069 34.2522 113.791 32.2353 115.8C30.2183 117.808 27.4911 118.941 24.6447 118.953ZM24.6447 88.0633C22.5008 88.0722 20.4026 87.444 18.6164 86.2584C16.8301 85.0729 15.4363 83.3834 14.6118 81.4045C13.7872 79.4255 13.5692 77.2462 13.9852 75.1431C14.4013 73.0399 15.4328 71.1078 16.9487 69.5919C18.4647 68.0759 20.3968 67.0445 22.4999 66.6284C24.603 66.2123 26.7823 66.4304 28.7613 67.2549C30.7403 68.0794 32.4297 69.4733 33.6153 71.2595C34.8008 73.0458 35.429 75.144 35.4201 77.2878C35.4083 80.142 34.2692 82.8759 32.251 84.8941C30.2328 86.9124 27.4988 88.0515 24.6447 88.0633ZM24.6447 57.1736C22.5008 57.1825 20.4026 56.5544 18.6164 55.3688C16.8301 54.1833 15.4363 52.4938 14.6118 50.5149C13.7872 48.5359 13.5692 46.3566 13.9852 44.2534C14.4013 42.1503 15.4328 40.2182 16.9487 38.7023C18.4647 37.1863 20.3968 36.1549 22.4999 35.7388C24.603 35.3227 26.7823 35.5408 28.7613 36.3653C30.7403 37.1898 32.4297 38.5836 33.6153 40.3699C34.8008 42.1562 35.429 44.2543 35.4201 46.3982C35.4083 49.2524 34.2692 51.9863 32.251 54.0045C30.2328 56.0228 27.4988 57.1618 24.6447 57.1736ZM24.6447 26.284C22.5135 26.284 20.4302 25.6521 18.6581 24.4681C16.8861 23.284 15.505 21.6011 14.6895 19.6322C13.8739 17.6632 13.6605 15.4966 14.0763 13.4064C14.492 11.3162 15.5183 9.39617 17.0253 7.8892C18.5322 6.38222 20.4522 5.35597 22.5425 4.9402C24.6327 4.52443 26.7993 4.73782 28.7682 5.55339C30.7372 6.36895 32.4201 7.75007 33.6041 9.52208C34.7881 11.2941 35.4201 13.3774 35.4201 15.5086C35.4201 18.3664 34.2848 21.1072 32.2641 23.128C30.2433 25.1488 27.5025 26.284 24.6447 26.284ZM24.6447 -4.60558C22.5135 -4.60558 20.4302 -5.23754 18.6581 -6.42156C16.8861 -7.60559 15.505 -9.28848 14.6895 -11.2574C13.8739 -13.2264 13.6605 -15.393 14.0763 -17.4832C14.492 -19.5734 15.5183 -21.4934 17.0253 -23.0004C18.5322 -24.5074 20.4522 -25.5336 22.5425 -25.9494C24.6327 -26.3652 26.7993 -26.1518 28.7682 -25.3362C30.7372 -24.5207 32.4201 -23.1396 33.6041 -21.3675C34.7881 -19.5955 35.4201 -17.5122 35.4201 -15.381C35.4201 -12.5232 34.2848 -9.78241 32.2641 -7.76162C30.2433 -5.74084 27.5025 -4.60558 24.6447 -4.60558ZM24.6447 -35.4503C22.5027 -35.4414 20.4063 -36.0684 18.621 -37.252C16.8357 -38.4355 15.4419 -40.1223 14.616 -42.0987C13.7902 -44.075 13.5695 -46.252 13.9819 -48.3539C14.3943 -50.4558 15.4213 -52.388 16.9327 -53.9058C18.4442 -55.4235 20.3721 -56.4585 22.4723 -56.8797C24.5724 -57.3008 26.7503 -57.0892 28.7301 -56.2715C30.7099 -55.4539 32.4024 -54.0671 33.5934 -52.2867C34.7843 -50.5064 35.4201 -48.4126 35.4201 -46.2706C35.4201 -43.4087 34.2863 -40.6633 32.2668 -38.6353C30.2473 -36.6074 27.5066 -35.4622 24.6447 -35.4503ZM24.6447 -66.3399C22.5027 -66.331 20.4063 -66.9581 18.621 -68.1416C16.8357 -69.3251 15.4419 -71.0119 14.616 -72.9883C13.7902 -74.9646 13.5695 -77.1416 13.9819 -79.2435C14.3943 -81.3454 15.4213 -83.2776 16.9327 -84.7954C18.4442 -86.3131 20.3721 -87.3481 22.4723 -87.7693C24.5724 -88.1904 26.7503 -87.9788 28.7301 -87.1612C30.7099 -86.3435 32.4024 -84.9567 33.5934 -83.1763C34.7843 -81.396 35.4201 -79.3022 35.4201 -77.1602C35.4201 -74.2983 34.2863 -71.5529 32.2668 -69.5249C30.2473 -67.497 27.5066 -66.3518 24.6447 -66.3399ZM24.6447 -97.2295C22.5008 -97.2206 20.4026 -97.8488 18.6164 -99.0343C16.8301 -100.22 15.4363 -101.909 14.6118 -103.888C13.7872 -105.867 13.5692 -108.047 13.9852 -110.15C14.4013 -112.253 15.4328 -114.185 16.9487 -115.701C18.4647 -117.217 20.3968 -118.248 22.4999 -118.664C24.603 -119.08 26.7823 -118.862 28.7613 -118.038C30.7403 -117.213 32.4297 -115.82 33.6153 -114.033C34.8008 -112.247 35.429 -110.149 35.4201 -108.005C35.4083 -105.151 34.2692 -102.417 32.251 -100.399C30.2328 -98.3804 27.4988 -97.2413 24.6447 -97.2295ZM24.6447 -128.119C22.5008 -128.11 20.4026 -128.738 18.6164 -129.924C16.8301 -131.109 15.4363 -132.799 14.6118 -134.778C13.7872 -136.757 13.5692 -138.936 13.9852 -141.039C14.4013 -143.142 15.4328 -145.075 16.9487 -146.591C18.4647 -148.106 20.3968 -149.138 22.4999 -149.554C24.603 -149.97 26.7823 -149.752 28.7613 -148.927C30.7403 -148.103 32.4297 -146.709 33.6153 -144.923C34.8008 -143.137 35.429 -141.038 35.4201 -138.895C35.4083 -136.04 34.2692 -133.306 32.251 -131.288C30.2328 -129.27 27.4988 -128.131 24.6447 -128.119ZM24.6447 -159.009C22.5135 -159.009 20.4302 -159.641 18.6581 -160.825C16.8861 -162.009 15.505 -163.692 14.6895 -165.661C13.8739 -167.63 13.6605 -169.796 14.0763 -171.886C14.492 -173.977 15.5183 -175.897 17.0253 -177.404C18.5322 -178.911 20.4522 -179.937 22.5425 -180.353C24.6327 -180.768 26.7993 -180.555 28.7682 -179.739C30.7372 -178.924 32.4201 -177.543 33.6041 -175.771C34.7881 -173.999 35.4201 -171.915 35.4201 -169.784C35.4201 -166.926 34.2848 -164.186 32.2641 -162.165C30.2433 -160.144 27.5025 -159.009 24.6447 -159.009Z" fill="#F2F2F2"/>
<path d="M612.715 0.647461L-1.396 0.647461V2.98214L612.715 2.98214V0.647461Z" fill="#A4B0B6"/>
<path d="M612.715 31.9858L-1.396 31.9858V34.3205L612.715 34.3205V31.9858Z" fill="#A4B0B6"/>
<path d="M612.715 63.2798L-1.396 63.2798V65.6145L612.715 65.6145V63.2798Z" fill="#A4B0B6"/>
<path d="M612.715 94.6182L-1.396 94.6182V96.9528L612.715 96.9528V94.6182Z" fill="#A4B0B6"/>
<path d="M612.715 125.957L-1.396 125.957V128.292H612.715V125.957Z" fill="#A4B0B6"/>
<path d="M612.715 157.25H-1.396V159.585H612.715V157.25Z" fill="#A4B0B6"/>
<path d="M612.715 188.589H-1.396V190.924H612.715V188.589Z" fill="#A4B0B6"/>
<path d="M612.715 219.928H-1.396V222.262H612.715V219.928Z" fill="#A4B0B6"/>
<path d="M612.715 251.221H-1.396V253.556H612.715V251.221Z" fill="#A4B0B6"/>
<path d="M612.715 282.56H-1.396V284.895L612.715 284.895V282.56Z" fill="#A4B0B6"/>
<path d="M612.715 313.899H-1.396V316.234L612.715 316.234V313.899Z" fill="#A4B0B6"/>
<path d="M612.715 345.192H-1.396V347.527L612.715 347.527V345.192Z" fill="#A4B0B6"/>
<path d="M612.715 376.531H-1.396V378.865L612.715 378.865V376.531Z" fill="#A4B0B6"/>
<path d="M612.715 407.87H-1.396V410.204L612.715 410.204V407.87Z" fill="#A4B0B6"/>
<path d="M553.27 -203.323H550.307V631.37H553.27V-203.323Z" fill="#3A97DB"/>
</g>
</g>
<path d="M494.659 145.652C494.902 145.091 495.697 142.083 495.935 140.889C496.46 138.267 496.35 134.594 497.88 133.979C498.95 133.549 501.133 133.936 504.537 134.848C507.529 135.65 511.959 135.553 513.123 137.571C513.74 138.643 511.197 150.115 510.138 150.541C507.072 151.774 500.404 149.408 497.399 148.602" stroke="black" stroke-opacity="0.9" stroke-width="5" stroke-linecap="round" stroke-linejoin="round"/>
<path d="M502.426 131.861C505.507 123.871 511.591 127.006 509.763 133.827" stroke="black" stroke-opacity="0.9" stroke-width="5" stroke-linecap="round" stroke-linejoin="round"/>
<path d="M503.953 144.023C504.042 143.691 504.131 143.358 504.22 143.026" stroke="black" stroke-opacity="0.9" stroke-width="5" stroke-linecap="round" stroke-linejoin="round"/>
<path d="M490.72 163.893C486.067 157.967 478.272 131.137 485.841 120.017C486.297 119.346 503.517 117.187 513.255 109.118C518.104 122.595 530.995 131.63 531.069 132.136C532.828 144.185 508.152 167.069 497.458 169.262" stroke="black" stroke-opacity="0.9" stroke-width="5" stroke-linecap="round" stroke-linejoin="round"/>
<path d="M81.3617 249.514C70.7726 235.691 89.5456 222.914 100.604 233.343C108.598 240.883 102.463 257.128 92.1617 255.34" stroke="black" stroke-opacity="0.9" stroke-width="5" stroke-linecap="round" stroke-linejoin="round"/>
<path d="M81.2258 251.621C77.3316 259.55 72.8625 267.148 68.3348 274.653" stroke="black" stroke-opacity="0.9" stroke-width="5" stroke-linecap="round" stroke-linejoin="round"/>
<path d="M69.3191 276.346C67.2334 284.434 73.1626 280.736 78.0295 278.087" stroke="black" stroke-opacity="0.9" stroke-width="5" stroke-linecap="round" stroke-linejoin="round"/>
<path d="M78.3304 277.916C77.9846 276.625 77.9681 275.237 78.2809 273.749L82.5448 273.183L82.1729 268.044L85.395 267.181L85.0343 262.446L88.789 262.855C89.033 259.076 89.6365 256.452 90.5989 254.983" stroke="black" stroke-opacity="0.9" stroke-width="5" stroke-linecap="round" stroke-linejoin="round"/>
<path d="M91.5695 237.082C92.3881 235.528 93.9437 235.088 95.3009 236.546C100.396 242.016 88.187 245.343 91.3977 237.244" stroke="black" stroke-opacity="0.9" stroke-width="5" stroke-linecap="round" stroke-linejoin="round"/>
<path opacity="0.503384" d="M83.4599 256.569C79.9164 261.51 75.3694 270.002 72.5697 273.518" stroke="black" stroke-opacity="0.9" stroke-width="5" stroke-linecap="round" stroke-linejoin="round"/>
</svg>
