<svg width="609" height="434" viewBox="0 0 609 434" fill="none" xmlns="http://www.w3.org/2000/svg">
<mask id="mask0_439_1650" style="mask-type:alpha" maskUnits="userSpaceOnUse" x="0" y="0" width="609" height="434">
<rect width="609" height="434" fill="#57C3FF"/>
</mask>
<g mask="url(#mask0_439_1650)">
<mask id="mask1_439_1650" style="mask-type:luminance" maskUnits="userSpaceOnUse" x="-2" y="-204" width="615" height="827">
<path d="M-1.39648 -203.323L-1.39648 622.795H612.714V-203.323H-1.39648ZM24.6442 613.052C22.5003 613.061 20.4021 612.433 18.6159 611.247C16.8296 610.062 15.4358 608.372 14.6113 606.393C13.7867 604.414 13.5687 602.235 13.9848 600.132C14.4008 598.029 15.4323 596.097 16.9482 594.581C18.4642 593.065 20.3963 592.033 22.4994 591.617C24.6025 591.201 26.7818 591.419 28.7608 592.244C30.7398 593.068 32.4292 594.462 33.6148 596.248C34.8003 598.034 35.4285 600.133 35.4196 602.276C35.4078 605.131 34.2687 607.865 32.2505 609.883C30.2323 611.901 27.4984 613.04 24.6442 613.052ZM24.6442 582.162C22.513 582.162 20.4297 581.53 18.6577 580.346C16.8856 579.162 15.5045 577.479 14.689 575.511C13.8734 573.542 13.66 571.375 14.0758 569.285C14.4916 567.195 15.5178 565.274 17.0248 563.767C18.5318 562.261 20.4518 561.234 22.542 560.819C24.6322 560.403 26.7988 560.616 28.7678 561.432C30.7367 562.247 32.4196 563.628 33.6036 565.4C34.7876 567.172 35.4196 569.256 35.4196 571.387C35.4196 574.245 34.2844 576.986 32.2636 579.006C30.2428 581.027 27.502 582.162 24.6442 582.162ZM24.6442 551.273C22.513 551.273 20.4297 550.641 18.6577 549.457C16.8856 548.273 15.5045 546.59 14.689 544.621C13.8734 542.652 13.66 540.485 14.0758 538.395C14.4916 536.305 15.5178 534.385 17.0248 532.878C18.5318 531.371 20.4518 530.345 22.542 529.929C24.6322 529.513 26.7988 529.726 28.7678 530.542C30.7367 531.358 32.4196 532.739 33.6036 534.511C34.7876 536.283 35.4196 538.366 35.4196 540.497C35.4196 543.355 34.2844 546.096 32.2636 548.117C30.2428 550.137 27.502 551.273 24.6442 551.273ZM24.6442 520.428C22.5022 520.437 20.4058 519.81 18.6205 518.626C16.8352 517.443 15.4414 515.756 14.6155 513.78C13.7897 511.803 13.569 509.626 13.9814 507.524C14.3938 505.423 15.4208 503.49 16.9323 501.973C18.4437 500.455 20.3716 499.42 22.4718 498.999C24.5719 498.577 26.7498 498.789 28.7296 499.607C30.7094 500.424 32.4019 501.811 33.5929 503.592C34.7839 505.372 35.4196 507.466 35.4196 509.608C35.4196 512.47 34.2858 515.215 32.2663 517.243C30.2468 519.271 27.5061 520.416 24.6442 520.428ZM24.6442 489.538C22.5022 489.547 20.4058 488.92 18.6205 487.737C16.8352 486.553 15.4414 484.866 14.6155 482.89C13.7897 480.914 13.569 478.737 13.9814 476.635C14.3938 474.533 15.4208 472.601 16.9323 471.083C18.4437 469.565 20.3716 468.53 22.4718 468.109C24.5719 467.688 26.7498 467.9 28.7296 468.717C30.7094 469.535 32.4019 470.922 33.5929 472.702C34.7839 474.482 35.4196 476.576 35.4196 478.718C35.4196 481.58 34.2858 484.325 32.2663 486.353C30.2468 488.381 27.5061 489.527 24.6442 489.538ZM24.6442 458.649C22.5003 458.658 20.4021 458.03 18.6159 456.844C16.8296 455.658 15.4358 453.969 14.6113 451.99C13.7867 450.011 13.5687 447.832 13.9848 445.729C14.4008 443.625 15.4323 441.693 16.9482 440.177C18.4642 438.661 20.3963 437.63 22.4994 437.214C24.6025 436.798 26.7818 437.016 28.7608 437.84C30.7398 438.665 32.4292 440.059 33.6148 441.845C34.8003 443.631 35.4285 445.729 35.4196 447.873C35.4078 450.728 34.2687 453.461 32.2505 455.48C30.2323 457.498 27.4984 458.637 24.6442 458.649ZM24.6442 427.759C22.5003 427.768 20.4021 427.14 18.6159 425.954C16.8296 424.769 15.4358 423.079 14.6113 421.1C13.7867 419.121 13.5687 416.942 13.9848 414.839C14.4008 412.736 15.4323 410.804 16.9482 409.288C18.4642 407.772 20.3963 406.74 22.4994 406.324C24.6025 405.908 26.7818 406.126 28.7608 406.951C30.7398 407.775 32.4292 409.169 33.6148 410.955C34.8003 412.742 35.4285 414.84 35.4196 416.984C35.4078 419.838 34.2687 422.572 32.2505 424.59C30.2323 426.608 27.4984 427.747 24.6442 427.759ZM24.6442 396.87C22.513 396.87 20.4297 396.238 18.6577 395.054C16.8856 393.87 15.5045 392.187 14.689 390.218C13.8734 388.249 13.66 386.082 14.0758 383.992C14.4916 381.902 15.5178 379.982 17.0248 378.475C18.5318 376.968 20.4518 375.942 22.542 375.526C24.6322 375.11 26.7988 375.323 28.7678 376.139C30.7367 376.954 32.4196 378.336 33.6036 380.108C34.7876 381.88 35.4196 383.963 35.4196 386.094C35.4196 388.952 34.2844 391.693 32.2636 393.714C30.2428 395.734 27.502 396.87 24.6442 396.87ZM24.6442 365.98C22.513 365.98 20.4297 365.348 18.6577 364.164C16.8856 362.98 15.5045 361.297 14.689 359.328C13.8734 357.359 13.66 355.193 14.0758 353.102C14.4916 351.012 15.5178 349.092 17.0248 347.585C18.5318 346.078 20.4518 345.052 22.542 344.636C24.6322 344.22 26.7988 344.434 28.7678 345.249C30.7367 346.065 32.4196 347.446 33.6036 349.218C34.7876 350.99 35.4196 353.073 35.4196 355.205C35.4196 358.062 34.2844 360.803 32.2636 362.824C30.2428 364.845 27.502 365.98 24.6442 365.98ZM24.6442 335.135C22.5022 335.144 20.4058 334.517 18.6205 333.334C16.8352 332.15 15.4414 330.463 14.6155 328.487C13.7897 326.511 13.569 324.334 13.9814 322.232C14.3938 320.13 15.4208 318.198 16.9323 316.68C18.4437 315.162 20.3716 314.127 22.4718 313.706C24.5719 313.285 26.7498 313.496 28.7296 314.314C30.7094 315.132 32.4019 316.518 33.5929 318.299C34.7839 320.079 35.4196 322.173 35.4196 324.315C35.4196 327.177 34.2858 329.922 32.2663 331.95C30.2468 333.978 27.5061 335.123 24.6442 335.135ZM24.6442 304.246C22.5022 304.255 20.4058 303.628 18.6205 302.444C16.8352 301.26 15.4414 299.574 14.6155 297.597C13.7897 295.621 13.569 293.444 13.9814 291.342C14.3938 289.24 15.4208 287.308 16.9323 285.79C18.4437 284.272 20.3716 283.237 22.4718 282.816C24.5719 282.395 26.7498 282.607 28.7296 283.424C30.7094 284.242 32.4019 285.629 33.5929 287.409C34.7839 289.19 35.4196 291.283 35.4196 293.425C35.4196 296.287 34.2858 299.033 32.2663 301.061C30.2468 303.089 27.5061 304.234 24.6442 304.246ZM24.6442 273.356C22.5003 273.365 20.4021 272.737 18.6159 271.551C16.8296 270.366 15.4358 268.676 14.6113 266.697C13.7867 264.718 13.5687 262.539 13.9848 260.436C14.4008 258.333 15.4323 256.401 16.9482 254.885C18.4642 253.369 20.3963 252.337 22.4994 251.921C24.6025 251.505 26.7818 251.723 28.7608 252.548C30.7398 253.372 32.4292 254.766 33.6148 256.552C34.8003 258.339 35.4285 260.437 35.4196 262.581C35.4078 265.435 34.2687 268.169 32.2505 270.187C30.2323 272.205 27.4984 273.344 24.6442 273.356ZM24.6442 242.466C22.5003 242.475 20.4021 241.847 18.6159 240.662C16.8296 239.476 15.4358 237.787 14.6113 235.808C13.7867 233.829 13.5687 231.649 13.9848 229.546C14.4008 227.443 15.4323 225.511 16.9482 223.995C18.4642 222.479 20.3963 221.448 22.4994 221.032C24.6025 220.615 26.7818 220.834 28.7608 221.658C30.7398 222.483 32.4292 223.876 33.6148 225.663C34.8003 227.449 35.4285 229.547 35.4196 231.691C35.4078 234.545 34.2687 237.279 32.2505 239.297C30.2323 241.316 27.4984 242.455 24.6442 242.466ZM24.6442 211.577C22.513 211.577 20.4297 210.945 18.6577 209.761C16.8856 208.577 15.5045 206.894 14.689 204.925C13.8734 202.956 13.66 200.789 14.0758 198.699C14.4916 196.609 15.5178 194.689 17.0248 193.182C18.5318 191.675 20.4518 190.649 22.542 190.233C24.6322 189.817 26.7988 190.031 28.7678 190.846C30.7367 191.662 32.4196 193.043 33.6036 194.815C34.7876 196.587 35.4196 198.67 35.4196 200.801C35.3959 203.644 34.2502 206.361 32.232 208.363C30.2138 210.364 27.4865 211.487 24.6442 211.487V211.577ZM24.6442 180.687C22.513 180.687 20.4297 180.055 18.6577 178.871C16.8856 177.687 15.5045 176.004 14.689 174.035C13.8734 172.066 13.66 169.9 14.0758 167.81C14.4916 165.719 15.5178 163.799 17.0248 162.292C18.5318 160.785 20.4518 159.759 22.542 159.343C24.6322 158.928 26.7988 159.141 28.7678 159.957C30.7367 160.772 32.4196 162.153 33.6036 163.925C34.7876 165.697 35.4196 167.781 35.4196 169.912C35.4196 172.77 34.2844 175.51 32.2636 177.531C30.2428 179.552 27.502 180.687 24.6442 180.687ZM24.6442 149.842C22.5022 149.851 20.4058 149.224 18.6205 148.041C16.8352 146.857 15.4414 145.17 14.6155 143.194C13.7897 141.218 13.569 139.041 13.9814 136.939C14.3938 134.837 15.4208 132.905 16.9323 131.387C18.4437 129.869 20.3716 128.834 22.4718 128.413C24.5719 127.992 26.7498 128.204 28.7296 129.021C30.7094 129.839 32.4019 131.226 33.5929 133.006C34.7839 134.786 35.4196 136.88 35.4196 139.022C35.4196 141.884 34.2858 144.63 32.2663 146.657C30.2468 148.685 27.5061 149.831 24.6442 149.842ZM24.6442 118.953C22.4984 118.962 20.3985 118.332 18.6113 117.145C16.8241 115.957 15.4303 114.265 14.6072 112.284C13.784 110.302 13.5686 108.12 13.9883 106.016C14.4081 103.912 15.444 101.98 16.9645 100.466C18.485 98.9514 20.4213 97.9235 22.5273 97.5126C24.6334 97.1016 26.8141 97.3261 28.7922 98.1575C30.7704 98.989 32.4567 100.39 33.6367 102.182C34.8168 103.974 35.4374 106.077 35.4196 108.222C35.396 111.069 34.2518 113.791 32.2348 115.8C30.2178 117.808 27.4906 118.941 24.6442 118.953ZM24.6442 88.0633C22.5003 88.0722 20.4021 87.444 18.6159 86.2584C16.8296 85.0729 15.4358 83.3834 14.6113 81.4045C13.7867 79.4255 13.5687 77.2462 13.9848 75.1431C14.4008 73.0399 15.4323 71.1078 16.9482 69.5919C18.4642 68.0759 20.3963 67.0445 22.4994 66.6284C24.6025 66.2123 26.7818 66.4304 28.7608 67.2549C30.7398 68.0794 32.4292 69.4733 33.6148 71.2595C34.8003 73.0458 35.4285 75.144 35.4196 77.2878C35.4078 80.142 34.2687 82.8759 32.2505 84.8941C30.2323 86.9124 27.4984 88.0515 24.6442 88.0633ZM24.6442 57.1736C22.5003 57.1825 20.4021 56.5544 18.6159 55.3688C16.8296 54.1833 15.4358 52.4938 14.6113 50.5149C13.7867 48.5359 13.5687 46.3566 13.9848 44.2534C14.4008 42.1503 15.4323 40.2182 16.9482 38.7023C18.4642 37.1863 20.3963 36.1549 22.4994 35.7388C24.6025 35.3227 26.7818 35.5408 28.7608 36.3653C30.7398 37.1898 32.4292 38.5836 33.6148 40.3699C34.8003 42.1562 35.4285 44.2543 35.4196 46.3982C35.4078 49.2524 34.2687 51.9863 32.2505 54.0045C30.2323 56.0228 27.4984 57.1618 24.6442 57.1736ZM24.6442 26.284C22.513 26.284 20.4297 25.6521 18.6577 24.4681C16.8856 23.284 15.5045 21.6011 14.689 19.6322C13.8734 17.6632 13.66 15.4966 14.0758 13.4064C14.4916 11.3162 15.5178 9.39617 17.0248 7.8892C18.5318 6.38222 20.4518 5.35597 22.542 4.9402C24.6322 4.52443 26.7988 4.73782 28.7678 5.55339C30.7367 6.36895 32.4196 7.75007 33.6036 9.52208C34.7876 11.2941 35.4196 13.3774 35.4196 15.5086C35.4196 18.3664 34.2844 21.1072 32.2636 23.128C30.2428 25.1488 27.502 26.284 24.6442 26.284ZM24.6442 -4.60558C22.513 -4.60558 20.4297 -5.23754 18.6577 -6.42156C16.8856 -7.60559 15.5045 -9.28848 14.689 -11.2574C13.8734 -13.2264 13.66 -15.393 14.0758 -17.4832C14.4916 -19.5734 15.5178 -21.4934 17.0248 -23.0004C18.5318 -24.5074 20.4518 -25.5336 22.542 -25.9494C24.6322 -26.3652 26.7988 -26.1518 28.7678 -25.3362C30.7367 -24.5207 32.4196 -23.1396 33.6036 -21.3675C34.7876 -19.5955 35.4196 -17.5122 35.4196 -15.381C35.4196 -12.5232 34.2844 -9.78241 32.2636 -7.76162C30.2428 -5.74084 27.502 -4.60558 24.6442 -4.60558ZM24.6442 -35.4503C22.5022 -35.4414 20.4058 -36.0684 18.6205 -37.252C16.8352 -38.4355 15.4414 -40.1223 14.6155 -42.0987C13.7897 -44.075 13.569 -46.252 13.9814 -48.3539C14.3938 -50.4558 15.4208 -52.388 16.9323 -53.9058C18.4437 -55.4235 20.3716 -56.4585 22.4718 -56.8797C24.5719 -57.3008 26.7498 -57.0892 28.7296 -56.2715C30.7094 -55.4539 32.4019 -54.0671 33.5929 -52.2867C34.7839 -50.5064 35.4196 -48.4126 35.4196 -46.2706C35.4196 -43.4087 34.2858 -40.6633 32.2663 -38.6353C30.2468 -36.6074 27.5061 -35.4622 24.6442 -35.4503ZM24.6442 -66.3399C22.5022 -66.331 20.4058 -66.9581 18.6205 -68.1416C16.8352 -69.3251 15.4414 -71.0119 14.6155 -72.9883C13.7897 -74.9646 13.569 -77.1416 13.9814 -79.2435C14.3938 -81.3454 15.4208 -83.2776 16.9323 -84.7954C18.4437 -86.3131 20.3716 -87.3481 22.4718 -87.7693C24.5719 -88.1904 26.7498 -87.9788 28.7296 -87.1612C30.7094 -86.3435 32.4019 -84.9567 33.5929 -83.1763C34.7839 -81.396 35.4196 -79.3022 35.4196 -77.1602C35.4196 -74.2983 34.2858 -71.5529 32.2663 -69.5249C30.2468 -67.497 27.5061 -66.3518 24.6442 -66.3399ZM24.6442 -97.2295C22.5003 -97.2206 20.4021 -97.8488 18.6159 -99.0343C16.8296 -100.22 15.4358 -101.909 14.6113 -103.888C13.7867 -105.867 13.5687 -108.047 13.9848 -110.15C14.4008 -112.253 15.4323 -114.185 16.9482 -115.701C18.4642 -117.217 20.3963 -118.248 22.4994 -118.664C24.6025 -119.08 26.7818 -118.862 28.7608 -118.038C30.7398 -117.213 32.4292 -115.82 33.6148 -114.033C34.8003 -112.247 35.4285 -110.149 35.4196 -108.005C35.4078 -105.151 34.2687 -102.417 32.2505 -100.399C30.2323 -98.3804 27.4984 -97.2413 24.6442 -97.2295ZM24.6442 -128.119C22.5003 -128.11 20.4021 -128.738 18.6159 -129.924C16.8296 -131.109 15.4358 -132.799 14.6113 -134.778C13.7867 -136.757 13.5687 -138.936 13.9848 -141.039C14.4008 -143.142 15.4323 -145.075 16.9482 -146.591C18.4642 -148.106 20.3963 -149.138 22.4994 -149.554C24.6025 -149.97 26.7818 -149.752 28.7608 -148.927C30.7398 -148.103 32.4292 -146.709 33.6148 -144.923C34.8003 -143.137 35.4285 -141.038 35.4196 -138.895C35.4078 -136.04 34.2687 -133.306 32.2505 -131.288C30.2323 -129.27 27.4984 -128.131 24.6442 -128.119ZM24.6442 -159.009C22.513 -159.009 20.4297 -159.641 18.6577 -160.825C16.8856 -162.009 15.5045 -163.692 14.689 -165.661C13.8734 -167.63 13.66 -169.796 14.0758 -171.886C14.4916 -173.977 15.5178 -175.897 17.0248 -177.404C18.5318 -178.911 20.4518 -179.937 22.542 -180.353C24.6322 -180.768 26.7988 -180.555 28.7678 -179.739C30.7367 -178.924 32.4196 -177.543 33.6036 -175.771C34.7876 -173.999 35.4196 -171.915 35.4196 -169.784C35.4196 -166.926 34.2844 -164.186 32.2636 -162.165C30.2428 -160.144 27.502 -159.009 24.6442 -159.009Z" fill="white"/>
</mask>
<g mask="url(#mask1_439_1650)">
<path d="M-1.39648 -203.323L-1.39648 622.795H612.714V-203.323H-1.39648ZM24.6442 613.052C22.5003 613.061 20.4021 612.433 18.6159 611.247C16.8296 610.062 15.4358 608.372 14.6113 606.393C13.7867 604.414 13.5687 602.235 13.9848 600.132C14.4008 598.029 15.4323 596.097 16.9482 594.581C18.4642 593.065 20.3963 592.033 22.4994 591.617C24.6025 591.201 26.7818 591.419 28.7608 592.244C30.7398 593.068 32.4292 594.462 33.6148 596.248C34.8003 598.034 35.4285 600.133 35.4196 602.276C35.4078 605.131 34.2687 607.865 32.2505 609.883C30.2323 611.901 27.4984 613.04 24.6442 613.052ZM24.6442 582.162C22.513 582.162 20.4297 581.53 18.6577 580.346C16.8856 579.162 15.5045 577.479 14.689 575.511C13.8734 573.542 13.66 571.375 14.0758 569.285C14.4916 567.195 15.5178 565.274 17.0248 563.767C18.5318 562.261 20.4518 561.234 22.542 560.819C24.6322 560.403 26.7988 560.616 28.7678 561.432C30.7367 562.247 32.4196 563.628 33.6036 565.4C34.7876 567.172 35.4196 569.256 35.4196 571.387C35.4196 574.245 34.2844 576.986 32.2636 579.006C30.2428 581.027 27.502 582.162 24.6442 582.162ZM24.6442 551.273C22.513 551.273 20.4297 550.641 18.6577 549.457C16.8856 548.273 15.5045 546.59 14.689 544.621C13.8734 542.652 13.66 540.485 14.0758 538.395C14.4916 536.305 15.5178 534.385 17.0248 532.878C18.5318 531.371 20.4518 530.345 22.542 529.929C24.6322 529.513 26.7988 529.726 28.7678 530.542C30.7367 531.358 32.4196 532.739 33.6036 534.511C34.7876 536.283 35.4196 538.366 35.4196 540.497C35.4196 543.355 34.2844 546.096 32.2636 548.117C30.2428 550.137 27.502 551.273 24.6442 551.273ZM24.6442 520.428C22.5022 520.437 20.4058 519.81 18.6205 518.626C16.8352 517.443 15.4414 515.756 14.6155 513.78C13.7897 511.803 13.569 509.626 13.9814 507.524C14.3938 505.423 15.4208 503.49 16.9323 501.973C18.4437 500.455 20.3716 499.42 22.4718 498.999C24.5719 498.577 26.7498 498.789 28.7296 499.607C30.7094 500.424 32.4019 501.811 33.5929 503.592C34.7839 505.372 35.4196 507.466 35.4196 509.608C35.4196 512.47 34.2858 515.215 32.2663 517.243C30.2468 519.271 27.5061 520.416 24.6442 520.428ZM24.6442 489.538C22.5022 489.547 20.4058 488.92 18.6205 487.737C16.8352 486.553 15.4414 484.866 14.6155 482.89C13.7897 480.914 13.569 478.737 13.9814 476.635C14.3938 474.533 15.4208 472.601 16.9323 471.083C18.4437 469.565 20.3716 468.53 22.4718 468.109C24.5719 467.688 26.7498 467.9 28.7296 468.717C30.7094 469.535 32.4019 470.922 33.5929 472.702C34.7839 474.482 35.4196 476.576 35.4196 478.718C35.4196 481.58 34.2858 484.325 32.2663 486.353C30.2468 488.381 27.5061 489.527 24.6442 489.538ZM24.6442 458.649C22.5003 458.658 20.4021 458.03 18.6159 456.844C16.8296 455.658 15.4358 453.969 14.6113 451.99C13.7867 450.011 13.5687 447.832 13.9848 445.729C14.4008 443.625 15.4323 441.693 16.9482 440.177C18.4642 438.661 20.3963 437.63 22.4994 437.214C24.6025 436.798 26.7818 437.016 28.7608 437.84C30.7398 438.665 32.4292 440.059 33.6148 441.845C34.8003 443.631 35.4285 445.729 35.4196 447.873C35.4078 450.728 34.2687 453.461 32.2505 455.48C30.2323 457.498 27.4984 458.637 24.6442 458.649ZM24.6442 427.759C22.5003 427.768 20.4021 427.14 18.6159 425.954C16.8296 424.769 15.4358 423.079 14.6113 421.1C13.7867 419.121 13.5687 416.942 13.9848 414.839C14.4008 412.736 15.4323 410.804 16.9482 409.288C18.4642 407.772 20.3963 406.74 22.4994 406.324C24.6025 405.908 26.7818 406.126 28.7608 406.951C30.7398 407.775 32.4292 409.169 33.6148 410.955C34.8003 412.742 35.4285 414.84 35.4196 416.984C35.4078 419.838 34.2687 422.572 32.2505 424.59C30.2323 426.608 27.4984 427.747 24.6442 427.759ZM24.6442 396.87C22.513 396.87 20.4297 396.238 18.6577 395.054C16.8856 393.87 15.5045 392.187 14.689 390.218C13.8734 388.249 13.66 386.082 14.0758 383.992C14.4916 381.902 15.5178 379.982 17.0248 378.475C18.5318 376.968 20.4518 375.942 22.542 375.526C24.6322 375.11 26.7988 375.323 28.7678 376.139C30.7367 376.954 32.4196 378.336 33.6036 380.108C34.7876 381.88 35.4196 383.963 35.4196 386.094C35.4196 388.952 34.2844 391.693 32.2636 393.714C30.2428 395.734 27.502 396.87 24.6442 396.87ZM24.6442 365.98C22.513 365.98 20.4297 365.348 18.6577 364.164C16.8856 362.98 15.5045 361.297 14.689 359.328C13.8734 357.359 13.66 355.193 14.0758 353.102C14.4916 351.012 15.5178 349.092 17.0248 347.585C18.5318 346.078 20.4518 345.052 22.542 344.636C24.6322 344.22 26.7988 344.434 28.7678 345.249C30.7367 346.065 32.4196 347.446 33.6036 349.218C34.7876 350.99 35.4196 353.073 35.4196 355.205C35.4196 358.062 34.2844 360.803 32.2636 362.824C30.2428 364.845 27.502 365.98 24.6442 365.98ZM24.6442 335.135C22.5022 335.144 20.4058 334.517 18.6205 333.334C16.8352 332.15 15.4414 330.463 14.6155 328.487C13.7897 326.511 13.569 324.334 13.9814 322.232C14.3938 320.13 15.4208 318.198 16.9323 316.68C18.4437 315.162 20.3716 314.127 22.4718 313.706C24.5719 313.285 26.7498 313.496 28.7296 314.314C30.7094 315.132 32.4019 316.518 33.5929 318.299C34.7839 320.079 35.4196 322.173 35.4196 324.315C35.4196 327.177 34.2858 329.922 32.2663 331.95C30.2468 333.978 27.5061 335.123 24.6442 335.135ZM24.6442 304.246C22.5022 304.255 20.4058 303.628 18.6205 302.444C16.8352 301.26 15.4414 299.574 14.6155 297.597C13.7897 295.621 13.569 293.444 13.9814 291.342C14.3938 289.24 15.4208 287.308 16.9323 285.79C18.4437 284.272 20.3716 283.237 22.4718 282.816C24.5719 282.395 26.7498 282.607 28.7296 283.424C30.7094 284.242 32.4019 285.629 33.5929 287.409C34.7839 289.19 35.4196 291.283 35.4196 293.425C35.4196 296.287 34.2858 299.033 32.2663 301.061C30.2468 303.089 27.5061 304.234 24.6442 304.246ZM24.6442 273.356C22.5003 273.365 20.4021 272.737 18.6159 271.551C16.8296 270.366 15.4358 268.676 14.6113 266.697C13.7867 264.718 13.5687 262.539 13.9848 260.436C14.4008 258.333 15.4323 256.401 16.9482 254.885C18.4642 253.369 20.3963 252.337 22.4994 251.921C24.6025 251.505 26.7818 251.723 28.7608 252.548C30.7398 253.372 32.4292 254.766 33.6148 256.552C34.8003 258.339 35.4285 260.437 35.4196 262.581C35.4078 265.435 34.2687 268.169 32.2505 270.187C30.2323 272.205 27.4984 273.344 24.6442 273.356ZM24.6442 242.466C22.5003 242.475 20.4021 241.847 18.6159 240.662C16.8296 239.476 15.4358 237.787 14.6113 235.808C13.7867 233.829 13.5687 231.649 13.9848 229.546C14.4008 227.443 15.4323 225.511 16.9482 223.995C18.4642 222.479 20.3963 221.448 22.4994 221.032C24.6025 220.615 26.7818 220.834 28.7608 221.658C30.7398 222.483 32.4292 223.876 33.6148 225.663C34.8003 227.449 35.4285 229.547 35.4196 231.691C35.4078 234.545 34.2687 237.279 32.2505 239.297C30.2323 241.316 27.4984 242.455 24.6442 242.466ZM24.6442 211.577C22.513 211.577 20.4297 210.945 18.6577 209.761C16.8856 208.577 15.5045 206.894 14.689 204.925C13.8734 202.956 13.66 200.789 14.0758 198.699C14.4916 196.609 15.5178 194.689 17.0248 193.182C18.5318 191.675 20.4518 190.649 22.542 190.233C24.6322 189.817 26.7988 190.031 28.7678 190.846C30.7367 191.662 32.4196 193.043 33.6036 194.815C34.7876 196.587 35.4196 198.67 35.4196 200.801C35.3959 203.644 34.2502 206.361 32.232 208.363C30.2138 210.364 27.4865 211.487 24.6442 211.487V211.577ZM24.6442 180.687C22.513 180.687 20.4297 180.055 18.6577 178.871C16.8856 177.687 15.5045 176.004 14.689 174.035C13.8734 172.066 13.66 169.9 14.0758 167.81C14.4916 165.719 15.5178 163.799 17.0248 162.292C18.5318 160.785 20.4518 159.759 22.542 159.343C24.6322 158.928 26.7988 159.141 28.7678 159.957C30.7367 160.772 32.4196 162.153 33.6036 163.925C34.7876 165.697 35.4196 167.781 35.4196 169.912C35.4196 172.77 34.2844 175.51 32.2636 177.531C30.2428 179.552 27.502 180.687 24.6442 180.687ZM24.6442 149.842C22.5022 149.851 20.4058 149.224 18.6205 148.041C16.8352 146.857 15.4414 145.17 14.6155 143.194C13.7897 141.218 13.569 139.041 13.9814 136.939C14.3938 134.837 15.4208 132.905 16.9323 131.387C18.4437 129.869 20.3716 128.834 22.4718 128.413C24.5719 127.992 26.7498 128.204 28.7296 129.021C30.7094 129.839 32.4019 131.226 33.5929 133.006C34.7839 134.786 35.4196 136.88 35.4196 139.022C35.4196 141.884 34.2858 144.63 32.2663 146.657C30.2468 148.685 27.5061 149.831 24.6442 149.842ZM24.6442 118.953C22.4984 118.962 20.3985 118.332 18.6113 117.145C16.8241 115.957 15.4303 114.265 14.6072 112.284C13.784 110.302 13.5686 108.12 13.9883 106.016C14.4081 103.912 15.444 101.98 16.9645 100.466C18.485 98.9514 20.4213 97.9235 22.5273 97.5126C24.6334 97.1016 26.8141 97.3261 28.7922 98.1575C30.7704 98.989 32.4567 100.39 33.6367 102.182C34.8168 103.974 35.4374 106.077 35.4196 108.222C35.396 111.069 34.2518 113.791 32.2348 115.8C30.2178 117.808 27.4906 118.941 24.6442 118.953ZM24.6442 88.0633C22.5003 88.0722 20.4021 87.444 18.6159 86.2584C16.8296 85.0729 15.4358 83.3834 14.6113 81.4045C13.7867 79.4255 13.5687 77.2462 13.9848 75.1431C14.4008 73.0399 15.4323 71.1078 16.9482 69.5919C18.4642 68.0759 20.3963 67.0445 22.4994 66.6284C24.6025 66.2123 26.7818 66.4304 28.7608 67.2549C30.7398 68.0794 32.4292 69.4733 33.6148 71.2595C34.8003 73.0458 35.4285 75.144 35.4196 77.2878C35.4078 80.142 34.2687 82.8759 32.2505 84.8941C30.2323 86.9124 27.4984 88.0515 24.6442 88.0633ZM24.6442 57.1736C22.5003 57.1825 20.4021 56.5544 18.6159 55.3688C16.8296 54.1833 15.4358 52.4938 14.6113 50.5149C13.7867 48.5359 13.5687 46.3566 13.9848 44.2534C14.4008 42.1503 15.4323 40.2182 16.9482 38.7023C18.4642 37.1863 20.3963 36.1549 22.4994 35.7388C24.6025 35.3227 26.7818 35.5408 28.7608 36.3653C30.7398 37.1898 32.4292 38.5836 33.6148 40.3699C34.8003 42.1562 35.4285 44.2543 35.4196 46.3982C35.4078 49.2524 34.2687 51.9863 32.2505 54.0045C30.2323 56.0228 27.4984 57.1618 24.6442 57.1736ZM24.6442 26.284C22.513 26.284 20.4297 25.6521 18.6577 24.4681C16.8856 23.284 15.5045 21.6011 14.689 19.6322C13.8734 17.6632 13.66 15.4966 14.0758 13.4064C14.4916 11.3162 15.5178 9.39617 17.0248 7.8892C18.5318 6.38222 20.4518 5.35597 22.542 4.9402C24.6322 4.52443 26.7988 4.73782 28.7678 5.55339C30.7367 6.36895 32.4196 7.75007 33.6036 9.52208C34.7876 11.2941 35.4196 13.3774 35.4196 15.5086C35.4196 18.3664 34.2844 21.1072 32.2636 23.128C30.2428 25.1488 27.502 26.284 24.6442 26.284ZM24.6442 -4.60558C22.513 -4.60558 20.4297 -5.23754 18.6577 -6.42156C16.8856 -7.60559 15.5045 -9.28848 14.689 -11.2574C13.8734 -13.2264 13.66 -15.393 14.0758 -17.4832C14.4916 -19.5734 15.5178 -21.4934 17.0248 -23.0004C18.5318 -24.5074 20.4518 -25.5336 22.542 -25.9494C24.6322 -26.3652 26.7988 -26.1518 28.7678 -25.3362C30.7367 -24.5207 32.4196 -23.1396 33.6036 -21.3675C34.7876 -19.5955 35.4196 -17.5122 35.4196 -15.381C35.4196 -12.5232 34.2844 -9.78241 32.2636 -7.76162C30.2428 -5.74084 27.502 -4.60558 24.6442 -4.60558ZM24.6442 -35.4503C22.5022 -35.4414 20.4058 -36.0684 18.6205 -37.252C16.8352 -38.4355 15.4414 -40.1223 14.6155 -42.0987C13.7897 -44.075 13.569 -46.252 13.9814 -48.3539C14.3938 -50.4558 15.4208 -52.388 16.9323 -53.9058C18.4437 -55.4235 20.3716 -56.4585 22.4718 -56.8797C24.5719 -57.3008 26.7498 -57.0892 28.7296 -56.2715C30.7094 -55.4539 32.4019 -54.0671 33.5929 -52.2867C34.7839 -50.5064 35.4196 -48.4126 35.4196 -46.2706C35.4196 -43.4087 34.2858 -40.6633 32.2663 -38.6353C30.2468 -36.6074 27.5061 -35.4622 24.6442 -35.4503ZM24.6442 -66.3399C22.5022 -66.331 20.4058 -66.9581 18.6205 -68.1416C16.8352 -69.3251 15.4414 -71.0119 14.6155 -72.9883C13.7897 -74.9646 13.569 -77.1416 13.9814 -79.2435C14.3938 -81.3454 15.4208 -83.2776 16.9323 -84.7954C18.4437 -86.3131 20.3716 -87.3481 22.4718 -87.7693C24.5719 -88.1904 26.7498 -87.9788 28.7296 -87.1612C30.7094 -86.3435 32.4019 -84.9567 33.5929 -83.1763C34.7839 -81.396 35.4196 -79.3022 35.4196 -77.1602C35.4196 -74.2983 34.2858 -71.5529 32.2663 -69.5249C30.2468 -67.497 27.5061 -66.3518 24.6442 -66.3399ZM24.6442 -97.2295C22.5003 -97.2206 20.4021 -97.8488 18.6159 -99.0343C16.8296 -100.22 15.4358 -101.909 14.6113 -103.888C13.7867 -105.867 13.5687 -108.047 13.9848 -110.15C14.4008 -112.253 15.4323 -114.185 16.9482 -115.701C18.4642 -117.217 20.3963 -118.248 22.4994 -118.664C24.6025 -119.08 26.7818 -118.862 28.7608 -118.038C30.7398 -117.213 32.4292 -115.82 33.6148 -114.033C34.8003 -112.247 35.4285 -110.149 35.4196 -108.005C35.4078 -105.151 34.2687 -102.417 32.2505 -100.399C30.2323 -98.3804 27.4984 -97.2413 24.6442 -97.2295ZM24.6442 -128.119C22.5003 -128.11 20.4021 -128.738 18.6159 -129.924C16.8296 -131.109 15.4358 -132.799 14.6113 -134.778C13.7867 -136.757 13.5687 -138.936 13.9848 -141.039C14.4008 -143.142 15.4323 -145.075 16.9482 -146.591C18.4642 -148.106 20.3963 -149.138 22.4994 -149.554C24.6025 -149.97 26.7818 -149.752 28.7608 -148.927C30.7398 -148.103 32.4292 -146.709 33.6148 -144.923C34.8003 -143.137 35.4285 -141.038 35.4196 -138.895C35.4078 -136.04 34.2687 -133.306 32.2505 -131.288C30.2323 -129.27 27.4984 -128.131 24.6442 -128.119ZM24.6442 -159.009C22.513 -159.009 20.4297 -159.641 18.6577 -160.825C16.8856 -162.009 15.5045 -163.692 14.689 -165.661C13.8734 -167.63 13.66 -169.796 14.0758 -171.886C14.4916 -173.977 15.5178 -175.897 17.0248 -177.404C18.5318 -178.911 20.4518 -179.937 22.542 -180.353C24.6322 -180.768 26.7988 -180.555 28.7678 -179.739C30.7367 -178.924 32.4196 -177.543 33.6036 -175.771C34.7876 -173.999 35.4196 -171.915 35.4196 -169.784C35.4196 -166.926 34.2844 -164.186 32.2636 -162.165C30.2428 -160.144 27.502 -159.009 24.6442 -159.009Z" fill="#F2F2F2"/>
<path d="M612.714 0.647461L-1.39648 0.647461V2.98214L612.714 2.98214V0.647461Z" fill="#A4B0B6"/>
<path d="M612.714 31.9858L-1.39648 31.9858V34.3205L612.714 34.3205V31.9858Z" fill="#A4B0B6"/>
<path d="M612.714 63.2798L-1.39648 63.2798V65.6145L612.714 65.6145V63.2798Z" fill="#A4B0B6"/>
<path d="M612.714 94.6182L-1.39648 94.6182V96.9528L612.714 96.9528V94.6182Z" fill="#A4B0B6"/>
<path d="M612.714 125.957L-1.39648 125.957V128.292H612.714V125.957Z" fill="#A4B0B6"/>
<path d="M612.714 157.25H-1.39648V159.585H612.714V157.25Z" fill="#A4B0B6"/>
<path d="M612.714 188.589H-1.39648V190.924H612.714V188.589Z" fill="#A4B0B6"/>
<path d="M612.714 219.928H-1.39648V222.262H612.714V219.928Z" fill="#A4B0B6"/>
<path d="M612.714 251.221H-1.39648V253.556H612.714V251.221Z" fill="#A4B0B6"/>
<path d="M612.714 282.56H-1.39648V284.895L612.714 284.895V282.56Z" fill="#A4B0B6"/>
<path d="M612.714 313.899H-1.39648V316.234L612.714 316.234V313.899Z" fill="#A4B0B6"/>
<path d="M612.714 345.192H-1.39648V347.527L612.714 347.527V345.192Z" fill="#A4B0B6"/>
<path d="M612.714 376.531H-1.39648V378.865L612.714 378.865V376.531Z" fill="#A4B0B6"/>
<path d="M612.714 407.87H-1.39648V410.204L612.714 410.204V407.87Z" fill="#A4B0B6"/>
<path d="M553.269 -203.323H550.306V631.37H553.269V-203.323Z" fill="#3A97DB"/>
</g>
</g>
<path d="M496.849 211.386C477.78 161.419 553.8 173.327 512.264 215.966" stroke="black" stroke-opacity="0.9" stroke-width="5" stroke-linecap="round" stroke-linejoin="round"/>
<path d="M507.644 222.437C503.392 223.612 500.733 222.296 497.979 219.312" stroke="black" stroke-opacity="0.9" stroke-width="5" stroke-linecap="round" stroke-linejoin="round"/>
<path d="M505.759 229.479C501.873 229.928 497.503 229.41 495.278 225.938" stroke="black" stroke-opacity="0.9" stroke-width="5" stroke-linecap="round" stroke-linejoin="round"/>
<path opacity="0.503384" d="M504.004 213.5C505.726 211.915 512.626 193.428 508.232 193.017C503.65 192.589 502.989 200.446 507.04 202.171C514.01 205.14 517.314 193.27 511.632 196.788C509.16 198.319 507.738 200.913 505.444 202.637" stroke="black" stroke-opacity="0.9" stroke-width="5" stroke-linecap="round" stroke-linejoin="round"/>
<path opacity="0.503384" d="M519.035 172.505C519.85 171.173 520.101 169.66 520.746 168.286" stroke="black" stroke-opacity="0.9" stroke-width="5" stroke-linecap="round" stroke-linejoin="round"/>
<path opacity="0.503384" d="M501.156 171.723C500.73 170.685 500.51 169.542 500.179 168.455" stroke="black" stroke-opacity="0.9" stroke-width="5" stroke-linecap="round" stroke-linejoin="round"/>
<path opacity="0.503384" d="M488.66 186.081C487.735 185.533 486.854 184.87 486.112 184.062" stroke="black" stroke-opacity="0.9" stroke-width="5" stroke-linecap="round" stroke-linejoin="round"/>
<path opacity="0.503384" d="M530.415 183.572C531.43 183.338 532.43 183.026 533.427 182.709" stroke="black" stroke-opacity="0.9" stroke-width="5" stroke-linecap="round" stroke-linejoin="round"/>
<path opacity="0.503384" d="M528.598 201.306C529.835 201.826 531.139 201.846 532.45 201.919" stroke="black" stroke-opacity="0.9" stroke-width="5" stroke-linecap="round" stroke-linejoin="round"/>
<path d="M77.0126 312.519C86.4978 305.034 94.4503 319.623 84.9301 326.306C75.323 333.05 69.8757 320.444 73.2329 316.275C73.7993 315.571 74.5575 315.534 75.06 314.688" stroke="black" stroke-opacity="0.9" stroke-width="5" stroke-linecap="round" stroke-linejoin="round"/>
<path d="M107.229 296.078C115.825 282.322 131.527 302.451 118.943 309.402C109.659 314.53 103.455 306.504 109.072 296.875" stroke="black" stroke-opacity="0.9" stroke-width="5" stroke-linecap="round" stroke-linejoin="round"/>
<path d="M89.8192 316.972C90.1882 312.528 81.003 283.628 81.7319 280.906C81.8129 280.604 90.1638 273.553 99.0108 267.738C104.922 263.854 112.449 260.301 112.732 260.492C114.085 261.408 120.713 290.279 122.063 295.317" stroke="black" stroke-opacity="0.9" stroke-width="5" stroke-linecap="round" stroke-linejoin="round"/>
</svg>
