<svg width="36" height="36" viewBox="0 0 36 36" fill="none" xmlns="http://www.w3.org/2000/svg">
<mask id="mask0_68_9692" style="mask-type:alpha" maskUnits="userSpaceOnUse" x="0" y="0" width="36" height="36">
<rect x="0.5" y="0.5" width="35" height="35" fill="#D9D9D9"/>
</mask>
<g mask="url(#mask0_68_9692)">
<path d="M25.2917 22.375C24.8785 22.375 24.5321 22.2352 24.2526 21.9557C23.9731 21.6762 23.8333 21.3299 23.8333 20.9167V15.0833C23.8333 14.6701 23.9731 14.3238 24.2526 14.0443C24.5321 13.7648 24.8785 13.625 25.2917 13.625H29.6667C30.0799 13.625 30.4262 13.7648 30.7057 14.0443C30.9852 14.3238 31.125 14.6701 31.125 15.0833V16.5417H28.9375V15.8125H26.0208V20.1875H28.9375V19.4583H31.125V20.9167C31.125 21.3299 30.9852 21.6762 30.7057 21.9557C30.4262 22.2352 30.0799 22.375 29.6667 22.375H25.2917ZM14.3542 22.375V13.625H20.1875C20.6007 13.625 20.9471 13.7648 21.2266 14.0443C21.5061 14.3238 21.6458 14.6701 21.6458 15.0833V16.5417C21.6458 16.9549 21.5061 17.3012 21.2266 17.5807C20.9471 17.8602 20.6007 18 20.1875 18C20.6007 18 20.9471 18.1398 21.2266 18.4193C21.5061 18.6988 21.6458 19.0451 21.6458 19.4583V20.9167C21.6458 21.3299 21.5061 21.6762 21.2266 21.9557C20.9471 22.2352 20.6007 22.375 20.1875 22.375H14.3542ZM16.5417 16.9062H19.4583V15.8125H16.5417V16.9062ZM16.5417 20.1875H19.4583V19.0938H16.5417V20.1875ZM4.875 22.375V15.0833C4.875 14.6701 5.01476 14.3238 5.29427 14.0443C5.57378 13.7648 5.92014 13.625 6.33333 13.625H10.7083C11.1215 13.625 11.4679 13.7648 11.7474 14.0443C12.0269 14.3238 12.1667 14.6701 12.1667 15.0833V22.375H9.97917V20.1875H7.0625V22.375H4.875ZM7.0625 18H9.97917V15.8125H7.0625V18Z" fill="#1C1B1F"/>
</g>
</svg>
