<svg width="1081" height="1257" viewBox="0 0 1081 1257" fill="none" xmlns="http://www.w3.org/2000/svg">
<path d="M17.5 419L77.5 383.5L411 392.5L717.5 383.5L782 419V612.5L764 730L651 750H477.5L411 717L322 750H204H66.5L17.5 692.5V419Z" fill="#FFFE75"/>
<path d="M203.5 190V94.5L257.5 21.5L415 35.5H508.5H557.5L599.5 68V309L584 366.5L484 383.5H426.5H293L228.5 354.5L203.5 326V279V190Z" fill="#FFFE75"/>
<g clip-path="url(#clip0_400_1404)">
<path d="M711.96 363.541H597.626C608.71 348.806 615.26 330.803 615.26 311.365V90.0937C615.26 40.415 572.626 0 520.22 0C509.174 0 500.22 8.48821 500.22 18.9592C500.22 29.4301 509.174 37.9183 520.22 37.9183C550.571 37.9183 575.26 61.324 575.26 90.0937V311.365C575.26 340.135 550.571 363.541 520.22 363.541H286.78C256.442 363.541 231.76 340.135 231.76 311.365V90.0937C231.76 61.324 256.442 37.9183 286.78 37.9183H395.499C406.545 37.9183 415.499 29.4301 415.499 18.9592C415.499 8.48821 406.547 0 395.499 0H286.78C234.386 0 191.76 40.415 191.76 90.0937V311.365C191.76 330.803 198.308 348.806 209.39 363.541H95.04C42.6339 363.541 0 403.956 0 453.635V674.906C0 724.585 42.6339 765 95.04 765H328.46C358.94 765 386.094 751.314 403.498 730.098C420.898 751.312 448.046 765 478.519 765H711.96C764.366 765 807 724.585 807 674.906V453.635C807 403.956 764.366 363.541 711.96 363.541ZM383.5 674.906C383.5 703.676 358.809 727.082 328.46 727.082H95.04C64.6908 727.082 40.0001 703.676 40.0001 674.906V453.635C40.0001 424.865 64.6908 401.459 95.04 401.459H286.78H328.46C358.809 401.459 383.5 424.865 383.5 453.635V674.906ZM767 674.906C767 703.676 742.309 727.082 711.96 727.082H478.519C448.181 727.082 423.5 703.676 423.5 674.906V453.635C423.5 424.865 448.181 401.459 478.519 401.459H520.219H711.958C742.309 401.459 766.998 424.865 766.998 453.635V674.906H767Z" fill="black"/>
<path d="M461.001 0H453C441.954 0 433 8.48821 433 18.9592C433 29.4301 441.954 37.9183 453 37.9183H461.001C472.046 37.9183 481.001 29.4301 481.001 18.9592C481.001 8.48821 472.046 0 461.001 0Z" fill="black"/>
<path d="M501.469 290.38L422.129 97.3193C422.079 97.1983 422.016 97.0877 421.964 96.9682C421.828 96.6574 421.68 96.3496 421.527 96.0463C421.391 95.7729 421.253 95.504 421.105 95.241C420.953 94.972 420.788 94.7106 420.622 94.4491C420.449 94.1727 420.272 93.8948 420.085 93.6303C419.916 93.3912 419.735 93.1626 419.555 92.931C419.349 92.6681 419.144 92.4021 418.925 92.1496C418.729 91.924 418.521 91.7103 418.313 91.4922C418.089 91.2576 417.867 91.0215 417.631 90.7989C417.405 90.5793 417.161 90.3701 416.917 90.1624C416.683 89.9637 416.453 89.7605 416.21 89.5722C415.949 89.3675 415.675 89.1763 415.4 88.985C415.15 88.8102 414.904 88.6354 414.647 88.471C414.371 88.2962 414.084 88.1334 413.799 87.9705C413.517 87.8106 413.235 87.6522 412.946 87.5043C412.674 87.3654 412.395 87.2384 412.112 87.1114C411.785 86.9634 411.457 86.8215 411.121 86.6885C411 86.6407 410.885 86.581 410.762 86.5346C410.607 86.4779 410.451 86.442 410.298 86.3882C409.953 86.2687 409.605 86.1581 409.252 86.058C408.96 85.9743 408.667 85.8966 408.374 85.8264C408.04 85.7472 407.704 85.677 407.363 85.6127C407.051 85.5545 406.739 85.5007 406.427 85.4574C406.099 85.4125 405.771 85.3752 405.44 85.3438C405.119 85.3139 404.799 85.2885 404.479 85.2736C404.151 85.2586 403.823 85.2542 403.492 85.2542C403.171 85.2542 402.851 85.2586 402.531 85.2736C402.203 85.2885 401.875 85.3154 401.544 85.3453C401.223 85.3752 400.9 85.4095 400.58 85.4559C400.261 85.5007 399.943 85.5545 399.626 85.6157C399.292 85.6785 398.962 85.7487 398.631 85.8264C398.335 85.8966 398.039 85.9743 397.746 86.0595C397.394 86.1596 397.047 86.2702 396.702 86.3897C396.548 86.4435 396.392 86.4793 396.239 86.5361C396.114 86.5809 396.001 86.6407 395.879 86.69C395.544 86.8215 395.213 86.9649 394.885 87.1129C394.604 87.2399 394.325 87.3669 394.053 87.5058C393.763 87.6537 393.481 87.8106 393.198 87.972C392.913 88.1349 392.626 88.2977 392.35 88.4725C392.095 88.6354 391.846 88.8102 391.599 88.9865C391.324 89.1793 391.05 89.369 390.788 89.5737C390.546 89.762 390.314 89.9637 390.082 90.1639C389.838 90.3746 389.592 90.5808 389.36 90.8004C389.127 91.0215 388.905 91.2576 388.681 91.4922C388.473 91.7103 388.265 91.924 388.07 92.1526C387.849 92.4051 387.646 92.6696 387.439 92.934C387.259 93.1656 387.077 93.3942 386.909 93.6333C386.722 93.8992 386.547 94.1742 386.374 94.4506C386.208 94.7136 386.041 94.9765 385.89 95.2455C385.742 95.5084 385.604 95.7789 385.467 96.0493C385.313 96.3541 385.168 96.6604 385.029 96.9727C384.977 97.0922 384.912 97.2028 384.864 97.3238L305.524 290.385C301.514 300.141 306.608 311.131 316.901 314.933C319.287 315.815 321.741 316.232 324.154 316.232C332.156 316.232 339.714 311.646 342.794 304.149L361.664 258.229H445.33L464.2 304.149C467.28 311.645 474.836 316.232 482.84 316.232C485.255 316.232 487.71 315.815 490.094 314.933C500.384 311.126 505.479 300.135 501.469 290.38ZM377.251 220.305L403.5 156.428L429.75 220.305H377.251Z" fill="black"/>
<path d="M264.95 564.294C265.226 564.041 265.509 563.8 265.78 563.543C279.181 550.843 286.559 533.961 286.559 516.01C286.559 478.939 254.746 448.781 215.639 448.781H156.94C145.894 448.781 136.939 457.27 136.939 467.741V564.28V660.802C136.939 671.272 145.894 679.761 156.94 679.761H215.639C234.575 679.761 252.383 672.767 265.765 660.08C279.175 647.396 286.559 630.511 286.559 612.532C286.561 593.619 278.262 576.519 264.95 564.294ZM237.498 633.251C231.653 638.791 223.892 641.841 215.639 641.841H176.94V583.238H215.639C232.687 583.238 246.559 596.379 246.559 612.529C246.561 620.364 243.348 627.718 237.498 633.251ZM237.498 536.731C231.653 542.271 223.892 545.321 215.639 545.321H176.94V486.7H215.639C232.687 486.7 246.559 499.85 246.559 516.01C246.561 523.832 243.342 531.191 237.498 536.731Z" fill="black"/>
<path d="M651.4 588.624C640.354 588.624 631.4 597.112 631.4 607.583C631.4 626.474 615.188 641.842 595.26 641.842C575.322 641.842 559.1 626.474 559.1 607.583V520.959C559.1 502.069 575.322 486.7 595.26 486.7C615.188 486.7 631.4 502.069 631.4 520.959C631.4 531.43 640.354 539.918 651.4 539.918C662.446 539.918 671.4 531.43 671.4 520.959C671.4 481.16 637.245 448.781 595.26 448.781C553.265 448.781 519.1 481.16 519.1 520.959V607.583C519.1 647.383 553.266 679.761 595.26 679.761C637.245 679.761 671.4 647.383 671.4 607.583C671.4 597.111 662.446 588.624 651.4 588.624Z" fill="black"/>
</g>
<path d="M478 882.5L521.5 871.5L601.5 923.5L628 890V634.5L670.5 607L696 634.5V757.5L735 766.5L767 806.5L818.5 816L836 841.5L889 850.5V1075L836 1142.5L758.5 1174.5L657 1158.5L465 935.5L478 882.5Z" fill="#FFFE75"/>
<ellipse cx="662" cy="634" rx="93" ry="92" fill="#FFFE75"/>
<path d="M647.667 807V891.915C647.667 902.945 643.799 913.626 636.738 922.1C620.067 942.105 590.335 944.808 570.33 928.137L539.536 902.475C530.121 894.63 518.255 890.333 506 890.333C497.121 890.333 489.027 895.42 485.177 903.421L483.987 905.894C479.482 915.255 480.847 926.383 487.48 934.378L634.595 1111.72C658.392 1140.4 693.728 1157 731 1157C813.843 1157 881 1089.84 881 1007V873.667C881 864.462 873.538 857 864.333 857C855.128 857 847.667 864.462 847.667 873.667V907C847.667 916.205 840.205 923.667 831 923.667C821.795 923.667 814.333 916.205 814.333 907V840.333C814.333 831.129 806.871 823.667 797.667 823.667C788.462 823.667 781 831.129 781 840.333V907C781 916.205 773.538 923.667 764.333 923.667C755.128 923.667 747.667 916.205 747.667 907V807C747.667 797.795 740.205 790.333 731 790.333C721.795 790.333 714.333 797.795 714.333 807V907C714.333 916.205 706.871 923.667 697.667 923.667C688.462 923.667 681 916.205 681 907V640.333C681 631.129 673.538 623.667 664.333 623.667C655.128 623.667 647.667 631.129 647.667 640.333V807ZM614.333 807V745.77C574.092 726.676 547.667 685.948 547.667 640.333C547.667 575.9 599.9 523.667 664.333 523.667C728.766 523.667 781 575.9 781 640.333C781 685.952 754.571 726.679 714.333 745.77V759.845C719.546 758.003 725.156 757 731 757C754.058 757 773.47 772.608 779.248 793.835C784.948 791.575 791.162 790.333 797.667 790.333C820.724 790.333 840.137 805.941 845.915 827.168C851.615 824.908 857.829 823.667 864.333 823.667C891.947 823.667 914.333 846.052 914.333 873.667V1007C914.333 1108.25 832.252 1190.33 731 1190.33C683.81 1190.33 639.071 1169.32 608.941 1133L461.825 955.661C446.87 937.634 443.794 912.545 453.951 891.439L455.141 888.967C464.545 869.425 484.313 857 506 857C526.052 857 545.47 864.03 560.875 876.868L591.67 902.53C597.532 907.415 606.245 906.623 611.131 900.76C613.2 898.277 614.333 895.147 614.333 891.915V807ZM714.333 707.024C734.881 691.604 747.667 667.153 747.667 640.333C747.667 594.31 710.357 557 664.333 557C618.309 557 581 594.31 581 640.333C581 667.152 593.784 691.603 614.333 707.023V640.333C614.333 612.719 636.719 590.333 664.333 590.333C691.947 590.333 714.333 612.719 714.333 640.333V707.024Z" fill="black"/>
<defs>
<clipPath id="clip0_400_1404">
<rect width="807" height="765" fill="white"/>
</clipPath>
</defs>
</svg>
