<svg width="99" height="66" viewBox="0 0 99 66" fill="none" xmlns="http://www.w3.org/2000/svg">
<g id="Book">
<mask id="mask0_312_1368" style="mask-type:alpha" maskUnits="userSpaceOnUse" x="0" y="0" width="99" height="66">
<rect id="Bounding box" x="0.5" y="0.5" width="98" height="65" fill="#D9D9D9"/>
</mask>
<g mask="url(#mask0_312_1368)">
<g id="Group">
<rect id="Rectangle 42" x="2" y="7.5" width="93" height="55" fill="#FFFE75"/>
<rect id="Rectangle 43" x="10" y="2.5" width="80" height="55" fill="#FFFE75"/>
<path id="Vector" d="M96.1001 5.3H91.5001V1.8C91.5001 0.799999 90.7001 0.1 89.8001 0H56.3001C53.6001 0 51.1001 1.2 49.5001 3.3C47.9001 1.2 45.4001 0 42.7001 0H9.2001C8.2001 0 7.5001 0.799999 7.5001 1.8V5.3H2.9001C1.9001 5.3 1.1001 6.1 1.1001 7.1V64.1C1.1001 65.1 1.9001 65.8 2.9001 65.9H96.0001C97.0001 65.9 97.7001 65.1 97.8001 64.1V7C97.8001 6.1 97.0001 5.3 96.1001 5.3ZM56.3001 3.5H88.0001V55.4H56.3001C53.4001 55.4 51.7001 56.8 51.3001 57V8.6C51.3001 8.2 51.3001 7.9 51.2001 7.5C51.7001 5.3 53.8001 3.5 56.3001 3.5ZM11.0001 3.5H42.7001C45.3001 3.5 47.4001 5.4 47.7001 7.6C47.7001 8 47.6001 8.3 47.6001 8.7V57C47.3001 56.9 45.5001 55.4 42.6001 55.4H11.0001V3.5ZM4.7001 8.8H7.5001V57.1C7.5001 58.1 8.3001 58.9 9.3001 58.9H42.8001C44.8001 58.9 46.7001 60 47.6001 62.3H4.7001V8.8ZM94.3001 62.3H51.5001C52.3001 60.1 54.3001 58.9 56.3001 58.9H89.8001C90.8001 58.9 91.6001 58.1 91.6001 57.1V8.8H94.4001L94.3001 62.3Z" fill="black"/>
<path id="Vector_2" d="M18.2001 17H40.7001C41.7001 17 42.5001 16.2 42.5001 15.2C42.5001 14.2 41.7001 13.4 40.7001 13.4H18.2001C17.2001 13.4 16.4001 14.2 16.4001 15.2C16.4001 16.2 17.2001 17 18.2001 17Z" fill="black"/>
<path id="Vector_3" d="M18.2001 26.3H40.7001C41.7001 26.3 42.5001 25.5 42.5001 24.5C42.5001 23.5 41.7001 22.7 40.7001 22.7H18.2001C17.2001 22.7 16.4001 23.5 16.4001 24.5C16.4001 25.5 17.2001 26.3 18.2001 26.3Z" fill="black"/>
<path id="Vector_4" d="M18.2001 35.7H40.7001C41.7001 35.7 42.5001 34.9 42.5001 33.9C42.5001 32.9 41.7001 32.1 40.7001 32.1H18.2001C17.2001 32.1 16.4001 32.9 16.4001 33.9C16.4001 34.9 17.2001 35.7 18.2001 35.7Z" fill="black"/>
<path id="Vector_5" d="M18.2001 45H40.7001C41.7001 45 42.5001 44.2 42.5001 43.2C42.5001 42.2 41.7001 41.4 40.7001 41.4H18.2001C17.2001 41.4 16.4001 42.2 16.4001 43.2C16.4001 44.2 17.2001 45 18.2001 45Z" fill="black"/>
<path id="Vector_6" d="M58.3 17H80.8C81.8 17 82.6 16.2 82.6 15.2C82.6 14.2 81.8 13.4 80.8 13.4H58.3C57.3 13.4 56.5 14.2 56.5 15.2C56.5 16.2 57.4 17 58.3 17Z" fill="black"/>
<path id="Vector_7" d="M58.3 26.3H80.8C81.8 26.3 82.6 25.5 82.6 24.5C82.6 23.5 81.8 22.7 80.8 22.7H58.3C57.3 22.7 56.5 23.5 56.5 24.5C56.5 25.5 57.4 26.3 58.3 26.3Z" fill="black"/>
<path id="Vector_8" d="M58.3 35.7H80.8C81.8 35.7 82.6 34.9 82.6 33.9C82.6 32.9 81.8 32.1 80.8 32.1H58.3C57.3 32.1 56.5 32.9 56.5 33.9C56.5 34.9 57.4 35.7 58.3 35.7Z" fill="black"/>
<path id="Vector_9" d="M58.3 45H80.8C81.8 45 82.6 44.2 82.6 43.2C82.6 42.2 81.8 41.4 80.8 41.4H58.3C57.3 41.4 56.5 42.2 56.5 43.2C56.5 44.2 57.4 45 58.3 45Z" fill="black"/>
</g>
</g>
</g>
</svg>
