<?xml version="1.0" encoding="utf-8"?><!-- Uploaded to: SVG Repo, www.svgrepo.com, Generator: SVG Repo Mixer Tools -->
<svg version="1.1" id="Uploaded to svgrepo.com" xmlns="http://www.w3.org/2000/svg" xmlns:xlink="http://www.w3.org/1999/xlink" 
	 width="800px" height="800px" viewBox="0 0 32 32" xml:space="preserve">
<style type="text/css">
	.linesandangles_een{fill:#111918;}
</style>
<path class="linesandangles_een" d="M27,18v-1h-2v1h-2v-1h-2v1h-1v-6h-1v-1h-2v1h-2v-1h-2v1h-1V6h-1V5H9v1H7V5H5v1H4v20h24v-8H27z
	 M6,8h4v4H6V8z M6,14h12v4H6V14z M11,24H6v-4h5V24z M26,24H13v-4h13V24z"/>
</svg>