<svg width="1484" height="1288" viewBox="0 0 1484 1288" fill="none" xmlns="http://www.w3.org/2000/svg">
<mask id="mask0_406_1381" style="mask-type:alpha" maskUnits="userSpaceOnUse" x="0" y="0" width="1066" height="1066">
<rect x="30" y="30" width="1006" height="1006" fill="#D9D9D9" stroke="black" stroke-width="60"/>
</mask>
<g mask="url(#mask0_406_1381)">
<path d="M332.13 420.964L503 250.093V815.907L332.13 645.037L323.343 636.25H310.917H163.25V429.75H310.917H323.343L332.13 420.964ZM651.833 212.464V182.549C720.439 204.895 777.168 244.413 822.711 301.342C876.119 368.102 902.75 444.56 902.75 531.89C902.75 619.22 876.119 695.678 822.711 762.438C777.168 819.367 720.439 858.885 651.833 881.231V851.315C714.813 828.818 766.745 790.392 806.922 736.336C851.562 676.273 873.917 607.787 873.917 531.89C873.917 455.993 851.562 387.506 806.922 327.444C766.745 273.388 714.813 234.962 651.833 212.464ZM677.829 622.327C670.43 634.472 661.786 645.249 651.833 654.69V409.259C661.742 418.75 670.362 429.61 677.75 441.878C694.517 469.717 702.875 499.889 702.875 533C702.875 565.256 694.578 594.833 677.829 622.327Z" fill="#FFFE75" stroke="black" stroke-width="60"/>
</g>
<path d="M1026.5 546H1145.5L1195 776.5L1353 833.5L1410.5 934.5L1381 1125L1327 1249H941.5L821.5 1085V1006.5L859 934.5L776 626.5L895.5 594L1008 833.5L1026.5 546Z" fill="#FFFE75"/>
<path d="M1299.85 787.962C1278.43 754.136 1239.29 734.812 1198.28 740.555V603.625C1198.28 539.869 1147.01 488 1084 488C1020.98 488 969.717 539.869 969.717 603.625L984 750.5L954.814 627.297C931.778 567.442 865.015 538.172 806.201 561.762C747.648 585.247 719.045 652.005 741.825 711.203L828.945 937.652C781.2 976.645 760.204 1027.98 790.3 1081.74L876.007 1234.87C894.351 1267.64 928.89 1288 966.148 1288H1287.56C1335.59 1288 1377.49 1254.5 1388.42 1207.07L1431.28 1021.13C1433.07 1013.34 1433.98 1005.37 1433.98 997.377L1434 888C1434 817.756 1366.4 767.152 1299.85 787.962ZM1358.98 997.375C1358.98 999.7 1358.72 1002.03 1358.19 1004.29L1315.34 1190.23C1312.25 1203.63 1300.82 1213 1287.56 1213H966.148C956.014 1213 946.551 1207.34 941.453 1198.24L855.743 1045.11C848.623 1032.39 851.651 1015.94 862.787 1006.85L904.423 972.842C908.501 969.512 911.424 964.979 912.774 959.889C914.124 954.8 913.833 949.414 911.942 944.5L811.801 684.267C792.165 633.244 865.828 604.933 884.796 654.233L978.209 896.978C980.024 901.694 983.224 905.749 987.39 908.609C991.555 911.469 996.489 913 1001.54 913H1019.72C1033.52 913 1044.72 901.808 1044.72 888V603.625C1044.72 549.914 1123.28 549.828 1123.28 603.625V888C1123.28 901.808 1134.47 913 1148.28 913H1158.99C1172.8 913 1183.99 901.808 1183.99 888V844.25C1183.99 804.997 1241.13 804.939 1241.13 844.25V888C1241.13 901.808 1252.32 913 1266.13 913H1276.84C1290.65 913 1301.84 901.808 1301.84 888C1301.84 848.75 1358.98 848.688 1358.98 888V997.375H1358.98Z" fill="black"/>
</svg>
