<svg width="800" height="800" viewBox="0 0 800 800" fill="none" xmlns="http://www.w3.org/2000/svg">
<g id="crown 2">
<path id="Rectangle 59" d="M149 340H307.5L399 196L478 340H645L599 671H198L149 340Z" fill="#FFFE75"/>
<path id="Vector" d="M133.333 266.667L200 666.667H600L666.667 266.667M133.333 266.667L190.541 312.433C227.739 342.19 246.338 357.07 265.085 359.38C281.51 361.403 298.1 357.243 311.628 347.713C327.07 336.837 336.453 314.943 355.217 271.159L400 166.667M133.333 266.667C151.743 266.667 166.667 251.743 166.667 233.333C166.667 214.924 151.743 200 133.333 200C114.924 200 100 214.924 100 233.333C100 251.743 114.924 266.667 133.333 266.667ZM666.667 266.667L609.46 312.433C572.26 342.19 553.663 357.07 534.913 359.38C518.49 361.403 501.9 357.243 488.37 347.713C472.93 336.837 463.547 314.943 444.783 271.159L400 166.667M666.667 266.667C685.077 266.667 700 251.743 700 233.333C700 214.924 685.077 200 666.667 200C648.257 200 633.333 214.924 633.333 233.333C633.333 251.743 648.257 266.667 666.667 266.667ZM400 166.667C418.41 166.667 433.333 151.743 433.333 133.333C433.333 114.924 418.41 100 400 100C381.59 100 366.667 114.924 366.667 133.333C366.667 151.743 381.59 166.667 400 166.667ZM400 133.333H400.333M666.667 233.333H667M133.333 233.333H133.667" stroke="black" stroke-width="66.6667" stroke-linecap="round" stroke-linejoin="round"/>
</g>
</svg>
