<svg width="800" height="800" viewBox="0 0 800 800" fill="none" xmlns="http://www.w3.org/2000/svg">
<g clip-path="url(#clip0_451_1383)">
<path d="M65 120L207.5 6L284.5 55L301 207.5L384.5 173L427 186.5V282.5H486L551 319V433L620 447.5L638.5 578L711.5 597.5V709.5L760.5 782.5L522.5 762.5L364 695.5V738.5L331.5 782.5H128L101.5 738.5L114 695.5L268.5 673L257 578L177 403.5H32.5L12 375.5L53 331.5H166.5V186.5L81.5 173L65 120Z" fill="#FFFE75"/>
<path d="M233.333 80V83.3333C233.333 92.5367 225.872 100 216.667 100C207.462 100 200 92.5367 200 83.3333V80C200 70.7967 207.462 63.3333 216.667 63.3333C225.872 63.3333 233.333 70.7967 233.333 80ZM800 772.908V773.07C800 787.92 787.918 800 773.07 800H666.667C564.915 800 467.625 770.95 383.333 715.683V733.333C383.333 770.093 353.427 800 316.667 800H150C113.24 800 83.3333 770.093 83.3333 733.333C83.3333 696.573 113.24 666.667 150 666.667H250V589.847C211.148 537.418 183.052 479.245 166.342 416.667H33.3333C14.9533 416.667 0 401.713 0 383.333C0 346.573 29.9067 316.667 66.6667 316.667H150V200H112.33C77.9617 200 50 172.04 50 137.67C50 119.45 57.9333 102.202 71.7667 90.3433L148.568 24.515C167.01 8.70667 190.545 0 214.837 0C270.987 0 316.667 45.68 316.667 101.83V180.23C336.147 161.517 362.587 150 391.667 150C419.237 150 441.667 172.43 441.667 200V266.667H483.333C529.283 266.667 566.667 304.05 566.667 350V416.667H583.333C620.093 416.667 650 446.573 650 483.333V566.667H683.333C710.903 566.667 733.333 589.097 733.333 616.667V720.733C750.157 733.288 766.343 742.242 781.758 747.42C792.67 751.085 800 761.328 800 772.908ZM623.375 600C649.715 637.163 675.387 667.978 700 691.963V616.667C700 607.477 692.523 600 683.333 600H623.375ZM531.87 450C555.052 493.155 578.062 532.132 600.685 566.667H616.667V483.333C616.667 464.953 601.713 450 583.333 450H531.87ZM441.667 324.78C470.453 347.988 494.223 377.193 511.073 410.245C512.17 412.397 513.263 414.532 514.36 416.667H533.333V350C533.333 322.43 510.903 300 483.333 300H441.667V324.78ZM316.667 269.707C348.89 274.643 380.073 285.607 408.333 301.923V200C408.333 190.81 400.857 183.333 391.667 183.333C350.312 183.333 316.667 216.978 316.667 258.333V269.707ZM743.17 766.667C731.333 760.228 705.818 741.737 704.94 740.867C660.362 705.167 617.145 651.605 577.86 592.588C577.847 592.567 577.832 592.547 577.82 592.527C541.66 538.195 508.843 479.258 481.377 425.387C465.565 394.375 443.473 368.003 417 347.572C415.575 346.79 414.278 345.807 413.145 344.662C380.197 320.33 340.808 305 298.447 301.032C289.882 300.23 283.335 293.04 283.335 284.438V101.83C283.333 64.0617 252.605 33.3333 214.837 33.3333C198.497 33.3333 182.665 39.19 170.26 49.8233L93.46 115.653C87.0233 121.168 83.3333 129.193 83.3333 137.67C83.3333 153.658 96.3417 166.667 112.33 166.667H166.667C175.872 166.667 183.333 174.13 183.333 183.333V316.113C183.668 321.097 184.097 326.197 184.643 331.682C184.698 332.23 184.725 332.778 184.725 333.325C184.727 337.443 183.203 341.438 180.413 344.518C177.253 348.01 172.767 350 168.058 350H66.6667C48.2867 350 33.3333 364.953 33.3333 383.333H179.308C187.015 383.333 193.717 388.617 195.515 396.11C211.062 460.868 239.47 520.798 279.952 574.232C282.147 577.128 283.333 580.662 283.333 584.297V683.333C283.333 692.537 275.872 700 266.667 700H150C131.62 700 116.667 714.953 116.667 733.333C116.667 751.713 131.62 766.667 150 766.667H316.667C335.047 766.667 350 751.713 350 733.333V683.663C350 677.355 353.562 671.588 359.202 668.763C361.563 667.58 364.12 666.997 366.667 666.997C370.2 666.997 373.71 668.118 376.647 670.313C460.97 733.348 561.258 766.667 666.667 766.667H743.17Z" fill="black"/>
</g>
<defs>
<clipPath id="clip0_451_1383">
<rect width="800" height="800" fill="white"/>
</clipPath>
</defs>
</svg>
