<svg width="35" height="35" viewBox="0 0 35 35" fill="none" xmlns="http://www.w3.org/2000/svg">
<mask id="mask0_156_379" style="mask-type:alpha" maskUnits="userSpaceOnUse" x="0" y="0" width="35" height="35">
<rect width="35" height="35" fill="#D9D9D9"/>
</mask>
<g mask="url(#mask0_156_379)">
<path d="M11.375 26.25C10.1354 26.25 8.95055 26.0312 7.82034 25.5938C6.69013 25.1562 5.67537 24.5122 4.77607 23.6615C3.6094 22.5677 2.76478 21.2734 2.24221 19.7786C1.71964 18.2839 1.45836 16.7344 1.45836 15.1302C1.45836 13.2344 1.92016 11.697 2.84378 10.5182C3.76739 9.33941 5.11634 8.75 6.89065 8.75C7.23093 8.75 7.55298 8.78038 7.8568 8.84115C8.16062 8.90191 8.47051 8.99306 8.78648 9.11458L17.5 12.3594L26.2136 9.11458C26.5295 8.99306 26.8394 8.90191 27.1433 8.84115C27.4471 8.78038 27.7691 8.75 28.1094 8.75C29.8837 8.75 31.2327 9.33941 32.1563 10.5182C33.0799 11.697 33.5417 13.2344 33.5417 15.1302C33.5417 16.7344 33.2804 18.2839 32.7578 19.7786C32.2353 21.2734 31.3906 22.5677 30.224 23.6615C29.3247 24.5122 28.3099 25.1562 27.1797 25.5938C26.0495 26.0312 24.8646 26.25 23.625 26.25C22.0209 26.25 20.6597 25.8854 19.5417 25.1562L17.8646 24.0625H17.1354L15.4584 25.1562C14.3403 25.8854 12.9792 26.25 11.375 26.25ZM11.375 23.3333C12.2743 23.3333 13.1129 23.1207 13.8907 22.6953C14.6684 22.27 15.3854 21.7535 16.0417 21.1458H18.9584C19.6146 21.7535 20.3316 22.27 21.1094 22.6953C21.8872 23.1207 22.7257 23.3333 23.625 23.3333C24.5 23.3333 25.3446 23.1814 26.1589 22.8776C26.9731 22.5738 27.6962 22.1059 28.3281 21.474C29.1545 20.6476 29.7439 19.6753 30.0964 18.5573C30.4488 17.4392 30.625 16.2969 30.625 15.1302C30.625 14.1337 30.4184 13.3012 30.0052 12.6328C29.592 11.9644 28.9358 11.6424 28.0365 11.6667C27.9636 11.6667 27.6962 11.7153 27.2344 11.8125L17.5 15.4583L7.76565 11.8125C7.64412 11.7639 7.51652 11.7274 7.38284 11.7031C7.24916 11.6788 7.1094 11.6667 6.96357 11.6667C6.06426 11.6667 5.40801 11.9948 4.99482 12.651C4.58162 13.3073 4.37503 14.1337 4.37503 15.1302C4.37503 16.3212 4.55124 17.4757 4.90367 18.5938C5.2561 19.7118 5.85766 20.684 6.70836 21.5104C7.3403 22.1181 8.05732 22.5738 8.8594 22.8776C9.66148 23.1814 10.5 23.3333 11.375 23.3333ZM13.1615 21.1458C14.0608 21.1458 14.7656 20.9453 15.2761 20.5443C15.7865 20.1432 16.0417 19.5903 16.0417 18.8854C16.0417 17.6944 15.2578 16.5582 13.6901 15.4766C12.1224 14.395 10.4636 13.8542 8.71357 13.8542C7.81426 13.8542 7.1094 14.0547 6.59898 14.4557C6.08857 14.8568 5.83336 15.4097 5.83336 16.1146C5.83336 17.3056 6.61721 18.4418 8.18492 19.5234C9.75263 20.605 11.4115 21.1458 13.1615 21.1458ZM12.9427 18.9583C12.0191 18.9583 11.0165 18.6545 9.93492 18.0469C8.85332 17.4392 8.2153 16.8194 8.02086 16.1875C8.14239 16.1389 8.28214 16.0964 8.44013 16.0599C8.59811 16.0234 8.76218 16.0052 8.93232 16.0052C9.85593 16.0052 10.8585 16.3151 11.9401 16.9349C13.0217 17.5547 13.6597 18.1806 13.8542 18.8125C13.7327 18.8611 13.5929 18.8976 13.4349 18.9219C13.2769 18.9462 13.1129 18.9583 12.9427 18.9583ZM21.8386 21.1823C23.5886 21.1823 25.2474 20.6354 26.8151 19.5417C28.3828 18.4479 29.1667 17.3056 29.1667 16.1146C29.1667 15.4097 28.9176 14.8507 28.4193 14.4375C27.921 14.0243 27.2101 13.8177 26.2865 13.8177C24.5365 13.8177 22.8776 14.3646 21.3099 15.4583C19.7422 16.5521 18.9584 17.6944 18.9584 18.8854C18.9584 19.5903 19.2136 20.1493 19.724 20.5625C20.2344 20.9757 20.9393 21.1823 21.8386 21.1823ZM22.0573 18.9583C21.8872 18.9583 21.7292 18.9462 21.5834 18.9219C21.4375 18.8976 21.3038 18.8611 21.1823 18.8125C21.3768 18.1806 22.0148 17.5608 23.0964 16.9531C24.178 16.3455 25.1806 16.0417 26.1042 16.0417C26.2743 16.0417 26.4323 16.0538 26.5781 16.0781C26.724 16.1024 26.8577 16.1389 26.9792 16.1875C26.7847 16.8194 26.1467 17.4392 25.0651 18.0469C23.9835 18.6545 22.9809 18.9583 22.0573 18.9583Z" fill="black"/>
</g>
</svg>
