<svg width="49" height="49" viewBox="0 0 49 49" fill="none" xmlns="http://www.w3.org/2000/svg">
<g id="domino_mask 1" clip-path="url(#clip0_313_1383)">
<path id="Rectangle 58" d="M6 15L24.5 18.5L43 15L44.5 24L41.5 32L34 34.5L24.5 33L15.5 34.5L7.5 32L4.5 24L6 15Z" fill="#FFFE75"/>
<g id="Mask group">
<mask id="mask0_313_1383" style="mask-type:alpha" maskUnits="userSpaceOnUse" x="0" y="0" width="49" height="49">
<g id="Group">
<path id="Vector" d="M49 0H0V49H49V0Z" fill="#D9D9D9"/>
</g>
</mask>
<g mask="url(#mask0_313_1383)">
<g id="Group_2">
<path id="Vector_2" d="M15.925 36.75C14.1896 36.75 12.5308 36.4437 10.9485 35.8313C9.36623 35.2187 7.94556 34.3171 6.68654 33.1261C5.0532 31.5948 3.87074 29.7828 3.13914 27.69C2.40754 25.5975 2.04175 23.4282 2.04175 21.1823C2.04175 18.5282 2.68827 16.3758 3.98134 14.7255C5.27439 13.0752 7.16292 12.25 9.64695 12.25C10.1233 12.25 10.5742 12.2925 10.9996 12.3776C11.4249 12.4627 11.8588 12.5903 12.3011 12.7604L24.5 17.3032L36.6991 12.7604C37.1413 12.5903 37.5752 12.4627 38.0007 12.3776C38.426 12.2925 38.8768 12.25 39.3532 12.25C41.8372 12.25 43.7258 13.0752 45.0189 14.7255C46.3119 16.3758 46.9584 18.5282 46.9584 21.1823C46.9584 23.4282 46.5926 25.5975 45.861 27.69C45.1295 29.7828 43.9469 31.5948 42.3136 33.1261C41.0546 34.3171 39.6339 35.2187 38.0516 35.8313C36.4693 36.4437 34.8105 36.75 33.075 36.75C30.8293 36.75 28.9236 36.2396 27.3584 35.2187L25.0105 33.6875H23.9896L21.6418 35.2187C20.0765 36.2396 18.1709 36.75 15.925 36.75ZM15.925 32.6666C17.1841 32.6666 18.3581 32.369 19.447 31.7734C20.5358 31.178 21.5396 30.4549 22.4584 29.6041H26.5418C27.4605 30.4549 28.4643 31.178 29.5532 31.7734C30.6421 32.369 31.816 32.6666 33.075 32.6666C34.3 32.6666 35.4825 32.454 36.6225 32.0286C37.7624 31.6033 38.7747 30.9483 39.6594 30.0636C40.8163 28.9066 41.6415 27.5454 42.135 25.9802C42.6284 24.4149 42.875 22.8157 42.875 21.1823C42.875 19.7872 42.5858 18.6217 42.0073 17.6859C41.4288 16.7502 40.5102 16.2994 39.2511 16.3334C39.1491 16.3334 38.7747 16.4014 38.1282 16.5375L24.5 21.6416L10.872 16.5375C10.7018 16.4695 10.5232 16.4184 10.336 16.3843C10.1489 16.3503 9.9532 16.3334 9.74904 16.3334C8.49001 16.3334 7.57126 16.7927 6.99279 17.7114C6.41431 18.6302 6.12509 19.7872 6.12509 21.1823C6.12509 22.8497 6.37178 24.466 6.86518 26.0313C7.35858 27.5965 8.20077 28.9576 9.39175 30.1146C10.2765 30.9653 11.2803 31.6033 12.4032 32.0286C13.5261 32.454 14.7 32.6666 15.925 32.6666ZM18.4261 29.6041C19.6852 29.6041 20.6719 29.3234 21.3866 28.762C22.1011 28.2005 22.4584 27.4264 22.4584 26.4396C22.4584 24.7722 21.361 23.1815 19.1662 21.6672C16.9714 20.153 14.6491 19.3959 12.199 19.3959C10.94 19.3959 9.9532 19.6766 9.23862 20.238C8.52404 20.7995 8.16675 21.5736 8.16675 22.5604C8.16675 24.2278 9.26414 25.8185 11.4589 27.3328C13.6537 28.847 15.9761 29.6041 18.4261 29.6041ZM18.1198 26.5416C16.8268 26.5416 15.4231 26.1163 13.9089 25.2657C12.3947 24.4149 11.5015 23.5472 11.2292 22.6625C11.3994 22.5945 11.595 22.535 11.8162 22.4839C12.0374 22.4328 12.2671 22.4073 12.5053 22.4073C13.7983 22.4073 15.2019 22.8411 16.7162 23.7089C18.2304 24.5766 19.1236 25.4528 19.3959 26.3375C19.2258 26.4055 19.0301 26.4566 18.8089 26.4907C18.5877 26.5247 18.3581 26.5416 18.1198 26.5416ZM30.5741 29.6552C33.0241 29.6552 35.3464 28.8896 37.5412 27.3584C39.736 25.8271 40.8334 24.2278 40.8334 22.5604C40.8334 21.5736 40.4847 20.791 39.7871 20.2125C39.0894 19.634 38.0942 19.3448 36.8011 19.3448C34.3511 19.3448 32.0287 20.1104 29.8339 21.6416C27.6391 23.1729 26.5418 24.7722 26.5418 26.4396C26.5418 27.4264 26.8991 28.209 27.6136 28.7875C28.3282 29.366 29.3151 29.6552 30.5741 29.6552ZM30.8803 26.5416C30.6421 26.5416 30.4209 26.5247 30.2168 26.4907C30.0125 26.4566 29.8254 26.4055 29.6553 26.3375C29.9276 25.4528 30.8208 24.5851 32.335 23.7343C33.8492 22.8837 35.2529 22.4584 36.5459 22.4584C36.7841 22.4584 37.0053 22.4753 37.2094 22.5093C37.4136 22.5434 37.6008 22.5945 37.7709 22.6625C37.4986 23.5472 36.6054 24.4149 35.0912 25.2657C33.5769 26.1163 32.1733 26.5416 30.8803 26.5416Z" fill="black"/>
</g>
</g>
</g>
</g>
<defs>
<clipPath id="clip0_313_1383">
<rect width="49" height="49" fill="white"/>
</clipPath>
</defs>
</svg>
