<svg width="800" height="800" viewBox="0 0 800 800" fill="none" xmlns="http://www.w3.org/2000/svg">
<g id="drag">
<path id="Rectangle 65" d="M274.5 87L317.5 97L376 233.5H433.5L537.5 245L619.5 254L676.5 278.5L735 470L695 626.5L562.5 693L433.5 686.5L331 606.5L192 441L208.5 393.5L247 378.5L351 470L247 152L274.5 87Z" fill="#FFFE75"/>
<path id="Vector" d="M31.3598 527.064C43.0798 526.73 51.4498 517.69 51.7855 505.636C55.4683 359.989 130.468 252.176 244.307 209.989L322.321 424.274C322.99 425.949 322.655 427.287 320.981 427.957C319.641 428.627 318.637 427.957 317.633 426.953L278.124 384.096C252.343 356.306 219.53 354.297 194.084 375.726C165.29 400.167 164.954 436.663 193.08 471.15L305.244 606.753C389.954 709.207 489.397 741.016 600.557 700.503C733.483 652.289 790.067 530.413 736.493 383.091L711.381 314.453C685.27 241.797 635.378 211.997 576.784 232.421C561.048 211.997 536.941 204.967 510.825 214.341C501.785 217.69 493.08 222.713 484.708 229.074C467.633 206.976 441.183 198.94 413.727 208.65C406.36 211.329 399.328 215.346 392.633 220.033L354.464 115.57C340.065 75.7257 303.905 58.9843 266.74 72.3771C229.24 86.1057 212.498 121.931 226.897 161.774L229.575 169.14C99.9983 217.69 9.93262 342.579 9.93262 504.967C9.93262 517.02 19.9769 527.399 31.3598 527.064ZM586.16 656.64C498.437 688.783 416.071 672.377 338.727 578.963L226.561 444.029C214.508 429.967 214.508 416.239 225.223 406.864C235.267 397.824 248.994 400.837 260.043 412.221L337.387 492.243C350.445 505.636 361.83 506.976 372.878 502.957C385.937 498.27 391.628 484.207 386.271 469.81L267.744 143.694C262.723 130.301 268.75 117.579 281.471 112.89C294.53 108.203 306.584 114.564 311.607 127.957L396.315 360.659C400.334 371.707 412.723 376.73 423.771 372.713C434.485 368.694 440.178 356.976 436.16 346.261L405.691 262.221C410.378 257.869 416.74 253.516 423.101 251.171C438.838 245.48 451.897 252.511 457.923 268.917L484.708 342.243C488.727 353.627 501.115 357.98 511.83 353.963C522.208 350.279 528.905 339.23 524.553 327.511L502.788 268.249C507.477 263.56 513.838 259.207 520.2 256.864C535.937 251.171 548.994 258.203 555.021 274.61L572.767 323.493C577.12 335.211 589.508 339.564 600.223 335.547C610.601 331.864 616.963 320.48 612.945 309.096L599.553 272.936C627.677 262.89 654.131 285.659 672.207 335.881L693.3 393.136C739.174 519.699 697.318 616.127 586.16 656.64Z" fill="black"/>
</g>
</svg>
