<svg width="800" height="800" viewBox="0 0 800 800" fill="none" xmlns="http://www.w3.org/2000/svg">
<path d="M94 342L300.5 289.5L399 138.5L504.5 306L691.5 320.5L552.5 474L590.5 663.5L399 601L228.5 683L245 474L94 342Z" fill="#FFFE75"/>
<path d="M375.637 147.039C383.353 129.726 387.213 121.07 392.587 118.404C397.253 116.088 402.733 116.088 407.4 118.404C412.773 121.07 416.633 129.726 424.35 147.039L485.817 284.936C488.1 290.054 489.24 292.613 491.007 294.573C492.567 296.307 494.477 297.694 496.607 298.643C499.017 299.717 501.803 300.011 507.377 300.599L657.52 316.446C676.37 318.435 685.793 319.43 689.99 323.716C693.633 327.439 695.327 332.652 694.567 337.807C693.693 343.74 686.653 350.084 672.573 362.774L560.417 463.847C556.257 467.597 554.173 469.474 552.857 471.757C551.69 473.78 550.96 476.024 550.717 478.344C550.44 480.967 551.02 483.707 552.183 489.19L583.51 636.88C587.443 655.424 589.41 664.694 586.63 670.007C584.213 674.627 579.78 677.847 574.643 678.717C568.73 679.717 560.52 674.984 544.1 665.514L413.317 590.08C408.463 587.28 406.037 585.884 403.457 585.334C401.173 584.85 398.813 584.85 396.53 585.334C393.95 585.884 391.523 587.28 386.67 590.08L255.887 665.514C239.468 674.984 231.258 679.717 225.345 678.717C220.208 677.847 215.773 674.627 213.358 670.007C210.579 664.694 212.545 655.424 216.478 636.88L247.803 489.19C248.966 483.707 249.547 480.967 249.271 478.344C249.027 476.024 248.298 473.78 247.131 471.757C245.813 469.474 243.732 467.597 239.569 463.847L127.415 362.774C113.335 350.084 106.295 343.74 105.419 337.807C104.659 332.652 106.353 327.439 109.998 323.716C114.194 319.43 123.619 318.435 142.469 316.446L292.612 300.599C298.184 300.011 300.97 299.717 303.38 298.643C305.511 297.694 307.42 296.307 308.982 294.573C310.747 292.613 311.888 290.054 314.169 284.936L375.637 147.039Z" stroke="black" stroke-width="66.6667" stroke-linecap="round" stroke-linejoin="round"/>
</svg>
