<svg width="107" height="76" viewBox="0 0 107 76" fill="none" xmlns="http://www.w3.org/2000/svg">
<g id="Game" filter="url(#filter0_d_310_1355)">
<g id="Mask group">
<mask id="mask0_310_1355" style="mask-type:alpha" maskUnits="userSpaceOnUse" x="9" y="9" width="88" height="60">
<path id="Rectangle 44" d="M12.8069 16.5L23.3069 9.5H33.8069L57.5 10.9546L83 9.5L95.5 17.5L97 66.5L83 69L70.5 48L51 47H36.5L25 66.5L9.30688 65.5V43L12.8069 16.5Z" fill="#D9D9D9"/>
</mask>
<g mask="url(#mask0_310_1355)">
<rect id="Rectangle 45" x="4.80688" y="5.5" width="97" height="66" fill="#FFFE75"/>
</g>
</g>
<g id="Game_2">
<path id="Vector" d="M101.608 58.8191L99.6255 27.6187C99.624 27.562 99.6224 27.5108 99.6199 27.4683C99.624 27.3702 99.6284 27.2721 99.6284 27.1726C99.6222 21.2941 97.2844 15.6582 93.1277 11.5014C88.9711 7.34456 83.3353 5.00643 77.4568 5C72.5034 5 69.0886 6.6582 66.2469 8.6531C65.9512 8.56087 65.6613 8.46979 65.3799 8.3819C62.5125 7.47801 60.0328 6.69808 55.2258 6.43207C55.1688 6.42946 55.1134 6.42946 55.0567 6.42946H51.5552C51.4999 6.42946 51.4432 6.42946 51.3861 6.43207C46.5806 6.69808 44.1023 7.47801 41.2335 8.3819C40.9521 8.46979 40.6636 8.56068 40.368 8.65456C37.5233 6.65966 34.1115 5 29.1566 5C23.278 5.0072 17.6422 7.34575 13.4854 11.5027C9.32871 15.6596 6.99045 21.2956 6.98356 27.1742C6.98356 27.2723 6.9866 27.3689 6.99347 27.4556C6.99086 27.508 6.98648 27.562 6.98648 27.6189L5.00553 58.8191C5.00292 58.8831 5 58.9483 5 59.0124C5.0037 62.1907 6.26802 65.2378 8.51556 67.4851C10.7631 69.7324 13.8103 70.9965 16.9887 70.9998H23.2481C23.7655 70.9999 24.2744 70.8687 24.7272 70.6184C25.18 70.3682 25.5619 70.0072 25.8371 69.5691L38.4216 49.4934H68.1923L80.7793 69.5691C81.0541 70.0072 81.4358 70.3684 81.8884 70.6187C82.341 70.8689 82.8498 71.0002 83.367 71H89.625C92.8035 70.9971 95.851 69.7333 98.0986 67.4858C100.346 65.2384 101.61 62.191 101.614 59.0125C101.613 58.9483 101.612 58.8831 101.608 58.8191ZM89.6247 64.8882H85.0575L72.4734 44.814C72.1981 44.3756 71.8161 44.0142 71.363 43.7637C70.91 43.5132 70.4008 43.3817 69.8831 43.3816H36.7303C36.2128 43.3819 35.7039 43.5134 35.2511 43.7639C34.7984 44.0144 34.4166 44.3757 34.1414 44.814L21.5569 64.8882H16.9901C15.4471 64.8865 13.9665 64.2788 12.8672 63.1959C11.768 62.1131 11.138 60.6418 11.1131 59.0989L13.0911 27.9369C13.0958 27.8992 13.0976 27.8612 13.0967 27.8231C13.1025 27.7393 13.108 27.657 13.1109 27.5674C13.1124 27.5164 13.1139 27.4623 13.1124 27.4111C13.1121 27.3313 13.1073 27.2516 13.0981 27.1724C13.1032 22.9143 14.7969 18.832 17.8079 15.821C20.8188 12.8101 24.9011 11.1163 29.1593 11.1113C32.8496 11.1113 35.2497 12.3845 37.9268 14.442C38.3072 14.7345 38.7512 14.9333 39.2227 15.0222C39.6942 15.1111 40.1801 15.0876 40.6408 14.9536C41.5276 14.6964 42.3191 14.4461 43.0723 14.2104C45.731 13.372 47.6578 12.7666 51.6435 12.5394H54.9757C58.9603 12.7652 60.8871 13.372 63.547 14.2104C64.3001 14.4461 65.0931 14.6964 65.9784 14.9536C66.4389 15.0877 66.9246 15.1113 67.3959 15.0224C67.8672 14.9335 68.3109 14.7346 68.691 14.442C71.3695 12.3846 73.7695 11.1113 77.4585 11.1113C81.7109 11.114 85.7888 12.802 88.799 15.8055C91.8092 18.809 93.5063 22.8831 93.5185 27.1355C93.5127 27.2266 93.5072 27.3174 93.5072 27.4111C93.5042 27.4527 93.5042 27.4945 93.5072 27.5362C93.5067 27.6055 93.5105 27.6748 93.5185 27.7437C93.5185 27.8077 93.5211 27.8729 93.524 27.9369L95.505 59.0989C95.4789 60.642 94.8481 62.1131 93.7484 63.1958C92.6487 64.2785 91.168 64.8862 89.6247 64.8882Z" fill="black"/>
<path id="Vector_2" d="M79.8656 32.1431C80.6867 32.1427 81.4895 32.3858 82.1724 32.8417C82.8553 33.2976 83.3877 33.9457 83.7022 34.7042C84.0168 35.4627 84.0993 36.2974 83.9394 37.1027C83.7795 37.9081 83.3844 38.648 82.804 39.2288C82.2236 39.8096 81.484 40.2052 80.6788 40.3657C79.8735 40.5261 79.0387 40.4442 78.2801 40.1302C77.5214 39.8162 76.8729 39.2842 76.4165 38.6016C75.9602 37.919 75.7165 37.1164 75.7163 36.2953C75.7161 35.1945 76.1532 34.1388 76.9313 33.3601C77.7094 32.5815 78.7648 32.1437 79.8656 32.1431Z" fill="black"/>
<path id="Vector_3" d="M79.868 18.7532C80.6888 18.753 81.4913 18.9962 82.1738 19.4521C82.8564 19.9079 83.3885 20.556 83.7028 21.3142C84.0171 22.0725 84.0995 22.9069 83.9395 23.712C83.7796 24.5171 83.3845 25.2567 82.8042 25.8372C82.2239 26.4177 81.4845 26.8131 80.6795 26.9734C79.8745 27.1337 79.04 27.0517 78.2816 26.7377C77.5232 26.4237 76.8749 25.8919 76.4188 25.2095C75.9627 24.5271 75.7191 23.7248 75.719 22.904C75.7189 21.8034 76.1559 20.7478 76.934 19.9694C77.712 19.191 78.7674 18.7536 79.868 18.7532Z" fill="black"/>
<path id="Vector_4" d="M86.5609 25.4474C87.382 25.4471 88.1847 25.6903 88.8675 26.1462C89.5504 26.6022 90.0827 27.2504 90.3971 28.0089C90.7115 28.7674 90.7938 29.6021 90.6338 30.4074C90.4737 31.2128 90.0784 31.9525 89.4978 32.5332C88.9172 33.1138 88.1775 33.5091 87.3722 33.6693C86.5668 33.8294 85.7321 33.7471 84.9736 33.4328C84.2151 33.1184 83.5668 32.5862 83.1108 31.9034C82.6548 31.2206 82.4116 30.4178 82.4119 29.5968C82.4121 28.4964 82.8493 27.4412 83.6273 26.6631C84.4054 25.8851 85.4605 25.4478 86.5609 25.4474Z" fill="black"/>
<path id="Vector_5" d="M73.1698 25.4474C73.9909 25.4472 74.7936 25.6904 75.4764 26.1464C76.1592 26.6024 76.6915 27.2506 77.0058 28.0091C77.3202 28.7676 77.4025 29.6023 77.2424 30.4076C77.0823 31.2129 76.6869 31.9527 76.1063 32.5333C75.5257 33.1138 74.786 33.5092 73.9807 33.6693C73.1754 33.8294 72.3407 33.7471 71.5822 33.4328C70.8237 33.1184 70.1754 32.5862 69.7194 31.9034C69.2634 31.2205 69.0202 30.4178 69.0205 29.5968C69.0207 28.4964 69.4579 27.4411 70.236 26.663C71.0141 25.8849 72.0694 25.4476 73.1698 25.4474Z" fill="black"/>
<path id="Vector_6" d="M27.2044 23.154H21.0942V27.4329H16.8137V33.5441H21.0942V37.823H27.2044V33.5441H31.4827V27.4329H27.2044V23.154Z" fill="black"/>
</g>
</g>
<defs>
<filter id="filter0_d_310_1355" x="0" y="0" width="106.614" height="76" filterUnits="userSpaceOnUse" color-interpolation-filters="sRGB">
<feFlood flood-opacity="0" result="BackgroundImageFix"/>
<feColorMatrix in="SourceAlpha" type="matrix" values="0 0 0 0 0 0 0 0 0 0 0 0 0 0 0 0 0 0 127 0" result="hardAlpha"/>
<feOffset/>
<feGaussianBlur stdDeviation="2.5"/>
<feComposite in2="hardAlpha" operator="out"/>
<feColorMatrix type="matrix" values="0 0 0 0 0 0 0 0 0 0 0 0 0 0 0 0 0 0 1 0"/>
<feBlend mode="normal" in2="BackgroundImageFix" result="effect1_dropShadow_310_1355"/>
<feBlend mode="normal" in="SourceGraphic" in2="effect1_dropShadow_310_1355" result="shape"/>
</filter>
</defs>
</svg>
