<svg width="800" height="800" viewBox="0 0 800 800" fill="none" xmlns="http://www.w3.org/2000/svg">
<g id="gift 1">
<path id="Rectangle 62" d="M100 242.5H205.5L218.5 139L273 93.5L337.5 118L401 171L463.5 118L533.5 93.5L574 139L588 242.5H702.5V408.5H642.5L629.5 679L401 702L171.5 679L157 408.5H100V242.5Z" fill="#FFFE75"/>
<path id="Vector" d="M400 233.333V666.667M400 233.333H282.143C264.777 233.333 248.123 226.31 235.844 213.807C223.565 201.305 216.667 184.348 216.667 166.667C216.667 148.986 223.565 132.029 235.844 119.526C248.123 107.024 264.777 100 282.143 100C373.81 100 400 233.333 400 233.333ZM400 233.333H517.857C535.223 233.333 551.877 226.31 564.157 213.807C576.433 201.305 583.333 184.348 583.333 166.667C583.333 148.986 576.433 132.029 564.157 119.526C551.877 107.024 535.223 100 517.857 100C426.19 100 400 233.333 400 233.333ZM166.667 400H633.333V593.333C633.333 630.67 633.333 649.34 626.067 663.6C619.677 676.143 609.477 686.343 596.933 692.733C582.673 700 564.003 700 526.667 700H273.333C235.996 700 217.328 700 203.067 692.733C190.523 686.343 180.324 676.143 173.933 663.6C166.667 649.34 166.667 630.67 166.667 593.333V400ZM153.333 400H646.667C665.337 400 674.67 400 681.8 396.367C688.073 393.17 693.17 388.073 696.367 381.8C700 374.67 700 365.337 700 346.667V286.667C700 267.998 700 258.664 696.367 251.534C693.17 245.262 688.073 240.162 681.8 236.966C674.67 233.333 665.337 233.333 646.667 233.333H153.333C134.665 233.333 125.331 233.333 118.2 236.966C111.928 240.162 106.829 245.262 103.633 251.534C100 258.664 100 267.998 100 286.667V346.667C100 365.337 100 374.67 103.633 381.8C106.829 388.073 111.928 393.17 118.2 396.367C125.331 400 134.665 400 153.333 400Z" stroke="black" stroke-width="66.6667" stroke-linecap="round" stroke-linejoin="round"/>
</g>
</svg>
