<svg width="36" height="36" viewBox="0 0 36 36" fill="none" xmlns="http://www.w3.org/2000/svg">
<mask id="mask0_68_9695" style="mask-type:alpha" maskUnits="userSpaceOnUse" x="0" y="0" width="36" height="36">
<rect x="0.5" y="0.5" width="35" height="35" fill="#D9D9D9"/>
</mask>
<g mask="url(#mask0_68_9695)">
<path d="M16.5417 12.5677V11.9479C15.4722 11.6319 14.5972 11.0304 13.9167 10.1432C13.2361 9.25608 12.8958 8.22917 12.8958 7.0625C12.8958 5.65278 13.3941 4.44965 14.3906 3.45312C15.3872 2.4566 16.5903 1.95833 18 1.95833C19.4097 1.95833 20.6128 2.4566 21.6094 3.45312C22.6059 4.44965 23.1042 5.65278 23.1042 7.0625C23.1042 8.22917 22.7639 9.25608 22.0833 10.1432C21.4028 11.0304 20.5278 11.6319 19.4583 11.9479V12.5677L29.6667 18.4375C30.1285 18.7049 30.487 19.0634 30.7422 19.513C30.9974 19.9627 31.125 20.4549 31.125 20.9896V23.7604C31.125 24.2951 30.9974 24.7873 30.7422 25.237C30.487 25.6866 30.1285 26.0451 29.6667 26.3125L19.4583 32.1823C18.9965 32.4497 18.5104 32.5833 18 32.5833C17.4896 32.5833 17.0035 32.4497 16.5417 32.1823L6.33333 26.3125C5.87153 26.0451 5.51302 25.6866 5.25781 25.237C5.0026 24.7873 4.875 24.2951 4.875 23.7604V20.9896C4.875 20.4549 5.0026 19.9627 5.25781 19.513C5.51302 19.0634 5.87153 18.7049 6.33333 18.4375L16.5417 12.5677ZM10.4167 19.4583L18 23.8333L25.5833 19.4583L19.4583 15.9219V20.9167H16.5417V15.9219L10.4167 19.4583Z" fill="#1C1B1F"/>
</g>
</svg>
