<svg width="1200" height="1084" viewBox="0 0 1200 1084" fill="none" xmlns="http://www.w3.org/2000/svg">
<g clip-path="url(#clip0_359_1375)">
<path d="M715.721 284H84.2793C37.7297 284 0 321.893 0 368.279V999.721C0 1046.27 37.893 1084 84.2793 1084H715.721C762.27 1084 800 1046.11 800 999.721V368.279C800 321.893 762.107 284 715.721 284ZM759.984 999.721C759.984 1024.06 740.057 1043.98 715.721 1043.98H84.2793C59.9428 1043.98 40.0163 1024.06 40.0163 999.721V368.279C40.0163 343.943 59.9428 324.016 84.2793 324.016H715.721C740.057 324.016 759.984 343.943 759.984 368.279V999.721Z" fill="black"/>
<path d="M418.783 468.565C418.62 468.238 418.456 468.075 418.456 467.748C418.13 467.095 417.803 466.442 417.476 465.788C417.15 465.298 416.823 464.645 416.496 464.155C416.17 463.665 415.68 463.175 415.353 462.685C414.863 462.195 414.536 461.705 414.046 461.215C413.556 460.725 413.23 460.398 412.74 460.072C412.25 459.582 411.596 459.255 411.106 458.765C410.616 458.439 410.127 458.112 409.637 457.949C408.983 457.622 408.33 457.295 407.513 456.969C407.187 456.805 407.023 456.642 406.697 456.642C406.37 456.479 406.207 456.479 405.88 456.479C405.063 456.315 404.41 455.989 403.593 455.989C403.103 455.825 402.45 455.825 401.96 455.662C401.307 455.662 400.653 455.499 399.837 455.499C399.183 455.499 398.53 455.499 397.877 455.662C397.223 455.662 396.733 455.825 396.08 455.989C395.263 456.152 394.61 456.315 393.957 456.479C393.63 456.642 393.467 456.642 393.14 456.642C392.813 456.805 392.65 456.969 392.323 456.969C391.67 457.295 391.017 457.622 390.363 457.949C389.873 458.275 389.383 458.602 388.893 458.765C388.24 459.092 387.75 459.582 387.26 460.072C386.77 460.398 386.28 460.888 385.953 461.215C385.463 461.705 384.973 462.195 384.647 462.685C384.157 463.175 383.83 463.665 383.503 464.155C383.177 464.645 382.85 465.135 382.523 465.788C382.197 466.442 381.87 467.095 381.543 467.748C381.38 468.075 381.217 468.238 381.217 468.565L231.768 886.042C228.011 896.495 233.401 907.928 243.855 911.685C246.141 912.501 248.428 912.828 250.551 912.828C258.718 912.828 266.394 907.765 269.334 899.598L312.127 779.876H485.749C486.239 779.876 486.729 779.713 487.382 779.713L530.175 899.598C533.115 907.765 540.792 912.828 548.959 912.828C551.245 912.828 553.532 912.501 555.655 911.685C566.109 907.928 571.498 896.495 567.742 886.042L418.783 468.565ZM326.664 739.696L400 534.715L473.336 739.696H326.664Z" fill="black"/>
</g>
<g clip-path="url(#clip1_359_1375)">
<path d="M431.5 273L614.5 258.5L801 70.5H842L852 738H815L599 543.5L431.5 531.5V273Z" fill="#FFFE75"/>
<path fill-rule="evenodd" clip-rule="evenodd" d="M870.597 47.0834V752.978H790.266L602.027 564.74H470.59C431.671 564.74 400 533.069 400 494.15V305.911C400 266.993 431.671 235.322 470.59 235.322H602.027L790.266 47.0834H870.597ZM823.537 94.143H809.748L635.298 268.593V531.468L809.748 705.918H823.537V94.1434V94.143ZM1096.66 150.44C1163.29 217.124 1200 305.738 1200 400.045C1200 494.305 1163.29 582.919 1096.66 649.602L1063.39 616.331C1121.17 558.542 1152.94 481.74 1152.94 400.045C1152.94 318.302 1121.17 241.501 1063.39 183.712L1096.66 150.44ZM997.027 250.334C1036.89 290.758 1058.82 343.936 1058.82 400.031C1058.82 456.126 1036.89 509.303 997.027 549.728L963.473 516.692C994.627 485.115 1011.76 443.702 1011.76 400.031C1011.76 356.36 994.627 314.947 963.473 283.37L997.027 250.334ZM588.239 282.382H470.59C457.648 282.382 447.06 292.923 447.06 305.911V494.15C447.06 507.138 457.648 517.68 470.59 517.68H588.239V282.382Z" fill="black"/>
</g>
<defs>
<clipPath id="clip0_359_1375">
<rect width="800" height="800" fill="white" transform="translate(0 284)"/>
</clipPath>
<clipPath id="clip1_359_1375">
<rect width="800" height="800" fill="white" transform="translate(400)"/>
</clipPath>
</defs>
</svg>
