<svg width="36" height="36" viewBox="0 0 36 36" fill="none" xmlns="http://www.w3.org/2000/svg">
<mask id="mask0_68_9689" style="mask-type:alpha" maskUnits="userSpaceOnUse" x="0" y="0" width="36" height="36">
<rect x="0.5" y="0.5" width="35" height="35" fill="#D9D9D9"/>
</mask>
<g mask="url(#mask0_68_9689)">
<path d="M23.1042 16.5417C23.7118 16.5417 24.2283 16.329 24.6536 15.9036C25.079 15.4783 25.2917 14.9618 25.2917 14.3542C25.2917 13.7465 25.079 13.23 24.6536 12.8047C24.2283 12.3793 23.7118 12.1667 23.1042 12.1667C22.4965 12.1667 21.98 12.3793 21.5547 12.8047C21.1293 13.23 20.9167 13.7465 20.9167 14.3542C20.9167 14.9618 21.1293 15.4783 21.5547 15.9036C21.98 16.329 22.4965 16.5417 23.1042 16.5417ZM12.8958 16.5417C13.5035 16.5417 14.02 16.329 14.4453 15.9036C14.8706 15.4783 15.0833 14.9618 15.0833 14.3542C15.0833 13.7465 14.8706 13.23 14.4453 12.8047C14.02 12.3793 13.5035 12.1667 12.8958 12.1667C12.2882 12.1667 11.7717 12.3793 11.3463 12.8047C10.921 13.23 10.7083 13.7465 10.7083 14.3542C10.7083 14.9618 10.921 15.4783 11.3463 15.9036C11.7717 16.329 12.2882 16.5417 12.8958 16.5417ZM18 26.0208C19.6528 26.0208 21.1536 25.5529 22.5026 24.6172C23.8516 23.6814 24.8299 22.4479 25.4375 20.9167H10.5625C11.1701 22.4479 12.1484 23.6814 13.4974 24.6172C14.8463 25.5529 16.3472 26.0208 18 26.0208ZM18 32.5833C15.9826 32.5833 14.0868 32.2005 12.3125 31.4349C10.5382 30.6693 8.99478 29.6302 7.68228 28.3177C6.36978 27.0052 5.33072 25.4618 4.56509 23.6875C3.79947 21.9132 3.41666 20.0174 3.41666 18C3.41666 15.9826 3.79947 14.0868 4.56509 12.3125C5.33072 10.5382 6.36978 8.99479 7.68228 7.68229C8.99478 6.36979 10.5382 5.33073 12.3125 4.5651C14.0868 3.79948 15.9826 3.41666 18 3.41666C20.0173 3.41666 21.9132 3.79948 23.6875 4.5651C25.4618 5.33073 27.0052 6.36979 28.3177 7.68229C29.6302 8.99479 30.6693 10.5382 31.4349 12.3125C32.2005 14.0868 32.5833 15.9826 32.5833 18C32.5833 20.0174 32.2005 21.9132 31.4349 23.6875C30.6693 25.4618 29.6302 27.0052 28.3177 28.3177C27.0052 29.6302 25.4618 30.6693 23.6875 31.4349C21.9132 32.2005 20.0173 32.5833 18 32.5833Z" fill="#1C1B1F"/>
</g>
</svg>
