<svg width="800" height="800" viewBox="0 0 800 800" fill="none" xmlns="http://www.w3.org/2000/svg">
<g id="planet 1">
<path id="Rectangle 60" d="M197.5 370.5L236 268.5L315.5 200H447.5L538 256.5L582 318.5L602.5 370.5V408.5V440.5L557.5 539.5L447.5 600L322 589.5L236 529L222 502.5L197.5 440.5V370.5Z" fill="#FFFE75"/>
<path id="Vector" d="M553.673 271.989C646.54 265.57 712.89 279.787 721.983 313.728C736.277 367.073 603.713 448.947 425.89 496.593C248.068 544.24 92.3274 539.62 78.033 486.273C68.94 452.34 119.274 406.86 202.882 365.993M553.673 271.989C516.987 227.995 461.763 200 400.003 200C301.138 200 219.028 271.734 202.882 365.993M553.673 271.989C582.6 306.675 600.003 351.307 600.003 400C600.003 510.457 510.46 600 400.003 600C289.546 600 200.003 510.457 200.003 400C200.003 388.407 200.989 377.047 202.882 365.993" stroke="black" stroke-width="66.6667" stroke-linecap="round" stroke-linejoin="round"/>
</g>
</svg>
