<svg width="800" height="800" viewBox="0 0 800 800" fill="none" xmlns="http://www.w3.org/2000/svg">
<g id="press 1">
<path id="Rectangle 67" d="M197 425.5L240.5 414.5L320.5 466.5L347 433V177.5L389.5 150L415 177.5V300.5L454 309.5L486 349.5L537.5 359L555 384.5L608 393.5V618L555 685.5L477.5 717.5L376 701.5L184 478.5L197 425.5Z" fill="#FFFE75"/>
<ellipse id="Ellipse 36" cx="381" cy="177" rx="93" ry="92" fill="#FFFE75"/>
<path id="Vector" d="M366.667 350V434.915C366.667 445.945 362.799 456.626 355.738 465.1C339.067 485.105 309.335 487.808 289.33 471.137L258.536 445.475C249.121 437.63 237.255 433.333 225 433.333C216.121 433.333 208.027 438.42 204.177 446.421L202.987 448.894C198.482 458.255 199.847 469.383 206.48 477.378L353.595 654.716C377.392 683.402 412.728 700 450 700C532.843 700 600 632.843 600 550V416.667C600 407.462 592.538 400 583.333 400C574.128 400 566.667 407.462 566.667 416.667V450C566.667 459.205 559.205 466.667 550 466.667C540.795 466.667 533.333 459.205 533.333 450V383.333C533.333 374.129 525.871 366.667 516.667 366.667C507.462 366.667 500 374.129 500 383.333V450C500 459.205 492.538 466.667 483.333 466.667C474.128 466.667 466.667 459.205 466.667 450V350C466.667 340.795 459.205 333.333 450 333.333C440.795 333.333 433.333 340.795 433.333 350V450C433.333 459.205 425.871 466.667 416.667 466.667C407.462 466.667 400 459.205 400 450V183.333C400 174.129 392.538 166.667 383.333 166.667C374.128 166.667 366.667 174.129 366.667 183.333V350ZM333.333 350V288.77C293.092 269.676 266.667 228.948 266.667 183.333C266.667 118.9 318.9 66.6666 383.333 66.6666C447.766 66.6666 500 118.9 500 183.333C500 228.952 473.571 269.679 433.333 288.77V302.845C438.546 301.003 444.156 300 450 300C473.058 300 492.47 315.608 498.248 336.835C503.948 334.575 510.162 333.333 516.667 333.333C539.724 333.333 559.137 348.941 564.915 370.168C570.615 367.908 576.829 366.667 583.333 366.667C610.947 366.667 633.333 389.052 633.333 416.667V550C633.333 651.252 551.252 733.333 450 733.333C402.81 733.333 358.071 712.318 327.941 675.999L180.825 498.661C165.87 480.634 162.794 455.545 172.951 434.439L174.141 431.967C183.545 412.425 203.313 400 225 400C245.052 400 264.47 407.03 279.875 419.868L310.67 445.53C316.532 450.415 325.245 449.623 330.131 443.76C332.2 441.277 333.333 438.147 333.333 434.915V350ZM433.333 250.024C453.881 234.604 466.667 210.153 466.667 183.333C466.667 137.31 429.357 100 383.333 100C337.309 100 300 137.31 300 183.333C300 210.152 312.784 234.603 333.333 250.023V183.333C333.333 155.719 355.719 133.333 383.333 133.333C410.947 133.333 433.333 155.719 433.333 183.333V250.024Z" fill="black"/>
</g>
</svg>
