<svg width="1000" height="1204" viewBox="0 0 1000 1204" fill="none" xmlns="http://www.w3.org/2000/svg">
<path d="M100 166.667C81.591 166.667 66.667 181.591 66.667 200C66.667 218.409 81.591 233.333 100 233.333H700C718.41 233.333 733.334 218.409 733.334 200C733.334 181.591 718.41 166.667 700 166.667H100Z" fill="black"/>
<path d="M100 433.333C81.591 433.333 66.667 448.257 66.667 466.667C66.667 485.077 81.591 500 100 500H700C718.41 500 733.334 485.077 733.334 466.667C733.334 448.257 718.41 433.333 700 433.333H100Z" fill="black"/>
<path d="M166.667 333.333C166.667 314.924 181.591 300 200 300H600C618.41 300 633.334 314.924 633.334 333.333C633.334 351.743 618.41 366.667 600 366.667H200C181.591 366.667 166.667 351.743 166.667 333.333Z" fill="black"/>
<path d="M200 566.667C181.591 566.667 166.667 581.59 166.667 600C166.667 618.41 181.591 633.333 200 633.333H600C618.41 633.333 633.334 618.41 633.334 600C633.334 581.59 618.41 566.667 600 566.667H200Z" fill="url(#paint0_linear_406_1392)"/>
<path d="M397 829.5L440.5 818.5L520.5 870.5L547 837V581.5L589.5 554L615 581.5V704.5L654 713.5L686 753.5L737.5 763L755 788.5L808 797.5V1022L755 1089.5L677.5 1121.5L576 1105.5L384 882.5L397 829.5Z" fill="#FFFE75"/>
<ellipse cx="581" cy="581" rx="93" ry="92" fill="#FFFE75"/>
<path d="M566.667 754V838.915C566.667 849.945 562.799 860.626 555.738 869.1C539.067 889.105 509.335 891.808 489.33 875.137L458.536 849.475C449.121 841.63 437.255 837.333 425 837.333C416.121 837.333 408.027 842.42 404.177 850.421L402.987 852.894C398.482 862.255 399.847 873.383 406.48 881.378L553.595 1058.72C577.392 1087.4 612.728 1104 650 1104C732.843 1104 800 1036.84 800 954V820.667C800 811.462 792.538 804 783.333 804C774.128 804 766.667 811.462 766.667 820.667V854C766.667 863.205 759.205 870.667 750 870.667C740.795 870.667 733.333 863.205 733.333 854V787.333C733.333 778.129 725.871 770.667 716.667 770.667C707.462 770.667 700 778.129 700 787.333V854C700 863.205 692.538 870.667 683.333 870.667C674.128 870.667 666.667 863.205 666.667 854V754C666.667 744.795 659.205 737.333 650 737.333C640.795 737.333 633.333 744.795 633.333 754V854C633.333 863.205 625.871 870.667 616.667 870.667C607.462 870.667 600 863.205 600 854V587.333C600 578.129 592.538 570.667 583.333 570.667C574.128 570.667 566.667 578.129 566.667 587.333V754ZM533.333 754V692.77C493.092 673.676 466.667 632.949 466.667 587.333C466.667 522.9 518.9 470.667 583.333 470.667C647.766 470.667 700 522.9 700 587.333C700 632.952 673.571 673.679 633.333 692.77V706.845C638.546 705.003 644.156 704 650 704C673.058 704 692.47 719.608 698.248 740.835C703.948 738.575 710.162 737.333 716.667 737.333C739.724 737.333 759.137 752.941 764.915 774.168C770.615 771.909 776.829 770.667 783.333 770.667C810.947 770.667 833.333 793.052 833.333 820.667V954C833.333 1055.25 751.252 1137.33 650 1137.33C602.81 1137.33 558.071 1116.32 527.941 1080L380.825 902.661C365.87 884.634 362.794 859.545 372.951 838.439L374.141 835.967C383.545 816.425 403.313 804 425 804C445.052 804 464.47 811.03 479.875 823.868L510.67 849.53C516.532 854.415 525.245 853.623 530.131 847.76C532.2 845.277 533.333 842.147 533.333 838.915V754ZM633.333 654.024C653.881 638.604 666.667 614.153 666.667 587.333C666.667 541.31 629.357 504 583.333 504C537.309 504 500 541.31 500 587.333C500 614.152 512.784 638.603 533.333 654.024V587.333C533.333 559.719 555.719 537.333 583.333 537.333C610.947 537.333 633.333 559.719 633.333 587.333V654.024Z" fill="black"/>
<defs>
<linearGradient id="paint0_linear_406_1392" x1="400" y1="566.667" x2="400" y2="633.333" gradientUnits="userSpaceOnUse">
<stop stop-color="#21D304"/>
<stop offset="1" stop-color="#04D332"/>
</linearGradient>
</defs>
</svg>
