<svg width="1024" height="991" viewBox="0 0 1024 991" fill="none" xmlns="http://www.w3.org/2000/svg">
<g clip-path="url(#clip0_359_1375)">
<path d="M715.721 -0.000488281H84.2793C37.7297 -0.000488281 0 37.8925 0 84.2788V715.72C0 762.27 37.893 799.999 84.2793 799.999H715.721C762.27 799.999 800 762.107 800 715.72V84.2788C800 37.8925 762.107 -0.000488281 715.721 -0.000488281ZM759.984 715.72C759.984 740.057 740.057 759.983 715.721 759.983H84.2793C59.9428 759.983 40.0163 740.057 40.0163 715.72V84.2788C40.0163 59.9423 59.9428 40.0158 84.2793 40.0158H715.721C740.057 40.0158 759.984 59.9423 759.984 84.2788V715.72Z" fill="black"/>
<path d="M418.783 184.565C418.62 184.238 418.456 184.075 418.456 183.748C418.13 183.095 417.803 182.441 417.476 181.788C417.15 181.298 416.823 180.645 416.496 180.155C416.17 179.665 415.68 179.175 415.353 178.685C414.863 178.195 414.536 177.705 414.046 177.215C413.556 176.725 413.23 176.398 412.74 176.071C412.25 175.581 411.596 175.255 411.106 174.765C410.616 174.438 410.127 174.111 409.637 173.948C408.983 173.621 408.33 173.295 407.513 172.968C407.187 172.805 407.023 172.641 406.697 172.641C406.37 172.478 406.207 172.478 405.88 172.478C405.063 172.315 404.41 171.988 403.593 171.988C403.103 171.825 402.45 171.825 401.96 171.661C401.307 171.661 400.653 171.498 399.837 171.498C399.183 171.498 398.53 171.498 397.877 171.661C397.223 171.661 396.733 171.825 396.08 171.988C395.263 172.151 394.61 172.315 393.957 172.478C393.63 172.641 393.467 172.641 393.14 172.641C392.813 172.805 392.65 172.968 392.323 172.968C391.67 173.295 391.017 173.621 390.363 173.948C389.873 174.275 389.383 174.601 388.893 174.765C388.24 175.091 387.75 175.581 387.26 176.071C386.77 176.398 386.28 176.888 385.953 177.215C385.463 177.705 384.973 178.195 384.647 178.685C384.157 179.175 383.83 179.665 383.503 180.155C383.177 180.645 382.85 181.135 382.523 181.788C382.197 182.441 381.87 183.095 381.543 183.748C381.38 184.075 381.217 184.238 381.217 184.565L231.768 602.041C228.011 612.494 233.401 623.928 243.855 627.684C246.141 628.501 248.428 628.828 250.551 628.828C258.718 628.828 266.394 623.764 269.334 615.598L312.127 495.875H485.749C486.239 495.875 486.729 495.712 487.382 495.712L530.175 615.598C533.115 623.764 540.792 628.828 548.959 628.828C551.245 628.828 553.532 628.501 555.655 627.684C566.109 623.928 571.498 612.494 567.742 602.041L418.783 184.565ZM326.664 455.696L400 250.714L473.336 455.696H326.664Z" fill="black"/>
</g>
<path d="M421 616.5L464.5 605.5L544.5 657.5L571 624V368.5L613.5 341L639 368.5V491.5L678 500.5L710 540.5L761.5 550L779 575.5L832 584.5V809L779 876.5L701.5 908.5L600 892.5L408 669.5L421 616.5Z" fill="#FFFE75"/>
<ellipse cx="605" cy="368" rx="93" ry="92" fill="#FFFE75"/>
<path d="M590.667 541V625.915C590.667 636.945 586.799 647.626 579.738 656.1C563.067 676.105 533.335 678.808 513.33 662.137L482.536 636.475C473.121 628.63 461.255 624.333 449 624.333C440.121 624.333 432.027 629.42 428.177 637.421L426.987 639.894C422.482 649.255 423.847 660.383 430.48 668.378L577.595 845.716C601.392 874.402 636.728 891 674 891C756.843 891 824 823.843 824 741V607.667C824 598.462 816.538 591 807.333 591C798.128 591 790.667 598.462 790.667 607.667V641C790.667 650.205 783.205 657.667 774 657.667C764.795 657.667 757.333 650.205 757.333 641V574.333C757.333 565.129 749.871 557.667 740.667 557.667C731.462 557.667 724 565.129 724 574.333V641C724 650.205 716.538 657.667 707.333 657.667C698.128 657.667 690.667 650.205 690.667 641V541C690.667 531.795 683.205 524.333 674 524.333C664.795 524.333 657.333 531.795 657.333 541V641C657.333 650.205 649.871 657.667 640.667 657.667C631.462 657.667 624 650.205 624 641V374.333C624 365.129 616.538 357.667 607.333 357.667C598.128 357.667 590.667 365.129 590.667 374.333V541ZM557.333 541V479.77C517.092 460.676 490.667 419.948 490.667 374.333C490.667 309.9 542.9 257.667 607.333 257.667C671.766 257.667 724 309.9 724 374.333C724 419.952 697.571 460.679 657.333 479.77V493.845C662.546 492.003 668.156 491 674 491C697.058 491 716.47 506.608 722.248 527.835C727.948 525.575 734.162 524.333 740.667 524.333C763.724 524.333 783.137 539.941 788.915 561.168C794.615 558.908 800.829 557.667 807.333 557.667C834.947 557.667 857.333 580.052 857.333 607.667V741C857.333 842.252 775.252 924.333 674 924.333C626.81 924.333 582.071 903.318 551.941 866.999L404.825 689.661C389.87 671.634 386.794 646.545 396.951 625.439L398.141 622.967C407.545 603.425 427.313 591 449 591C469.052 591 488.47 598.03 503.875 610.868L534.67 636.53C540.532 641.415 549.245 640.623 554.131 634.76C556.2 632.277 557.333 629.147 557.333 625.915V541ZM657.333 441.024C677.881 425.604 690.667 401.153 690.667 374.333C690.667 328.31 653.357 291 607.333 291C561.309 291 524 328.31 524 374.333C524 401.152 536.784 425.603 557.333 441.023V374.333C557.333 346.719 579.719 324.333 607.333 324.333C634.947 324.333 657.333 346.719 657.333 374.333V441.024Z" fill="black"/>
<defs>
<clipPath id="clip0_359_1375">
<rect width="800" height="800" fill="white" transform="translate(0 -0.000488281)"/>
</clipPath>
</defs>
</svg>
