<svg width="1727" height="1601" viewBox="0 0 1727 1601" fill="none" xmlns="http://www.w3.org/2000/svg">
<rect x="15" y="15" width="525" height="506" rx="135" fill="#FFFE75"/>
<rect x="15" y="15" width="525" height="506" rx="135" stroke="black" stroke-width="30"/>
<path d="M196.135 159.75C195.901 154.617 197.535 150.65 201.035 147.85C204.535 144.817 209.435 143.183 215.735 142.95C219.001 142.717 222.151 143.067 225.185 144C228.218 144.933 230.785 146.45 232.885 148.55C235.218 150.65 236.385 153.217 236.385 156.25C234.751 196.85 234.051 237.8 234.285 279.1C234.518 320.167 233.351 361.233 230.785 402.3C230.551 406.733 228.568 410.233 224.835 412.8C221.101 415.367 216.901 416.883 212.235 417.35C205.701 417.35 200.335 416.183 196.135 413.85C192.168 411.75 190.301 408.133 190.535 403C192.168 377.333 193.101 350.967 193.335 323.9C193.568 296.6 193.801 269.067 194.035 241.3C194.268 213.533 194.968 186.35 196.135 159.75ZM222.385 179.7V146.8C227.051 145.4 233.235 144.117 240.935 142.95C248.635 141.783 258.785 141.2 271.385 141.2C280.951 141.2 291.101 142.133 301.835 144C312.801 145.633 322.951 148.667 332.285 153.1C341.851 157.533 349.551 163.717 355.385 171.65C361.451 179.35 364.485 189.267 364.485 201.4C364.485 213.067 360.635 224.85 352.935 236.75C345.468 248.65 332.868 258.217 315.135 265.45C329.135 268.95 340.568 273.967 349.435 280.5C358.535 286.8 365.301 294.15 369.735 302.55C374.401 310.95 376.735 319.7 376.735 328.8C376.735 342.333 372.768 354.467 364.835 365.2C357.135 375.7 346.751 384.567 333.685 391.8C320.851 399.033 306.735 404.517 291.335 408.25C275.935 411.983 260.651 413.85 245.485 413.85C237.785 413.85 230.318 413.5 223.085 412.8C215.851 412.1 210.251 411.517 206.285 411.05L210.135 376.05C215.501 376.983 220.985 377.683 226.585 378.15C232.418 378.383 237.785 378.5 242.685 378.5C253.418 378.5 264.151 377.45 274.885 375.35C285.851 373.25 295.885 370.1 304.985 365.9C314.085 361.467 321.435 356.1 327.035 349.8C332.635 343.5 335.435 336.033 335.435 327.4C335.435 320.4 333.218 314.333 328.785 309.2C324.351 303.833 318.635 299.517 311.635 296.25C304.868 292.75 297.401 290.183 289.235 288.55C281.301 286.683 273.835 285.75 266.835 285.75C260.068 286.683 254.118 287.5 248.985 288.2C243.851 288.667 238.951 288.9 234.285 288.9C224.951 288.9 217.718 287.617 212.585 285.05C207.685 282.483 205.235 277.117 205.235 268.95C205.235 266.383 205.468 263.817 205.935 261.25C206.401 258.45 207.335 256.117 208.735 254.25C210.135 252.15 212.001 251.217 214.335 251.45C218.301 251.683 222.035 252.033 225.535 252.5C229.268 252.733 233.235 252.85 237.435 252.85C246.068 252.85 255.401 252.033 265.435 250.4C275.701 248.533 285.268 245.733 294.135 242C303.001 238.033 310.351 233.017 316.185 226.95C322.018 220.65 324.935 213.183 324.935 204.55C324.935 197.083 322.135 191.25 316.535 187.05C311.168 182.617 304.285 179.467 295.885 177.6C287.718 175.733 279.435 174.8 271.035 174.8C266.135 174.8 260.418 175.15 253.885 175.85C247.585 176.317 241.518 177.017 235.685 177.95C229.851 178.65 225.418 179.233 222.385 179.7Z" fill="black"/>
<rect x="601" y="15" width="525" height="506" rx="135" fill="#FFFE75"/>
<rect x="601" y="15" width="525" height="506" rx="135" stroke="black" stroke-width="30"/>
<path d="M916.938 147.5C920.438 148.667 923.121 150.533 924.988 153.1C926.855 155.433 927.788 158.117 927.788 161.15C927.788 163.017 927.088 165.233 925.688 167.8C924.521 170.367 922.771 172.817 920.438 175.15C918.105 177.483 915.538 179.35 912.738 180.75C909.938 181.917 906.788 182.267 903.288 181.8C900.021 181.1 896.055 180.05 891.388 178.65C886.955 177.25 881.005 176.55 873.538 176.55C859.771 176.55 847.288 179.817 836.088 186.35C825.121 192.65 815.788 201.283 808.088 212.25C800.621 223.217 794.905 235.35 790.938 248.65C786.971 261.95 784.988 275.6 784.988 289.6C784.988 302.667 786.621 314.917 789.888 326.35C793.388 337.783 798.405 347.817 804.938 356.45C811.471 365.083 819.521 371.85 829.088 376.75C838.655 381.417 849.505 383.75 861.638 383.75C876.805 383.75 890.571 379.783 902.938 371.85C915.305 363.683 925.105 351.783 932.338 336.15C939.571 320.517 943.188 301.383 943.188 278.75C943.188 265.917 942.021 254.367 939.688 244.1C937.355 233.6 934.321 224.5 930.588 216.8C927.088 209.1 923.705 203.033 920.438 198.6C918.338 195.8 916.471 193.35 914.838 191.25C913.438 188.917 912.738 186.35 912.738 183.55C912.738 181.45 913.438 179 914.838 176.2C916.238 173.4 918.105 170.717 920.438 168.15C922.771 165.583 925.221 163.483 927.788 161.85C930.355 160.217 932.571 159.4 934.438 159.4C938.171 159.4 941.321 160.45 943.888 162.55C946.688 164.65 949.138 167.217 951.238 170.25C953.338 173.283 955.205 176.083 956.838 178.65C966.405 192.417 973.405 208.05 977.838 225.55C982.271 242.817 984.488 260.433 984.488 278.4C984.488 297.533 981.571 315.733 975.738 333C970.138 350.033 961.971 365.2 951.238 378.5C940.505 391.567 927.555 401.833 912.388 409.3C897.221 416.767 880.071 420.5 860.938 420.5C844.605 420.5 830.021 417.933 817.188 412.8C804.355 407.433 793.271 400.317 783.938 391.45C774.605 382.35 766.905 372.317 760.838 361.35C755.005 350.15 750.571 338.483 747.538 326.35C744.738 314.217 743.338 302.55 743.338 291.35C743.338 272.683 746.371 254.367 752.438 236.4C758.738 218.433 767.721 202.217 779.388 187.75C791.288 173.05 805.288 161.383 821.388 152.75C837.488 143.883 855.571 139.45 875.638 139.45C881.938 139.45 888.705 140.15 895.938 141.55C903.405 142.717 910.405 144.7 916.938 147.5Z" fill="black"/>
<rect x="1187" y="15" width="525" height="506" rx="135" fill="#FFFE75"/>
<rect x="1187" y="15" width="525" height="506" rx="135" stroke="black" stroke-width="30"/>
<path d="M1435.42 160.1C1435.89 154.733 1438.1 150.767 1442.07 148.2C1446.04 145.633 1450.59 144.35 1455.72 144.35C1461.79 144.35 1466.8 145.633 1470.77 148.2C1474.74 150.767 1476.6 154.967 1476.37 160.8C1472.87 200.933 1470.07 241.417 1467.97 282.25C1465.87 322.85 1464.35 363.333 1463.42 403.7C1463.42 409.3 1461.2 413.267 1456.77 415.6C1452.57 418.167 1447.79 419.45 1442.42 419.45C1437.05 419.45 1432.39 418.167 1428.42 415.6C1424.45 413.033 1422.47 408.6 1422.47 402.3C1423.4 362.633 1424.92 322.5 1427.02 281.9C1429.12 241.067 1431.92 200.467 1435.42 160.1Z" fill="black"/>
<rect x="279" y="593" width="525" height="506" rx="135" fill="#FFFE75"/>
<rect x="279" y="593" width="525" height="506" rx="135" stroke="black" stroke-width="30"/>
<path d="M453.398 982.4C451.998 987.3 449.432 990.917 445.698 993.25C442.198 995.583 437.298 996.75 430.998 996.75C424.932 996.75 420.148 995.233 416.648 992.2C413.382 989.167 411.748 985.55 411.748 981.35C411.748 979.25 412.098 976.917 412.798 974.35C413.732 971.55 415.015 967.933 416.648 963.5C424.582 943.2 432.865 923.25 441.498 903.65C450.132 883.817 458.998 864.217 468.098 844.85C477.198 825.25 486.415 805.883 495.748 786.75C505.315 767.617 514.648 748.483 523.748 729.35C526.082 724.45 529.115 720.95 532.848 718.85C536.582 716.517 540.782 715.35 545.448 715.35C551.282 715.35 556.415 716.75 560.848 719.55C565.282 722.117 568.198 725.617 569.598 730.05C570.765 732.617 573.215 738.917 576.948 748.95C580.682 758.75 585.232 771 590.598 785.7C595.965 800.167 601.798 815.917 608.098 832.95C614.398 849.75 620.815 866.55 627.348 883.35C633.882 900.15 639.948 915.667 645.548 929.9C651.382 944.133 656.282 955.8 660.248 964.9C661.648 967.233 662.815 969.917 663.748 972.95C664.915 975.983 665.498 978.433 665.498 980.3C665.498 985.433 663.515 989.633 659.548 992.9C655.815 996.4 651.148 998.15 645.548 998.15C641.815 998.15 638.082 997.567 634.348 996.4C630.615 995.233 627.815 992.55 625.948 988.35C618.248 970.85 610.665 952.067 603.198 932C595.732 911.933 588.498 891.867 581.498 871.8C574.498 851.5 567.848 832.6 561.548 815.1C555.248 797.367 549.648 782.083 544.748 769.25C533.315 794.217 522.115 818.833 511.148 843.1C500.415 867.133 490.148 890.817 480.348 914.15C470.782 937.25 461.798 960 453.398 982.4ZM459.348 893.5C459.348 889.533 460.515 886.383 462.848 884.05C465.415 881.483 468.332 879.617 471.598 878.45C474.865 877.05 477.782 876.117 480.348 875.65C485.482 874.483 492.248 873.433 500.648 872.5C509.282 871.567 519.315 870.983 530.748 870.75C542.182 870.517 555.015 870.983 569.248 872.15C572.982 872.383 577.298 872.383 582.198 872.15C587.098 871.917 592.115 871.683 597.248 871.45C602.615 870.983 607.398 870.517 611.598 870.05C616.032 869.583 619.532 869.117 622.098 868.65C627.465 867.95 631.782 869.35 635.048 872.85C638.548 876.117 640.298 880.433 640.298 885.8C640.298 890.7 638.665 894.667 635.398 897.7C632.365 900.733 628.282 903.067 623.148 904.7C618.248 906.333 613.115 907.5 607.748 908.2C602.382 908.667 597.482 908.9 593.048 908.9C579.748 908.9 566.565 908.9 553.498 908.9C540.665 908.9 527.832 909.25 514.998 909.95C502.398 910.65 489.565 911.817 476.498 913.45C472.998 913.683 469.265 911.7 465.298 907.5C461.332 903.3 459.348 898.633 459.348 893.5Z" fill="black"/>
<path d="M503.472 1191.81L551.896 1179.56L640.953 1237.47L670.453 1200.16V915.626L717.764 885L746.151 915.626V1052.61L789.566 1062.63L825.189 1107.17L882.519 1117.75L902 1146.15L961 1156.18V1406.19L902 1481.36L815.726 1517L702.736 1499.18L489 1250.84L503.472 1191.81Z" fill="#FFFE75"/>
<ellipse cx="708.5" cy="915.5" rx="103.5" ry="102.5" fill="#FFFE75"/>
<path d="M689.203 1113.1V1206.34C689.203 1218.45 684.957 1230.18 677.204 1239.48C658.9 1261.45 626.254 1264.41 604.289 1246.11L570.477 1217.93C560.14 1209.32 547.111 1204.6 533.655 1204.6C523.906 1204.6 515.02 1210.19 510.792 1218.97L509.486 1221.69C504.539 1231.96 506.038 1244.18 513.32 1252.96L674.851 1447.68C700.98 1479.18 739.779 1497.4 780.702 1497.4C871.663 1497.4 945.4 1423.66 945.4 1332.7V1186.3C945.4 1176.19 937.207 1168 927.101 1168C916.994 1168 908.801 1176.19 908.801 1186.3V1222.9C908.801 1233.01 900.608 1241.2 890.501 1241.2C880.394 1241.2 872.201 1233.01 872.201 1222.9V1149.7C872.201 1139.59 864.008 1131.4 853.902 1131.4C843.795 1131.4 835.602 1139.59 835.602 1149.7V1222.9C835.602 1233.01 827.409 1241.2 817.302 1241.2C807.195 1241.2 799.002 1233.01 799.002 1222.9V1113.1C799.002 1102.99 790.809 1094.8 780.702 1094.8C770.596 1094.8 762.403 1102.99 762.403 1113.1V1222.9C762.403 1233.01 754.209 1241.2 744.103 1241.2C733.996 1241.2 725.803 1233.01 725.803 1222.9V930.1C725.803 919.993 717.61 911.8 707.503 911.8C697.397 911.8 689.203 919.993 689.203 930.1V1113.1ZM652.604 1113.1V1045.87C608.419 1024.9 579.405 980.185 579.405 930.1C579.405 859.352 636.756 802 707.503 802C778.25 802 835.602 859.352 835.602 930.1C835.602 980.189 806.583 1024.91 762.403 1045.87V1061.32C768.126 1059.3 774.286 1058.2 780.702 1058.2C806.02 1058.2 827.334 1075.34 833.679 1098.64C839.937 1096.16 846.76 1094.8 853.902 1094.8C879.219 1094.8 900.533 1111.94 906.878 1135.24C913.136 1132.76 919.959 1131.4 927.101 1131.4C957.421 1131.4 982 1155.98 982 1186.3V1332.7C982 1443.87 891.876 1534 780.702 1534C728.888 1534 679.765 1510.93 646.683 1471.05L485.152 1276.33C468.732 1256.54 465.354 1228.99 476.506 1205.81L477.813 1203.1C488.138 1181.64 509.844 1168 533.655 1168C555.673 1168 576.993 1175.72 593.908 1189.81L627.72 1217.99C634.156 1223.36 643.723 1222.49 649.087 1216.05C651.36 1213.32 652.604 1209.89 652.604 1206.34V1113.1ZM762.403 1003.33C784.964 986.396 799.002 959.548 799.002 930.1C799.002 879.566 758.037 838.6 707.503 838.6C656.97 838.6 616.004 879.566 616.004 930.1C616.004 959.547 630.041 986.394 652.604 1003.33V930.1C652.604 899.78 677.183 875.2 707.503 875.2C737.823 875.2 762.403 899.78 762.403 930.1V1003.33Z" fill="black"/>
</svg>
