<svg width="800" height="800" viewBox="0 0 800 800" fill="none" xmlns="http://www.w3.org/2000/svg">
<g id="ship 1">
<path id="Rectangle 63" d="M84 395.5L716 388.5L638.5 666L533.5 690L409 701L254.5 690L176 666L84 395.5Z" fill="#FFFE75"/>
<path id="Polygon 1" d="M516.53 210.244L396.15 281.049L396.914 138.156L516.53 210.244Z" fill="#FFFE75"/>
<path id="Vector" d="M399.857 319.168V366.918H716.707C720.571 366.925 724.381 367.827 727.838 369.555C731.295 371.282 734.304 373.787 736.63 376.873C738.955 379.959 740.534 383.543 741.241 387.342C741.948 391.141 741.766 395.052 740.707 398.768L680.957 608.118C672.002 639.466 653.079 667.042 627.051 686.674C601.023 706.305 569.308 716.923 536.707 716.918H263.007C230.406 716.923 198.69 706.305 172.663 686.674C146.635 667.042 127.711 639.466 118.757 608.118L58.9568 398.768C57.8979 395.052 57.7151 391.141 58.4225 387.342C59.1299 383.543 60.7084 379.959 63.0339 376.873C65.3594 373.787 68.3688 371.282 71.8256 369.555C75.2823 367.827 79.0925 366.925 82.9568 366.918H349.857V109.018C349.854 104.677 350.981 100.41 353.128 96.6363C355.275 92.863 358.368 89.7139 362.101 87.4989C365.835 85.2838 370.081 84.0793 374.422 84.0038C378.763 83.9283 383.048 84.9844 386.857 87.0683L397.707 93.0183L399.857 91.9183V94.1683L580.857 192.918C584.934 195.141 588.312 198.456 590.612 202.491C592.911 206.526 594.041 211.122 593.875 215.763C593.709 220.404 592.253 224.907 589.671 228.768C587.089 232.628 583.483 235.693 579.257 237.618L399.857 319.168ZM399.857 264.268L512.957 212.868L399.857 151.168V264.268ZM399.857 416.918H116.157L130.407 466.918H669.357L683.607 416.918H399.857ZM144.707 516.918L166.857 594.418C172.832 615.308 185.447 633.683 202.795 646.764C220.143 659.845 241.28 666.92 263.007 666.918H536.707C558.434 666.92 579.57 659.845 596.918 646.764C614.266 633.683 626.882 615.308 632.857 594.418L655.007 516.918H144.707Z" fill="black"/>
</g>
</svg>
