<svg width="1716" height="1289" viewBox="0 0 1716 1289" fill="none" xmlns="http://www.w3.org/2000/svg">
<path d="M926.5 482L986.5 446.5L1320 455.5L1626.5 446.5L1691 482V675.5L1673 793L1560 813H1386.5L1320 780L1231 813H1113H975.5L926.5 755.5V482Z" fill="#FFFE75"/>
<path d="M1112.5 253V157.5L1166.5 84.5L1324 98.5H1417.5H1466.5L1508.5 131V372L1493 429.5L1393 446.5H1335.5H1202L1137.5 417.5L1112.5 389V342V253Z" fill="#FFFE75"/>
<mask id="mask0_406_1393" style="mask-type:alpha" maskUnits="userSpaceOnUse" x="0" y="0" width="991" height="891">
<rect x="30" y="30" width="931" height="831" fill="#D9D9D9" stroke="black" stroke-width="60"/>
</mask>
<g mask="url(#mask0_406_1393)">
<path d="M277.88 334.719L448.75 163.849V729.663L277.88 558.793L269.093 550.006H256.667H109V343.506H256.667H269.093L277.88 334.719ZM597.583 126.22V96.3048C666.189 118.651 722.918 158.169 768.461 215.098C821.869 281.858 848.5 358.316 848.5 445.646C848.5 532.976 821.869 609.434 768.461 676.193C722.918 733.123 666.189 772.641 597.583 794.987V765.071C660.563 742.574 712.495 704.148 752.672 650.091C797.312 590.029 819.667 521.543 819.667 445.646C819.667 369.748 797.312 301.262 752.672 241.2C712.495 187.144 660.563 148.718 597.583 126.22ZM623.579 536.083C616.18 548.228 607.536 559.005 597.583 568.446V323.015C607.492 332.506 616.112 343.366 623.5 355.634C640.267 383.473 648.625 413.645 648.625 446.756C648.625 479.012 640.328 508.589 623.579 536.083Z" fill="#FFFE75" stroke="black" stroke-width="60"/>
</g>
<g clip-path="url(#clip0_406_1393)">
<path d="M1620.96 426.541H1506.63C1517.71 411.806 1524.26 393.803 1524.26 374.365V153.094C1524.26 103.415 1481.63 63 1429.22 63C1418.17 63 1409.22 71.4882 1409.22 81.9592C1409.22 92.4301 1418.17 100.918 1429.22 100.918C1459.57 100.918 1484.26 124.324 1484.26 153.094V374.365C1484.26 403.135 1459.57 426.541 1429.22 426.541H1195.78C1165.44 426.541 1140.76 403.135 1140.76 374.365V153.094C1140.76 124.324 1165.44 100.918 1195.78 100.918H1304.5C1315.55 100.918 1324.5 92.4301 1324.5 81.9592C1324.5 71.4882 1315.55 63 1304.5 63H1195.78C1143.39 63 1100.76 103.415 1100.76 153.094V374.365C1100.76 393.803 1107.31 411.806 1118.39 426.541H1004.04C951.634 426.541 909 466.956 909 516.635V737.906C909 787.585 951.634 828 1004.04 828H1237.46C1267.94 828 1295.09 814.314 1312.5 793.098C1329.9 814.312 1357.05 828 1387.52 828H1620.96C1673.37 828 1716 787.585 1716 737.906V516.635C1716 466.956 1673.37 426.541 1620.96 426.541ZM1292.5 737.906C1292.5 766.676 1267.81 790.082 1237.46 790.082H1004.04C973.691 790.082 949 766.676 949 737.906V516.635C949 487.865 973.691 464.459 1004.04 464.459H1195.78H1237.46C1267.81 464.459 1292.5 487.865 1292.5 516.635V737.906ZM1676 737.906C1676 766.676 1651.31 790.082 1620.96 790.082H1387.52C1357.18 790.082 1332.5 766.676 1332.5 737.906V516.635C1332.5 487.865 1357.18 464.459 1387.52 464.459H1429.22H1620.96C1651.31 464.459 1676 487.865 1676 516.635V737.906H1676Z" fill="black"/>
<path d="M1370 63H1362C1350.95 63 1342 71.4882 1342 81.9592C1342 92.4301 1350.95 100.918 1362 100.918H1370C1381.05 100.918 1390 92.4301 1390 81.9592C1390 71.4882 1381.05 63 1370 63Z" fill="black"/>
<path d="M1410.47 353.38L1331.13 160.319C1331.08 160.198 1331.02 160.088 1330.96 159.968C1330.83 159.657 1330.68 159.35 1330.53 159.046C1330.39 158.773 1330.25 158.504 1330.1 158.241C1329.95 157.972 1329.79 157.711 1329.62 157.449C1329.45 157.173 1329.27 156.895 1329.08 156.63C1328.92 156.391 1328.73 156.163 1328.56 155.931C1328.35 155.668 1328.14 155.402 1327.92 155.15C1327.73 154.924 1327.52 154.71 1327.31 154.492C1327.09 154.258 1326.87 154.022 1326.63 153.799C1326.41 153.579 1326.16 153.37 1325.92 153.162C1325.68 152.964 1325.45 152.76 1325.21 152.572C1324.95 152.368 1324.67 152.176 1324.4 151.985C1324.15 151.81 1323.9 151.635 1323.65 151.471C1323.37 151.296 1323.08 151.133 1322.8 150.97C1322.52 150.811 1322.23 150.652 1321.95 150.504C1321.67 150.365 1321.39 150.238 1321.11 150.111C1320.78 149.963 1320.46 149.822 1320.12 149.689C1320 149.641 1319.88 149.581 1319.76 149.535C1319.61 149.478 1319.45 149.442 1319.3 149.388C1318.95 149.269 1318.6 149.158 1318.25 149.058C1317.96 148.974 1317.67 148.897 1317.37 148.826C1317.04 148.747 1316.7 148.677 1316.36 148.613C1316.05 148.554 1315.74 148.501 1315.43 148.457C1315.1 148.413 1314.77 148.375 1314.44 148.344C1314.12 148.314 1313.8 148.289 1313.48 148.274C1313.15 148.259 1312.82 148.254 1312.49 148.254C1312.17 148.254 1311.85 148.259 1311.53 148.274C1311.2 148.289 1310.88 148.315 1310.54 148.345C1310.22 148.375 1309.9 148.41 1309.58 148.456C1309.26 148.501 1308.94 148.554 1308.63 148.616C1308.29 148.678 1307.96 148.749 1307.63 148.826C1307.34 148.897 1307.04 148.974 1306.75 149.059C1306.39 149.16 1306.05 149.27 1305.7 149.39C1305.55 149.443 1305.39 149.479 1305.24 149.536C1305.11 149.581 1305 149.641 1304.88 149.69C1304.54 149.822 1304.21 149.965 1303.88 150.113C1303.6 150.24 1303.33 150.367 1303.05 150.506C1302.76 150.654 1302.48 150.811 1302.2 150.972C1301.91 151.135 1301.63 151.298 1301.35 151.473C1301.1 151.635 1300.85 151.81 1300.6 151.987C1300.32 152.179 1300.05 152.369 1299.79 152.574C1299.55 152.762 1299.31 152.964 1299.08 153.164C1298.84 153.375 1298.59 153.581 1298.36 153.8C1298.13 154.022 1297.9 154.258 1297.68 154.492C1297.47 154.71 1297.26 154.924 1297.07 155.153C1296.85 155.405 1296.65 155.67 1296.44 155.934C1296.26 156.166 1296.08 156.394 1295.91 156.633C1295.72 156.899 1295.55 157.174 1295.37 157.451C1295.21 157.714 1295.04 157.977 1294.89 158.245C1294.74 158.508 1294.6 158.779 1294.47 159.049C1294.31 159.354 1294.17 159.66 1294.03 159.973C1293.98 160.092 1293.91 160.203 1293.86 160.324L1214.52 353.385C1210.51 363.141 1215.61 374.131 1225.9 377.933C1228.29 378.815 1230.74 379.232 1233.15 379.232C1241.16 379.232 1248.71 374.646 1251.79 367.149L1270.66 321.229H1354.33L1373.2 367.149C1376.28 374.645 1383.84 379.232 1391.84 379.232C1394.25 379.232 1396.71 378.815 1399.09 377.933C1409.38 374.126 1414.48 363.135 1410.47 353.38ZM1286.25 283.305L1312.5 219.428L1338.75 283.305H1286.25Z" fill="black"/>
<path d="M1173.95 627.294C1174.23 627.041 1174.51 626.8 1174.78 626.543C1188.18 613.843 1195.56 596.961 1195.56 579.01C1195.56 541.939 1163.75 511.781 1124.64 511.781H1065.94C1054.89 511.781 1045.94 520.27 1045.94 530.741V627.28V723.802C1045.94 734.272 1054.89 742.761 1065.94 742.761H1124.64C1143.58 742.761 1161.38 735.767 1174.76 723.08C1188.17 710.396 1195.56 693.511 1195.56 675.532C1195.56 656.619 1187.26 639.519 1173.95 627.294ZM1146.5 696.251C1140.65 701.791 1132.89 704.841 1124.64 704.841H1085.94V646.238H1124.64C1141.69 646.238 1155.56 659.379 1155.56 675.529C1155.56 683.364 1152.35 690.718 1146.5 696.251ZM1146.5 599.731C1140.65 605.271 1132.89 608.321 1124.64 608.321H1085.94V549.7H1124.64C1141.69 549.7 1155.56 562.85 1155.56 579.01C1155.56 586.832 1152.34 594.191 1146.5 599.731Z" fill="black"/>
<path d="M1560.4 651.624C1549.35 651.624 1540.4 660.112 1540.4 670.583C1540.4 689.474 1524.19 704.842 1504.26 704.842C1484.32 704.842 1468.1 689.474 1468.1 670.583V583.959C1468.1 565.069 1484.32 549.7 1504.26 549.7C1524.19 549.7 1540.4 565.069 1540.4 583.959C1540.4 594.43 1549.35 602.918 1560.4 602.918C1571.45 602.918 1580.4 594.43 1580.4 583.959C1580.4 544.16 1546.24 511.781 1504.26 511.781C1462.26 511.781 1428.1 544.16 1428.1 583.959V670.583C1428.1 710.383 1462.27 742.761 1504.26 742.761C1546.24 742.761 1580.4 710.383 1580.4 670.583C1580.4 660.111 1571.45 651.624 1560.4 651.624Z" fill="black"/>
</g>
<path d="M826 914.5L869.5 903.5L949.5 955.5L976 922V666.5L1018.5 639L1044 666.5V789.5L1083 798.5L1115 838.5L1166.5 848L1184 873.5L1237 882.5V1107L1184 1174.5L1106.5 1206.5L1005 1190.5L813 967.5L826 914.5Z" fill="#FFFE75"/>
<ellipse cx="1010" cy="666" rx="93" ry="92" fill="#FFFE75"/>
<path d="M995.667 839V923.915C995.667 934.945 991.799 945.626 984.738 954.1C968.067 974.105 938.335 976.808 918.33 960.137L887.536 934.475C878.121 926.63 866.255 922.333 854 922.333C845.121 922.333 837.027 927.42 833.177 935.421L831.987 937.894C827.482 947.255 828.847 958.383 835.48 966.378L982.595 1143.72C1006.39 1172.4 1041.73 1189 1079 1189C1161.84 1189 1229 1121.84 1229 1039V905.667C1229 896.462 1221.54 889 1212.33 889C1203.13 889 1195.67 896.462 1195.67 905.667V939C1195.67 948.205 1188.2 955.667 1179 955.667C1169.8 955.667 1162.33 948.205 1162.33 939V872.333C1162.33 863.129 1154.87 855.667 1145.67 855.667C1136.46 855.667 1129 863.129 1129 872.333V939C1129 948.205 1121.54 955.667 1112.33 955.667C1103.13 955.667 1095.67 948.205 1095.67 939V839C1095.67 829.795 1088.2 822.333 1079 822.333C1069.8 822.333 1062.33 829.795 1062.33 839V939C1062.33 948.205 1054.87 955.667 1045.67 955.667C1036.46 955.667 1029 948.205 1029 939V672.333C1029 663.129 1021.54 655.667 1012.33 655.667C1003.13 655.667 995.667 663.129 995.667 672.333V839ZM962.333 839V777.77C922.092 758.676 895.667 717.948 895.667 672.333C895.667 607.9 947.9 555.667 1012.33 555.667C1076.77 555.667 1129 607.9 1129 672.333C1129 717.952 1102.57 758.679 1062.33 777.77V791.845C1067.55 790.003 1073.16 789 1079 789C1102.06 789 1121.47 804.608 1127.25 825.835C1132.95 823.575 1139.16 822.333 1145.67 822.333C1168.72 822.333 1188.14 837.941 1193.92 859.168C1199.61 856.908 1205.83 855.667 1212.33 855.667C1239.95 855.667 1262.33 878.052 1262.33 905.667V1039C1262.33 1140.25 1180.25 1222.33 1079 1222.33C1031.81 1222.33 987.071 1201.32 956.941 1165L809.825 987.661C794.87 969.634 791.794 944.545 801.951 923.439L803.141 920.967C812.545 901.425 832.313 889 854 889C874.052 889 893.47 896.03 908.875 908.868L939.67 934.53C945.532 939.415 954.245 938.623 959.131 932.76C961.2 930.277 962.333 927.147 962.333 923.915V839ZM1062.33 739.024C1082.88 723.604 1095.67 699.153 1095.67 672.333C1095.67 626.31 1058.36 589 1012.33 589C966.309 589 929 626.31 929 672.333C929 699.152 941.784 723.603 962.333 739.023V672.333C962.333 644.719 984.719 622.333 1012.33 622.333C1039.95 622.333 1062.33 644.719 1062.33 672.333V739.024Z" fill="black"/>
<defs>
<clipPath id="clip0_406_1393">
<rect width="807" height="765" fill="white" transform="translate(909 63)"/>
</clipPath>
</defs>
</svg>
