<svg width="800" height="800" viewBox="0 0 800 800" fill="none" xmlns="http://www.w3.org/2000/svg">
<g id="tree 1">
<path id="Rectangle 61" d="M279.5 185L400.5 120.5L520 185L662 557L520 576L500.5 700H299V576L137 539.5L279.5 185Z" fill="#FFFE75"/>
<path id="Vector" d="M500.004 566.67V700.003H300.004V566.67M642.614 566.67H157.394C139.107 566.67 129.963 566.67 125.373 562.947C121.384 559.71 119.11 554.817 119.209 549.68C119.324 543.77 125.22 536.783 137.013 522.807L204.513 442.807C207.451 439.323 208.92 437.583 210.714 436.33C212.304 435.223 214.075 434.4 215.947 433.9C218.06 433.337 220.338 433.337 224.894 433.337H575.114C579.67 433.337 581.947 433.337 584.06 433.9C585.933 434.4 587.704 435.223 589.294 436.33C591.087 437.583 592.557 439.323 595.493 442.807L662.993 522.807C674.787 536.783 680.684 543.77 680.797 549.68C680.897 554.817 678.624 559.71 674.634 562.947C670.044 566.67 660.9 566.67 642.614 566.67ZM186.749 386.6L278.177 306.6C280.968 304.159 282.363 302.938 283.943 302.068C285.345 301.296 286.851 300.73 288.414 300.388C290.176 300.002 292.03 300.002 295.737 300.002H504.27C507.977 300.002 509.83 300.002 511.594 300.388C513.157 300.73 514.664 301.296 516.064 302.068C517.644 302.938 519.04 304.159 521.83 306.6L613.257 386.6C629.79 401.067 638.057 408.3 638.85 414.59C639.534 420.037 637.49 425.473 633.387 429.123C628.65 433.337 617.667 433.337 595.697 433.337H204.309C182.34 433.337 171.356 433.337 166.619 429.123C162.515 425.473 160.473 420.037 161.158 414.59C161.949 408.3 170.216 401.067 186.749 386.6ZM434.714 129.752L578.604 253.089C595.51 267.58 603.964 274.825 604.804 281.137C605.53 286.605 603.507 292.078 599.397 295.756C594.65 300.002 583.517 300.002 561.25 300.002H238.757C216.49 300.002 205.357 300.002 200.611 295.756C196.501 292.078 194.476 286.605 195.203 281.137C196.043 274.825 204.496 267.58 221.403 253.089L365.294 129.752C377.614 119.193 383.774 113.914 390.68 111.901C396.77 110.128 403.237 110.128 409.327 111.901C416.234 113.914 422.394 119.193 434.714 129.752Z" stroke="black" stroke-width="66.6667" stroke-linejoin="round"/>
</g>
</svg>
