<svg width="800" height="800" viewBox="0 0 800 800" fill="none" xmlns="http://www.w3.org/2000/svg">
<mask id="path-1-inside-1_447_2242" fill="white">
<path d="M630.513 244.713V242.9C641.994 176.435 609.97 108.157 503.021 124.471C495.77 125.68 491.541 75.5287 438.368 64.6526C416.012 60.423 371.903 59.8187 347.734 64.0483C315.71 69.4864 286.103 95.4683 269.788 134.139H253.474C193.656 130.514 156.797 183.686 165.861 239.275C167.069 244.713 166.465 250.151 167.069 255.589C142.9 271.903 120.544 308.761 120.544 345.015C120.544 398.187 162.236 436.254 206.344 436.254H206.949C201.51 491.239 251.057 511.178 290.936 511.178H368.278C379.154 511.178 389.426 508.761 399.094 504.532C409.97 509.97 421.45 513.595 434.139 513.595H512.084C551.964 513.595 585.801 480.967 596.072 436.254C596.072 436.254 679.456 483.384 700 346.828C709.668 288.822 669.788 250.755 630.513 244.713Z"/>
</mask>
<path d="M630.513 244.713V242.9C641.994 176.435 609.97 108.157 503.021 124.471C495.77 125.68 491.541 75.5287 438.368 64.6526C416.012 60.423 371.903 59.8187 347.734 64.0483C315.71 69.4864 286.103 95.4683 269.788 134.139H253.474C193.656 130.514 156.797 183.686 165.861 239.275C167.069 244.713 166.465 250.151 167.069 255.589C142.9 271.903 120.544 308.761 120.544 345.015C120.544 398.187 162.236 436.254 206.344 436.254H206.949C201.51 491.239 251.057 511.178 290.936 511.178H368.278C379.154 511.178 389.426 508.761 399.094 504.532C409.97 509.97 421.45 513.595 434.139 513.595H512.084C551.964 513.595 585.801 480.967 596.072 436.254C596.072 436.254 679.456 483.384 700 346.828C709.668 288.822 669.788 250.755 630.513 244.713Z" fill="#1CA538" stroke="black" stroke-width="20" mask="url(#path-1-inside-1_447_2242)"/>
<mask id="path-2-inside-2_447_2242" fill="white">
<path d="M558.006 380.665C554.985 419.94 532.024 421.753 522.357 420.544C525.378 416.314 528.399 411.481 530.816 406.043C547.13 374.018 530.816 337.16 535.65 335.348C558.61 323.867 545.317 288.218 545.317 288.218L539.879 289.426C547.13 308.157 541.088 321.45 529.607 327.493C500.604 341.994 487.311 311.783 487.311 311.783L484.894 318.429C495.77 343.203 526.586 343.203 526.586 343.203L527.19 367.976C505.438 397.583 495.77 367.976 495.77 367.976L494.562 375.831C512.689 406.647 525.378 379.456 525.378 379.456C524.169 402.417 511.48 416.314 497.583 424.774C470.393 441.692 441.994 437.462 441.994 437.462C457.1 426.586 462.538 414.502 460.121 397.583C457.704 380.061 449.849 381.873 434.743 370.997C425.076 364.351 419.637 355.287 417.825 338.369C415.408 321.45 439.577 309.366 439.577 309.366L436.556 303.928C393.051 320.242 415.408 361.934 415.408 361.934C400.302 362.538 398.489 362.538 390.03 340.786C381.571 319.033 361.027 332.327 361.027 332.327L362.236 336.556C377.946 325.68 384.592 349.245 384.592 349.245C388.822 377.04 414.199 375.227 414.199 375.227C458.912 384.895 428.701 451.36 391.843 441.692C335.045 426.586 344.109 413.293 344.109 413.293C377.946 394.562 353.172 364.955 353.172 364.955L347.734 369.185C365.861 376.435 347.734 412.689 329.003 402.417C308.459 390.937 325.982 369.789 325.982 369.789L319.94 370.997C301.813 400.604 334.441 413.293 334.441 413.293C335.65 424.774 340.483 432.629 345.921 438.067C316.314 436.254 253.474 424.774 272.81 358.913C272.81 358.913 328.399 362.538 331.42 311.179L323.565 308.157C323.565 308.157 319.335 351.058 271.601 348.641C271.601 348.641 235.347 340.182 255.891 299.698L249.245 298.49C249.245 298.49 223.867 335.348 261.934 357.704C261.934 357.704 251.662 386.707 263.142 412.689C248.036 419.94 237.16 400 237.16 400L235.952 412.085C249.245 427.795 261.329 423.565 266.767 420.544C278.852 439.879 306.042 456.194 362.236 454.985L361.631 766.163H457.704L445.619 454.985C474.622 450.756 498.187 448.943 516.918 426.586C560.423 436.858 564.048 380.665 564.048 380.665H558.006Z"/>
</mask>
<path d="M558.006 380.665C554.985 419.94 532.024 421.753 522.357 420.544C525.378 416.314 528.399 411.481 530.816 406.043C547.13 374.018 530.816 337.16 535.65 335.348C558.61 323.867 545.317 288.218 545.317 288.218L539.879 289.426C547.13 308.157 541.088 321.45 529.607 327.493C500.604 341.994 487.311 311.783 487.311 311.783L484.894 318.429C495.77 343.203 526.586 343.203 526.586 343.203L527.19 367.976C505.438 397.583 495.77 367.976 495.77 367.976L494.562 375.831C512.689 406.647 525.378 379.456 525.378 379.456C524.169 402.417 511.48 416.314 497.583 424.774C470.393 441.692 441.994 437.462 441.994 437.462C457.1 426.586 462.538 414.502 460.121 397.583C457.704 380.061 449.849 381.873 434.743 370.997C425.076 364.351 419.637 355.287 417.825 338.369C415.408 321.45 439.577 309.366 439.577 309.366L436.556 303.928C393.051 320.242 415.408 361.934 415.408 361.934C400.302 362.538 398.489 362.538 390.03 340.786C381.571 319.033 361.027 332.327 361.027 332.327L362.236 336.556C377.946 325.68 384.592 349.245 384.592 349.245C388.822 377.04 414.199 375.227 414.199 375.227C458.912 384.895 428.701 451.36 391.843 441.692C335.045 426.586 344.109 413.293 344.109 413.293C377.946 394.562 353.172 364.955 353.172 364.955L347.734 369.185C365.861 376.435 347.734 412.689 329.003 402.417C308.459 390.937 325.982 369.789 325.982 369.789L319.94 370.997C301.813 400.604 334.441 413.293 334.441 413.293C335.65 424.774 340.483 432.629 345.921 438.067C316.314 436.254 253.474 424.774 272.81 358.913C272.81 358.913 328.399 362.538 331.42 311.179L323.565 308.157C323.565 308.157 319.335 351.058 271.601 348.641C271.601 348.641 235.347 340.182 255.891 299.698L249.245 298.49C249.245 298.49 223.867 335.348 261.934 357.704C261.934 357.704 251.662 386.707 263.142 412.689C248.036 419.94 237.16 400 237.16 400L235.952 412.085C249.245 427.795 261.329 423.565 266.767 420.544C278.852 439.879 306.042 456.194 362.236 454.985L361.631 766.163H457.704L445.619 454.985C474.622 450.756 498.187 448.943 516.918 426.586C560.423 436.858 564.048 380.665 564.048 380.665H558.006Z" fill="#65320B" stroke="black" stroke-width="20" mask="url(#path-2-inside-2_447_2242)"/>
</svg>
