<svg width="800" height="800" viewBox="0 0 800 800" fill="none" xmlns="http://www.w3.org/2000/svg">
<mask id="path-1-inside-1_447_1976" fill="white">
<path d="M654.28 795.853C652.104 795.853 650.018 794.988 648.479 793.45C646.941 791.912 646.077 789.825 646.077 787.65C646.077 760.237 636.455 739.493 615.795 722.364C596.475 706.342 569.567 694.951 541.08 682.892C503.222 666.865 464.074 650.293 433.125 620.075C397.459 585.25 380.124 538.54 380.124 477.279C380.124 475.104 380.988 473.017 382.526 471.479C384.065 469.94 386.151 469.076 388.327 469.076C390.502 469.076 392.589 469.94 394.127 471.479C395.666 473.017 396.53 475.104 396.53 477.279C396.53 533.889 412.25 576.757 444.588 608.334C473.319 636.39 511.017 652.348 547.475 667.782C606.62 692.818 662.481 716.468 662.481 787.65C662.482 788.727 662.27 789.793 661.858 790.789C661.445 791.784 660.841 792.688 660.08 793.45C659.318 794.212 658.414 794.816 657.419 795.228C656.424 795.641 655.357 795.853 654.28 795.853Z"/>
</mask>
<path d="M654.28 795.853C652.104 795.853 650.018 794.988 648.479 793.45C646.941 791.912 646.077 789.825 646.077 787.65C646.077 760.237 636.455 739.493 615.795 722.364C596.475 706.342 569.567 694.951 541.08 682.892C503.222 666.865 464.074 650.293 433.125 620.075C397.459 585.25 380.124 538.54 380.124 477.279C380.124 475.104 380.988 473.017 382.526 471.479C384.065 469.94 386.151 469.076 388.327 469.076C390.502 469.076 392.589 469.94 394.127 471.479C395.666 473.017 396.53 475.104 396.53 477.279C396.53 533.889 412.25 576.757 444.588 608.334C473.319 636.39 511.017 652.348 547.475 667.782C606.62 692.818 662.481 716.468 662.481 787.65C662.482 788.727 662.27 789.793 661.858 790.789C661.445 791.784 660.841 792.688 660.08 793.45C659.318 794.212 658.414 794.816 657.419 795.228C656.424 795.641 655.357 795.853 654.28 795.853Z" fill="#597B91" stroke="black" stroke-width="20" mask="url(#path-1-inside-1_447_1976)"/>
<mask id="path-2-inside-2_447_1976" fill="white">
<path d="M406.141 473.2C406.884 475.103 407.606 476.98 408.255 478.788C408.881 480.463 409.455 482.083 409.995 483.617C410.53 485.153 411.089 486.605 411.447 487.945C412.175 490.625 412.116 492.859 411.825 494.423C411.539 495.987 410.984 496.88 410.984 496.88C403.226 509.394 386.794 513.248 374.28 505.491C370.793 503.312 367.848 500.367 365.669 496.88C365.669 496.88 365.116 495.986 364.828 494.423C364.537 492.859 364.478 490.627 365.206 487.945C365.564 486.605 366.122 485.153 366.658 483.617C367.198 482.081 367.772 480.463 368.398 478.788C369.047 476.98 369.769 475.103 370.512 473.2C317.353 451.453 229.737 346.47 203.508 247.916C198.418 230.409 195.84 212.268 195.853 194.036C195.855 87.7359 282.027 1.5625 388.327 1.5625C494.627 1.5625 580.798 87.7359 580.798 194.034C580.811 212.266 578.234 230.407 573.144 247.914C546.914 346.469 459.3 451.453 406.141 473.2Z"/>
</mask>
<path d="M406.141 473.2C406.884 475.103 407.606 476.98 408.255 478.788C408.881 480.463 409.455 482.083 409.995 483.617C410.53 485.153 411.089 486.605 411.447 487.945C412.175 490.625 412.116 492.859 411.825 494.423C411.539 495.987 410.984 496.88 410.984 496.88C403.226 509.394 386.794 513.248 374.28 505.491C370.793 503.312 367.848 500.367 365.669 496.88C365.669 496.88 365.116 495.986 364.828 494.423C364.537 492.859 364.478 490.627 365.206 487.945C365.564 486.605 366.122 485.153 366.658 483.617C367.198 482.081 367.772 480.463 368.398 478.788C369.047 476.98 369.769 475.103 370.512 473.2C317.353 451.453 229.737 346.47 203.508 247.916C198.418 230.409 195.84 212.268 195.853 194.036C195.855 87.7359 282.027 1.5625 388.327 1.5625C494.627 1.5625 580.798 87.7359 580.798 194.034C580.811 212.266 578.234 230.407 573.144 247.914C546.914 346.469 459.3 451.453 406.141 473.2Z" fill="#FF473E" stroke="black" stroke-width="20" mask="url(#path-2-inside-2_447_1976)"/>
<mask id="path-3-inside-3_447_1976" fill="white">
<path d="M306.183 194.034C306.183 228.526 290.042 256.487 270.131 256.487C250.22 256.487 234.08 228.526 234.08 194.034C234.08 159.542 250.22 131.581 270.131 131.581C290.042 131.583 306.183 159.544 306.183 194.034Z"/>
</mask>
<path d="M306.183 194.034C306.183 228.526 290.042 256.487 270.131 256.487C250.22 256.487 234.08 228.526 234.08 194.034C234.08 159.542 250.22 131.581 270.131 131.581C290.042 131.583 306.183 159.544 306.183 194.034Z" fill="#FFA9BA" stroke="black" stroke-width="20" mask="url(#path-3-inside-3_447_1976)"/>
</svg>
