<svg width="800" height="800" viewBox="0 0 800 800" fill="none" xmlns="http://www.w3.org/2000/svg">
<mask id="path-1-inside-1_447_1980" fill="white">
<path d="M0 625C0 651.522 10.5357 676.957 29.2893 695.711C48.043 714.464 73.4784 725 100 725H700C726.522 725 751.957 714.464 770.711 695.711C789.464 676.957 800 651.522 800 625H0Z"/>
</mask>
<path d="M0 625C0 651.522 10.5357 676.957 29.2893 695.711C48.043 714.464 73.4784 725 100 725H700C726.522 725 751.957 714.464 770.711 695.711C789.464 676.957 800 651.522 800 625H0Z" fill="#EAEAEA" stroke="black" stroke-width="20" mask="url(#path-1-inside-1_447_1980)"/>
<mask id="path-2-inside-2_447_1980" fill="white">
<path d="M700 725H100C77.8837 724.96 56.4078 717.571 38.9487 703.995C21.4896 690.418 9.03749 671.425 3.55 650H0C0 676.522 10.5357 701.957 29.2893 720.711C48.043 739.464 73.4784 750 100 750H700C726.522 750 751.957 739.464 770.711 720.711C789.464 701.957 800 676.522 800 650H796.45C790.963 671.425 778.51 690.418 761.051 703.995C743.592 717.571 722.116 724.96 700 725Z"/>
</mask>
<path d="M700 725H100C77.8837 724.96 56.4078 717.571 38.9487 703.995C21.4896 690.418 9.03749 671.425 3.55 650H0C0 676.522 10.5357 701.957 29.2893 720.711C48.043 739.464 73.4784 750 100 750H700C726.522 750 751.957 739.464 770.711 720.711C789.464 701.957 800 676.522 800 650H796.45C790.963 671.425 778.51 690.418 761.051 703.995C743.592 717.571 722.116 724.96 700 725Z" fill="black" stroke="black" stroke-width="20" mask="url(#path-2-inside-2_447_1980)"/>
<mask id="path-3-inside-3_447_1980" fill="white">
<path d="M750 625V400C750 386.739 744.732 374.021 735.355 364.645C725.979 355.268 713.261 350 700 350H100C86.7392 350 74.0215 355.268 64.6447 364.645C55.2678 374.021 50 386.739 50 400V625H750ZM700 350V125C700 111.739 694.732 99.0215 685.355 89.6447C675.979 80.2678 663.261 75 650 75H150C136.739 75 124.021 80.2678 114.645 89.6447C105.268 99.0215 100 111.739 100 125V350H700Z"/>
</mask>
<path d="M750 625V400C750 386.739 744.732 374.021 735.355 364.645C725.979 355.268 713.261 350 700 350H100C86.7392 350 74.0215 355.268 64.6447 364.645C55.2678 374.021 50 386.739 50 400V625H750ZM700 350V125C700 111.739 694.732 99.0215 685.355 89.6447C675.979 80.2678 663.261 75 650 75H150C136.739 75 124.021 80.2678 114.645 89.6447C105.268 99.0215 100 111.739 100 125V350H700Z" fill="#EACA44"/>
<path d="M700 345H100V355H700V345ZM750 625V635H760V625H750ZM700 350H690V360H700V350ZM100 350V360H110V350H100ZM50 400H40H50ZM50 625H40V635H50V625ZM650 75V65V75ZM150 75V65V75ZM100 125H90H100ZM760 625V400H740V625H760ZM760 400C760 384.087 753.679 368.826 742.426 357.574L728.284 371.716C735.786 379.217 740 389.391 740 400H760ZM742.426 357.574C731.174 346.321 715.913 340 700 340V360C710.609 360 720.783 364.214 728.284 371.716L742.426 357.574ZM100 340C84.087 340 68.8258 346.321 57.5736 357.574L71.7157 371.716C79.2172 364.214 89.3913 360 100 360V340ZM57.5736 357.574C46.3214 368.826 40 384.087 40 400H60C60 389.391 64.2143 379.217 71.7157 371.716L57.5736 357.574ZM40 400V625H60V400H40ZM50 635H750V615H50V635ZM710 350V125H690V350H710ZM710 125C710 109.087 703.679 93.8258 692.426 82.5736L678.284 96.7157C685.786 104.217 690 114.391 690 125H710ZM692.426 82.5736C681.174 71.3214 665.913 65 650 65V85C660.609 85 670.783 89.2143 678.284 96.7157L692.426 82.5736ZM650 65H150V85H650V65ZM150 65C134.087 65 118.826 71.3214 107.574 82.5736L121.716 96.7157C129.217 89.2143 139.391 85 150 85V65ZM107.574 82.5736C96.3214 93.8258 90 109.087 90 125L110 125C110 114.391 114.214 104.217 121.716 96.7157L107.574 82.5736ZM90 125V350H110V125H90Z" fill="black" mask="url(#path-3-inside-3_447_1980)"/>
<mask id="path-5-inside-4_447_1980" fill="white">
<path d="M50 600H750V625H50V600Z"/>
</mask>
<path d="M50 600H750V625H50V600Z" fill="black" stroke="black" stroke-width="20" mask="url(#path-5-inside-4_447_1980)"/>
<mask id="path-6-inside-5_447_1980" fill="white">
<path d="M50 500H750V550H50V500ZM100 225H700V275H100V225Z"/>
</mask>
<path d="M50 500H750V550H50V500ZM100 225H700V275H100V225Z" fill="#EAEAEA" stroke="black" stroke-width="20" mask="url(#path-6-inside-5_447_1980)"/>
<mask id="path-7-inside-6_447_1980" fill="white">
<path d="M275 25C261.739 25 249.021 30.2678 239.645 39.6447C230.268 49.0215 225 61.7392 225 75H325C325 61.7392 319.732 49.0215 310.355 39.6447C300.979 30.2678 288.261 25 275 25ZM400 25C386.739 25 374.021 30.2678 364.645 39.6447C355.268 49.0215 350 61.7392 350 75H450C450 61.7392 444.732 49.0215 435.355 39.6447C425.979 30.2678 413.261 25 400 25ZM525 25C511.739 25 499.021 30.2678 489.645 39.6447C480.268 49.0215 475 61.7392 475 75H575C575 61.7392 569.732 49.0215 560.355 39.6447C550.979 30.2678 538.261 25 525 25Z"/>
</mask>
<path d="M275 25C261.739 25 249.021 30.2678 239.645 39.6447C230.268 49.0215 225 61.7392 225 75H325C325 61.7392 319.732 49.0215 310.355 39.6447C300.979 30.2678 288.261 25 275 25ZM400 25C386.739 25 374.021 30.2678 364.645 39.6447C355.268 49.0215 350 61.7392 350 75H450C450 61.7392 444.732 49.0215 435.355 39.6447C425.979 30.2678 413.261 25 400 25ZM525 25C511.739 25 499.021 30.2678 489.645 39.6447C480.268 49.0215 475 61.7392 475 75H575C575 61.7392 569.732 49.0215 560.355 39.6447C550.979 30.2678 538.261 25 525 25Z" fill="#EF4D4D" stroke="black" stroke-width="20" mask="url(#path-7-inside-6_447_1980)"/>
<mask id="path-8-inside-7_447_1980" fill="white">
<path d="M650 75H150C136.739 75 124.021 80.2678 114.645 89.6447C105.268 99.0215 100 111.739 100 125V178.2L107.85 183.65C107.85 183.65 116.4 189.675 125 189.675C133.6 189.675 142.15 183.65 142.15 183.65L187.5 152.175C192.75 149.3 195.125 149.25 200 152.175L245.35 183.65C245.35 183.65 253.9 189.675 262.5 189.675C271.1 189.675 279.65 183.65 279.65 183.65L325 152.175C330.25 149.3 332.625 149.25 337.5 152.175L382.85 183.65C382.85 183.65 391.4 189.675 400 189.675C408.6 189.675 417.15 183.65 417.15 183.65L462.5 152.175C467.75 149.3 470.125 149.25 475 152.175L520.35 183.65C520.35 183.65 528.9 189.675 537.5 189.675C546.1 189.675 554.65 183.65 554.65 183.65L600 152.175C605.25 149.3 607.625 149.25 612.5 152.175L657.85 183.65C657.85 183.65 666.4 189.675 675 189.675C683.6 189.675 692.15 183.65 692.15 183.65L700 178.2V125C700 111.739 694.732 99.0215 685.355 89.6447C675.979 80.2678 663.261 75 650 75ZM50 400V448.875C52.1914 449.578 54.4739 449.957 56.775 450C65.375 450 73.925 443.975 73.925 443.975L119.275 412.5C124.525 409.625 126.9 409.575 131.775 412.5L177.125 443.975C177.125 443.975 185.675 450 194.275 450C202.875 450 211.425 443.975 211.425 443.975L256.775 412.5C262.025 409.625 264.4 409.575 269.275 412.5L314.625 443.975C314.625 443.975 323.175 450 331.775 450C340.375 450 348.925 443.975 348.925 443.975L394.275 412.5C399.525 409.625 401.9 409.575 406.775 412.5L452.125 443.975C452.125 443.975 460.675 450 469.275 450C477.875 450 486.425 443.975 486.425 443.975L531.775 412.5C537.025 409.625 539.4 409.575 544.275 412.5L589.625 443.975C589.625 443.975 598.175 450 606.775 450C615.375 450 623.925 443.975 623.925 443.975L669.275 412.5C671.135 411.315 673.253 410.595 675.45 410.4C677.58 410.544 679.63 411.27 681.375 412.5L726.725 443.975C726.725 443.975 735.275 450 743.875 450C745.948 449.961 748.008 449.65 750 449.075V400C750 386.739 744.732 374.021 735.355 364.645C725.979 355.268 713.261 350 700 350H100C86.7392 350 74.0215 355.268 64.6447 364.645C55.2678 374.021 50 386.739 50 400Z"/>
</mask>
<path d="M650 75H150C136.739 75 124.021 80.2678 114.645 89.6447C105.268 99.0215 100 111.739 100 125V178.2L107.85 183.65C107.85 183.65 116.4 189.675 125 189.675C133.6 189.675 142.15 183.65 142.15 183.65L187.5 152.175C192.75 149.3 195.125 149.25 200 152.175L245.35 183.65C245.35 183.65 253.9 189.675 262.5 189.675C271.1 189.675 279.65 183.65 279.65 183.65L325 152.175C330.25 149.3 332.625 149.25 337.5 152.175L382.85 183.65C382.85 183.65 391.4 189.675 400 189.675C408.6 189.675 417.15 183.65 417.15 183.65L462.5 152.175C467.75 149.3 470.125 149.25 475 152.175L520.35 183.65C520.35 183.65 528.9 189.675 537.5 189.675C546.1 189.675 554.65 183.65 554.65 183.65L600 152.175C605.25 149.3 607.625 149.25 612.5 152.175L657.85 183.65C657.85 183.65 666.4 189.675 675 189.675C683.6 189.675 692.15 183.65 692.15 183.65L700 178.2V125C700 111.739 694.732 99.0215 685.355 89.6447C675.979 80.2678 663.261 75 650 75ZM50 400V448.875C52.1914 449.578 54.4739 449.957 56.775 450C65.375 450 73.925 443.975 73.925 443.975L119.275 412.5C124.525 409.625 126.9 409.575 131.775 412.5L177.125 443.975C177.125 443.975 185.675 450 194.275 450C202.875 450 211.425 443.975 211.425 443.975L256.775 412.5C262.025 409.625 264.4 409.575 269.275 412.5L314.625 443.975C314.625 443.975 323.175 450 331.775 450C340.375 450 348.925 443.975 348.925 443.975L394.275 412.5C399.525 409.625 401.9 409.575 406.775 412.5L452.125 443.975C452.125 443.975 460.675 450 469.275 450C477.875 450 486.425 443.975 486.425 443.975L531.775 412.5C537.025 409.625 539.4 409.575 544.275 412.5L589.625 443.975C589.625 443.975 598.175 450 606.775 450C615.375 450 623.925 443.975 623.925 443.975L669.275 412.5C671.135 411.315 673.253 410.595 675.45 410.4C677.58 410.544 679.63 411.27 681.375 412.5L726.725 443.975C726.725 443.975 735.275 450 743.875 450C745.948 449.961 748.008 449.65 750 449.075V400C750 386.739 744.732 374.021 735.355 364.645C725.979 355.268 713.261 350 700 350H100C86.7392 350 74.0215 355.268 64.6447 364.645C55.2678 374.021 50 386.739 50 400Z" fill="#4F3923" stroke="black" stroke-width="20" mask="url(#path-8-inside-7_447_1980)"/>
</svg>
