<svg width="800" height="800" viewBox="0 0 800 800" fill="none" xmlns="http://www.w3.org/2000/svg">
<g clip-path="url(#clip0_447_1988)">
<mask id="path-1-inside-1_447_1988" fill="white">
<path d="M800 600C800 623.575 790.635 646.184 773.965 662.854C757.295 679.524 734.686 688.889 711.111 688.889H88.8889C65.3141 688.889 42.7049 679.524 26.035 662.854C9.36505 646.184 0 623.575 0 600V200C0 176.425 9.36505 153.816 26.035 137.146C42.7049 120.476 65.3141 111.111 88.8889 111.111H711.111C734.686 111.111 757.295 120.476 773.965 137.146C790.635 153.816 800 176.425 800 200V600Z"/>
</mask>
<path d="M800 600C800 623.575 790.635 646.184 773.965 662.854C757.295 679.524 734.686 688.889 711.111 688.889H88.8889C65.3141 688.889 42.7049 679.524 26.035 662.854C9.36505 646.184 0 623.575 0 600V200C0 176.425 9.36505 153.816 26.035 137.146C42.7049 120.476 65.3141 111.111 88.8889 111.111H711.111C734.686 111.111 757.295 120.476 773.965 137.146C790.635 153.816 800 176.425 800 200V600Z" fill="#009B3A" stroke="black" stroke-width="20" mask="url(#path-1-inside-1_447_1988)"/>
<path d="M727.289 400L400 647.2L72.7112 400L400 152.777L727.289 400Z" fill="#FEDF01"/>
<path d="M399.467 541.822C478.726 541.822 542.978 477.57 542.978 398.311C542.978 319.052 478.726 254.8 399.467 254.8C320.208 254.8 255.956 319.052 255.956 398.311C255.956 477.57 320.208 541.822 399.467 541.822Z" fill="#002776"/>
<path d="M272.822 330.823C265.369 344.869 260.321 360.064 257.889 375.778C346.667 369.334 467.156 417.8 518.867 477.889C527.8 464.467 534.422 449.445 538.489 433.356C474.667 370.956 362.556 330.467 272.822 330.823Z" fill="#CBE9D4"/>
<path d="M266.667 405.178H288.889V427.4H266.667V405.178ZM288.889 449.622H311.111V471.844H288.889V449.622Z" fill="#88C9F9"/>
<path d="M333.333 405.178H355.555V427.4H333.333V405.178ZM377.778 427.4H400V449.622H377.778V427.4ZM466.667 471.844H488.889V494.067H466.667V471.844ZM400 494.067H422.222V516.289H400V494.067ZM466.667 360.733H488.889V382.956H466.667V360.733Z" fill="#55ACEE"/>
<path d="M422.222 449.622H444.444V471.844H422.222V449.622Z" fill="#3B88C3"/>
</g>
<defs>
<clipPath id="clip0_447_1988">
<rect width="800" height="800" fill="white"/>
</clipPath>
</defs>
</svg>
