<svg width="800" height="800" viewBox="0 0 800 800" fill="none" xmlns="http://www.w3.org/2000/svg">
<mask id="path-1-inside-1_447_1996" fill="white">
<path d="M689.644 319.422C767.6 304.977 769.356 179.488 688.511 180.444C625.244 181.2 631.622 242.555 623.067 230.488C606.444 207.044 601.089 146.733 664.444 121.733C719.133 100.155 794.356 143.866 799.178 223.755C802.267 274.911 770.356 369.4 655.778 353.666C495.289 331.644 611.711 333.844 689.644 319.422Z"/>
</mask>
<path d="M689.644 319.422C767.6 304.977 769.356 179.488 688.511 180.444C625.244 181.2 631.622 242.555 623.067 230.488C606.444 207.044 601.089 146.733 664.444 121.733C719.133 100.155 794.356 143.866 799.178 223.755C802.267 274.911 770.356 369.4 655.778 353.666C495.289 331.644 611.711 333.844 689.644 319.422Z" fill="#D99E82" stroke="black" stroke-width="20" mask="url(#path-1-inside-1_447_1996)"/>
<mask id="path-2-inside-2_447_1996" fill="white">
<path d="M229.356 487.444C229.356 487.444 251.933 539.711 244.378 670.6C243.022 694.089 239.733 718.067 239 737.756C198.733 737.756 202.289 783.622 210.822 783.622H275.311C290.489 783.622 317.378 707.222 324.467 601.2C331.556 495.156 229.356 487.444 229.356 487.444ZM493.578 480.089C493.578 480.089 506.356 558.489 574.711 622.6C580.422 648.444 591.8 716.644 595.8 738.044C553.822 738.044 567.311 783.533 579.556 783.533H638.356C659.489 783.533 662.622 707.044 642.933 612.556C623.267 518.089 493.578 480.089 493.578 480.089Z"/>
</mask>
<path d="M229.356 487.444C229.356 487.444 251.933 539.711 244.378 670.6C243.022 694.089 239.733 718.067 239 737.756C198.733 737.756 202.289 783.622 210.822 783.622H275.311C290.489 783.622 317.378 707.222 324.467 601.2C331.556 495.156 229.356 487.444 229.356 487.444ZM493.578 480.089C493.578 480.089 506.356 558.489 574.711 622.6C580.422 648.444 591.8 716.644 595.8 738.044C553.822 738.044 567.311 783.533 579.556 783.533H638.356C659.489 783.533 662.622 707.044 642.933 612.556C623.267 518.089 493.578 480.089 493.578 480.089Z" fill="#C1694F" stroke="black" stroke-width="20" mask="url(#path-2-inside-2_447_1996)"/>
<mask id="path-3-inside-3_447_1996" fill="white">
<path d="M715.6 347.866C687.756 264.488 555.289 267.244 404.556 286.422C336.667 295.066 323.667 187.466 323.667 168.955C323.667 88.3774 251.578 47.7329 179.311 74.9773C162 81.4885 148.156 104.533 140.333 116.577C96.4 184.066 36.8222 116.911 31.0667 179.288C24.1111 254.733 69.3111 280.044 143.311 286.422C185.356 290.044 220.178 310.755 229.333 398.511C232.756 431.222 222.778 523.933 282.4 555.755C299.733 621.511 323.2 702.755 332.4 744.088C282.356 754.666 302.6 792.511 302.6 792.511C302.6 792.511 372.622 791.555 387.844 791.555C405.933 791.555 392.089 658.755 367.067 574.066C472.933 575.022 541.022 544.355 562.6 534.911C585.444 600.688 654.867 615.644 670.4 643.622C680.022 660.955 712.133 718.8 714.867 743.533C679.267 755.088 690.622 782.022 694.667 790.688C718.733 789.733 766.222 789.733 772.4 789.733C797.067 789.733 747.133 636.311 726.111 596.111C702.067 550.088 743.467 431.244 715.6 347.866Z"/>
</mask>
<path d="M715.6 347.866C687.756 264.488 555.289 267.244 404.556 286.422C336.667 295.066 323.667 187.466 323.667 168.955C323.667 88.3774 251.578 47.7329 179.311 74.9773C162 81.4885 148.156 104.533 140.333 116.577C96.4 184.066 36.8222 116.911 31.0667 179.288C24.1111 254.733 69.3111 280.044 143.311 286.422C185.356 290.044 220.178 310.755 229.333 398.511C232.756 431.222 222.778 523.933 282.4 555.755C299.733 621.511 323.2 702.755 332.4 744.088C282.356 754.666 302.6 792.511 302.6 792.511C302.6 792.511 372.622 791.555 387.844 791.555C405.933 791.555 392.089 658.755 367.067 574.066C472.933 575.022 541.022 544.355 562.6 534.911C585.444 600.688 654.867 615.644 670.4 643.622C680.022 660.955 712.133 718.8 714.867 743.533C679.267 755.088 690.622 782.022 694.667 790.688C718.733 789.733 766.222 789.733 772.4 789.733C797.067 789.733 747.133 636.311 726.111 596.111C702.067 550.088 743.467 431.244 715.6 347.866Z" fill="#D99E82" stroke="black" stroke-width="20" mask="url(#path-3-inside-3_447_1996)"/>
<mask id="path-4-inside-4_447_1996" fill="white">
<path d="M361.467 543.644C362.445 551.889 364.6 563.444 367.089 574.067C472.956 575.022 541.045 544.355 562.622 534.911C557.845 517.578 557.511 506.689 558.822 500.733C483.4 513.111 457.756 549.733 361.467 543.644ZM143.311 286.422C185.356 290.044 197.2 310.178 206.378 397.933C209.8 430.644 222.8 523.933 282.4 555.755C266.4 493.8 238.867 280.467 143.311 286.422Z"/>
</mask>
<path d="M361.467 543.644C362.445 551.889 364.6 563.444 367.089 574.067C472.956 575.022 541.045 544.355 562.622 534.911C557.845 517.578 557.511 506.689 558.822 500.733C483.4 513.111 457.756 549.733 361.467 543.644ZM143.311 286.422C185.356 290.044 197.2 310.178 206.378 397.933C209.8 430.644 222.8 523.933 282.4 555.755C266.4 493.8 238.867 280.467 143.311 286.422Z" fill="#F4C7B5" stroke="black" stroke-width="20" mask="url(#path-4-inside-4_447_1996)"/>
<mask id="path-5-inside-5_447_1996" fill="white">
<path d="M70.0667 148.111C8 148.111 27.6444 159.8 25.5778 185.711C23.5111 211.622 23.9333 251.845 42.8222 273.022C67.8667 301.067 128.556 301.156 158.711 279.178C188.867 257.2 149.289 148.111 70.0667 148.111Z"/>
</mask>
<path d="M70.0667 148.111C8 148.111 27.6444 159.8 25.5778 185.711C23.5111 211.622 23.9333 251.845 42.8222 273.022C67.8667 301.067 128.556 301.156 158.711 279.178C188.867 257.2 149.289 148.111 70.0667 148.111Z" fill="#F4C7B5" stroke="black" stroke-width="20" mask="url(#path-5-inside-5_447_1996)"/>
<mask id="path-6-inside-6_447_1996" fill="white">
<path d="M55.6222 185.022C53.2 201.955 44.6444 211.511 36.0888 210.2C19.2 207.6 5.15552 186.044 5.15552 168.955C5.15552 151.866 19.0222 147.555 36.0888 148.333C59.2666 149.4 58.3555 165.844 55.6222 185.022Z"/>
</mask>
<path d="M55.6222 185.022C53.2 201.955 44.6444 211.511 36.0888 210.2C19.2 207.6 5.15552 186.044 5.15552 168.955C5.15552 151.866 19.0222 147.555 36.0888 148.333C59.2666 149.4 58.3555 165.844 55.6222 185.022Z" fill="#272B2B" stroke="black" stroke-width="20" mask="url(#path-6-inside-6_447_1996)"/>
<mask id="path-7-inside-7_447_1996" fill="white">
<path d="M337.044 200.578C344.778 256.466 311.333 264.978 284.089 264.978C256.844 264.978 216.222 237.2 223.022 181.2C226 156.6 235.356 132.466 241 110.644C248.467 81.6887 267.644 72.1554 283.089 80.2665C320.089 99.6887 332.044 164.644 337.044 200.578Z"/>
</mask>
<path d="M337.044 200.578C344.778 256.466 311.333 264.978 284.089 264.978C256.844 264.978 216.222 237.2 223.022 181.2C226 156.6 235.356 132.466 241 110.644C248.467 81.6887 267.644 72.1554 283.089 80.2665C320.089 99.6887 332.044 164.644 337.044 200.578Z" fill="#662113" stroke="black" stroke-width="20" mask="url(#path-7-inside-7_447_1996)"/>
<mask id="path-8-inside-8_447_1996" fill="white">
<path d="M179.311 168.955C190.7 168.955 199.933 159.722 199.933 148.333C199.933 136.944 190.7 127.711 179.311 127.711C167.922 127.711 158.689 136.944 158.689 148.333C158.689 159.722 167.922 168.955 179.311 168.955Z"/>
</mask>
<path d="M179.311 168.955C190.7 168.955 199.933 159.722 199.933 148.333C199.933 136.944 190.7 127.711 179.311 127.711C167.922 127.711 158.689 136.944 158.689 148.333C158.689 159.722 167.922 168.955 179.311 168.955Z" fill="#292F33" stroke="black" stroke-width="20" mask="url(#path-8-inside-8_447_1996)"/>
<mask id="path-9-inside-9_447_1996" fill="white">
<path d="M423 284.2C424.622 318.244 443.133 354.822 483.733 365.6C525.978 376.822 575.289 368.422 587.511 310.6C589.533 301.044 590.4 283.4 589.133 276.955C541.333 272.978 484.022 276.955 423 284.2Z"/>
</mask>
<path d="M423 284.2C424.622 318.244 443.133 354.822 483.733 365.6C525.978 376.822 575.289 368.422 587.511 310.6C589.533 301.044 590.4 283.4 589.133 276.955C541.333 272.978 484.022 276.955 423 284.2Z" fill="#C1694F" stroke="black" stroke-width="20" mask="url(#path-9-inside-9_447_1996)"/>
<mask id="path-10-inside-10_447_1996" fill="white">
<path d="M67.8444 244.245C73.8337 244.245 78.6889 239.389 78.6889 233.4C78.6889 227.411 73.8337 222.556 67.8444 222.556C61.8552 222.556 57 227.411 57 233.4C57 239.389 61.8552 244.245 67.8444 244.245Z"/>
</mask>
<path d="M67.8444 244.245C73.8337 244.245 78.6889 239.389 78.6889 233.4C78.6889 227.411 73.8337 222.556 67.8444 222.556C61.8552 222.556 57 227.411 57 233.4C57 239.389 61.8552 244.245 67.8444 244.245Z" fill="#D99E82" stroke="black" stroke-width="20" mask="url(#path-10-inside-10_447_1996)"/>
<mask id="path-11-inside-11_447_1996" fill="white">
<path d="M82.1111 223.844C85.4125 223.844 88.0889 221.168 88.0889 217.866C88.0889 214.565 85.4125 211.889 82.1111 211.889C78.8096 211.889 76.1333 214.565 76.1333 217.866C76.1333 221.168 78.8096 223.844 82.1111 223.844Z"/>
</mask>
<path d="M82.1111 223.844C85.4125 223.844 88.0889 221.168 88.0889 217.866C88.0889 214.565 85.4125 211.889 82.1111 211.889C78.8096 211.889 76.1333 214.565 76.1333 217.866C76.1333 221.168 78.8096 223.844 82.1111 223.844Z" fill="#D99E82" stroke="black" stroke-width="20" mask="url(#path-11-inside-11_447_1996)"/>
<mask id="path-12-inside-12_447_1996" fill="white">
<path d="M91.1111 239.377C94.4125 239.377 97.0889 236.701 97.0889 233.4C97.0889 230.098 94.4125 227.422 91.1111 227.422C87.8096 227.422 85.1333 230.098 85.1333 233.4C85.1333 236.701 87.8096 239.377 91.1111 239.377Z"/>
</mask>
<path d="M91.1111 239.377C94.4125 239.377 97.0889 236.701 97.0889 233.4C97.0889 230.098 94.4125 227.422 91.1111 227.422C87.8096 227.422 85.1333 230.098 85.1333 233.4C85.1333 236.701 87.8096 239.377 91.1111 239.377Z" fill="#D99E82" stroke="black" stroke-width="20" mask="url(#path-12-inside-12_447_1996)"/>
</svg>
