<svg width="800" height="800" viewBox="0 0 800 800" fill="none" xmlns="http://www.w3.org/2000/svg">
<mask id="path-1-inside-1_447_2009" fill="white">
<path d="M600.2 397.45C663.15 397.45 719.3 422.55 755.85 461.65Z"/>
</mask>
<path d="M600.2 397.45C663.15 397.45 719.3 422.55 755.85 461.65Z" fill="#AEBCC3"/>
<path d="M600.2 407.45C660.536 407.45 713.989 431.512 748.545 468.479L763.155 454.821C724.611 413.588 665.764 387.45 600.2 387.45V407.45Z" fill="black" mask="url(#path-1-inside-1_447_2009)"/>
<mask id="path-3-inside-2_447_2009" fill="white">
<path d="M51.55 535.15C60 550.15 76.6 560.3 95.75 560.3H708.75C736.75 560.3 759.4 538.7 759.4 512.05V498.45H730.8C727.555 498.517 724.414 497.299 722.063 495.06C719.712 492.822 718.342 489.745 718.25 486.5V430.4C683.269 407.887 642.55 395.911 600.95 395.9H602.2L559.2 395.7C517.3 305.7 436.15 231.05 329.35 231.05C222.7 231.05 133.25 301.15 108.9 395.65H95.75C68.05 395.65 51.9 417.05 51.9 443.45"/>
</mask>
<path d="M51.55 535.15C60 550.15 76.6 560.3 95.75 560.3H708.75C736.75 560.3 759.4 538.7 759.4 512.05V498.45H730.8C727.555 498.517 724.414 497.299 722.063 495.06C719.712 492.822 718.342 489.745 718.25 486.5V430.4C683.269 407.887 642.55 395.911 600.95 395.9H602.2L559.2 395.7C517.3 305.7 436.15 231.05 329.35 231.05C222.7 231.05 133.25 301.15 108.9 395.65H95.75C68.05 395.65 51.9 417.05 51.9 443.45" fill="#E8447A"/>
<path d="M759.4 498.45H769.4V488.45H759.4V498.45ZM730.8 498.45V488.45H730.696L730.593 488.452L730.8 498.45ZM718.25 486.5H708.25V486.641L708.254 486.782L718.25 486.5ZM718.25 430.4H728.25V424.944L723.662 421.991L718.25 430.4ZM600.95 395.9V385.9L600.947 405.9L600.95 395.9ZM602.2 395.9V405.9L602.247 385.9L602.2 395.9ZM559.2 395.7L550.134 399.92L552.811 405.67L559.154 405.7L559.2 395.7ZM108.9 395.65V405.65H116.65L118.584 398.145L108.9 395.65ZM42.8374 540.058C53.0811 558.242 73.0339 570.3 95.75 570.3V550.3C80.1662 550.3 66.919 542.058 60.2627 530.242L42.8374 540.058ZM95.75 570.3H708.75V550.3H95.75V570.3ZM708.75 570.3C741.813 570.3 769.4 544.672 769.4 512.05H749.4C749.4 532.728 731.687 550.3 708.75 550.3V570.3ZM769.4 512.05V498.45H749.4V512.05H769.4ZM759.4 488.45H730.8V508.45H759.4V488.45ZM730.593 488.452C729.986 488.465 729.399 488.237 728.959 487.818L715.167 502.302C719.43 506.361 725.123 508.57 731.007 508.448L730.593 488.452ZM728.959 487.818C728.52 487.4 728.263 486.824 728.246 486.217L708.254 486.782C708.42 492.665 710.905 498.244 715.167 502.302L728.959 487.818ZM728.25 486.5V430.4H708.25V486.5H728.25ZM723.662 421.991C687.067 398.439 644.471 385.911 600.953 385.9L600.947 405.9C640.629 405.91 679.47 417.334 712.838 438.809L723.662 421.991ZM600.95 405.9H602.2V385.9H600.95V405.9ZM602.247 385.9L559.247 385.7L559.154 405.7L602.154 405.9L602.247 385.9ZM568.266 391.479C525.354 299.306 441.336 221.05 329.35 221.05V241.05C430.964 241.05 509.246 312.094 550.134 399.92L568.266 391.479ZM329.35 221.05C218.327 221.05 124.751 294.057 99.2164 393.155L118.584 398.145C141.749 308.243 227.073 241.05 329.35 241.05V221.05ZM108.9 385.65H95.75V405.65H108.9V385.65ZM95.75 385.65C79.1155 385.65 65.3554 392.173 55.8821 403.099C46.5455 413.867 41.9 428.272 41.9 443.45H61.9C61.9 432.227 65.3296 422.733 70.993 416.201C76.5196 409.827 84.6846 405.65 95.75 405.65V385.65Z" fill="black" mask="url(#path-3-inside-2_447_2009)"/>
<mask id="path-5-inside-3_447_2009" fill="white">
<path d="M51.55 511.3H62.3C66.3188 511.393 70.3164 510.693 74.0646 509.241C77.8128 507.788 81.2381 505.611 84.1448 502.835C87.0515 500.058 89.3826 496.736 91.005 493.058C92.6274 489.38 93.5092 485.419 93.6 481.4V467.65C93.6 451.15 79.6 437.8 62.3 437.8H51.85"/>
</mask>
<path d="M51.55 511.3H62.3C66.3188 511.393 70.3164 510.693 74.0646 509.241C77.8128 507.788 81.2381 505.611 84.1448 502.835C87.0515 500.058 89.3826 496.736 91.005 493.058C92.6274 489.38 93.5092 485.419 93.6 481.4V467.65C93.6 451.15 79.6 437.8 62.3 437.8H51.85" fill="#F5BB1D"/>
<path d="M62.3 511.3L62.5314 501.302L62.4157 501.3H62.3V511.3ZM93.6 481.4L103.597 481.626L103.6 481.513V481.4H93.6ZM51.55 521.3H62.3V501.3H51.55V521.3ZM62.0687 521.297C67.4007 521.421 72.7048 520.492 77.678 518.565L70.4513 499.916C67.928 500.894 65.2368 501.365 62.5314 501.302L62.0687 521.297ZM77.678 518.565C82.6511 516.638 87.1958 513.75 91.0523 510.066L77.2373 495.604C75.2805 497.473 72.9746 498.938 70.4513 499.916L77.678 518.565ZM91.0523 510.066C94.9089 506.382 98.0018 501.974 100.154 497.094L81.8556 489.022C80.7634 491.498 79.1941 493.734 77.2373 495.604L91.0523 510.066ZM100.154 497.094C102.307 492.214 103.477 486.958 103.597 481.626L83.6026 481.174C83.5414 483.879 82.9478 486.546 81.8556 489.022L100.154 497.094ZM103.6 481.4V467.65H83.6V481.4H103.6ZM103.6 467.65C103.6 445.185 84.6703 427.8 62.3 427.8V447.8C74.5298 447.8 83.6 457.115 83.6 467.65H103.6ZM62.3 427.8H51.85V447.8H62.3V427.8Z" fill="black" mask="url(#path-5-inside-3_447_2009)"/>
<mask id="path-7-inside-4_447_2009" fill="white">
<path d="M126 535.15C126 555.214 134.365 574.456 149.256 588.643C164.146 602.83 184.342 610.8 205.4 610.8C226.458 610.8 246.654 602.83 261.544 588.643C276.435 574.456 284.8 555.214 284.8 535.15C284.8 515.086 276.435 495.845 261.544 481.657C246.654 467.47 226.458 459.5 205.4 459.5C184.342 459.5 164.146 467.47 149.256 481.657C134.365 495.845 126 515.086 126 535.15Z"/>
</mask>
<path d="M126 535.15C126 555.214 134.365 574.456 149.256 588.643C164.146 602.83 184.342 610.8 205.4 610.8C226.458 610.8 246.654 602.83 261.544 588.643C276.435 574.456 284.8 555.214 284.8 535.15C284.8 515.086 276.435 495.845 261.544 481.657C246.654 467.47 226.458 459.5 205.4 459.5C184.342 459.5 164.146 467.47 149.256 481.657C134.365 495.845 126 515.086 126 535.15Z" fill="#455963" stroke="black" stroke-width="20" mask="url(#path-7-inside-4_447_2009)"/>
<mask id="path-8-inside-5_447_2009" fill="white">
<path d="M172 535.15C172 543.597 175.519 551.698 181.783 557.671C188.046 563.644 196.542 567 205.4 567C214.258 567 222.754 563.644 229.017 557.671C235.281 551.698 238.8 543.597 238.8 535.15C238.8 526.703 235.281 518.601 229.017 512.628C222.754 506.655 214.258 503.3 205.4 503.3C196.542 503.3 188.046 506.655 181.783 512.628C175.519 518.601 172 526.703 172 535.15Z"/>
</mask>
<path d="M172 535.15C172 543.597 175.519 551.698 181.783 557.671C188.046 563.644 196.542 567 205.4 567C214.258 567 222.754 563.644 229.017 557.671C235.281 551.698 238.8 543.597 238.8 535.15C238.8 526.703 235.281 518.601 229.017 512.628C222.754 506.655 214.258 503.3 205.4 503.3C196.542 503.3 188.046 506.655 181.783 512.628C175.519 518.601 172 526.703 172 535.15Z" fill="#AEBCC3" stroke="black" stroke-width="20" mask="url(#path-8-inside-5_447_2009)"/>
<mask id="path-9-inside-6_447_2009" fill="white">
<path d="M510.4 535.15C510.4 555.214 518.76 574.456 533.641 588.643C548.522 602.83 568.705 610.8 589.75 610.8C610.795 610.8 630.978 602.83 645.859 588.643C660.74 574.456 669.1 555.214 669.1 535.15C669.1 515.086 660.74 495.845 645.859 481.657C630.978 467.47 610.795 459.5 589.75 459.5C568.705 459.5 548.522 467.47 533.641 481.657C518.76 495.845 510.4 515.086 510.4 535.15Z"/>
</mask>
<path d="M510.4 535.15C510.4 555.214 518.76 574.456 533.641 588.643C548.522 602.83 568.705 610.8 589.75 610.8C610.795 610.8 630.978 602.83 645.859 588.643C660.74 574.456 669.1 555.214 669.1 535.15C669.1 515.086 660.74 495.845 645.859 481.657C630.978 467.47 610.795 459.5 589.75 459.5C568.705 459.5 548.522 467.47 533.641 481.657C518.76 495.845 510.4 515.086 510.4 535.15Z" fill="#455963" stroke="black" stroke-width="20" mask="url(#path-9-inside-6_447_2009)"/>
<mask id="path-10-inside-7_447_2009" fill="white">
<path d="M556.4 535.15C556.4 543.597 559.919 551.698 566.183 557.671C572.446 563.644 580.942 567 589.8 567C598.658 567 607.154 563.644 613.417 557.671C619.681 551.698 623.2 543.597 623.2 535.15C623.2 526.703 619.681 518.601 613.417 512.628C607.154 506.655 598.658 503.3 589.8 503.3C580.942 503.3 572.446 506.655 566.183 512.628C559.919 518.601 556.4 526.703 556.4 535.15Z"/>
</mask>
<path d="M556.4 535.15C556.4 543.597 559.919 551.698 566.183 557.671C572.446 563.644 580.942 567 589.8 567C598.658 567 607.154 563.644 613.417 557.671C619.681 551.698 623.2 543.597 623.2 535.15C623.2 526.703 619.681 518.601 613.417 512.628C607.154 506.655 598.658 503.3 589.8 503.3C580.942 503.3 572.446 506.655 566.183 512.628C559.919 518.601 556.4 526.703 556.4 535.15Z" fill="#AEBCC3" stroke="black" stroke-width="20" mask="url(#path-10-inside-7_447_2009)"/>
<mask id="path-11-inside-8_447_2009" fill="white">
<path d="M755.9 461.8V461.65C744.666 449.743 732.023 439.249 718.25 430.4V486.5C718.25 493.1 723.9 498.45 730.8 498.45H759.4V465.4L755.9 461.8Z"/>
</mask>
<path d="M755.9 461.8V461.65C744.666 449.743 732.023 439.249 718.25 430.4V486.5C718.25 493.1 723.9 498.45 730.8 498.45H759.4V465.4L755.9 461.8Z" fill="#F5BB1D" stroke="black" stroke-width="20" mask="url(#path-11-inside-8_447_2009)"/>
<mask id="path-12-inside-9_447_2009" fill="white">
<path d="M317.85 262.2C235.9 267.15 168.4 322.2 148.6 395.65H317.85V262.2ZM349.2 395.65H518.45C486.25 327.8 426.95 270.95 349.2 262.8V395.65Z"/>
</mask>
<path d="M317.85 262.2C235.9 267.15 168.4 322.2 148.6 395.65H317.85V262.2ZM349.2 395.65H518.45C486.25 327.8 426.95 270.95 349.2 262.8V395.65Z" fill="#631536" stroke="black" stroke-width="20" mask="url(#path-12-inside-9_447_2009)"/>
</svg>
