<svg width="800" height="800" viewBox="0 0 800 800" fill="none" xmlns="http://www.w3.org/2000/svg">
<g clip-path="url(#clip0_447_2019)">
<mask id="path-1-inside-1_447_2019" fill="white">
<path d="M700 750C700 763.8 688.8 775 675 775H475V587.5C475 580.587 469.412 575 462.5 575H337.5C330.588 575 325 580.587 325 587.5V775H125C111.2 775 100 763.8 100 750V392.637L400.112 92.5371L700 392.425V750Z"/>
</mask>
<path d="M700 750C700 763.8 688.8 775 675 775H475V587.5C475 580.587 469.412 575 462.5 575H337.5C330.588 575 325 580.587 325 587.5V775H125C111.2 775 100 763.8 100 750V392.637L400.112 92.5371L700 392.425V750Z" fill="#F9EBB2" stroke="black" stroke-width="2" mask="url(#path-1-inside-1_447_2019)"/>
<mask id="path-2-inside-2_447_2019" fill="white">
<path d="M175 75H225V157.512L175 207.413V75Z"/>
</mask>
<path d="M175 75H225V157.512L175 207.413V75Z" fill="#F76D57" stroke="black" stroke-width="2" mask="url(#path-2-inside-2_447_2019)"/>
<mask id="path-3-inside-3_447_2019" fill="white">
<path d="M450 600H350V775H450V600Z"/>
</mask>
<path d="M450 600H350V775H450V600Z" fill="#F9EBB2" stroke="black" stroke-width="2" mask="url(#path-3-inside-3_447_2019)"/>
<mask id="path-4-inside-4_447_2019" fill="white">
<path d="M762.5 412.5C759.05 412.5 754.975 412.05 752.725 409.788L408.95 66.0125C406.512 63.575 403.312 62.35 400.112 62.35C396.912 62.35 393.713 63.575 391.275 66.0125L47.3875 409.912C45.125 412.175 40.95 412.5 37.5 412.5C30.5875 412.5 25 406.912 25 400C25 396.55 25.2 392.225 27.4625 389.963L387.937 30.125C387.937 30.125 392.6 25 400.112 25C407.625 25 412.388 29.975 412.388 29.975L772.463 390.037C774.725 392.3 775 396.55 775 400C775 406.9 769.412 412.5 762.5 412.5Z"/>
</mask>
<path d="M762.5 412.5C759.05 412.5 754.975 412.05 752.725 409.788L408.95 66.0125C406.512 63.575 403.312 62.35 400.112 62.35C396.912 62.35 393.713 63.575 391.275 66.0125L47.3875 409.912C45.125 412.175 40.95 412.5 37.5 412.5C30.5875 412.5 25 406.912 25 400C25 396.55 25.2 392.225 27.4625 389.963L387.937 30.125C387.937 30.125 392.6 25 400.112 25C407.625 25 412.388 29.975 412.388 29.975L772.463 390.037C774.725 392.3 775 396.55 775 400C775 406.9 769.412 412.5 762.5 412.5Z" fill="#F76D57" stroke="black" stroke-width="2" mask="url(#path-4-inside-4_447_2019)"/>
<path d="M790.137 372.362L430.475 12.6875C430.475 12.6875 418.762 0 400.1 0C381.437 0 370.4 12.3875 370.4 12.3875L250 132.55V62.5C250 55.5875 244.412 50 237.5 50H162.5C155.588 50 150 55.5875 150 62.5V232.363L9.7875 372.288C3 379.075 0 389.65 0 400C0 420.7 16.7875 437.5 37.5 437.5C47.85 437.5 58.275 434.363 65.0625 427.575L75 417.637V750C75 777.637 97.3625 800 125 800H675C702.637 800 725 777.637 725 750V417.425L735.05 427.475C741.838 434.238 752.15 437.5 762.5 437.5C783.212 437.5 800 420.712 800 400C800 389.638 796.925 379.15 790.137 372.362ZM175 75H225V157.512L175 207.413V75ZM450 775H350V600H450V775ZM700 750C700 763.8 688.8 775 675 775H475V587.5C475 580.588 469.412 575 462.5 575H337.5C330.588 575 325 580.588 325 587.5V775H125C111.2 775 100 763.8 100 750V392.637L400.112 92.5375L700 392.425V750ZM762.5 412.5C759.05 412.5 754.975 412.05 752.725 409.788L408.95 66.0125C406.512 63.575 403.312 62.35 400.112 62.35C396.912 62.35 393.713 63.575 391.275 66.0125L47.3875 409.912C45.125 412.175 40.95 412.5 37.5 412.5C30.5875 412.5 25 406.912 25 400C25 396.55 25.2 392.225 27.4625 389.963L387.937 30.125C387.937 30.125 392.6 25 400.112 25C407.625 25 412.388 29.975 412.388 29.975L772.463 390.037C774.725 392.3 775 396.55 775 400C775 406.9 769.412 412.5 762.5 412.5Z" fill="black"/>
<path d="M287.5 400H187.5C180.588 400 175 405.588 175 412.5V512.5C175 519.412 180.588 525 187.5 525H287.5C294.412 525 300 519.412 300 512.5V412.5C300 405.588 294.412 400 287.5 400ZM275 500H200V425H275V500Z" fill="black"/>
<path d="M512.5 525H612.5C619.412 525 625 519.412 625 512.5V412.5C625 405.588 619.412 400 612.5 400H512.5C505.588 400 500 405.588 500 412.5V512.5C500 519.412 505.588 525 512.5 525ZM525 425H600V500H525V425Z" fill="black"/>
<path d="M450 600H350V775H450V600Z" fill="#506C7F"/>
<path d="M275 425H200V500H275V425Z" fill="#45AAB8"/>
<path d="M600 425H525V500H600V425Z" fill="#45AAB8"/>
</g>
<defs>
<clipPath id="clip0_447_2019">
<rect width="800" height="800" fill="white"/>
</clipPath>
</defs>
</svg>
