<svg width="800" height="800" viewBox="0 0 800 800" fill="none" xmlns="http://www.w3.org/2000/svg">
<mask id="path-1-inside-1_447_2033" fill="white">
<path d="M278 192.688H519.5V507.062H278V192.688Z"/>
</mask>
<path d="M278 192.688H519.5V507.062H278V192.688Z" fill="#ACA299" stroke="black" stroke-width="20" mask="url(#path-1-inside-1_447_2033)"/>
<mask id="path-2-inside-2_447_2033" fill="white">
<path d="M403.188 39.0002C384.313 39.2502 376.438 65.2502 333.188 122.688C299.625 167.313 280.313 183.688 278.25 191C277.188 194.875 277.75 197 277.75 197H519.625C519.625 197 520.25 192.063 517.938 188.438C516.375 186.063 488.188 149.875 470.625 125.625C424 61.3752 420.75 38.8127 403.188 39.0002Z"/>
</mask>
<path d="M403.188 39.0002C384.313 39.2502 376.438 65.2502 333.188 122.688C299.625 167.313 280.313 183.688 278.25 191C277.188 194.875 277.75 197 277.75 197H519.625C519.625 197 520.25 192.063 517.938 188.438C516.375 186.063 488.188 149.875 470.625 125.625C424 61.3752 420.75 38.8127 403.188 39.0002Z" fill="#A62714" stroke="black" stroke-width="20" mask="url(#path-2-inside-2_447_2033)"/>
<mask id="path-3-inside-3_447_2033" fill="white">
<path d="M361.813 255.938V324.875C361.813 331.188 359.375 336.063 368.813 335.375C374.438 334.938 436.688 335.375 436.688 335.375C436.688 335.375 436.688 264.688 436.313 256.625C435.938 248.563 426.875 224.063 398.875 224.438C370.875 224.813 362.125 245.063 361.813 255.938Z"/>
</mask>
<path d="M361.813 255.938V324.875C361.813 331.188 359.375 336.063 368.813 335.375C374.438 334.938 436.688 335.375 436.688 335.375C436.688 335.375 436.688 264.688 436.313 256.625C435.938 248.563 426.875 224.063 398.875 224.438C370.875 224.813 362.125 245.063 361.813 255.938Z" fill="#2F2F2F" stroke="black" stroke-width="20" mask="url(#path-3-inside-3_447_2033)"/>
<mask id="path-4-inside-4_447_2033" fill="white">
<path d="M277.937 332.438L519.5 332.688V359L486.687 372.813L455.187 398L415.312 371.75C415.312 371.75 387 371.75 385.562 372.813C384.187 373.875 354.062 400.125 354.062 400.125L320.5 372.5L278 362.625C278 362.563 277.75 332.687 277.937 332.438Z"/>
</mask>
<path d="M277.937 332.438L519.5 332.688V359L486.687 372.813L455.187 398L415.312 371.75C415.312 371.75 387 371.75 385.562 372.813C384.187 373.875 354.062 400.125 354.062 400.125L320.5 372.5L278 362.625C278 362.563 277.75 332.687 277.937 332.438Z" fill="#D9D1C6" stroke="black" stroke-width="20" mask="url(#path-4-inside-4_447_2033)"/>
<mask id="path-5-inside-5_447_2033" fill="white">
<path d="M277.938 379.625C277.938 379.625 304.563 376.188 319.125 382.25C335.938 389.25 352.688 414.438 355.188 414.438C360.5 414.375 371.437 381.938 403.812 379.438C436 376.938 448.937 417.563 455.937 417.938C461.25 418.188 473.562 388.813 488.125 380.875C503.25 372.625 519.5 372.438 519.5 372.438V358.875C519.5 358.875 499.562 356.938 483.25 364.438C464.875 372.938 458.375 390 455.312 390.188C453.125 390.313 437.062 362.625 402.437 363.75C369.875 364.813 357.812 388.438 355.125 388.5C353.937 388.563 340.937 373 324.75 366.563C305.5 358.875 278 362.438 278 362.438L277.938 379.625Z"/>
</mask>
<path d="M277.938 379.625C277.938 379.625 304.563 376.188 319.125 382.25C335.938 389.25 352.688 414.438 355.188 414.438C360.5 414.375 371.437 381.938 403.812 379.438C436 376.938 448.937 417.563 455.937 417.938C461.25 418.188 473.562 388.813 488.125 380.875C503.25 372.625 519.5 372.438 519.5 372.438V358.875C519.5 358.875 499.562 356.938 483.25 364.438C464.875 372.938 458.375 390 455.312 390.188C453.125 390.313 437.062 362.625 402.437 363.75C369.875 364.813 357.812 388.438 355.125 388.5C353.937 388.563 340.937 373 324.75 366.563C305.5 358.875 278 362.438 278 362.438L277.938 379.625Z" fill="#6F6B67" stroke="black" stroke-width="20" mask="url(#path-5-inside-5_447_2033)"/>
<mask id="path-6-inside-6_447_2033" fill="white">
<path d="M232.75 515.625L71.3124 529.063C71.3124 529.063 69.9374 757.062 69.3124 763.75C68.6874 770.437 71.3124 777.187 79.3749 777.187C87.4374 777.187 718.937 774.5 725.687 774.5C732.437 774.5 737.125 765.063 737.125 757V543.125L631.562 516.25L232.75 515.625Z"/>
</mask>
<path d="M232.75 515.625L71.3124 529.063C71.3124 529.063 69.9374 757.062 69.3124 763.75C68.6874 770.437 71.3124 777.187 79.3749 777.187C87.4374 777.187 718.937 774.5 725.687 774.5C732.437 774.5 737.125 765.063 737.125 757V543.125L631.562 516.25L232.75 515.625Z" fill="#ACA299" stroke="black" stroke-width="20" mask="url(#path-6-inside-6_447_2033)"/>
<mask id="path-7-inside-7_447_2033" fill="white">
<path d="M187.25 529.813H614.437L596.562 463.938C596.562 463.938 510.563 463.312 506.125 463.312C502.438 463.312 500.062 466.375 500.125 470.938C500.187 474.25 500.063 496.25 500.063 496.25L442.75 496.125V472.188C442.75 466.438 439.25 463.5 432.875 463.688C427.938 463.813 377.375 463.5 373.5 463.688C367.812 463.938 367.188 467.313 367.188 472.625C367.188 477.938 367 495.125 367 495.125L305.125 495.063C305.125 495.063 304.938 474.688 304.938 471.813C304.938 469 303.5 465.438 296.5 465.125C289.437 464.75 207.312 465.125 207.312 465.125L187.25 529.813Z"/>
</mask>
<path d="M187.25 529.813H614.437L596.562 463.938C596.562 463.938 510.563 463.312 506.125 463.312C502.438 463.312 500.062 466.375 500.125 470.938C500.187 474.25 500.063 496.25 500.063 496.25L442.75 496.125V472.188C442.75 466.438 439.25 463.5 432.875 463.688C427.938 463.813 377.375 463.5 373.5 463.688C367.812 463.938 367.188 467.313 367.188 472.625C367.188 477.938 367 495.125 367 495.125L305.125 495.063C305.125 495.063 304.938 474.688 304.938 471.813C304.938 469 303.5 465.438 296.5 465.125C289.437 464.75 207.312 465.125 207.312 465.125L187.25 529.813Z" fill="#E5DDD2" stroke="black" stroke-width="20" mask="url(#path-7-inside-7_447_2033)"/>
<mask id="path-8-inside-8_447_2033" fill="white">
<path d="M681.312 346.125L580.438 382.437C580.438 382.437 581.375 401.5 585 433.437C587.375 454.5 592.687 479.75 592.687 479.75L688.625 504.5L762.625 464.312C762.625 464.312 767.625 441.5 770 414.062C771.625 395.5 772.875 380.563 771.75 379.625C760.063 370.125 681.312 346.125 681.312 346.125Z"/>
</mask>
<path d="M681.312 346.125L580.438 382.437C580.438 382.437 581.375 401.5 585 433.437C587.375 454.5 592.687 479.75 592.687 479.75L688.625 504.5L762.625 464.312C762.625 464.312 767.625 441.5 770 414.062C771.625 395.5 772.875 380.563 771.75 379.625C760.063 370.125 681.312 346.125 681.312 346.125Z" fill="#ACA299" stroke="black" stroke-width="20" mask="url(#path-8-inside-8_447_2033)"/>
<mask id="path-9-inside-9_447_2033" fill="white">
<path d="M31.1875 389.5C31.1875 389.5 33.4375 414.438 35.375 431.563C37.3125 448.688 41 468.563 41 468.563L134.375 490.125L211.687 467.5C211.687 467.5 214.75 445.75 215.875 424.438C216.938 404.188 216.5 389.812 215.937 389.375C214.25 388 126.937 349.125 126.937 349.125L31.1875 389.5Z"/>
</mask>
<path d="M31.1875 389.5C31.1875 389.5 33.4375 414.438 35.375 431.563C37.3125 448.688 41 468.563 41 468.563L134.375 490.125L211.687 467.5C211.687 467.5 214.75 445.75 215.875 424.438C216.938 404.188 216.5 389.812 215.937 389.375C214.25 388 126.937 349.125 126.937 349.125L31.1875 389.5Z" fill="#ACA299" stroke="black" stroke-width="20" mask="url(#path-9-inside-9_447_2033)"/>
<mask id="path-10-inside-10_447_2033" fill="white">
<path d="M40.9375 468.437L211.75 467.438C211.75 467.438 207.875 493.937 205.625 505.312C203.375 516.625 198.187 529.875 198.187 529.875L198.125 776.75L180.187 776.812V551.687H71.125C71.125 551.687 55 537.812 48.625 510C43.125 486.25 40.9375 468.437 40.9375 468.437Z"/>
</mask>
<path d="M40.9375 468.437L211.75 467.438C211.75 467.438 207.875 493.937 205.625 505.312C203.375 516.625 198.187 529.875 198.187 529.875L198.125 776.75L180.187 776.812V551.687H71.125C71.125 551.687 55 537.812 48.625 510C43.125 486.25 40.9375 468.437 40.9375 468.437Z" fill="#89847E" stroke="black" stroke-width="20" mask="url(#path-10-inside-10_447_2033)"/>
<mask id="path-11-inside-11_447_2033" fill="white">
<path d="M589.375 463.312L762.562 464.375C762.562 464.375 758.688 484.625 751.438 508.375C746.688 524 737.312 551.5 737.312 551.5H622.875L620.812 774.938L605.625 775L606.75 538.625C606.75 538.625 601.062 514.313 596.5 497.125C592.812 482.938 589.375 463.312 589.375 463.312Z"/>
</mask>
<path d="M589.375 463.312L762.562 464.375C762.562 464.375 758.688 484.625 751.438 508.375C746.688 524 737.312 551.5 737.312 551.5H622.875L620.812 774.938L605.625 775L606.75 538.625C606.75 538.625 601.062 514.313 596.5 497.125C592.812 482.938 589.375 463.312 589.375 463.312Z" fill="#89847E" stroke="black" stroke-width="20" mask="url(#path-11-inside-11_447_2033)"/>
<mask id="path-12-inside-12_447_2033" fill="white">
<path d="M618.188 367.5V395.875C618.188 412.125 618.312 423.25 618.625 432.187C618.812 439.25 622.812 443.312 629.062 443.062C636.125 442.75 637 436.812 637 432.625C637 428.437 636.187 367.125 636.187 367.125L618.188 367.5Z"/>
</mask>
<path d="M618.188 367.5V395.875C618.188 412.125 618.312 423.25 618.625 432.187C618.812 439.25 622.812 443.312 629.062 443.062C636.125 442.75 637 436.812 637 432.625C637 428.437 636.187 367.125 636.187 367.125L618.188 367.5Z" fill="#2E2E2F" stroke="black" stroke-width="20" mask="url(#path-12-inside-12_447_2033)"/>
<mask id="path-13-inside-13_447_2033" fill="white">
<path d="M670.375 367.188C670.375 367.188 670.5 428.125 670.375 432.688C670.25 438.938 673.75 443.937 679.438 443.937C685.125 443.937 688.5 438.5 688.125 433.5C687.75 428.5 688.875 365.062 688.875 365.062L670.375 367.188Z"/>
</mask>
<path d="M670.375 367.188C670.375 367.188 670.5 428.125 670.375 432.688C670.25 438.938 673.75 443.937 679.438 443.937C685.125 443.937 688.5 438.5 688.125 433.5C687.75 428.5 688.875 365.062 688.875 365.062L670.375 367.188Z" fill="#2E2E2F" stroke="black" stroke-width="20" mask="url(#path-13-inside-13_447_2033)"/>
<mask id="path-14-inside-14_447_2033" fill="white">
<path d="M725.187 370.375C725.187 370.375 724.75 430.5 724.75 433.813C724.75 437.125 725.563 444.375 733.5 443.813C740.563 443.313 741.437 435.875 741.437 430.875C741.437 425.875 741.813 370.813 741.813 370.813L725.187 370.375Z"/>
</mask>
<path d="M725.187 370.375C725.187 370.375 724.75 430.5 724.75 433.813C724.75 437.125 725.563 444.375 733.5 443.813C740.563 443.313 741.437 435.875 741.437 430.875C741.437 425.875 741.813 370.813 741.813 370.813L725.187 370.375Z" fill="#2E2E2F" stroke="black" stroke-width="20" mask="url(#path-14-inside-14_447_2033)"/>
<mask id="path-15-inside-15_447_2033" fill="white">
<path d="M669.063 239.125C669.063 239.125 668.5 155.375 668.5 152C668.5 148.687 672.625 144.375 678.125 145.75C692 149.25 707.687 158.687 729.625 162.25C751.562 165.812 778.438 161.437 782.625 161.437C786.813 161.437 791.375 167.25 783.437 171.437C775.5 175.625 762.438 189.625 734.438 197.562C709.938 204.5 700 205.625 690.125 210.5C686 212.562 688.062 237.437 688.062 237.437L669.063 239.125Z"/>
</mask>
<path d="M669.063 239.125C669.063 239.125 668.5 155.375 668.5 152C668.5 148.687 672.625 144.375 678.125 145.75C692 149.25 707.687 158.687 729.625 162.25C751.562 165.812 778.438 161.437 782.625 161.437C786.813 161.437 791.375 167.25 783.437 171.437C775.5 175.625 762.438 189.625 734.438 197.562C709.938 204.5 700 205.625 690.125 210.5C686 212.562 688.062 237.437 688.062 237.437L669.063 239.125Z" fill="#FE2A22" stroke="black" stroke-width="20" mask="url(#path-15-inside-15_447_2033)"/>
<mask id="path-16-inside-16_447_2033" fill="white">
<path d="M580.437 382.438C580.437 382.438 611.5 373.813 678.25 374.688C745 375.563 771.687 379.688 771.687 379.688C771.687 379.688 769.625 372.625 763.375 366.75C757.125 360.875 722.5 324.625 704.125 276.188C694.062 249.75 694.687 227.313 676.562 227.75C660.687 228.188 659.875 243.188 648.625 275.313C637.375 307.438 630.625 316 618.562 333.125C606.437 350.25 594.687 359.75 588.312 367.125C580.187 376.688 580.437 382.438 580.437 382.438Z"/>
</mask>
<path d="M580.437 382.438C580.437 382.438 611.5 373.813 678.25 374.688C745 375.563 771.687 379.688 771.687 379.688C771.687 379.688 769.625 372.625 763.375 366.75C757.125 360.875 722.5 324.625 704.125 276.188C694.062 249.75 694.687 227.313 676.562 227.75C660.687 228.188 659.875 243.188 648.625 275.313C637.375 307.438 630.625 316 618.562 333.125C606.437 350.25 594.687 359.75 588.312 367.125C580.187 376.688 580.437 382.438 580.437 382.438Z" fill="#A62714" stroke="black" stroke-width="20" mask="url(#path-16-inside-16_447_2033)"/>
<mask id="path-17-inside-17_447_2033" fill="white">
<path d="M59.4375 378.5C59.4375 378.5 60.75 433.75 61 438.25C61.25 442.188 63.125 448.313 70.25 448.063C77.375 447.813 77.9375 440.125 77.9375 438C77.9375 435.875 76.375 375.562 76.375 375.562L59.4375 378.5Z"/>
</mask>
<path d="M59.4375 378.5C59.4375 378.5 60.75 433.75 61 438.25C61.25 442.188 63.125 448.313 70.25 448.063C77.375 447.813 77.9375 440.125 77.9375 438C77.9375 435.875 76.375 375.562 76.375 375.562L59.4375 378.5Z" fill="#2E2E2F" stroke="black" stroke-width="20" mask="url(#path-17-inside-17_447_2033)"/>
<mask id="path-18-inside-18_447_2033" fill="white">
<path d="M117.938 378.875C117.938 378.875 118.312 433.875 118.5 437.312C118.75 442.312 120.687 448.125 127.687 448.125C134.687 448.125 136.625 441.5 136.375 437.312C136.187 434.125 136.125 378.625 136.125 378.625L117.938 378.875Z"/>
</mask>
<path d="M117.938 378.875C117.938 378.875 118.312 433.875 118.5 437.312C118.75 442.312 120.687 448.125 127.687 448.125C134.687 448.125 136.625 441.5 136.375 437.312C136.187 434.125 136.125 378.625 136.125 378.625L117.938 378.875Z" fill="#2E2E2F" stroke="black" stroke-width="20" mask="url(#path-18-inside-18_447_2033)"/>
<mask id="path-19-inside-19_447_2033" fill="white">
<path d="M174.125 379.312C174.125 379.312 174.437 433.688 174.437 437.375C174.437 442.375 176.562 448 182.75 448C189.187 448 191.187 444.063 191.437 437.938C191.687 431.813 191.687 380.312 191.687 380.312L174.125 379.312Z"/>
</mask>
<path d="M174.125 379.312C174.125 379.312 174.437 433.688 174.437 437.375C174.437 442.375 176.562 448 182.75 448C189.187 448 191.187 444.063 191.437 437.938C191.687 431.813 191.687 380.312 191.687 380.312L174.125 379.312Z" fill="#2E2E2F" stroke="black" stroke-width="20" mask="url(#path-19-inside-19_447_2033)"/>
<mask id="path-20-inside-20_447_2033" fill="white">
<path d="M113.25 247.875C113.25 247.875 112.937 161.375 113 158.187C113.187 144.937 131.062 154.937 132.312 155.25C145.75 158.687 162.75 164 178.062 166.625C193.375 169.25 228.062 172.187 231.25 172.437C234.437 172.687 237.062 177.187 231.75 179.812C226.437 182.437 185.187 199.937 169.312 206.25C153.437 212.562 130.937 216.562 130.937 216.562L130.687 250.937L113.25 247.875Z"/>
</mask>
<path d="M113.25 247.875C113.25 247.875 112.937 161.375 113 158.187C113.187 144.937 131.062 154.937 132.312 155.25C145.75 158.687 162.75 164 178.062 166.625C193.375 169.25 228.062 172.187 231.25 172.437C234.437 172.687 237.062 177.187 231.75 179.812C226.437 182.437 185.187 199.937 169.312 206.25C153.437 212.562 130.937 216.562 130.937 216.562L130.687 250.937L113.25 247.875Z" fill="#FF2A23" stroke="black" stroke-width="20" mask="url(#path-20-inside-20_447_2033)"/>
<mask id="path-21-inside-21_447_2033" fill="white">
<path d="M122.188 236.562C104.438 236.75 93.9375 288.75 77.3125 319.437C60.6875 350.125 43.1875 370.437 38.1875 375.062C29.4375 383.187 31.25 389.5 31.25 389.5C31.25 389.5 71.0625 384.562 124.688 384.187C178.313 383.812 216.313 390.062 216.313 390.062C216.313 390.062 215.313 381.625 208.625 374.187C204.063 369.125 184.438 348.187 168.688 317.75C151.313 284.125 140.438 236.375 122.188 236.562Z"/>
</mask>
<path d="M122.188 236.562C104.438 236.75 93.9375 288.75 77.3125 319.437C60.6875 350.125 43.1875 370.437 38.1875 375.062C29.4375 383.187 31.25 389.5 31.25 389.5C31.25 389.5 71.0625 384.562 124.688 384.187C178.313 383.812 216.313 390.062 216.313 390.062C216.313 390.062 215.313 381.625 208.625 374.187C204.063 369.125 184.438 348.187 168.688 317.75C151.313 284.125 140.438 236.375 122.188 236.562Z" fill="#A62714" stroke="black" stroke-width="20" mask="url(#path-21-inside-21_447_2033)"/>
<mask id="path-22-inside-22_447_2033" fill="white">
<path d="M301.063 776.313C301.063 776.313 298.688 678.75 312.25 645.313C326.688 609.75 347.063 590.563 360.688 575.75C374.375 560.875 397.438 540.563 404.875 539.813C412.438 539 436.563 562.063 455.313 581.625C473.125 600.188 495.563 619.938 504.938 653.125C511.938 677.875 509.75 775.438 509.75 775.438L301.063 776.313Z"/>
</mask>
<path d="M301.063 776.313C301.063 776.313 298.688 678.75 312.25 645.313C326.688 609.75 347.063 590.563 360.688 575.75C374.375 560.875 397.438 540.563 404.875 539.813C412.438 539 436.563 562.063 455.313 581.625C473.125 600.188 495.563 619.938 504.938 653.125C511.938 677.875 509.75 775.438 509.75 775.438L301.063 776.313Z" fill="#6F6A67" stroke="black" stroke-width="20" mask="url(#path-22-inside-22_447_2033)"/>
<mask id="path-23-inside-23_447_2033" fill="white">
<path d="M404.937 563.25C401.375 563.25 340.812 613.125 329.625 658.125C320.687 694.25 322.437 776.25 322.437 776.25L491 775.5C491 775.5 495.687 680.875 483.75 651.875C465.062 606.438 408.5 563.25 404.937 563.25Z"/>
</mask>
<path d="M404.937 563.25C401.375 563.25 340.812 613.125 329.625 658.125C320.687 694.25 322.437 776.25 322.437 776.25L491 775.5C491 775.5 495.687 680.875 483.75 651.875C465.062 606.438 408.5 563.25 404.937 563.25Z" fill="#89847E" stroke="black" stroke-width="20" mask="url(#path-23-inside-23_447_2033)"/>
<mask id="path-24-inside-24_447_2033" fill="white">
<path d="M348.062 776.188C348.062 776.188 347.062 682.25 347.5 669.813C347.937 657.313 365.312 619.938 406.312 620.813C447.312 621.688 465.125 656 465.562 669.813C466 683.625 465.562 775.625 465.562 775.625L348.062 776.188Z"/>
</mask>
<path d="M348.062 776.188C348.062 776.188 347.062 682.25 347.5 669.813C347.937 657.313 365.312 619.938 406.312 620.813C447.312 621.688 465.125 656 465.562 669.813C466 683.625 465.562 775.625 465.562 775.625L348.062 776.188Z" fill="#6E4D42" stroke="black" stroke-width="20" mask="url(#path-24-inside-24_447_2033)"/>
<mask id="path-25-inside-25_447_2033" fill="white">
<path d="M363.937 776.125L377.75 776.062V627.312C377.75 627.312 372.125 630.562 369.312 632.937C366.625 635.187 363.875 637.937 363.875 637.937L363.937 776.125Z"/>
</mask>
<path d="M363.937 776.125L377.75 776.062V627.312C377.75 627.312 372.125 630.562 369.312 632.937C366.625 635.187 363.875 637.937 363.875 637.937L363.937 776.125Z" fill="#8F6D61" stroke="black" stroke-width="20" mask="url(#path-25-inside-25_447_2033)"/>
<mask id="path-26-inside-26_447_2033" fill="white">
<path d="M401.625 775.938L401.562 620.875C401.562 620.875 405.812 620.688 407.75 620.75C410.375 620.875 413.812 621.375 413.812 621.375L414.813 775.875L401.625 775.938Z"/>
</mask>
<path d="M401.625 775.938L401.562 620.875C401.562 620.875 405.812 620.688 407.75 620.75C410.375 620.875 413.812 621.375 413.812 621.375L414.813 775.875L401.625 775.938Z" fill="#8F6D61" stroke="black" stroke-width="20" mask="url(#path-26-inside-26_447_2033)"/>
<mask id="path-27-inside-27_447_2033" fill="white">
<path d="M440.562 631.375C440.562 631.375 444.5 634.063 447.437 636.75C450 639.125 452.625 642.25 452.625 642.25L452.688 775.688L439.688 775.75L440.562 631.375Z"/>
</mask>
<path d="M440.562 631.375C440.562 631.375 444.5 634.063 447.437 636.75C450 639.125 452.625 642.25 452.625 642.25L452.688 775.688L439.688 775.75L440.562 631.375Z" fill="#8F6D61" stroke="black" stroke-width="20" mask="url(#path-27-inside-27_447_2033)"/>
<mask id="path-28-inside-28_447_2033" fill="white">
<path d="M528.312 670.312V647.687C528.312 647.687 568.812 647.437 569.312 648.062C569.812 648.687 569.688 670.437 569.688 670.437L528.312 670.312Z"/>
</mask>
<path d="M528.312 670.312V647.687C528.312 647.687 568.812 647.437 569.312 648.062C569.812 648.687 569.688 670.437 569.688 670.437L528.312 670.312Z" fill="#D8D0C5" stroke="black" stroke-width="20" mask="url(#path-28-inside-28_447_2033)"/>
<mask id="path-29-inside-29_447_2033" fill="white">
<path d="M640.062 694.625C639 696.125 638.625 717.437 639.937 717.812C641.25 718.187 678.562 717.812 678.562 717.812V693.687C678.562 693.625 641.375 692.812 640.062 694.625Z"/>
</mask>
<path d="M640.062 694.625C639 696.125 638.625 717.437 639.937 717.812C641.25 718.187 678.562 717.812 678.562 717.812V693.687C678.562 693.625 641.375 692.812 640.062 694.625Z" fill="#D8D0C5" stroke="black" stroke-width="20" mask="url(#path-29-inside-29_447_2033)"/>
<mask id="path-30-inside-30_447_2033" fill="white">
<path d="M309.313 591.375V614C309.313 614 268.75 615 267.75 613.75C266.75 612.5 266.875 592.188 267.625 591.688C268.375 591.188 309.313 591.375 309.313 591.375Z"/>
</mask>
<path d="M309.313 591.375V614C309.313 614 268.75 615 267.75 613.75C266.75 612.5 266.875 592.188 267.625 591.688C268.375 591.188 309.313 591.375 309.313 591.375Z" fill="#D8D0C5" stroke="black" stroke-width="20" mask="url(#path-30-inside-30_447_2033)"/>
<mask id="path-31-inside-31_447_2033" fill="white">
<path d="M242.563 633C242.563 633 282.625 632.75 283.375 633.25C284.125 633.75 284 655.813 284 655.813C284 655.813 243.687 656.438 242.937 655.688C242.187 654.938 242.563 633 242.563 633Z"/>
</mask>
<path d="M242.563 633C242.563 633 282.625 632.75 283.375 633.25C284.125 633.75 284 655.813 284 655.813C284 655.813 243.687 656.438 242.937 655.688C242.187 654.938 242.563 633 242.563 633Z" fill="#D8D0C5" stroke="black" stroke-width="20" mask="url(#path-31-inside-31_447_2033)"/>
<mask id="path-32-inside-32_447_2033" fill="white">
<path d="M121.437 576.937C121.437 576.937 120.5 598.062 121.812 598.937C123.062 599.875 163.5 600 164.375 599.312C165.25 598.625 165.125 577.5 164.375 576.937C163.687 576.437 121.437 576.937 121.437 576.937Z"/>
</mask>
<path d="M121.437 576.937C121.437 576.937 120.5 598.062 121.812 598.937C123.062 599.875 163.5 600 164.375 599.312C165.25 598.625 165.125 577.5 164.375 576.937C163.687 576.437 121.437 576.937 121.437 576.937Z" fill="#D8D0C5" stroke="black" stroke-width="20" mask="url(#path-32-inside-32_447_2033)"/>
</svg>
