<svg width="800" height="800" viewBox="0 0 800 800" fill="none" xmlns="http://www.w3.org/2000/svg">
<mask id="path-1-inside-1_447_2066" fill="white">
<path d="M392.592 281.481L7.40771 133.333V637.038L392.592 800V281.481Z"/>
</mask>
<path d="M392.592 281.481L7.40771 133.333V637.038L392.592 800V281.481Z" fill="#E6EEF4" stroke="black" stroke-width="20" mask="url(#path-1-inside-1_447_2066)"/>
<mask id="path-2-inside-2_447_2066" fill="white">
<path d="M792.592 148.148L391.852 281.481L392.592 800L792.592 651.852V148.148Z"/>
</mask>
<path d="M792.592 148.148L391.852 281.481L392.592 800L792.592 651.852V148.148Z" fill="#DAE1E5" stroke="black" stroke-width="20" mask="url(#path-2-inside-2_447_2066)"/>
<mask id="path-3-inside-3_447_2066" fill="white">
<path d="M792.592 148.148L392.592 281.481L7.40771 133.333L392.592 0L792.592 148.148Z"/>
</mask>
<path d="M792.592 148.148L392.592 281.481L7.40771 133.333L392.592 0L792.592 148.148Z" fill="#ECFAFF" stroke="black" stroke-width="20" mask="url(#path-3-inside-3_447_2066)"/>
<path d="M744.98 272.491C744.98 292.077 732.417 307.942 716.936 307.942C701.439 307.942 688.892 292.075 688.892 272.491C688.892 252.905 701.441 237.039 716.936 237.039C732.416 237.039 744.98 252.905 744.98 272.491Z" fill="black"/>
<path d="M629.63 450.269C629.63 469.853 617.067 485.72 601.586 485.72C586.089 485.72 573.542 469.853 573.542 450.269C573.542 430.683 586.091 414.817 601.586 414.817C617.067 414.816 629.63 430.683 629.63 450.269Z" fill="black"/>
<path d="M522.756 646.029C522.756 665.615 510.194 681.48 494.712 681.48C479.216 681.48 466.669 665.613 466.669 646.029C466.669 626.443 479.217 610.577 494.712 610.577C510.194 610.577 522.756 626.443 522.756 646.029Z" fill="black"/>
<path d="M323.042 347.337C323.042 366.923 310.48 382.789 294.998 382.789C279.501 382.789 266.955 366.922 266.955 347.337C266.955 327.751 279.503 311.886 294.998 311.886C310.478 311.886 323.042 327.753 323.042 347.337Z" fill="black"/>
<path d="M109.833 258.544C109.833 278.13 97.2704 293.996 81.7891 293.996C66.2922 293.996 53.7454 278.129 53.7454 258.544C53.7454 238.958 66.2938 223.093 81.7891 223.093C97.2704 223.093 109.833 238.958 109.833 258.544Z" fill="black"/>
<path d="M318.519 657.675C318.519 677.261 305.956 693.127 290.475 693.127C274.978 693.127 262.431 677.26 262.431 657.675C262.431 638.091 274.98 622.224 290.475 622.224C305.956 622.224 318.519 638.091 318.519 657.675Z" fill="black"/>
<path d="M108.837 571.954C108.837 591.54 96.275 607.406 80.7938 607.406C65.2969 607.406 52.75 591.539 52.75 571.954C52.75 552.369 65.2984 536.503 80.7938 536.503C96.2734 536.501 108.837 552.369 108.837 571.954Z" fill="black"/>
<path d="M392.7 110.528C412.286 110.528 428.152 123.091 428.152 138.572C428.152 154.069 412.284 166.616 392.7 166.616C373.114 166.616 357.249 154.067 357.249 138.572C357.249 123.091 373.116 110.528 392.7 110.528Z" fill="black"/>
</svg>
