<svg width="800" height="800" viewBox="0 0 800 800" fill="none" xmlns="http://www.w3.org/2000/svg">
<g clip-path="url(#clip0_447_2080)">
<path d="M183.254 123.243H769.29C779.922 123.243 788.053 131.374 788.053 142.006V506.637C788.053 517.27 779.922 525.4 769.29 525.4H183.254C172.621 525.4 164.49 517.27 164.49 506.637V142.006C164.49 131.374 172.621 123.243 183.254 123.243Z" fill="#9DBE87"/>
<path d="M769.29 537.909H183.254C165.741 537.909 151.982 524.15 151.982 506.637V142.006C151.982 124.494 165.741 110.734 183.254 110.734H769.29C786.802 110.734 800.562 124.494 800.562 142.006V506.637C800.562 523.524 786.802 537.909 769.29 537.909ZM183.254 135.752C179.501 135.752 176.999 138.254 176.999 142.006V506.637C176.999 510.39 179.501 512.892 183.254 512.892H769.29C773.043 512.892 775.544 510.39 775.544 506.637V142.006C775.544 138.254 773.043 135.752 769.29 135.752H183.254Z" fill="#131313"/>
<path d="M130.091 176.405H716.753C727.386 176.405 735.516 184.536 735.516 195.168V559.799C735.516 570.432 727.386 578.563 716.753 578.563H130.091C119.459 578.563 111.328 570.432 111.328 559.799V195.168C111.328 184.536 119.459 176.405 130.091 176.405Z" fill="#9DBE87"/>
<path d="M716.128 591.071H130.091C112.579 591.071 98.8193 577.312 98.8193 559.799V195.168C98.8193 177.656 112.579 163.896 130.091 163.896H716.753C734.265 163.896 748.025 177.656 748.025 195.168V559.799C747.4 576.686 733.64 591.071 716.128 591.071ZM130.091 188.914C126.339 188.914 123.837 191.416 123.837 195.168V559.799C123.837 563.552 126.339 566.054 130.091 566.054H716.753C720.506 566.054 723.007 563.552 723.007 559.799V195.168C723.007 191.416 720.506 188.914 716.753 188.914H130.091Z" fill="#131313"/>
<path d="M81.3071 228.317H667.969C678.601 228.317 686.732 236.448 686.732 247.081V611.711C686.732 622.344 678.601 630.475 667.969 630.475H81.3071C70.6747 630.475 62.5439 622.344 62.5439 611.711V247.081C62.5439 237.074 70.6747 228.317 81.3071 228.317Z" fill="#9DBE87"/>
<path d="M667.969 642.983H81.3071C63.7948 642.983 50.0352 629.224 50.0352 611.711V247.081C50.0352 229.568 63.7948 215.809 81.3071 215.809H667.969C685.481 215.809 699.241 229.568 699.241 247.081V611.711C699.241 628.598 684.856 642.983 667.969 642.983ZM81.3071 240.826C77.5545 240.826 75.0527 243.328 75.0527 247.081V611.711C75.0527 615.464 77.5545 617.966 81.3071 617.966H667.969C671.721 617.966 674.223 615.464 674.223 611.711V247.081C674.223 243.328 671.721 240.826 667.969 240.826H81.3071Z" fill="#131313"/>
<path d="M31.272 274.6H617.934C628.566 274.6 636.697 282.73 636.697 293.363V657.994C636.697 668.626 628.566 676.757 617.934 676.757H31.272C20.6395 676.757 12.5088 668.626 12.5088 657.994V293.363C12.5088 283.356 20.6395 274.6 31.272 274.6Z" fill="#9DBE87"/>
<path d="M617.934 689.266H31.272C13.7597 689.266 0 675.506 0 657.994V293.363C0 275.85 13.7597 262.091 31.272 262.091H617.934C635.446 262.091 649.206 275.85 649.206 293.363V657.994C649.206 675.506 634.821 689.266 617.934 689.266ZM31.272 287.108C27.5193 287.108 25.0176 289.61 25.0176 293.363V657.994C25.0176 661.746 27.5193 664.248 31.272 664.248H617.934C621.686 664.248 624.188 661.746 624.188 657.994V293.363C624.188 289.61 621.686 287.108 617.934 287.108H31.272Z" fill="#131313"/>
<path d="M539.128 620.467H110.077C110.077 591.071 85.6852 566.679 56.2896 566.679V377.797C85.6852 377.797 110.077 353.404 110.077 324.009H539.128C539.128 353.404 563.521 377.797 592.916 377.797V566.679C562.895 566.679 539.128 591.071 539.128 620.467Z" fill="#D6F0C5"/>
<path d="M539.128 632.976H110.077C103.197 632.976 97.5685 627.347 97.5685 620.467C97.5685 597.951 78.8053 579.188 56.2895 579.188C49.4097 579.188 43.7808 573.559 43.7808 566.679V377.797C43.7808 370.917 49.4097 365.288 56.2895 365.288C78.8053 365.288 97.5685 346.525 97.5685 324.009C97.5685 317.129 103.197 311.5 110.077 311.5H539.128C546.008 311.5 551.637 317.129 551.637 324.009C551.637 346.525 570.4 365.288 592.916 365.288C599.796 365.288 605.425 370.917 605.425 377.797V566.679C605.425 573.559 599.796 579.188 592.916 579.188C570.4 579.188 551.637 597.951 551.637 620.467C551.637 627.347 546.008 632.976 539.128 632.976ZM121.335 607.958H527.245C532.249 581.69 553.514 560.425 579.782 555.421V389.054C553.514 384.051 532.249 362.786 527.245 336.518H121.335C116.332 362.786 95.0668 384.051 68.7983 389.054V554.796C95.0668 560.425 116.332 581.69 121.335 607.958Z" fill="#131313"/>
<path d="M325.854 557.298C305.84 557.298 284.575 549.793 269.564 530.404C265.186 524.775 266.437 517.27 271.441 512.892C277.069 508.514 284.575 509.765 288.953 514.768C303.963 534.157 327.105 534.782 342.115 529.779C354.624 525.401 362.129 517.27 362.129 508.514C362.129 500.383 342.741 494.754 325.854 489.751C299.585 481.62 266.437 472.238 266.437 440.966C266.437 425.956 275.819 412.196 292.08 404.065C312.094 394.058 345.868 390.306 377.765 413.447C383.394 417.825 384.645 425.33 380.267 430.959C375.889 436.588 368.384 437.839 362.755 433.461C341.49 417.825 317.723 418.451 303.338 425.956C295.833 429.708 290.829 435.337 290.829 440.966C290.829 452.85 308.341 458.479 332.108 465.984C357.751 473.489 385.896 482.245 385.896 508.514C385.896 527.902 371.511 545.415 348.995 553.545C342.741 555.422 333.984 557.298 325.854 557.298Z" fill="#131313"/>
<path d="M324.603 420.952C317.723 420.952 312.094 415.323 312.094 408.443V380.924C312.094 374.044 317.723 368.415 324.603 368.415C331.483 368.415 337.112 374.044 337.112 380.924V408.443C337.112 415.948 331.483 420.952 324.603 420.952Z" fill="#131313"/>
<path d="M324.603 581.064C317.723 581.064 312.094 575.435 312.094 568.556V547.916C312.094 541.036 317.723 535.407 324.603 535.407C331.483 535.407 337.112 541.036 337.112 547.916V568.556C337.112 575.435 331.483 581.064 324.603 581.064Z" fill="#131313"/>
<path d="M138.222 479.744C138.222 482.783 138.821 485.792 139.984 488.6C141.147 491.407 142.851 493.958 145 496.107C147.149 498.256 149.7 499.961 152.508 501.123C155.315 502.286 158.324 502.885 161.363 502.885C164.402 502.885 167.411 502.286 170.219 501.123C173.027 499.961 175.578 498.256 177.727 496.107C179.875 493.958 181.58 491.407 182.743 488.6C183.906 485.792 184.505 482.783 184.505 479.744C184.505 473.606 182.066 467.72 177.727 463.38C173.387 459.041 167.501 456.603 161.363 456.603C155.226 456.603 149.34 459.041 145 463.38C140.66 467.72 138.222 473.606 138.222 479.744Z" fill="#AECD99"/>
<path d="M161.363 514.768C141.975 514.768 125.713 499.132 125.713 479.118C125.713 459.104 141.349 443.468 161.363 443.468C180.752 443.468 197.013 459.104 197.013 479.118C197.013 499.132 180.752 514.768 161.363 514.768ZM161.363 469.111C155.734 469.111 150.731 473.489 150.731 479.743C150.731 485.998 155.109 490.376 161.363 490.376C166.992 490.376 171.996 485.998 171.996 479.743C171.996 473.489 166.992 469.111 161.363 469.111Z" fill="#131313"/>
<path d="M465.952 479.744C465.952 485.881 468.39 491.767 472.73 496.107C477.07 500.447 482.956 502.885 489.093 502.885C495.231 502.885 501.117 500.447 505.457 496.107C509.796 491.767 512.235 485.881 512.235 479.744C512.235 473.606 509.796 467.72 505.457 463.38C501.117 459.041 495.231 456.603 489.093 456.603C482.956 456.603 477.07 459.041 472.73 463.38C468.39 467.72 465.952 473.606 465.952 479.744Z" fill="#AECD99"/>
<path d="M489.093 514.768C469.705 514.768 453.443 499.132 453.443 479.118C453.443 459.104 469.079 443.468 489.093 443.468C508.482 443.468 524.743 459.104 524.743 479.118C524.743 499.132 508.482 514.768 489.093 514.768ZM489.093 469.111C483.464 469.111 478.461 473.489 478.461 479.743C478.461 485.998 482.839 490.376 489.093 490.376C495.348 490.376 499.726 485.998 499.726 479.743C499.726 473.489 494.722 469.111 489.093 469.111Z" fill="#131313"/>
</g>
<defs>
<clipPath id="clip0_447_2080">
<rect width="800" height="800" fill="white"/>
</clipPath>
</defs>
</svg>
