<svg width="800" height="800" viewBox="0 0 800 800" fill="none" xmlns="http://www.w3.org/2000/svg">
<g clip-path="url(#clip0_447_2098)">
<path d="M452.643 673.645C415.911 713.463 400 786.666 400 786.666C400 786.666 471.706 764.973 508.464 725.143C545.234 685.312 548.49 656.718 533.099 642.5C517.709 628.281 489.401 633.841 452.643 673.645Z" fill="#A6DDDD"/>
<path d="M347.344 673.645C384.088 713.463 400 786.666 400 786.666C400 786.666 328.281 764.973 291.511 725.143C254.766 685.312 251.498 656.718 266.901 642.5C282.279 628.281 310.586 633.841 347.344 673.645Z" fill="#A6DDDD"/>
<path d="M452.643 531.874C415.911 571.692 400 644.895 400 644.895C400 644.895 471.706 623.202 508.464 583.385C545.234 543.541 548.49 514.934 533.099 500.702C517.709 486.509 489.401 492.057 452.643 531.874Z" fill="#A6DDDD"/>
<path d="M347.344 531.874C384.088 571.692 400 644.895 400 644.895C400 644.895 328.281 623.202 291.511 583.385C254.766 543.541 251.498 514.934 266.901 500.702C282.279 486.509 310.586 492.057 347.344 531.874Z" fill="#A6DDDD"/>
<path d="M577.839 178.724C598.151 149.479 595.274 109.088 569.193 83.0723C542.942 56.8224 502.109 54.2315 472.904 75.0254C466.692 39.8433 436.016 13.333 399.063 13.333C362.005 13.333 331.224 40.2861 325.234 75.6636C295.951 55.3902 255.508 58.2677 229.48 84.3223C203.008 110.755 200.625 151.692 221.94 180.963C186.563 187.005 159.766 217.356 159.766 254.44C159.766 291.614 186.68 322.382 222.096 328.398C201.836 357.617 204.766 398.046 230.808 424.075C257.031 450.286 297.864 453.021 327.109 432.213C333.503 467.265 364.141 493.75 400.924 493.75C437.995 493.75 468.828 466.822 474.857 431.419C504.036 451.653 544.479 448.828 570.521 422.759C596.693 396.536 599.453 355.664 578.711 326.406C613.697 320.117 640.234 289.453 640.234 252.669C640.234 215.494 613.229 184.713 577.839 178.724Z" fill="#FFCA72"/>
<path d="M400.013 374.323C333.32 374.323 279.193 320.287 279.193 253.568C279.193 186.875 333.255 132.812 399.948 132.812C466.719 132.812 520.781 186.875 520.781 253.568C520.781 320.26 466.719 374.323 400.013 374.323Z" fill="#FFFFFD"/>
<path d="M400 800C396.693 800 393.451 798.764 390.951 796.458C387.487 793.255 385.963 788.451 386.966 783.829C387.656 780.704 404.101 706.602 442.839 664.61C468.906 636.38 492.982 622.07 514.388 622.07C525.013 622.07 534.609 625.743 542.149 632.708C550.99 640.873 575.378 672.318 518.255 734.193C479.493 776.199 406.928 798.503 403.868 799.427C402.591 799.818 401.289 800 400 800ZM514.388 648.737C508.203 648.737 490.743 652.045 462.435 682.695C441.211 705.704 427.24 741.55 419.74 765.274C442.813 755.886 477.461 739.076 498.659 716.107C525.078 687.487 535.039 662.449 524.049 652.292C521.459 649.896 518.295 648.737 514.388 648.737Z" fill="black"/>
<path d="M400 800C398.711 800 397.409 799.818 396.146 799.427C393.073 798.503 320.495 776.199 281.719 734.193C224.609 672.292 249.024 640.86 257.852 632.708C265.378 625.743 274.974 622.07 285.599 622.07C307.005 622.07 331.081 636.38 357.135 664.597C395.899 706.602 412.344 780.704 413.034 783.829C414.036 788.451 412.513 793.255 409.049 796.458C406.549 798.764 403.308 800 400 800ZM285.599 648.737C281.692 648.737 278.542 649.896 275.951 652.292C264.961 662.449 274.909 687.487 301.315 716.107C322.565 739.128 357.201 755.912 380.248 765.287C372.721 741.537 358.737 705.652 337.539 682.683C309.245 652.045 291.797 648.737 285.599 648.737Z" fill="black"/>
<path d="M400 658.229C396.693 658.229 393.451 656.993 390.951 654.687C387.487 651.484 385.963 646.68 386.966 642.058C387.656 638.932 404.101 564.83 442.839 522.839C468.906 494.596 492.982 480.286 514.401 480.286C525.013 480.286 534.609 483.959 542.135 490.899C550.99 499.089 575.378 530.547 518.268 592.422C479.493 634.427 406.928 656.732 403.868 657.656C402.591 658.047 401.289 658.229 400 658.229ZM514.401 506.953C508.203 506.953 490.743 510.261 462.435 540.924C441.211 563.932 427.24 599.779 419.74 623.502C442.813 614.114 477.461 597.305 498.672 574.336C525.078 545.716 535.039 520.664 524.049 510.495C521.471 508.112 518.308 506.953 514.401 506.953Z" fill="black"/>
<path d="M400 658.229C398.711 658.229 397.409 658.047 396.146 657.656C393.073 656.732 320.508 634.427 281.719 592.435C224.623 530.521 249.011 499.076 257.852 490.911C265.391 483.959 274.974 480.286 285.586 480.286C307.005 480.286 331.081 494.596 357.135 522.826C395.899 564.83 412.344 638.932 413.034 642.058C414.036 646.68 412.513 651.484 409.049 654.687C406.549 656.993 403.308 658.229 400 658.229ZM285.586 506.953C281.693 506.953 278.529 508.112 275.951 510.495C264.948 520.651 274.909 545.716 301.315 574.349C322.565 597.357 357.201 614.141 380.248 623.516C372.721 599.779 358.737 563.88 337.539 540.911C309.245 510.261 291.784 506.953 285.586 506.953Z" fill="black"/>
<path d="M400.924 507.083C364.375 507.083 332.344 484.779 319.049 452.031C308.021 456.849 296.081 459.349 283.776 459.349C260.208 459.349 238.047 450.169 221.38 433.502C195.508 407.643 188.607 369.219 202.37 336.706C169.114 323.698 146.433 291.498 146.433 254.44C146.433 217.787 168.88 185.873 201.862 172.813C187.148 140.065 193.698 101.211 220.052 74.8828C236.719 58.2031 258.906 49.0234 282.513 49.0234C294.466 49.0234 306.12 51.3804 316.914 55.9507C329.896 22.6821 362.045 0 399.063 0C435.794 0 467.851 22.3569 481.029 55.1694C492.07 50.3515 504.024 47.8516 516.328 47.8516C539.87 47.8516 561.993 57.0053 578.62 73.6459C604.505 99.4663 611.38 137.877 597.578 170.417C630.873 183.412 653.568 215.599 653.568 252.669C653.568 289.258 631.263 321.276 598.529 334.492C612.826 367.201 606.107 405.976 579.961 432.174C563.294 448.868 541.12 458.06 517.526 458.06C505.572 458.047 493.945 455.69 483.164 451.132C470.156 484.401 437.956 507.083 400.924 507.083ZM327.109 418.88C328.802 418.88 330.508 419.206 332.135 419.857C336.354 421.576 339.414 425.339 340.221 429.818C345.573 459.141 371.107 480.416 400.924 480.416C431.094 480.416 456.654 458.868 461.719 429.18C462.474 424.688 465.482 420.899 469.688 419.128C473.906 417.344 478.697 417.865 482.461 420.469C492.76 427.604 504.883 431.38 517.526 431.393C533.984 431.393 549.466 424.974 561.094 413.334C582.396 391.979 585.234 358.672 567.839 334.115C565.195 330.391 564.649 325.586 566.368 321.354C568.099 317.135 571.862 314.088 576.354 313.281C605.638 308.021 626.901 282.526 626.901 252.669C626.901 222.474 605.326 196.901 575.612 191.875C571.12 191.107 567.318 188.099 565.547 183.893C563.776 179.688 564.284 174.87 566.888 171.12C583.893 146.641 580.899 113.581 559.779 92.5133C548.164 80.8985 532.748 74.5182 516.328 74.5182C503.424 74.5182 491.081 78.4507 480.638 85.8854C476.914 88.5548 472.096 89.1016 467.851 87.3697C463.62 85.6251 460.572 81.8492 459.779 77.3438C454.584 47.9819 429.062 26.6666 399.062 26.6666C368.932 26.6666 343.412 48.2032 338.385 77.8907C337.617 82.3829 334.609 86.1851 330.417 87.9556C326.211 89.7008 321.406 89.2189 317.643 86.6276C307.305 79.4664 295.156 75.6901 282.513 75.6901C266.029 75.6901 250.547 82.0963 238.906 93.7501C217.435 115.182 214.844 148.568 232.721 173.112C235.43 176.849 236.029 181.706 234.297 185.99C232.552 190.26 228.737 193.334 224.18 194.102C194.583 199.167 173.099 224.531 173.099 254.44C173.099 284.635 194.649 310.208 224.323 315.248C228.828 316.016 232.617 319.023 234.388 323.229C236.159 327.435 235.651 332.252 233.047 335.99C216.094 360.456 219.114 393.529 240.234 414.649C251.862 426.276 267.331 432.683 283.776 432.683C296.654 432.683 308.958 428.763 319.375 421.354C321.667 419.714 324.375 418.88 327.109 418.88Z" fill="black"/>
<path d="M400.013 387.657C326.042 387.657 265.859 327.5 265.859 253.568C265.859 179.636 326.016 119.479 399.948 119.479C473.933 119.479 534.115 179.636 534.115 253.568C534.115 327.5 473.959 387.657 400.013 387.657ZM399.948 146.146C340.716 146.146 292.526 194.336 292.526 253.568C292.526 312.8 340.742 360.99 400.013 360.99C459.258 360.99 507.447 312.8 507.447 253.568C507.447 194.336 459.219 146.146 399.948 146.146Z" fill="black"/>
<path d="M400 800C392.63 800 386.667 794.036 386.667 786.667V493.75C386.667 486.38 392.63 480.416 400 480.416C407.37 480.416 413.334 486.38 413.334 493.75V786.667C413.334 794.036 407.37 800 400 800Z" fill="black"/>
</g>
<defs>
<clipPath id="clip0_447_2098">
<rect width="800" height="800" fill="white"/>
</clipPath>
</defs>
</svg>
