<svg width="800" height="800" viewBox="0 0 800 800" fill="none" xmlns="http://www.w3.org/2000/svg">
<mask id="path-1-inside-1_447_2122" fill="white">
<path d="M194.375 481.187C194.375 481.187 170.937 502.875 163.312 524.625C155.687 546.313 142.813 599.125 137.5 603.812C132.188 608.5 114.625 616.687 108.187 619.625C101.75 622.562 87.6875 625.5 87.6875 635.437C87.6875 645.375 100.563 645.437 122.875 641.875C145.188 638.312 153.375 637.187 157.5 631.875C161.625 626.562 184.5 543.312 188 538C191.5 532.75 198 518.062 217.938 502.812C237.875 487.562 260.75 468.812 260.75 468.812L223.188 445.375L194.375 481.187Z"/>
</mask>
<path d="M194.375 481.187C194.375 481.187 170.937 502.875 163.312 524.625C155.687 546.313 142.813 599.125 137.5 603.812C132.188 608.5 114.625 616.687 108.187 619.625C101.75 622.562 87.6875 625.5 87.6875 635.437C87.6875 645.375 100.563 645.437 122.875 641.875C145.188 638.312 153.375 637.187 157.5 631.875C161.625 626.562 184.5 543.312 188 538C191.5 532.75 198 518.062 217.938 502.812C237.875 487.562 260.75 468.812 260.75 468.812L223.188 445.375L194.375 481.187Z" fill="#868686" stroke="black" stroke-width="20" mask="url(#path-1-inside-1_447_2122)"/>
<mask id="path-2-inside-2_447_2122" fill="white">
<path d="M78.4999 280.875C78.4999 280.875 71.7499 265.063 52.6874 270C35.9374 274.375 26.8749 299.625 31.5624 311.375C36.2499 323.125 49.4374 328.375 49.4374 328.375L78.4999 280.875Z"/>
</mask>
<path d="M78.4999 280.875C78.4999 280.875 71.7499 265.063 52.6874 270C35.9374 274.375 26.8749 299.625 31.5624 311.375C36.2499 323.125 49.4374 328.375 49.4374 328.375L78.4999 280.875Z" fill="#151413" stroke="black" stroke-width="20" mask="url(#path-2-inside-2_447_2122)"/>
<mask id="path-3-inside-3_447_2122" fill="white">
<path d="M93.75 100.188C89.0625 100.688 81.4375 131.563 59.125 127.188C42.625 123.938 45.8125 100.813 66.75 89.3751C85.5 79.1251 97.5625 83.1876 109 87.3126C125.875 93.3751 142.75 111.938 150.938 133.625C159.125 155.313 168.875 182.563 172.938 214.563C177.063 247.125 174.688 248.313 174.688 248.313L158.875 249.5C158.875 249.5 161.813 241.313 155.938 205.813C152.625 185.75 144.5 160.5 137.188 141.875C128.938 121.063 111.938 98.1876 93.75 100.188Z"/>
</mask>
<path d="M93.75 100.188C89.0625 100.688 81.4375 131.563 59.125 127.188C42.625 123.938 45.8125 100.813 66.75 89.3751C85.5 79.1251 97.5625 83.1876 109 87.3126C125.875 93.3751 142.75 111.938 150.938 133.625C159.125 155.313 168.875 182.563 172.938 214.563C177.063 247.125 174.688 248.313 174.688 248.313L158.875 249.5C158.875 249.5 161.813 241.313 155.938 205.813C152.625 185.75 144.5 160.5 137.188 141.875C128.938 121.063 111.938 98.1876 93.75 100.188Z" fill="#5D6265" stroke="black" stroke-width="20" mask="url(#path-3-inside-3_447_2122)"/>
<mask id="path-4-inside-4_447_2122" fill="white">
<path d="M227.188 121.937C222.875 121.187 211.938 136.312 196.563 127.437C182.938 119.562 189.375 99.312 209.625 97.312C222.563 95.9995 238.875 105.312 246.875 113.437C259.188 126.062 268.313 146.875 272.375 168C276.625 189.812 276.125 210.25 267.125 239.875C257.438 271.562 246 284.75 246 284.75L233.688 272.125C233.688 272.125 242.188 260.375 251.313 235.187C257.938 216.812 261.875 196.5 257.5 172.687C253.375 150.625 239.5 124 227.188 121.937Z"/>
</mask>
<path d="M227.188 121.937C222.875 121.187 211.938 136.312 196.563 127.437C182.938 119.562 189.375 99.312 209.625 97.312C222.563 95.9995 238.875 105.312 246.875 113.437C259.188 126.062 268.313 146.875 272.375 168C276.625 189.812 276.125 210.25 267.125 239.875C257.438 271.562 246 284.75 246 284.75L233.688 272.125C233.688 272.125 242.188 260.375 251.313 235.187C257.938 216.812 261.875 196.5 257.5 172.687C253.375 150.625 239.5 124 227.188 121.937Z" fill="#5D6265" stroke="black" stroke-width="20" mask="url(#path-4-inside-4_447_2122)"/>
<mask id="path-5-inside-5_447_2122" fill="white">
<path d="M95.25 255.938C63.125 270.938 21.5 319.625 28.9375 375.625C34.8125 419.625 67.0625 465.375 129.25 479.438C191.437 493.5 229.562 473.563 229.562 473.563L260.625 468.875L287.625 506.438L368 507L420.812 485.313C420.812 485.313 457.625 537.688 469.75 556.125C481.875 574.625 522.125 607.188 522.125 607.188C522.125 607.188 533 615.313 544.187 621.563C554.75 627.438 605.5 652.063 651.687 654.25C732.437 658.125 756.75 635.625 761.875 629.188C764.375 626 767.062 613.438 768.125 606.75C768.937 601.5 777.562 551.813 771.062 512.875C765.812 481.188 748.75 424.875 684.812 368.563C620.875 312.25 534.062 298.188 479.5 329.875C428.062 359.75 410.312 403.188 410.312 403.188C410.312 403.188 393.875 359.688 349.312 353.938C312.937 349.25 297.125 368 297.125 368C297.125 368 300.625 288.813 220.875 253C162.562 226.938 112.812 247.75 95.25 255.938Z"/>
</mask>
<path d="M95.25 255.938C63.125 270.938 21.5 319.625 28.9375 375.625C34.8125 419.625 67.0625 465.375 129.25 479.438C191.437 493.5 229.562 473.563 229.562 473.563L260.625 468.875L287.625 506.438L368 507L420.812 485.313C420.812 485.313 457.625 537.688 469.75 556.125C481.875 574.625 522.125 607.188 522.125 607.188C522.125 607.188 533 615.313 544.187 621.563C554.75 627.438 605.5 652.063 651.687 654.25C732.437 658.125 756.75 635.625 761.875 629.188C764.375 626 767.062 613.438 768.125 606.75C768.937 601.5 777.562 551.813 771.062 512.875C765.812 481.188 748.75 424.875 684.812 368.563C620.875 312.25 534.062 298.188 479.5 329.875C428.062 359.75 410.312 403.188 410.312 403.188C410.312 403.188 393.875 359.688 349.312 353.938C312.937 349.25 297.125 368 297.125 368C297.125 368 300.625 288.813 220.875 253C162.562 226.938 112.812 247.75 95.25 255.938Z" fill="#5D6265" stroke="black" stroke-width="20" mask="url(#path-5-inside-5_447_2122)"/>
<mask id="path-6-inside-6_447_2122" fill="white">
<path d="M326.937 367.375C309.375 372.125 302.312 391.437 308.75 403.187C315.187 414.937 327.375 419.75 341 416.062C358.625 411.375 365.625 395.562 361.5 383.812C357.437 372.125 342.187 363.312 326.937 367.375Z"/>
</mask>
<path d="M326.937 367.375C309.375 372.125 302.312 391.437 308.75 403.187C315.187 414.937 327.375 419.75 341 416.062C358.625 411.375 365.625 395.562 361.5 383.812C357.437 372.125 342.187 363.312 326.937 367.375Z" fill="#AFAFAE" stroke="black" stroke-width="20" mask="url(#path-6-inside-6_447_2122)"/>
<mask id="path-7-inside-7_447_2122" fill="white">
<path d="M478.25 395C486.438 411.438 510.813 411.875 533.375 397.938C558 382.688 559.188 361 550.375 350.438C538.25 335.875 513.438 338.125 498.188 348.063C482.938 358 467.563 373.563 478.25 395Z"/>
</mask>
<path d="M478.25 395C486.438 411.438 510.813 411.875 533.375 397.938C558 382.688 559.188 361 550.375 350.438C538.25 335.875 513.438 338.125 498.188 348.063C482.938 358 467.563 373.563 478.25 395Z" fill="#AFAFAE" stroke="black" stroke-width="20" mask="url(#path-7-inside-7_447_2122)"/>
<mask id="path-8-inside-8_447_2122" fill="white">
<path d="M124.563 310.188C115.25 325.938 112.75 353.5 136.313 363.875C163.313 375.75 180 356.375 186.188 341C192.063 326.313 193 301.375 172.125 292.875C150.25 284 133.813 294.625 124.563 310.188Z"/>
</mask>
<path d="M124.563 310.188C115.25 325.938 112.75 353.5 136.313 363.875C163.313 375.75 180 356.375 186.188 341C192.063 326.313 193 301.375 172.125 292.875C150.25 284 133.813 294.625 124.563 310.188Z" fill="#0A0A0A" stroke="black" stroke-width="20" mask="url(#path-8-inside-8_447_2122)"/>
<mask id="path-9-inside-9_447_2122" fill="white">
<path d="M53.0001 387.625C53.8126 395.875 53.0001 401.125 48.3126 404.313C42.5001 408.313 37.8751 406.313 37.8751 406.313C37.8751 406.313 29.9376 398.625 28.0626 383.188C27.0001 374.625 28.3751 362.062 28.3751 362.062C28.3751 362.062 51.5001 372.688 53.0001 387.625Z"/>
</mask>
<path d="M53.0001 387.625C53.8126 395.875 53.0001 401.125 48.3126 404.313C42.5001 408.313 37.8751 406.313 37.8751 406.313C37.8751 406.313 29.9376 398.625 28.0626 383.188C27.0001 374.625 28.3751 362.062 28.3751 362.062C28.3751 362.062 51.5001 372.688 53.0001 387.625Z" fill="#44484E" stroke="black" stroke-width="20" mask="url(#path-9-inside-9_447_2122)"/>
<mask id="path-10-inside-10_447_2122" fill="white">
<path d="M277.687 428.125C281.625 429.437 275.062 469.062 278.562 475.187C282.062 481.375 308.062 498.062 343.687 493.687C379.312 489.312 395.187 467.063 400.875 454.563C404.5 446.688 407.937 433.875 410.562 433.437C413.187 433 431.687 462.5 444.437 478.312C457.187 494.125 465.125 506.938 490.625 532C516.125 557.063 549.125 576.438 549.125 576.438C549.125 576.438 542.25 585.125 536.687 592L523.5 608.125C523.5 608.125 483.375 577.75 463.375 552.063C443.875 527 423.375 502.063 420.25 507.875C418.687 510.75 432.062 529.125 437.625 539.313C445.562 553.813 454.125 567.937 457.437 575.625C460.625 583.062 474.25 617.937 481 640.75C485.375 655.687 488.187 673.563 489.375 674.625C492.687 677.5 513.562 697.938 518.875 702.75C524.125 707.563 533.812 718.125 526.812 725.625C519.75 733.125 504.375 721.875 500.875 719.25C497.375 716.625 463.5 694.375 459.5 689.563C455.562 684.75 449.75 657.312 447.187 646.875C444.312 635.187 427.375 594.938 424.75 587.063C422.125 579.125 406.25 551.562 401.875 545.5C395.062 536.062 390 523.5 379.437 526.562C374.187 528.125 369.562 529 365.125 530.937C364.25 536.687 363.562 614.312 362.25 621.375C360.937 628.437 357 685.625 357.437 690.875C357.875 696.125 382.937 729.125 386.062 733.125C389.125 737.063 390 745 384.75 749.375C379.5 753.75 364.937 751.125 361 748.063C357.062 745 331.062 719 328.875 711.562C326.687 704.062 327.125 634.562 327.125 623.125C327.125 611.687 329.75 535.125 328 531.625C325.375 531.187 320.75 531.625 305.812 528.562C297.25 526.812 290.187 522.625 287.562 522.375C286.25 524.813 263.375 579.562 258.937 595.875C254.562 612.125 236.062 693.562 233.875 697.5C231.687 701.437 214.062 717.5 194.75 723.875C184.625 727.187 153.812 734.875 147.687 726.937C141.5 719 164.875 703.187 177.187 696.562C189.5 689.937 204 681.187 205.812 679.375C207.562 677.625 221.187 598.875 223 589.625C224.812 580.375 254.25 510.438 253.812 507.375C240.187 495.5 228.75 474.375 228.75 474.375C228.75 474.375 245.687 467.75 258 456.313C267.687 446.938 277.687 428.125 277.687 428.125Z"/>
</mask>
<path d="M277.687 428.125C281.625 429.437 275.062 469.062 278.562 475.187C282.062 481.375 308.062 498.062 343.687 493.687C379.312 489.312 395.187 467.063 400.875 454.563C404.5 446.688 407.937 433.875 410.562 433.437C413.187 433 431.687 462.5 444.437 478.312C457.187 494.125 465.125 506.938 490.625 532C516.125 557.063 549.125 576.438 549.125 576.438C549.125 576.438 542.25 585.125 536.687 592L523.5 608.125C523.5 608.125 483.375 577.75 463.375 552.063C443.875 527 423.375 502.063 420.25 507.875C418.687 510.75 432.062 529.125 437.625 539.313C445.562 553.813 454.125 567.937 457.437 575.625C460.625 583.062 474.25 617.937 481 640.75C485.375 655.687 488.187 673.563 489.375 674.625C492.687 677.5 513.562 697.938 518.875 702.75C524.125 707.563 533.812 718.125 526.812 725.625C519.75 733.125 504.375 721.875 500.875 719.25C497.375 716.625 463.5 694.375 459.5 689.563C455.562 684.75 449.75 657.312 447.187 646.875C444.312 635.187 427.375 594.938 424.75 587.063C422.125 579.125 406.25 551.562 401.875 545.5C395.062 536.062 390 523.5 379.437 526.562C374.187 528.125 369.562 529 365.125 530.937C364.25 536.687 363.562 614.312 362.25 621.375C360.937 628.437 357 685.625 357.437 690.875C357.875 696.125 382.937 729.125 386.062 733.125C389.125 737.063 390 745 384.75 749.375C379.5 753.75 364.937 751.125 361 748.063C357.062 745 331.062 719 328.875 711.562C326.687 704.062 327.125 634.562 327.125 623.125C327.125 611.687 329.75 535.125 328 531.625C325.375 531.187 320.75 531.625 305.812 528.562C297.25 526.812 290.187 522.625 287.562 522.375C286.25 524.813 263.375 579.562 258.937 595.875C254.562 612.125 236.062 693.562 233.875 697.5C231.687 701.437 214.062 717.5 194.75 723.875C184.625 727.187 153.812 734.875 147.687 726.937C141.5 719 164.875 703.187 177.187 696.562C189.5 689.937 204 681.187 205.812 679.375C207.562 677.625 221.187 598.875 223 589.625C224.812 580.375 254.25 510.438 253.812 507.375C240.187 495.5 228.75 474.375 228.75 474.375C228.75 474.375 245.687 467.75 258 456.313C267.687 446.938 277.687 428.125 277.687 428.125Z" fill="#4D4D4D" stroke="black" stroke-width="20" mask="url(#path-10-inside-10_447_2122)"/>
<mask id="path-11-inside-11_447_2122" fill="white">
<path d="M569.063 589C569.063 589 560.625 600.375 555.25 607.062C548.375 615.562 542.188 620.687 542.188 620.687C542.188 620.687 571.938 635.25 589.75 641.625C617.375 651.438 634.312 652.5 634.312 652.5C634.312 652.5 642.75 642.5 648.063 636.062C655.125 627.562 660.938 618.437 660.938 618.437C660.938 618.437 630.938 614.813 609.875 607.563C581.625 597.938 569.063 589 569.063 589Z"/>
</mask>
<path d="M569.063 589C569.063 589 560.625 600.375 555.25 607.062C548.375 615.562 542.188 620.687 542.188 620.687C542.188 620.687 571.938 635.25 589.75 641.625C617.375 651.438 634.312 652.5 634.312 652.5C634.312 652.5 642.75 642.5 648.063 636.062C655.125 627.562 660.938 618.437 660.938 618.437C660.938 618.437 630.938 614.813 609.875 607.563C581.625 597.938 569.063 589 569.063 589Z" fill="#4D4D4D" stroke="black" stroke-width="20" mask="url(#path-11-inside-11_447_2122)"/>
<mask id="path-12-inside-12_447_2122" fill="white">
<path d="M687 622.125C687 622.125 679.063 633.875 673.5 641.813C669.125 648.063 662.625 654.437 662.625 654.437C662.625 654.437 705.188 655.75 727.938 648.5C740.438 644.5 755.75 637.75 761.313 630.438C765.375 625.188 768.625 603.188 768.625 603.188C768.625 603.188 755 618.125 727.563 621.063C707.125 623.313 687 622.125 687 622.125Z"/>
</mask>
<path d="M687 622.125C687 622.125 679.063 633.875 673.5 641.813C669.125 648.063 662.625 654.437 662.625 654.437C662.625 654.437 705.188 655.75 727.938 648.5C740.438 644.5 755.75 637.75 761.313 630.438C765.375 625.188 768.625 603.188 768.625 603.188C768.625 603.188 755 618.125 727.563 621.063C707.125 623.313 687 622.125 687 622.125Z" fill="#4D4D4D" stroke="black" stroke-width="20" mask="url(#path-12-inside-12_447_2122)"/>
<mask id="path-13-inside-13_447_2122" fill="white">
<path d="M661 618.438C661 618.438 663.813 618.813 673.063 620.25C685.75 622.188 687.25 621.875 687.25 621.875C687.25 621.875 715.562 574.125 729.062 533.688C743 491.813 744.437 440.438 744.437 440.438C744.437 440.438 736.938 428.125 734 423.75C731.063 419.375 723.75 409.938 723.75 409.938C723.75 409.938 719 482.25 704.375 527.563C686.937 581.688 661 618.438 661 618.438Z"/>
</mask>
<path d="M661 618.438C661 618.438 663.813 618.813 673.063 620.25C685.75 622.188 687.25 621.875 687.25 621.875C687.25 621.875 715.562 574.125 729.062 533.688C743 491.813 744.437 440.438 744.437 440.438C744.437 440.438 736.938 428.125 734 423.75C731.063 419.375 723.75 409.938 723.75 409.938C723.75 409.938 719 482.25 704.375 527.563C686.937 581.688 661 618.438 661 618.438Z" fill="#838383" stroke="black" stroke-width="20" mask="url(#path-13-inside-13_447_2122)"/>
<mask id="path-14-inside-14_447_2122" fill="white">
<path d="M549.125 576.375C549.125 576.375 592 514.688 606.75 471.25C613.375 451.75 622.813 412.5 625.25 395.813C630.188 361.5 627 331.375 627 331.375C627 331.375 633.438 333.688 641.312 338C646.125 340.625 651.875 344.625 651.875 344.625C651.875 344.625 656 368.437 649.438 404.437C644.375 432.375 637.187 460.125 628.125 485.813C614.25 524.938 569.25 589.187 569.25 589.187L549.125 576.375Z"/>
</mask>
<path d="M549.125 576.375C549.125 576.375 592 514.688 606.75 471.25C613.375 451.75 622.813 412.5 625.25 395.813C630.188 361.5 627 331.375 627 331.375C627 331.375 633.438 333.688 641.312 338C646.125 340.625 651.875 344.625 651.875 344.625C651.875 344.625 656 368.437 649.438 404.437C644.375 432.375 637.187 460.125 628.125 485.813C614.25 524.938 569.25 589.187 569.25 589.187L549.125 576.375Z" fill="#838383" stroke="black" stroke-width="20" mask="url(#path-14-inside-14_447_2122)"/>
</svg>
