<svg width="800" height="800" viewBox="0 0 800 800" fill="none" xmlns="http://www.w3.org/2000/svg">
<mask id="path-1-inside-1_447_2137" fill="white">
<path d="M95 255C117.5 291.25 142.5 296.25 160 275C187.5 242.5 157.5 201.25 125 190C71.25 168.75 25 228.75 25 228.75C25 228.75 76.25 223.75 95 255Z"/>
</mask>
<path d="M95 255C117.5 291.25 142.5 296.25 160 275C187.5 242.5 157.5 201.25 125 190C71.25 168.75 25 228.75 25 228.75C25 228.75 76.25 223.75 95 255Z" fill="#F29A2E" stroke="black" stroke-width="20" mask="url(#path-1-inside-1_447_2137)"/>
<mask id="path-2-inside-2_447_2137" fill="white">
<path d="M535 127.5C438.75 183.75 518.75 318.75 345 355L530 446.25C567.5 511.25 671.25 516.25 671.25 516.25C671.25 516.25 697.5 438.75 676.25 381.25C733.75 381.25 773.75 346.25 773.75 346.25C773.75 346.25 741.25 231.25 642.5 231.25C740 191.25 757.5 108.75 757.5 108.75C757.5 108.75 671.25 48.7495 535 127.5Z"/>
</mask>
<path d="M535 127.5C438.75 183.75 518.75 318.75 345 355L530 446.25C567.5 511.25 671.25 516.25 671.25 516.25C671.25 516.25 697.5 438.75 676.25 381.25C733.75 381.25 773.75 346.25 773.75 346.25C773.75 346.25 741.25 231.25 642.5 231.25C740 191.25 757.5 108.75 757.5 108.75C757.5 108.75 671.25 48.7495 535 127.5Z" fill="#E1EAF2" stroke="black" stroke-width="20" mask="url(#path-2-inside-2_447_2137)"/>
<mask id="path-3-inside-3_447_2137" fill="white">
<path d="M446.25 775H267.5C267.5 760 372.5 757.5 377.5 657.5C393.75 768.75 446.25 760 446.25 775Z"/>
</mask>
<path d="M446.25 775H267.5C267.5 760 372.5 757.5 377.5 657.5C393.75 768.75 446.25 760 446.25 775Z" fill="#F4BC58" stroke="black" stroke-width="20" mask="url(#path-3-inside-3_447_2137)"/>
<mask id="path-4-inside-4_447_2137" fill="white">
<path d="M617.5 382.5C617.5 526.25 500 673.75 355 673.75C210 673.75 92.5 526.25 92.5 382.5C92.5 286.25 300 353.75 355 353.75C500 352.5 617.5 237.5 617.5 382.5Z"/>
</mask>
<path d="M617.5 382.5C617.5 526.25 500 673.75 355 673.75C210 673.75 92.5 526.25 92.5 382.5C92.5 286.25 300 353.75 355 353.75C500 352.5 617.5 237.5 617.5 382.5Z" fill="#D1DCE6" stroke="black" stroke-width="20" mask="url(#path-4-inside-4_447_2137)"/>
<mask id="path-5-inside-5_447_2137" fill="white">
<path d="M455 615C455 643.75 413.75 706.249 377.5 706.249C341.25 706.249 300 663.749 300 634.999C300 606.249 455 601.25 455 615Z"/>
</mask>
<path d="M455 615C455 643.75 413.75 706.249 377.5 706.249C341.25 706.249 300 663.749 300 634.999C300 606.249 455 601.25 455 615Z" fill="#D1DCE6" stroke="black" stroke-width="20" mask="url(#path-5-inside-5_447_2137)"/>
<mask id="path-6-inside-6_447_2137" fill="white">
<path d="M81.25 328.75C81.25 366.25 88.75 475 88.75 475L122.5 432.5L162.5 480L171.25 413.75L232.5 457.5L221.25 392.5L295 400L261.25 360L312.5 326.25C312.5 326.25 250 340 251.25 301.25C252.5 262.5 283.75 152.5 245 136.25C173.75 110 81.25 170 81.25 328.75Z"/>
</mask>
<path d="M81.25 328.75C81.25 366.25 88.75 475 88.75 475L122.5 432.5L162.5 480L171.25 413.75L232.5 457.5L221.25 392.5L295 400L261.25 360L312.5 326.25C312.5 326.25 250 340 251.25 301.25C252.5 262.5 283.75 152.5 245 136.25C173.75 110 81.25 170 81.25 328.75Z" fill="#E1EAF2" stroke="black" stroke-width="20" mask="url(#path-6-inside-6_447_2137)"/>
<mask id="path-7-inside-7_447_2137" fill="white">
<path d="M81.25 205C86.0825 205 90 203.321 90 201.25C90 199.179 86.0825 197.5 81.25 197.5C76.4175 197.5 72.5 199.179 72.5 201.25C72.5 203.321 76.4175 205 81.25 205Z"/>
</mask>
<path d="M81.25 205C86.0825 205 90 203.321 90 201.25C90 199.179 86.0825 197.5 81.25 197.5C76.4175 197.5 72.5 199.179 72.5 201.25C72.5 203.321 76.4175 205 81.25 205Z" fill="#3E4347" stroke="black" stroke-width="20" mask="url(#path-7-inside-7_447_2137)"/>
<mask id="path-8-inside-8_447_2137" fill="white">
<path d="M143.75 227.5C154.105 227.5 162.5 219.105 162.5 208.75C162.5 198.395 154.105 190 143.75 190C133.395 190 125 198.395 125 208.75C125 219.105 133.395 227.5 143.75 227.5Z"/>
</mask>
<path d="M143.75 227.5C154.105 227.5 162.5 219.105 162.5 208.75C162.5 198.395 154.105 190 143.75 190C133.395 190 125 198.395 125 208.75C125 219.105 133.395 227.5 143.75 227.5Z" fill="#3E4347" stroke="black" stroke-width="20" mask="url(#path-8-inside-8_447_2137)"/>
<mask id="path-9-inside-9_447_2137" fill="white">
<path d="M97.5001 295C97.5001 335 71.2501 306.25 71.2501 306.25C62.5001 306.25 26.2501 333.75 38.7501 287.5C55.0001 227.5 117.5 187.5 117.5 187.5C117.5 187.5 97.5001 222.5 97.5001 295Z"/>
</mask>
<path d="M97.5001 295C97.5001 335 71.2501 306.25 71.2501 306.25C62.5001 306.25 26.2501 333.75 38.7501 287.5C55.0001 227.5 117.5 187.5 117.5 187.5C117.5 187.5 97.5001 222.5 97.5001 295Z" fill="#E24B4B" stroke="black" stroke-width="20" mask="url(#path-9-inside-9_447_2137)"/>
<mask id="path-10-inside-10_447_2137" fill="white">
<path d="M260 132.5V117.5C257.5 86.2503 302.5 73.7503 297.5 57.5003C290 36.2503 231.25 50.0003 202.5 96.2503C198.75 101.25 196.25 107.5 195 115C193.75 110 192.5 105 190 100C176.25 71.2503 217.5 45.0003 205 31.2503C188.75 12.5003 140 45.0003 128.75 98.7503C126.25 110 126.25 121.25 130 132.5C128.75 131.25 127.5 130 126.25 130C105 113.75 126.25 80.0003 111.25 72.5003C88.7501 62.5003 68.7501 107.5 80.0001 151.25C87.5001 176.25 115 202.5 137.5 181.25C145 175 162.5 165 172.5 161.25C180 158.75 200 160 212.5 168.75C223.75 176.25 232.5 191.25 248.75 191.25C320 193.75 358.75 125 332.5 110C318.75 100 297.5 125 260 132.5Z"/>
</mask>
<path d="M260 132.5V117.5C257.5 86.2503 302.5 73.7503 297.5 57.5003C290 36.2503 231.25 50.0003 202.5 96.2503C198.75 101.25 196.25 107.5 195 115C193.75 110 192.5 105 190 100C176.25 71.2503 217.5 45.0003 205 31.2503C188.75 12.5003 140 45.0003 128.75 98.7503C126.25 110 126.25 121.25 130 132.5C128.75 131.25 127.5 130 126.25 130C105 113.75 126.25 80.0003 111.25 72.5003C88.7501 62.5003 68.7501 107.5 80.0001 151.25C87.5001 176.25 115 202.5 137.5 181.25C145 175 162.5 165 172.5 161.25C180 158.75 200 160 212.5 168.75C223.75 176.25 232.5 191.25 248.75 191.25C320 193.75 358.75 125 332.5 110C318.75 100 297.5 125 260 132.5Z" fill="#E24B4B" stroke="black" stroke-width="20" mask="url(#path-10-inside-10_447_2137)"/>
<mask id="path-11-inside-11_447_2137" fill="white">
<path d="M531.25 548.75C520 521.25 487.5 506.25 487.5 506.25C521.25 488.75 541.25 451.25 541.25 451.25C523.75 443.75 456.25 438.75 456.25 438.75C471.25 423.75 483.75 402.5 483.75 402.5C483.75 402.5 406.25 383.75 341.25 418.75C256.25 466.25 281.25 578.75 377.5 591.25C483.75 605 531.25 548.75 531.25 548.75Z"/>
</mask>
<path d="M531.25 548.75C520 521.25 487.5 506.25 487.5 506.25C521.25 488.75 541.25 451.25 541.25 451.25C523.75 443.75 456.25 438.75 456.25 438.75C471.25 423.75 483.75 402.5 483.75 402.5C483.75 402.5 406.25 383.75 341.25 418.75C256.25 466.25 281.25 578.75 377.5 591.25C483.75 605 531.25 548.75 531.25 548.75Z" fill="#E1EAF2" stroke="black" stroke-width="20" mask="url(#path-11-inside-11_447_2137)"/>
</svg>
