<svg width="800" height="800" viewBox="0 0 800 800" fill="none" xmlns="http://www.w3.org/2000/svg">
<path d="M441.328 213.438V83.5156C441.328 82.8125 440.781 82.2656 440.078 82.2656C440 82.2656 439.688 82.2656 439.375 82.5L374.141 147.656C368.75 153.047 360.313 153.906 353.984 149.609C331.172 134.375 304.531 126.328 277.031 126.328C249.531 126.328 222.891 134.375 200.078 149.609C193.75 153.828 185.313 153.047 179.922 147.656L114.766 82.5C114.453 82.2656 114.141 82.2656 114.063 82.2656C113.359 82.2656 112.812 82.8125 112.812 83.5156V213.438C112.812 223.516 113.75 233.594 115.547 243.594L164.297 250.078C173.047 251.25 179.219 259.297 178.047 268.047C177.031 276.094 170.156 281.875 162.266 281.875C161.562 281.875 160.859 281.875 160.156 281.719L125 277.031C127.266 282.969 129.844 288.75 132.734 294.453L160.859 292.109C169.687 291.328 177.422 297.891 178.125 306.641C178.906 315.391 172.344 323.125 163.594 323.906L152.031 324.844C155 328.672 158.203 332.5 161.484 336.094C193.125 370.703 234.219 389.766 277.109 389.766C320 389.766 361.094 370.703 392.734 336.094C396.016 332.5 399.219 328.75 402.187 324.844L390.625 323.906C381.875 323.125 375.312 315.391 376.094 306.641C376.875 297.813 384.531 291.328 393.359 292.109L421.562 294.453C424.453 288.75 427.031 282.969 429.297 277.031L394.141 281.719C393.437 281.797 392.734 281.875 392.031 281.875C384.141 281.875 377.266 276.016 376.25 268.047C375.078 259.297 381.25 251.25 390 250.078L438.75 243.594C440.391 233.594 441.328 223.516 441.328 213.438ZM662.891 658.984C714.219 573.281 686.328 463.125 599.375 408.281L447.969 312.578C439.375 328.75 428.75 343.984 416.25 357.656C378.437 398.984 329.062 421.719 277.031 421.719C256.328 421.719 235.937 418.125 216.641 411.094C216.484 416.328 216.406 421.641 216.563 426.953C217.734 470.469 229.766 513.281 251.484 550.703C253.594 554.375 254.063 558.437 253.203 562.266V668.75C253.203 677.578 246.016 684.688 237.266 684.688H220.703C211.562 684.688 204.063 692.109 204.063 701.25V717.891H285.469C294.297 717.891 301.406 710.703 301.406 701.953V583.984C301.406 575.156 308.516 568.047 317.344 568.047C326.172 568.047 333.281 575.156 333.281 583.984V686.094H349.062C354.922 664.687 374.531 648.828 397.813 648.828H420.781C415.703 633.594 413.047 617.578 413.047 601.484C413.047 519.609 479.609 453.047 561.484 453.047C570.313 453.047 577.422 460.156 577.422 468.984C577.422 477.812 570.234 484.922 561.484 484.922C497.266 484.922 445 537.187 445 601.484C445 620.937 449.922 640.156 459.141 657.187C461.875 662.109 461.719 668.125 458.828 672.969C455.937 677.812 450.703 680.781 445.078 680.781H397.813C387.578 680.781 379.219 689.141 379.219 699.375V717.969H561.484C598.359 717.969 633.438 700.234 655.313 670.469L662.891 658.984ZM688.672 453.984V249.609C688.672 241.953 685.703 234.766 680.313 229.375C674.922 223.984 667.656 220.937 660 220.937C644.219 220.937 631.328 233.828 631.328 249.609V391.484C654.922 409.063 674.141 430.391 688.672 453.984ZM720.625 249.609V560.391C720.625 560.703 720.625 561.016 720.547 561.328C721.484 600.234 711.719 639.687 690.234 675.547C690.156 675.703 690 675.937 689.922 676.094C689.844 676.172 689.844 676.25 689.766 676.25C687.188 680.703 684.375 685 681.328 689.062C653.516 727.187 608.672 749.922 561.484 749.922H378.906C361.484 749.922 347.344 735.703 347.344 718.359V717.969H330.625C324.063 736.562 306.25 749.922 285.469 749.922H202.812C185.937 749.922 172.187 736.172 172.187 719.219V701.328C172.187 674.531 193.984 652.812 220.703 652.812H221.328V562.187C198.594 521.25 185.937 474.922 184.687 427.891C184.375 417.344 184.687 406.875 185.547 396.563C168.281 386.484 152.266 373.438 137.891 357.734C101.719 318.125 80.9375 265.547 80.9375 213.438V83.5156C80.9375 65.2344 95.7813 50.3125 114.141 50.3125C122.578 50.3125 130.625 53.4375 136.719 59.2188L137.109 59.6094L193.672 116.172C219.062 101.875 247.656 94.4531 277.109 94.4531C306.563 94.4531 335.078 101.953 360.547 116.172L417.109 59.6094L417.5 59.2188C423.672 53.5156 431.719 50.3125 440.078 50.3125C458.359 50.3125 473.281 65.2344 473.281 83.5156V213.438C473.281 236.953 469.062 260.625 461.016 283.047L599.375 370.469V249.609C599.375 216.172 626.563 188.984 660 188.984C676.172 188.984 691.406 195.313 702.812 206.719C714.297 218.203 720.625 233.438 720.625 249.609Z" fill="black"/>
<path d="M688.672 249.609V453.984C674.219 430.391 654.922 409.063 631.328 391.484V249.609C631.328 233.828 644.219 220.938 660 220.938C667.656 220.938 674.844 223.906 680.313 229.375C685.703 234.766 688.672 241.953 688.672 249.609Z" fill="#B2ABAC"/>
<path d="M599.375 408.281C686.328 463.203 714.219 573.281 662.891 658.984L655.312 670.547C633.437 700.234 598.359 718.047 561.484 718.047H379.219V699.453C379.219 689.219 387.578 680.859 397.812 680.859H445.078C450.703 680.859 455.937 677.891 458.828 673.047C461.719 668.203 461.797 662.187 459.141 657.266C449.922 640.312 445 621.016 445 601.562C445 537.266 497.266 485 561.484 485C570.313 485 577.422 477.813 577.422 469.063C577.422 460.234 570.234 453.125 561.484 453.125C479.609 453.125 413.047 519.687 413.047 601.562C413.047 617.656 415.703 633.672 420.781 648.906H397.812C374.531 648.906 354.922 664.687 349.062 686.172H333.281V583.984C333.281 575.156 326.094 568.047 317.344 568.047C308.516 568.047 301.406 575.156 301.406 583.984V702.031C301.406 710.859 294.219 717.969 285.469 717.969H204.062V701.328C204.062 692.188 211.484 684.766 220.703 684.766H237.266C246.094 684.766 253.203 677.578 253.203 668.828V562.344C254.062 558.516 253.594 554.453 251.484 550.781C229.766 513.359 217.734 470.547 216.562 427.031C216.406 421.719 216.484 416.406 216.641 411.172C236.016 418.125 256.328 421.797 277.031 421.797C329.062 421.797 378.437 399.062 416.25 357.734C428.75 344.062 439.375 328.828 447.969 312.656L599.375 408.281Z" fill="#B2ABAC"/>
<path d="M641.484 533.281C650.078 568.281 644.766 604.687 626.484 635.781C623.516 640.859 618.203 643.672 612.734 643.672C610 643.672 607.188 642.969 604.688 641.484C597.031 637.031 594.531 627.266 598.984 619.609C613.047 595.703 617.109 567.734 610.469 540.859C608.359 532.266 613.594 523.672 622.188 521.562C630.703 519.531 639.375 524.766 641.484 533.281Z" fill="black"/>
<path d="M441.328 83.5156V213.438C441.328 223.516 440.391 233.594 438.594 243.594L389.844 250C381.094 251.172 374.922 259.219 376.094 267.969C377.188 276.016 383.984 281.797 391.875 281.797C392.578 281.797 393.281 281.719 393.984 281.641L429.141 276.953C426.875 282.891 424.297 288.672 421.406 294.375L393.203 292.031C384.375 291.25 376.719 297.812 375.938 306.562C375.234 315.312 381.719 323.047 390.469 323.828L402.031 324.766C399.062 328.594 395.859 332.422 392.578 336.016C360.937 370.625 319.844 389.688 276.953 389.688C234.063 389.688 192.969 370.625 161.328 336.016C158.047 332.422 154.844 328.672 151.875 324.766L163.438 323.828C172.187 323.047 178.75 315.312 177.969 306.562C177.266 297.734 169.531 291.25 160.703 292.031L132.578 294.375C129.687 288.672 127.109 282.891 124.844 276.953L160 281.641C160.703 281.719 161.406 281.797 162.109 281.797C170 281.797 176.875 275.937 177.891 267.969C179.062 259.219 172.891 251.172 164.141 250L115.391 243.516C113.594 233.516 112.656 223.438 112.656 213.359V83.5156C112.656 82.8125 113.203 82.2656 113.906 82.2656C113.984 82.2656 114.297 82.2656 114.609 82.5L179.766 147.656C185.156 153.047 193.594 153.906 199.922 149.609C222.734 134.375 249.375 126.328 276.875 126.328C304.375 126.328 331.016 134.375 353.828 149.609C360.156 153.828 368.594 153.047 373.984 147.656L439.141 82.5C439.453 82.2656 439.766 82.2656 439.844 82.2656C440.703 82.2656 441.328 82.8125 441.328 83.5156Z" fill="#B2ABAC"/>
<path d="M360.469 217.109C360.469 221.253 362.115 225.228 365.045 228.158C367.975 231.088 371.95 232.734 376.094 232.734C380.238 232.734 384.212 231.088 387.142 228.158C390.073 225.228 391.719 221.253 391.719 217.109C391.719 212.965 390.073 208.991 387.142 206.061C384.212 203.131 380.238 201.484 376.094 201.484C371.95 201.484 367.975 203.131 365.045 206.061C362.115 208.991 360.469 212.965 360.469 217.109Z" fill="black"/>
<path d="M323.828 278.437C327.734 285.312 325.313 294.14 318.438 298.046C312.656 301.328 306.172 303.046 299.688 303.046C297.031 303.046 294.453 302.812 291.875 302.265C286.484 301.093 281.484 298.828 277.109 295.625C272.813 298.828 267.813 301.093 262.422 302.265C259.844 302.812 257.188 303.046 254.609 303.046C248.047 303.046 241.563 301.328 235.781 298.046C228.906 294.14 226.484 285.312 230.391 278.437C234.297 271.484 243.125 269.14 250 273.046C251.406 273.828 253.672 274.687 256.563 274.062C259.844 273.359 262.5 271.015 263.516 267.812C265.938 260.312 274.063 256.171 281.641 258.593C286.172 260.078 289.453 263.593 290.859 267.812C291.875 270.937 294.531 273.359 297.813 274.062C300.703 274.687 302.969 273.828 304.375 273.046C311.094 269.14 319.922 271.562 323.828 278.437Z" fill="black"/>
<path d="M162.344 217.109C162.344 221.253 163.99 225.228 166.92 228.158C169.85 231.088 173.825 232.734 177.969 232.734C182.113 232.734 186.087 231.088 189.017 228.158C191.948 225.228 193.594 221.253 193.594 217.109C193.594 212.965 191.948 208.991 189.017 206.061C186.087 203.131 182.113 201.484 177.969 201.484C173.825 201.484 169.85 203.131 166.92 206.061C163.99 208.991 162.344 212.965 162.344 217.109Z" fill="black"/>
</svg>
