<svg width="688" height="810" viewBox="0 0 688 810" fill="none" xmlns="http://www.w3.org/2000/svg">
<g clip-path="url(#clip0_447_2161)">
<mask id="path-1-outside-1_447_2161" maskUnits="userSpaceOnUse" x="0" y="152.35" width="688" height="658" fill="black">
<rect fill="white" y="152.35" width="688" height="658"/>
<path d="M677.569 481.675C677.569 517.412 671.445 551.745 660.002 583.768C659.197 586.178 658.295 588.687 657.291 591.096C655.484 595.915 653.477 600.734 651.369 605.553C650.264 607.962 649.159 610.271 648.056 612.681C644.742 619.607 641.13 626.534 637.416 633.26C634.805 637.778 632.094 642.295 629.284 646.712C626.473 651.029 623.563 655.346 620.55 659.662C619.044 661.77 617.539 663.878 615.931 666.087C612.819 670.103 609.809 674.018 606.697 677.832C594.048 693.292 579.894 707.546 564.433 720.496C560.619 723.709 556.705 726.921 552.689 729.932C548.673 733.045 544.558 736.056 540.442 738.867C536.327 741.778 532.109 744.489 527.894 747.2C527.694 747.3 527.592 747.401 527.391 747.501C523.175 750.112 518.959 752.721 514.642 755.131C510.727 757.34 506.811 759.448 502.895 761.556C502.294 761.857 501.691 762.157 501.089 762.459C496.873 764.567 492.658 766.575 488.441 768.582C488.041 768.784 487.639 768.984 487.236 769.084C468.464 777.717 448.689 784.643 428.209 789.664C417.97 792.275 407.53 794.382 396.889 795.887C389.658 796.989 382.297 797.806 374.877 798.465C372.308 798.698 369.744 798.921 367.158 799.096C366.322 799.15 365.505 799.254 364.666 799.3V799.192C357.744 799.61 350.811 800.001 343.786 800.001C289.477 800.001 238.28 787.653 193.005 765.668C124.944 732.842 70.3328 678.332 39.1141 611.776C20.3391 572.023 10 527.953 10 481.675C10 305.898 159.475 163.35 343.784 163.35C350.836 163.35 357.777 163.657 364.664 164.073V164.053C364.864 164.073 365.053 164.079 365.247 164.093C365.816 164.128 366.405 164.114 366.972 164.153C377.111 164.754 387.05 165.859 396.886 167.465C400.4 167.867 403.813 168.47 407.227 169.171C408.994 169.47 410.683 169.956 412.428 170.29C417.734 171.312 423.006 172.443 428.206 173.689C448.686 178.707 468.461 185.634 487.233 194.268C491.852 196.376 496.469 198.586 501.086 200.893C501.688 201.195 502.291 201.495 502.892 201.796C506.808 203.904 510.723 206.012 514.639 208.221C518.956 210.631 523.172 213.24 527.387 215.851C527.589 215.951 527.689 216.051 527.891 216.153C532.106 218.864 536.323 221.573 540.439 224.484C544.555 227.295 548.67 230.306 552.686 233.418C556.702 236.429 560.616 239.642 564.43 242.854C579.891 255.804 594.045 270.059 606.694 285.518C609.806 289.332 612.816 293.248 615.928 297.264C617.536 299.471 619.041 301.581 620.547 303.689C623.558 308.006 626.469 312.321 629.281 316.639C632.091 321.056 634.802 325.573 637.413 330.09C641.127 336.817 644.739 343.743 648.053 350.67C649.156 353.079 650.261 355.389 651.366 357.798C653.473 362.617 655.481 367.436 657.288 372.254C658.292 374.664 659.195 377.173 659.998 379.582C662.709 387.011 665.017 394.54 667.025 402.17C667.627 404.178 668.13 406.185 668.63 408.193C674.456 431.782 677.569 456.378 677.569 481.675Z"/>
</mask>
<path d="M677.569 481.675C677.569 517.412 671.445 551.745 660.002 583.768C659.197 586.178 658.295 588.687 657.291 591.096C655.484 595.915 653.477 600.734 651.369 605.553C650.264 607.962 649.159 610.271 648.056 612.681C644.742 619.607 641.13 626.534 637.416 633.26C634.805 637.778 632.094 642.295 629.284 646.712C626.473 651.029 623.563 655.346 620.55 659.662C619.044 661.77 617.539 663.878 615.931 666.087C612.819 670.103 609.809 674.018 606.697 677.832C594.048 693.292 579.894 707.546 564.433 720.496C560.619 723.709 556.705 726.921 552.689 729.932C548.673 733.045 544.558 736.056 540.442 738.867C536.327 741.778 532.109 744.489 527.894 747.2C527.694 747.3 527.592 747.401 527.391 747.501C523.175 750.112 518.959 752.721 514.642 755.131C510.727 757.34 506.811 759.448 502.895 761.556C502.294 761.857 501.691 762.157 501.089 762.459C496.873 764.567 492.658 766.575 488.441 768.582C488.041 768.784 487.639 768.984 487.236 769.084C468.464 777.717 448.689 784.643 428.209 789.664C417.97 792.275 407.53 794.382 396.889 795.887C389.658 796.989 382.297 797.806 374.877 798.465C372.308 798.698 369.744 798.921 367.158 799.096C366.322 799.15 365.505 799.254 364.666 799.3V799.192C357.744 799.61 350.811 800.001 343.786 800.001C289.477 800.001 238.28 787.653 193.005 765.668C124.944 732.842 70.3328 678.332 39.1141 611.776C20.3391 572.023 10 527.953 10 481.675C10 305.898 159.475 163.35 343.784 163.35C350.836 163.35 357.777 163.657 364.664 164.073V164.053C364.864 164.073 365.053 164.079 365.247 164.093C365.816 164.128 366.405 164.114 366.972 164.153C377.111 164.754 387.05 165.859 396.886 167.465C400.4 167.867 403.813 168.47 407.227 169.171C408.994 169.47 410.683 169.956 412.428 170.29C417.734 171.312 423.006 172.443 428.206 173.689C448.686 178.707 468.461 185.634 487.233 194.268C491.852 196.376 496.469 198.586 501.086 200.893C501.688 201.195 502.291 201.495 502.892 201.796C506.808 203.904 510.723 206.012 514.639 208.221C518.956 210.631 523.172 213.24 527.387 215.851C527.589 215.951 527.689 216.051 527.891 216.153C532.106 218.864 536.323 221.573 540.439 224.484C544.555 227.295 548.67 230.306 552.686 233.418C556.702 236.429 560.616 239.642 564.43 242.854C579.891 255.804 594.045 270.059 606.694 285.518C609.806 289.332 612.816 293.248 615.928 297.264C617.536 299.471 619.041 301.581 620.547 303.689C623.558 308.006 626.469 312.321 629.281 316.639C632.091 321.056 634.802 325.573 637.413 330.09C641.127 336.817 644.739 343.743 648.053 350.67C649.156 353.079 650.261 355.389 651.366 357.798C653.473 362.617 655.481 367.436 657.288 372.254C658.292 374.664 659.195 377.173 659.998 379.582C662.709 387.011 665.017 394.54 667.025 402.17C667.627 404.178 668.13 406.185 668.63 408.193C674.456 431.782 677.569 456.378 677.569 481.675Z" fill="#EEA948"/>
<path d="M677.569 481.675C677.569 517.412 671.445 551.745 660.002 583.768C659.197 586.178 658.295 588.687 657.291 591.096C655.484 595.915 653.477 600.734 651.369 605.553C650.264 607.962 649.159 610.271 648.056 612.681C644.742 619.607 641.13 626.534 637.416 633.26C634.805 637.778 632.094 642.295 629.284 646.712C626.473 651.029 623.563 655.346 620.55 659.662C619.044 661.77 617.539 663.878 615.931 666.087C612.819 670.103 609.809 674.018 606.697 677.832C594.048 693.292 579.894 707.546 564.433 720.496C560.619 723.709 556.705 726.921 552.689 729.932C548.673 733.045 544.558 736.056 540.442 738.867C536.327 741.778 532.109 744.489 527.894 747.2C527.694 747.3 527.592 747.401 527.391 747.501C523.175 750.112 518.959 752.721 514.642 755.131C510.727 757.34 506.811 759.448 502.895 761.556C502.294 761.857 501.691 762.157 501.089 762.459C496.873 764.567 492.658 766.575 488.441 768.582C488.041 768.784 487.639 768.984 487.236 769.084C468.464 777.717 448.689 784.643 428.209 789.664C417.97 792.275 407.53 794.382 396.889 795.887C389.658 796.989 382.297 797.806 374.877 798.465C372.308 798.698 369.744 798.921 367.158 799.096C366.322 799.15 365.505 799.254 364.666 799.3V799.192C357.744 799.61 350.811 800.001 343.786 800.001C289.477 800.001 238.28 787.653 193.005 765.668C124.944 732.842 70.3328 678.332 39.1141 611.776C20.3391 572.023 10 527.953 10 481.675C10 305.898 159.475 163.35 343.784 163.35C350.836 163.35 357.777 163.657 364.664 164.073V164.053C364.864 164.073 365.053 164.079 365.247 164.093C365.816 164.128 366.405 164.114 366.972 164.153C377.111 164.754 387.05 165.859 396.886 167.465C400.4 167.867 403.813 168.47 407.227 169.171C408.994 169.47 410.683 169.956 412.428 170.29C417.734 171.312 423.006 172.443 428.206 173.689C448.686 178.707 468.461 185.634 487.233 194.268C491.852 196.376 496.469 198.586 501.086 200.893C501.688 201.195 502.291 201.495 502.892 201.796C506.808 203.904 510.723 206.012 514.639 208.221C518.956 210.631 523.172 213.24 527.387 215.851C527.589 215.951 527.689 216.051 527.891 216.153C532.106 218.864 536.323 221.573 540.439 224.484C544.555 227.295 548.67 230.306 552.686 233.418C556.702 236.429 560.616 239.642 564.43 242.854C579.891 255.804 594.045 270.059 606.694 285.518C609.806 289.332 612.816 293.248 615.928 297.264C617.536 299.471 619.041 301.581 620.547 303.689C623.558 308.006 626.469 312.321 629.281 316.639C632.091 321.056 634.802 325.573 637.413 330.09C641.127 336.817 644.739 343.743 648.053 350.67C649.156 353.079 650.261 355.389 651.366 357.798C653.473 362.617 655.481 367.436 657.288 372.254C658.292 374.664 659.195 377.173 659.998 379.582C662.709 387.011 665.017 394.54 667.025 402.17C667.627 404.178 668.13 406.185 668.63 408.193C674.456 431.782 677.569 456.378 677.569 481.675Z" stroke="black" stroke-width="20" mask="url(#path-1-outside-1_447_2161)"/>
<mask id="path-2-inside-2_447_2161" fill="white">
<path d="M489.042 130.423C465.453 154.014 435.837 167.164 407.228 169.171C407.027 169.171 406.727 169.271 406.525 169.171C393.072 170.075 379.822 168.468 367.575 164.253C367.373 164.353 367.173 164.253 366.973 164.153C366.169 163.951 365.467 163.651 364.664 163.35L511.53 16.5855L521.97 6.04492C525.183 14.5777 527.091 23.5121 527.692 32.748C530.302 65.8746 517.052 102.315 489.042 130.423Z"/>
</mask>
<path d="M489.042 130.423C465.453 154.014 435.837 167.164 407.228 169.171C407.027 169.171 406.727 169.271 406.525 169.171C393.072 170.075 379.822 168.468 367.575 164.253C367.373 164.353 367.173 164.253 366.973 164.153C366.169 163.951 365.467 163.651 364.664 163.35L511.53 16.5855L521.97 6.04492C525.183 14.5777 527.091 23.5121 527.692 32.748C530.302 65.8746 517.052 102.315 489.042 130.423Z" fill="#87B432" stroke="black" stroke-width="20" mask="url(#path-2-inside-2_447_2161)"/>
<mask id="path-3-inside-3_447_2161" fill="white">
<path d="M521.97 6.04481L511.53 16.5854L364.664 163.349C350.108 124.399 361.752 74.9089 397.589 38.9714C425.697 10.9636 462.137 -2.288 495.266 0.322936C504.503 0.924498 513.437 2.83231 521.97 6.04481Z"/>
</mask>
<path d="M521.97 6.04481L511.53 16.5854L364.664 163.349C350.108 124.399 361.752 74.9089 397.589 38.9714C425.697 10.9636 462.137 -2.288 495.266 0.322936C504.503 0.924498 513.437 2.83231 521.97 6.04481Z" fill="#94BA45" stroke="black" stroke-width="20" mask="url(#path-3-inside-3_447_2161)"/>
<path d="M364.656 164.027V799.318C539.262 789.034 677.569 650.793 677.569 481.671C677.569 312.552 539.262 174.31 364.656 164.027Z" fill="#E99F33"/>
</g>
<defs>
<clipPath id="clip0_447_2161">
<rect width="688" height="810" fill="white"/>
</clipPath>
</defs>
</svg>
