<svg width="800" height="800" viewBox="0 0 800 800" fill="none" xmlns="http://www.w3.org/2000/svg">
<path d="M495.652 400C495.652 258.383 572.597 134.747 686.956 68.5891C630.678 36.0328 565.344 17.3906 495.652 17.3906C284.342 17.3906 113.042 188.689 113.042 400C113.042 611.311 284.341 782.609 495.652 782.609C565.344 782.609 630.678 763.967 686.956 731.411C572.598 665.253 495.652 541.617 495.652 400Z" fill="#E5E5E5"/>
<path d="M231.305 434.782C250.515 434.782 266.087 419.21 266.087 400C266.087 380.79 250.515 365.217 231.305 365.217C212.095 365.217 196.522 380.79 196.522 400C196.522 419.21 212.095 434.782 231.305 434.782Z" fill="#AFAFAF"/>
<path d="M318.261 608.404C346.915 608.404 370.144 585.176 370.144 556.522C370.144 527.867 346.915 504.639 318.261 504.639C289.607 504.639 266.378 527.867 266.378 556.522C266.378 585.176 289.607 608.404 318.261 608.404Z" fill="#AFAFAF"/>
<path d="M695.666 716.356C583.019 651.194 513.044 529.97 513.044 400C513.044 270.03 583.019 148.809 695.666 83.6438C701.039 80.5359 704.347 74.7984 704.347 68.5891C704.347 62.3828 701.039 56.6438 695.666 53.5344C635.123 18.5125 565.959 0 495.652 0C388.806 0 288.359 41.6063 212.808 117.158C137.259 192.708 95.6516 293.156 95.6516 400C95.6516 506.844 137.258 607.292 212.808 682.842C288.359 758.394 388.806 800 495.652 800C565.959 800 635.122 781.488 695.666 746.464C701.039 743.356 704.347 737.619 704.347 731.409C704.347 725.2 701.041 719.464 695.666 716.356ZM495.652 765.217C294.272 765.217 130.434 601.381 130.434 400C130.434 198.619 294.272 34.7828 495.652 34.7828C549.977 34.7828 603.541 46.8797 652.211 69.9687C603.95 103.095 563.245 146.598 533.436 197.166C497.341 258.4 478.261 328.537 478.261 400C478.261 471.463 497.341 541.6 533.439 602.834C563.25 653.402 603.953 696.905 652.214 730.031C603.541 753.12 549.978 765.217 495.652 765.217Z" fill="black"/>
<path d="M307.581 173.912C311.423 173.912 315.292 172.645 318.509 170.039C370.864 127.676 436.861 104.347 504.347 104.347C513.95 104.347 521.738 96.5607 521.738 86.9561C521.738 77.3514 513.95 69.5654 504.347 69.5654C428.922 69.5654 355.156 95.6451 296.63 143.001C289.163 149.044 288.008 159.995 294.05 167.461C297.489 171.708 302.513 173.912 307.581 173.912Z" fill="black"/>
<path d="M271.022 208.662C275.759 208.662 280.48 206.74 283.916 202.965C284.006 202.864 284.188 202.662 284.275 202.561C290.57 195.306 289.795 184.323 282.541 178.026C275.341 171.78 264.463 172.497 258.145 179.605C258.139 179.611 258.133 179.619 258.13 179.62C251.688 186.733 252.239 197.706 259.345 204.156C262.675 207.175 266.853 208.662 271.022 208.662Z" fill="black"/>
<path d="M281.739 400C281.739 371.231 258.334 347.826 229.566 347.826C200.797 347.826 177.391 371.231 177.391 400C177.391 428.768 200.795 452.173 229.564 452.173C258.333 452.173 281.739 428.768 281.739 400ZM229.566 417.39C219.977 417.39 212.175 409.589 212.175 400C212.175 390.411 219.977 382.609 229.566 382.609C239.155 382.609 246.956 390.411 246.956 400C246.956 409.589 239.155 417.39 229.566 417.39Z" fill="black"/>
<path d="M316.522 487.247C278.323 487.247 247.247 518.324 247.247 556.522C247.247 594.72 278.323 625.797 316.522 625.797C354.72 625.797 385.797 594.72 385.797 556.522C385.797 518.324 354.72 487.247 316.522 487.247ZM316.522 591.014C297.503 591.014 282.03 575.541 282.03 556.522C282.03 537.503 297.503 522.03 316.522 522.03C335.541 522.03 351.014 537.503 351.014 556.522C351.014 575.541 335.541 591.014 316.522 591.014Z" fill="black"/>
</svg>
