<svg width="800" height="800" viewBox="0 0 800 800" fill="none" xmlns="http://www.w3.org/2000/svg">
<path d="M137.031 676.797C167.578 696.875 266.797 766.328 518.672 497.344C770.547 228.359 692.891 164.609 671.953 141.953C651.016 119.297 466.016 25.078 237.578 237.656C16.8749 442.969 137.031 676.797 137.031 676.797Z" fill="#EAAD6A"/>
<path d="M188.984 544.141C188.984 544.141 209.844 564.531 226.953 547.656C244.062 530.703 225.234 516.25 225.234 516.25L134.063 401.563L112.734 454.219L188.984 544.141ZM486.953 252.734C486.953 252.734 507.813 273.125 524.922 256.25C542.031 239.297 523.203 224.844 523.203 224.844L442.109 120.234L393.594 135.234L486.953 252.734ZM301.953 362.344C301.953 362.344 322.812 382.734 339.922 365.859C357.031 348.906 338.203 334.453 338.203 334.453L251.875 224.609L219.375 259.375L301.953 362.344Z" fill="#FFC661"/>
<path d="M472.5 451.094C294.766 640.938 168.203 670.078 116.953 630.234C125.078 657.031 133.125 672.813 133.125 672.813C163.672 692.891 262.891 762.344 514.766 493.359C766.641 224.375 688.984 160.625 668.047 137.969C663.281 132.813 650.156 124.063 630.078 116.016C658.594 158.75 641.953 270 472.5 451.094Z" fill="#D19152"/>
<path d="M242.578 219.531C239.219 222.656 235.859 225.859 232.5 229.219C231.953 229.766 231.328 230.313 230.781 230.859C230.469 231.172 230.234 231.484 229.922 231.719C226.953 234.688 223.906 237.891 220.781 241.25C77.7345 392.734 54.7657 603.75 132.969 681.953C203.672 752.656 335.938 695.156 515.547 515.547C695.078 336.016 752.656 203.672 681.953 132.969C603.985 55.0001 393.906 77.5782 242.578 219.531ZM515.313 225.469C518.047 227.891 519.609 231.25 519.688 234.844C519.844 238.516 518.438 241.953 515.859 244.531C510.938 249.453 503.125 249.688 497.891 245.078L495.703 243.203C466.797 217.656 441.563 188.203 420.781 155.703L409.609 138.281C410.547 137.891 411.563 137.578 412.5 137.188C419.375 134.531 426.25 132.031 433.047 129.844C433.359 129.766 433.594 129.688 433.906 129.531L436.563 133.672C458.516 167.734 484.922 198.672 515.313 225.469ZM339.531 346.172C342.266 348.594 343.828 351.953 343.906 355.547C344.063 359.219 342.656 362.656 340.078 365.234C335.156 370.156 327.344 370.391 322.109 365.781L319.922 363.906C291.016 338.359 265.781 308.906 245 276.406L233.359 258.125C238.594 252.5 243.984 246.953 249.531 241.563C250.156 240.938 250.859 240.313 251.484 239.688L260.781 254.297C282.734 288.359 309.141 319.297 339.531 346.172ZM218.828 521.953C221.563 524.375 223.125 527.734 223.203 531.328C223.359 535 221.953 538.438 219.375 541.016C214.453 545.938 206.641 546.172 201.406 541.563L199.219 539.688C170.313 514.141 145.078 484.688 124.375 452.188L124.063 451.719C126.953 441.484 130.234 431.016 134.063 420.547L140.156 430.078C162.031 464.141 188.516 495.078 218.828 521.953ZM500.859 500.859C403.828 597.891 228.984 748.516 147.734 667.266C110.859 630.391 100.547 558.594 117.5 478.594C137.188 506.641 159.844 532.5 185.625 555.234L187.813 557.109C201.172 568.906 221.563 568.281 234.219 555.703C240.781 549.141 244.453 540 244.141 530.703C243.828 521.406 239.688 512.5 232.734 506.328C203.828 480.781 178.594 451.328 157.813 418.828L143.672 396.719C161.641 354.531 186.797 312.578 219.219 274.297L227.734 287.578C249.531 321.719 276.016 352.656 306.328 379.453L308.516 381.328C321.875 393.125 342.266 392.578 354.922 379.922C361.484 373.359 365.156 364.219 364.844 354.922C364.531 345.625 360.391 336.719 353.438 330.547C324.531 305 299.297 275.547 278.516 243.047L267.188 225.313C305.469 191.563 347.734 165.234 390.313 146.25L403.438 166.797C425.235 200.938 451.719 231.875 482.031 258.672L484.219 260.547C497.578 272.344 517.969 271.719 530.625 259.141C537.188 252.578 540.86 243.438 540.547 234.141C540.235 224.844 536.094 215.938 529.141 209.766C500.469 184.453 475.547 155.234 454.844 123.125C544.219 98.5938 626.797 107.031 667.344 147.578C748.516 228.984 597.891 403.828 500.859 500.859Z" fill="black"/>
<path d="M348.906 201.406C348.906 204.597 350.174 207.657 352.43 209.914C354.686 212.17 357.747 213.438 360.937 213.438C364.128 213.438 367.189 212.17 369.445 209.914C371.701 207.657 372.969 204.597 372.969 201.406C372.969 198.215 371.701 195.155 369.445 192.899C367.189 190.643 364.128 189.375 360.937 189.375C357.747 189.375 354.686 190.643 352.43 192.899C350.174 195.155 348.906 198.215 348.906 201.406Z" fill="black"/>
<path d="M524.453 147.031C524.453 148.611 524.764 150.176 525.369 151.635C525.974 153.095 526.86 154.421 527.977 155.539C529.094 156.656 530.421 157.542 531.88 158.147C533.34 158.751 534.904 159.063 536.484 159.063C538.064 159.063 539.629 158.751 541.089 158.147C542.548 157.542 543.875 156.656 544.992 155.539C546.109 154.421 546.995 153.095 547.6 151.635C548.204 150.176 548.516 148.611 548.516 147.031C548.516 145.451 548.204 143.887 547.6 142.427C546.995 140.967 546.109 139.641 544.992 138.524C543.875 137.407 542.548 136.52 541.089 135.916C539.629 135.311 538.064 135 536.484 135C534.904 135 533.34 135.311 531.88 135.916C530.421 136.52 529.094 137.407 527.977 138.524C526.86 139.641 525.974 140.967 525.369 142.427C524.764 143.887 524.453 145.451 524.453 147.031Z" fill="black"/>
<path d="M520 406.406C520 407.986 520.311 409.551 520.916 411.01C521.52 412.47 522.407 413.796 523.524 414.914C524.641 416.031 525.967 416.917 527.427 417.522C528.887 418.126 530.451 418.437 532.031 418.437C533.611 418.437 535.176 418.126 536.635 417.522C538.095 416.917 539.421 416.031 540.539 414.914C541.656 413.796 542.542 412.47 543.147 411.01C543.751 409.551 544.063 407.986 544.063 406.406C544.063 404.826 543.751 403.262 543.147 401.802C542.542 400.342 541.656 399.016 540.539 397.899C539.421 396.782 538.095 395.895 536.635 395.291C535.176 394.686 533.611 394.375 532.031 394.375C530.451 394.375 528.887 394.686 527.427 395.291C525.967 395.895 524.641 396.782 523.524 397.899C522.407 399.016 521.52 400.342 520.916 401.802C520.311 403.262 520 404.826 520 406.406Z" fill="black"/>
<path d="M462.188 469.766C462.188 472.956 463.455 476.017 465.711 478.273C467.968 480.529 471.028 481.797 474.219 481.797C477.41 481.797 480.47 480.529 482.726 478.273C484.982 476.017 486.25 472.956 486.25 469.766C486.25 466.575 484.982 463.515 482.726 461.258C480.47 459.002 477.41 457.734 474.219 457.734C471.028 457.734 467.968 459.002 465.711 461.258C463.455 463.515 462.188 466.575 462.188 469.766Z" fill="black"/>
<path d="M182.891 357.656C182.891 359.236 183.202 360.801 183.806 362.26C184.411 363.72 185.297 365.046 186.414 366.164C187.532 367.281 188.858 368.167 190.318 368.772C191.777 369.376 193.342 369.688 194.922 369.688C196.502 369.688 198.066 369.376 199.526 368.772C200.986 368.167 202.312 367.281 203.429 366.164C204.546 365.046 205.433 363.72 206.037 362.26C206.642 360.801 206.953 359.236 206.953 357.656C206.953 356.076 206.642 354.512 206.037 353.052C205.433 351.592 204.546 350.266 203.429 349.149C202.312 348.032 200.986 347.145 199.526 346.541C198.066 345.936 196.502 345.625 194.922 345.625C193.342 345.625 191.777 345.936 190.318 346.541C188.858 347.145 187.532 348.032 186.414 349.149C185.297 350.266 184.411 351.592 183.806 353.052C183.202 354.512 182.891 356.076 182.891 357.656Z" fill="black"/>
<path d="M294.922 228.672C294.922 231.863 296.189 234.923 298.446 237.179C300.702 239.436 303.762 240.703 306.953 240.703C310.144 240.703 313.204 239.436 315.461 237.179C317.717 234.923 318.984 231.863 318.984 228.672C318.984 225.481 317.717 222.421 315.461 220.164C313.204 217.908 310.144 216.641 306.953 216.641C303.762 216.641 300.702 217.908 298.446 220.164C296.189 222.421 294.922 225.481 294.922 228.672Z" fill="black"/>
<path d="M141.875 592.422C141.875 595.613 143.143 598.673 145.399 600.929C147.655 603.186 150.715 604.453 153.906 604.453C157.097 604.453 160.157 603.186 162.414 600.929C164.67 598.673 165.937 595.613 165.937 592.422C165.937 589.231 164.67 586.171 162.414 583.914C160.157 581.658 157.097 580.391 153.906 580.391C150.715 580.391 147.655 581.658 145.399 583.914C143.143 586.171 141.875 589.231 141.875 592.422Z" fill="black"/>
</svg>
