<svg width="800" height="800" viewBox="0 0 800 800" fill="none" xmlns="http://www.w3.org/2000/svg">
<g clip-path="url(#clip0_447_2178)">
<path d="M230.957 560.442L16.1921 742.752C10.1749 747.859 13.7874 757.697 21.6796 757.697C152.474 757.697 273.027 686.914 336.761 572.7L350.33 548.381L230.957 560.442Z" fill="#ED2601"/>
<path d="M306.811 552.776C248.349 652.729 145.789 718.042 31.7218 729.567L16.1921 742.75C10.1749 747.857 13.7874 757.695 21.6796 757.695C152.474 757.695 273.027 686.912 336.761 572.698L350.33 548.379L306.811 552.776Z" fill="#C91C00"/>
<path d="M788.13 163.525L692.548 108.19C698.542 120.408 702.512 133.872 703.961 148.203C705.65 164.931 703.744 181.191 698.876 196.22C728.23 186.177 788.13 163.525 788.13 163.525Z" fill="#ED2601"/>
<path d="M703.959 148.205C697.423 83.5143 639.683 36.3721 574.993 42.908C516.742 48.794 472.74 96.2034 469.324 152.814C476.185 164.771 482.343 176.927 487.807 189.216L487.792 189.211C490.034 194.247 492.157 199.302 494.164 204.377C494.21 204.497 494.26 204.616 494.307 204.736C495.232 207.085 496.131 209.44 497.007 211.796C497.246 212.436 497.478 213.082 497.71 213.724C497.767 213.88 497.825 214.038 497.881 214.194C499.029 217.355 500.137 220.519 501.193 223.69C501.265 223.907 501.335 224.124 501.407 224.34C502.645 228.083 503.825 231.832 504.934 235.585C504.959 235.668 504.982 235.754 505.007 235.838C506.176 239.804 507.276 243.772 508.301 247.746C508.325 247.768 508.35 247.787 508.375 247.808C522.956 303.76 524.04 362.932 505.271 417.688C495.796 446.274 481.403 473.117 461.787 497.142C419.376 549.086 359.263 579.908 292.287 589.687C671.906 669.809 665.225 312.741 661.317 251.197C690.837 227.027 708.083 189.005 703.959 148.205Z" fill="#FDEA96"/>
<path d="M703.959 148.205C697.423 83.5144 639.683 36.3721 574.993 42.908C572.292 43.1799 569.634 43.5721 566.998 44.0205C617.837 52.7409 658.73 94.3831 664.169 148.205C668.29 189.007 651.047 227.027 621.528 251.196C624.959 305.249 630.517 587.264 374.612 600.819C670.88 615.653 664.922 307.915 661.322 251.196C690.837 227.027 708.083 189.005 703.959 148.205Z" fill="#E8D37C"/>
<path d="M125.475 573.256C252.872 615.581 385.763 590.253 461.79 497.138C537.817 404.024 536.049 268.754 469.096 152.396L125.475 573.256Z" fill="#FDBF00"/>
<path d="M469.095 152.398L459.94 163.613C505.738 269.7 499.381 385.083 432.115 467.469C364.849 549.855 253.071 579.163 139.966 555.512L125.475 573.26C252.872 615.585 385.763 590.257 461.788 497.143C537.815 404.024 536.046 268.753 469.095 152.398Z" fill="#EFB000"/>
<path d="M627.401 141.58C636.232 141.58 643.39 134.421 643.39 125.591C643.39 116.76 636.232 109.602 627.401 109.602C618.571 109.602 611.412 116.76 611.412 125.591C611.412 134.421 618.571 141.58 627.401 141.58Z" fill="#333333"/>
<path d="M627.318 141.58C636.149 141.58 643.308 134.421 643.308 125.591C643.308 116.76 636.149 109.602 627.318 109.602C618.488 109.602 611.329 116.76 611.329 125.591C611.329 134.421 618.488 141.58 627.318 141.58Z" fill="#333333"/>
<path d="M793.755 152.688L701.294 99.1608C677.201 53.7498 627.293 24.9669 573.087 30.4482C542.134 33.5748 513.292 47.6951 491.874 70.2077C471.84 91.2655 459.429 118.417 456.585 147.127L115.125 565.337C112.521 568.527 111.65 572.793 112.799 576.749C113.947 580.704 116.967 583.842 120.877 585.142C136.255 590.251 151.703 594.412 167.163 597.618L134.807 625.087C129.533 629.563 128.888 637.465 133.364 642.737C137.841 648.01 145.743 648.657 151.014 644.179L199.611 602.926C204.946 603.568 210.275 604.095 215.599 604.509C217.308 604.645 219.015 604.773 220.719 604.884C221.063 604.906 221.407 604.924 221.75 604.943C243.488 606.299 264.785 605.715 285.526 603.182C287.057 602.998 288.577 602.795 290.101 602.59C290.546 602.531 290.994 602.471 291.44 602.41C294.565 603.059 297.674 603.679 300.766 604.27C237.821 688.962 138.432 741.514 32.2595 744.989L119.767 670.704C125.041 666.228 125.686 658.326 121.21 653.054C116.735 647.781 108.835 647.137 103.56 651.612L7.44067 733.204C0.651591 738.968 -1.75466 748.093 1.31565 756.456C4.38597 764.815 12.1251 770.218 21.0329 770.218C85.7064 770.218 149.596 753.3 205.788 721.29C254.561 693.509 296.502 654.939 328.296 608.885C351.33 612.168 373.334 613.831 394.251 613.831C405.11 613.831 415.676 613.379 425.956 612.495V678.931L381.573 710.529C375.938 714.54 374.624 722.359 378.634 727.993C382.643 733.625 390.465 734.943 396.096 730.932L434.812 703.37L452.109 731.592C454.471 735.447 458.585 737.573 462.796 737.573C465.029 737.573 467.285 736.976 469.328 735.726C475.224 732.112 477.074 724.403 473.462 718.506L466.349 706.901L496.214 715.934L515.579 744.026C518.009 747.55 521.92 749.442 525.901 749.442C528.353 749.442 530.826 748.725 532.996 747.228C538.69 743.303 540.126 735.506 536.2 729.811L514.346 698.109C512.735 695.773 510.379 694.051 507.66 693.231L466.879 680.895L503.337 654.939L520.634 683.16C522.996 687.015 527.11 689.142 531.321 689.142C533.554 689.142 535.81 688.546 537.853 687.295C543.75 683.681 545.6 675.971 541.987 670.074L534.875 658.47L564.739 667.503L584.104 695.595C586.534 699.118 590.445 701.011 594.426 701.011C596.878 701.011 599.351 700.292 601.522 698.796C607.215 694.871 608.651 687.075 604.725 681.379L582.871 649.678C581.261 647.342 578.904 645.62 576.186 644.799L519.521 627.66V588.676C533.617 582.132 546.836 574.315 559.156 565.224C639.884 505.663 664.962 404.483 671.789 330.091C672.42 323.203 667.35 317.11 660.464 316.477C653.559 315.841 647.483 320.916 646.85 327.804C640.493 397.09 617.54 491.026 544.289 545.073C496.523 580.315 432.932 594.29 354.707 586.84C369.055 581.606 382.788 575.312 395.821 567.987C395.926 567.929 396.03 567.868 396.134 567.809C398.449 566.502 400.743 565.163 403.016 563.793C403.485 563.51 403.951 563.227 404.418 562.942C406.334 561.77 408.232 560.574 410.113 559.357C410.738 558.952 411.363 558.552 411.984 558.145C413.732 556.993 415.46 555.815 417.177 554.624C417.834 554.17 418.498 553.723 419.149 553.262C420.981 551.966 422.791 550.64 424.588 549.299C425.066 548.943 425.556 548.599 426.031 548.238C428.22 546.582 430.381 544.891 432.515 543.168C433.317 542.52 434.099 541.849 434.895 541.193C436.238 540.081 437.582 538.97 438.906 537.83C439.838 537.026 440.757 536.202 441.679 535.387C442.845 534.354 444.009 533.316 445.156 532.263C446.092 531.402 447.02 530.53 447.945 529.655C449.067 528.593 450.182 527.521 451.287 526.438C452.181 525.562 453.07 524.682 453.951 523.791C455.087 522.645 456.209 521.482 457.326 520.313C458.14 519.46 458.957 518.612 459.76 517.748C460.992 516.424 462.198 515.076 463.404 513.724C464.065 512.984 464.737 512.254 465.39 511.502C467.182 509.448 468.946 507.363 470.678 505.246C470.729 505.184 470.782 505.124 470.832 505.062C471.034 504.815 471.228 504.562 471.428 504.313C472.451 503.049 473.468 501.782 474.467 500.504C474.862 499.998 475.243 499.482 475.634 498.974C476.435 497.932 477.237 496.89 478.02 495.837C478.404 495.319 478.778 494.794 479.159 494.276C479.937 493.213 480.717 492.151 481.478 491.079C481.821 490.594 482.156 490.102 482.496 489.615C483.285 488.487 484.073 487.355 484.843 486.215C485.132 485.785 485.413 485.352 485.701 484.921C486.51 483.707 487.315 482.488 488.106 481.262C488.345 480.891 488.576 480.515 488.814 480.143C489.643 478.837 490.467 477.527 491.271 476.205C491.453 475.907 491.632 475.605 491.812 475.307C492.667 473.894 493.51 472.477 494.339 471.048C494.464 470.83 494.589 470.612 494.714 470.393C495.593 468.863 496.46 467.326 497.309 465.78C497.376 465.658 497.442 465.535 497.509 465.413C498.417 463.752 499.307 462.08 500.181 460.399C500.187 460.385 500.196 460.371 500.203 460.357C507.178 446.91 513.001 432.83 517.634 418.212C534.112 367.782 535.564 310.911 521.893 252.981C513.749 218.033 500.182 183.342 481.518 150.089C481.493 150.045 481.471 150 481.446 149.958C486.148 99.9655 525.204 60.4576 575.595 55.3654C622.431 50.642 665.315 77.553 682.93 118.719C683.011 118.909 683.084 119.102 683.165 119.294C683.722 120.614 684.253 121.95 684.756 123.298C684.895 123.672 685.025 124.048 685.161 124.423C685.584 125.602 685.992 126.791 686.375 127.989C686.525 128.459 686.669 128.933 686.812 129.405C687.153 130.527 687.475 131.656 687.781 132.794C687.922 133.319 688.059 133.844 688.194 134.37C688.472 135.483 688.728 136.605 688.972 137.731C689.089 138.275 689.214 138.819 689.322 139.364C689.558 140.541 689.761 141.73 689.958 142.923C690.037 143.414 690.131 143.9 690.205 144.392C690.455 146.069 690.675 147.756 690.847 149.461V149.467C691.009 151.073 691.12 152.678 691.211 154.281C691.231 154.653 691.255 155.027 691.27 155.398C691.337 156.867 691.37 158.336 691.376 159.802C691.378 160.319 691.37 160.838 691.362 161.353C691.351 162.456 691.319 163.558 691.272 164.656C691.237 165.464 691.192 166.272 691.139 167.077C691.075 168.041 691 169.002 690.911 169.961C690.844 170.664 690.778 171.367 690.697 172.069C690.556 173.294 690.397 174.519 690.211 175.739C690.109 176.414 689.994 177.084 689.88 177.758C689.708 178.758 689.523 179.758 689.323 180.753C689.186 181.433 689.045 182.109 688.895 182.784C688.631 183.974 688.348 185.159 688.042 186.341C687.934 186.763 687.826 187.188 687.711 187.609C687.312 189.075 686.881 190.534 686.417 191.989C680.325 211.099 668.79 228.355 652.729 241.508C649.609 244.064 647.909 247.966 648.165 251.992C648.654 259.691 649.189 272.18 648.959 287.955C648.856 294.871 654.381 300.56 661.297 300.66C661.361 300.66 661.422 300.661 661.484 300.661C668.314 300.661 673.901 295.175 674.001 288.322C674.19 275.475 673.895 264.667 673.511 256.66C689.094 242.569 700.809 225.189 708.034 206.08C738.666 195.366 791.342 175.455 791.905 175.242C796.428 173.533 799.561 169.37 799.955 164.55C800.355 159.725 797.938 155.109 793.755 152.688ZM494.485 630.503L451.001 661.46V609.373C466.21 606.86 480.71 603.288 494.485 598.649V630.503ZM466.343 174.773C466.557 175.188 466.781 175.597 466.993 176.011C467.412 176.833 467.806 177.659 468.218 178.481C470.449 182.938 472.592 187.427 474.637 191.942C474.948 192.625 475.271 193.306 475.576 193.991C475.62 194.095 475.662 194.202 475.707 194.305C476.518 196.128 477.307 197.974 478.092 199.814C478.553 200.9 479.013 201.983 479.463 203.069C480.157 204.741 480.842 206.406 481.496 208.053C482.573 210.763 483.631 213.475 484.634 216.189L485.16 217.633C519.793 312.544 510.426 410.53 457.595 481.335C457.507 481.452 457.418 481.568 457.329 481.684C455.421 484.23 453.462 486.746 451.442 489.221C450.056 490.918 448.645 492.587 447.218 494.24C446.79 494.735 446.353 495.221 445.923 495.715C444.892 496.888 443.852 498.054 442.799 499.205C442.32 499.732 441.835 500.252 441.352 500.773C440.274 501.934 439.182 503.08 438.082 504.215C437.659 504.652 437.237 505.093 436.81 505.527C435.356 507.005 433.888 508.465 432.398 509.902C432.331 509.966 432.268 510.03 432.201 510.094C430.556 511.676 428.888 513.23 427.201 514.762C427.004 514.94 426.804 515.113 426.607 515.291C425.17 516.587 423.715 517.865 422.246 519.123C421.856 519.459 421.462 519.788 421.07 520.121C419.748 521.24 418.413 522.343 417.066 523.434C416.656 523.766 416.245 524.099 415.831 524.43C414.37 525.598 412.891 526.745 411.402 527.877C411.134 528.082 410.868 528.291 410.598 528.495C408.807 529.843 406.998 531.168 405.17 532.466C404.979 532.602 404.785 532.73 404.595 532.865C403.045 533.959 401.482 535.031 399.906 536.088C399.234 536.537 398.559 536.979 397.882 537.421C396.793 538.135 395.699 538.841 394.599 539.538C393.745 540.079 392.888 540.615 392.024 541.146C391.14 541.691 390.246 542.226 389.352 542.76C388.324 543.374 387.298 543.993 386.257 544.591C385.779 544.868 385.293 545.134 384.815 545.409C367.23 555.407 348.154 563.365 327.801 569.174C327.782 569.179 327.763 569.181 327.746 569.185C323.051 570.529 318.308 571.743 313.532 572.851C312.176 573.163 310.813 573.462 309.446 573.756C308.819 573.892 308.194 574.024 307.568 574.156C301.746 575.367 295.837 576.417 289.837 577.292C289.505 577.34 289.183 577.406 288.863 577.479C288.555 577.523 288.246 577.56 287.938 577.604C285.922 577.887 283.902 578.146 281.876 578.388C280.429 578.559 278.974 578.715 277.518 578.868C276.607 578.965 275.694 579.06 274.782 579.149C272.61 579.354 270.43 579.542 268.241 579.704C268.019 579.721 267.797 579.738 267.576 579.754C259.846 580.309 252.002 580.59 244.055 580.588C238.777 580.588 233.485 580.451 228.182 580.204C226.96 580.146 225.74 580.088 224.513 580.017C223.543 579.962 222.572 579.898 221.6 579.835C213.604 579.298 205.539 578.492 197.414 577.39C197.36 577.382 197.304 577.384 197.249 577.376C180.282 575.068 163.272 571.529 146.307 566.752L466.343 174.773ZM715.369 176.881C716.475 168.373 716.725 159.753 716.119 151.077C716.112 150.986 716.111 150.897 716.103 150.806C716.011 149.52 715.901 148.233 715.77 146.944C715.558 144.847 715.287 142.761 714.976 140.687C714.883 140.061 714.766 139.444 714.662 138.82C714.483 137.719 714.317 136.612 714.108 135.517L758.292 161.094C745.472 165.873 729.569 171.758 715.369 176.881Z" fill="black"/>
<path d="M626.75 141.58C635.58 141.58 642.739 134.421 642.739 125.591C642.739 116.76 635.58 109.602 626.75 109.602C617.919 109.602 610.76 116.76 610.76 125.591C610.76 134.421 617.919 141.58 626.75 141.58Z" fill="black"/>
</g>
<defs>
<clipPath id="clip0_447_2178">
<rect width="800" height="800" fill="white"/>
</clipPath>
</defs>
</svg>
