<svg width="800" height="800" viewBox="0 0 800 800" fill="none" xmlns="http://www.w3.org/2000/svg">
<path d="M178.594 494.453C223.594 443.359 223.594 366.25 178.516 315.156C116.406 337.265 78.2031 370.468 78.2031 404.765C78.2031 438.828 115.547 472.031 178.594 494.453ZM383.75 550.859L383.828 547.968C371.719 548.671 359.531 549.062 347.266 549.062C333.984 549.062 320.703 548.593 307.578 547.812C325.078 559.609 345.781 566.25 367.578 566.64C371.875 566.718 375.859 565.156 378.906 562.187C381.953 559.062 383.672 555.078 383.75 550.859ZM494.063 263.906C494.375 250.234 473.672 234.531 443.359 233.75C386.094 232.265 330.781 243.046 285.547 263.671C305.625 261.64 326.172 260.625 347.187 260.625C399.062 260.625 449.297 266.875 493.672 278.906L494.063 263.906ZM499.844 546.562C521.406 546.562 539.688 532.343 545.938 512.89C523.594 522.5 498.125 530.468 470.156 536.406C478.437 542.89 488.828 546.562 499.844 546.562Z" fill="black"/>
<path d="M664.375 404.844C664.375 365.391 677.891 327.578 702.266 297.344C665.313 300.312 632.5 321.953 615.156 355.312C615.078 355.547 613.594 357.734 612.813 358.594C607.422 364.141 598.594 364.375 592.969 358.984C573.125 339.844 541.953 323.203 502.969 310.937C457.109 296.484 403.203 288.828 347.109 288.828C303.281 288.828 261.484 293.359 222.813 302.344C217.5 303.594 212.344 304.844 207.266 306.25C251.25 364.375 251.25 445.391 207.344 503.516C227.109 508.906 248.281 513.047 270.547 516.016C295.313 519.297 321.094 520.937 347.031 520.937C379.688 520.937 411.641 518.359 442.031 513.203C508.203 502.031 563.203 479.297 592.891 450.703C598.438 445.313 607.344 445.469 612.734 451.094C613.516 451.875 614.141 452.734 614.688 453.672C614.844 453.906 615 454.141 615.078 454.453C615.078 454.531 615.156 454.531 615.156 454.609C632.422 487.891 665.234 509.453 702.109 512.422C677.891 482.109 664.375 444.297 664.375 404.844Z" fill="black"/>
<path d="M747.266 281.484C748.672 286.719 746.953 292.266 742.812 295.781C710.781 323.047 692.422 362.812 692.422 404.844C692.422 446.875 710.781 486.641 742.812 513.906C746.953 517.422 748.672 522.969 747.266 528.125C745.859 533.359 741.641 537.344 736.328 538.359C728.125 539.922 719.609 540.703 711.016 540.703C665.937 540.703 624.531 518.672 599.297 482.187C592.266 487.578 584.609 492.812 576.172 497.656V498.125C576.172 540.234 541.875 574.531 499.766 574.531C474.688 574.531 451.563 562.422 437.422 542.266C428.984 543.516 420.469 544.609 411.875 545.547L411.797 551.25C411.562 562.969 406.797 573.984 398.359 582.187C390.078 590.156 379.297 594.531 367.812 594.531H367.031C325.547 593.828 287.344 575.078 261.25 542.891C231.563 538.672 203.672 532.344 178.281 523.906C96.875 497.187 50.1562 453.75 50.1562 404.844C50.1562 375.625 67.1094 347.812 99.0625 324.375C127.344 303.672 166.797 286.875 213.203 275.781C268.516 229.531 354.453 203.437 444.063 205.781C488.672 206.953 522.891 232.812 522.109 264.687L521.484 287.5C552.656 298.281 579.062 311.875 599.219 327.5C624.453 291.016 665.781 268.984 710.937 268.984C719.531 268.984 728.047 269.766 736.25 271.328C741.641 272.344 745.859 276.25 747.266 281.484Z" fill="black"/>
<path d="M500.781 364.609C503.125 357.266 498.984 349.375 491.641 347.031C449.453 333.672 399.453 326.641 347.188 326.641C339.453 326.641 333.125 332.891 333.125 340.703C333.125 348.437 339.375 354.766 347.188 354.766C396.641 354.766 443.672 361.328 483.125 373.828C484.531 374.297 485.937 374.453 487.344 374.453C493.359 374.375 498.828 370.547 500.781 364.609Z" fill="#4EC8D8"/>
<path d="M702.266 297.344C677.891 327.578 664.375 365.391 664.375 404.844C664.375 444.297 677.891 482.109 702.266 512.344C665.391 509.375 632.578 487.812 615.312 454.531C615.312 454.453 615.234 454.453 615.234 454.375C615.078 454.062 614.922 453.828 614.844 453.594C614.297 452.734 613.672 451.875 612.891 451.016C607.5 445.469 598.672 445.234 593.047 450.625C563.359 479.219 508.359 501.953 442.188 513.125C411.797 518.281 379.844 520.859 347.187 520.859C321.172 520.859 295.469 519.219 270.703 515.938C248.438 512.969 227.266 508.828 207.5 503.438C251.406 445.313 251.406 364.297 207.422 306.172C212.5 304.844 217.656 303.516 222.969 302.266C261.641 293.281 303.438 288.75 347.266 288.75C403.359 288.75 457.266 296.406 503.125 310.859C542.109 323.203 573.281 339.844 593.125 358.906C598.672 364.297 607.578 364.141 612.969 358.516C613.75 357.656 615.234 355.469 615.312 355.234C632.5 321.953 665.313 300.312 702.266 297.344Z" fill="#4EC8D8"/>
<path d="M545.859 512.891C539.609 532.422 521.328 546.562 499.766 546.562C488.75 546.562 478.437 542.891 470.078 536.406C498.047 530.391 523.516 522.5 545.859 512.891Z" fill="#92E4EA"/>
<path d="M491.641 347.031C498.984 349.375 503.125 357.266 500.781 364.609C498.906 370.625 493.359 374.453 487.422 374.453C486.016 374.453 484.609 374.219 483.203 373.828C443.672 361.328 396.641 354.766 347.266 354.766C339.531 354.766 333.203 348.516 333.203 340.703C333.203 332.969 339.453 326.641 347.266 326.641C399.453 326.641 449.375 333.672 491.641 347.031Z" fill="black"/>
<path d="M443.359 233.75C473.672 234.531 494.453 250.312 494.063 263.906L493.672 278.906C449.297 266.953 399.062 260.625 347.187 260.625C326.172 260.625 305.547 261.64 285.547 263.672C330.781 243.125 386.094 232.265 443.359 233.75ZM383.75 547.89L383.672 550.781C383.594 555.078 381.875 559.062 378.828 561.953C375.781 564.922 371.719 566.484 367.5 566.406C345.703 566.015 325 559.375 307.5 547.578C320.625 548.437 333.906 548.828 347.187 548.828C359.531 548.984 371.719 548.593 383.75 547.89Z" fill="#92E4EA"/>
<path d="M176.328 383.75C176.328 374.844 169.062 367.578 160.156 367.578C151.25 367.578 143.984 374.844 143.984 383.75C143.984 392.656 151.25 399.922 160.156 399.922C169.062 399.922 176.328 392.734 176.328 383.75Z" fill="black"/>
<path d="M178.516 315.156C223.594 366.25 223.594 443.359 178.594 494.453C115.547 472.031 78.2031 438.828 78.2031 404.844C78.2031 370.547 116.406 337.266 178.516 315.156Z" fill="#92E4EA"/>
<path d="M143.984 383.75C143.984 388.039 145.688 392.152 148.721 395.185C151.754 398.218 155.867 399.922 160.156 399.922C164.445 399.922 168.559 398.218 171.591 395.185C174.624 392.152 176.328 388.039 176.328 383.75C176.328 379.461 174.624 375.348 171.591 372.315C168.559 369.282 164.445 367.578 160.156 367.578C155.867 367.578 151.754 369.282 148.721 372.315C145.688 375.348 143.984 379.461 143.984 383.75Z" fill="black"/>
</svg>
