<svg width="800" height="800" viewBox="0 0 800 800" fill="none" xmlns="http://www.w3.org/2000/svg">
<mask id="path-1-inside-1_447_2203" fill="white">
<path d="M646.717 743.43H181.553V36.875C181.553 18.2359 196.664 3.125 215.303 3.125H612.967C631.606 3.125 646.717 18.2359 646.717 36.875V743.43Z"/>
</mask>
<path d="M646.717 743.43H181.553V36.875C181.553 18.2359 196.664 3.125 215.303 3.125H612.967C631.606 3.125 646.717 18.2359 646.717 36.875V743.43Z" fill="#F73737" stroke="black" stroke-width="20" mask="url(#path-1-inside-1_447_2203)"/>
<mask id="path-2-inside-2_447_2203" fill="white">
<path d="M350.455 353.758H262.686C244.047 353.758 228.936 338.647 228.936 320.008V99.5029C228.936 80.8639 244.047 65.7529 262.686 65.7529H350.455C369.094 65.7529 384.205 80.8639 384.205 99.5029V320.008C384.205 338.647 369.095 353.758 350.455 353.758ZM599.334 320.008V99.5029C599.334 80.8639 584.224 65.7529 565.584 65.7529H477.816C459.177 65.7529 444.066 80.8639 444.066 99.5029V320.008C444.066 338.647 459.177 353.758 477.816 353.758H565.584C584.224 353.758 599.334 338.647 599.334 320.008ZM384.205 677.545V526.909C384.205 508.27 369.094 493.159 350.455 493.159H262.686C244.047 493.159 228.936 508.27 228.936 526.909V677.545C228.936 696.184 244.047 711.295 262.686 711.295H350.455C369.095 711.295 384.205 696.184 384.205 677.545ZM599.334 677.545V526.909C599.334 508.27 584.224 493.159 565.584 493.159H477.816C459.177 493.159 444.066 508.27 444.066 526.909V677.545C444.066 696.184 459.177 711.295 477.816 711.295H565.584C584.224 711.295 599.334 696.184 599.334 677.545Z"/>
</mask>
<path d="M350.455 353.758H262.686C244.047 353.758 228.936 338.647 228.936 320.008V99.5029C228.936 80.8639 244.047 65.7529 262.686 65.7529H350.455C369.094 65.7529 384.205 80.8639 384.205 99.5029V320.008C384.205 338.647 369.095 353.758 350.455 353.758ZM599.334 320.008V99.5029C599.334 80.8639 584.224 65.7529 565.584 65.7529H477.816C459.177 65.7529 444.066 80.8639 444.066 99.5029V320.008C444.066 338.647 459.177 353.758 477.816 353.758H565.584C584.224 353.758 599.334 338.647 599.334 320.008ZM384.205 677.545V526.909C384.205 508.27 369.094 493.159 350.455 493.159H262.686C244.047 493.159 228.936 508.27 228.936 526.909V677.545C228.936 696.184 244.047 711.295 262.686 711.295H350.455C369.095 711.295 384.205 696.184 384.205 677.545ZM599.334 677.545V526.909C599.334 508.27 584.224 493.159 565.584 493.159H477.816C459.177 493.159 444.066 508.27 444.066 526.909V677.545C444.066 696.184 459.177 711.295 477.816 711.295H565.584C584.224 711.295 599.334 696.184 599.334 677.545Z" fill="#C62424" stroke="black" stroke-width="20" mask="url(#path-2-inside-2_447_2203)"/>
<mask id="path-3-inside-3_447_2203" fill="white">
<path d="M563.845 465.434C587.121 465.434 605.991 446.565 605.991 423.289C605.991 400.013 587.121 381.144 563.845 381.144C540.569 381.144 521.7 400.013 521.7 423.289C521.7 446.565 540.569 465.434 563.845 465.434Z"/>
</mask>
<path d="M563.845 465.434C587.121 465.434 605.991 446.565 605.991 423.289C605.991 400.013 587.121 381.144 563.845 381.144C540.569 381.144 521.7 400.013 521.7 423.289C521.7 446.565 540.569 465.434 563.845 465.434Z" fill="#FFB636" stroke="black" stroke-width="20" mask="url(#path-3-inside-3_447_2203)"/>
<mask id="path-4-inside-4_447_2203" fill="white">
<path d="M630.467 792.61H197.803C188.828 792.61 181.553 785.335 181.553 776.36V743.432H646.717V776.36C646.717 785.333 639.441 792.61 630.467 792.61Z"/>
</mask>
<path d="M630.467 792.61H197.803C188.828 792.61 181.553 785.335 181.553 776.36V743.432H646.717V776.36C646.717 785.333 639.441 792.61 630.467 792.61Z" fill="#BFBCAF" stroke="black" stroke-width="20" mask="url(#path-4-inside-4_447_2203)"/>
</svg>
