<svg width="800" height="800" viewBox="0 0 800 800" fill="none" xmlns="http://www.w3.org/2000/svg">
<g clip-path="url(#clip0_448_2276)">
<mask id="path-1-inside-1_448_2276" fill="white">
<path d="M400 797.778C620.914 797.778 800 744.45 800 678.667C800 612.884 620.914 559.556 400 559.556C179.086 559.556 0 612.884 0 678.667C0 744.45 179.086 797.778 400 797.778Z"/>
</mask>
<path d="M400 797.778C620.914 797.778 800 744.45 800 678.667C800 612.884 620.914 559.556 400 559.556C179.086 559.556 0 612.884 0 678.667C0 744.45 179.086 797.778 400 797.778Z" fill="#3B88C3" stroke="black" stroke-width="20" mask="url(#path-1-inside-1_448_2276)"/>
<mask id="path-2-inside-2_448_2276" fill="white">
<path d="M751.4 634.178C751.4 670.089 695.844 691.666 429.578 691.666C186.8 691.666 127.089 670.089 127.089 634.178C127.089 598.266 253.378 569.155 429.578 569.155C605.778 569.155 751.4 598.266 751.4 634.178Z"/>
</mask>
<path d="M751.4 634.178C751.4 670.089 695.844 691.666 429.578 691.666C186.8 691.666 127.089 670.089 127.089 634.178C127.089 598.266 253.378 569.155 429.578 569.155C605.778 569.155 751.4 598.266 751.4 634.178Z" fill="#88C9F9" stroke="black" stroke-width="20" mask="url(#path-2-inside-2_448_2276)"/>
<mask id="path-3-inside-3_448_2276" fill="white">
<path d="M155.556 627.778C155.556 605.556 177.778 516.667 400 516.667C666.667 516.667 733.333 605.556 733.333 627.778C733.333 650 733.333 672.223 422.222 672.223C155.556 672.223 155.556 650 155.556 627.778Z"/>
</mask>
<path d="M155.556 627.778C155.556 605.556 177.778 516.667 400 516.667C666.667 516.667 733.333 605.556 733.333 627.778C733.333 650 733.333 672.223 422.222 672.223C155.556 672.223 155.556 650 155.556 627.778Z" fill="#F4900C" stroke="black" stroke-width="20" mask="url(#path-3-inside-3_448_2276)"/>
<mask id="path-4-inside-4_448_2276" fill="white">
<path d="M458.222 614.822C457.427 618.485 455.918 621.955 453.782 625.034C451.646 628.113 448.924 630.742 445.772 632.769C442.62 634.797 439.099 636.183 435.411 636.85C431.723 637.517 427.94 637.451 424.278 636.656C420.615 635.861 417.145 634.352 414.066 632.216C410.987 630.079 408.358 627.357 406.331 624.205C402.236 617.84 400.838 610.108 402.444 602.711L515.4 25.267C516.086 21.5007 517.523 17.911 519.625 14.7116C521.727 11.5122 524.452 8.76849 527.636 6.64394C530.821 4.51939 534.4 3.05741 538.162 2.34504C541.923 1.63267 545.789 1.68449 549.53 2.49741C553.271 3.31033 556.81 4.86773 559.937 7.07687C563.063 9.28601 565.713 12.1017 567.729 15.3563C569.745 18.6109 571.085 22.2378 571.67 26.0211C572.255 29.8044 572.072 33.6668 571.133 37.3781L458.222 614.822Z"/>
</mask>
<path d="M458.222 614.822C457.427 618.485 455.918 621.955 453.782 625.034C451.646 628.113 448.924 630.742 445.772 632.769C442.62 634.797 439.099 636.183 435.411 636.85C431.723 637.517 427.94 637.451 424.278 636.656C420.615 635.861 417.145 634.352 414.066 632.216C410.987 630.079 408.358 627.357 406.331 624.205C402.236 617.84 400.838 610.108 402.444 602.711L515.4 25.267C516.086 21.5007 517.523 17.911 519.625 14.7116C521.727 11.5122 524.452 8.76849 527.636 6.64394C530.821 4.51939 534.4 3.05741 538.162 2.34504C541.923 1.63267 545.789 1.68449 549.53 2.49741C553.271 3.31033 556.81 4.86773 559.937 7.07687C563.063 9.28601 565.713 12.1017 567.729 15.3563C569.745 18.6109 571.085 22.2378 571.67 26.0211C572.255 29.8044 572.072 33.6668 571.133 37.3781L458.222 614.822Z" fill="#66757F" stroke="black" stroke-width="20" mask="url(#path-4-inside-4_448_2276)"/>
<mask id="path-5-inside-5_448_2276" fill="white">
<path d="M541.289 40.6005C371.911 3.84494 211.133 82.2227 182.178 215.667C182.178 215.667 174.111 252.823 192.711 256.867C211.289 260.912 256.533 231.8 256.533 231.8L721.156 332.645C721.156 332.645 750.244 377.889 768.844 381.934C787.444 385.978 795.489 348.8 795.489 348.8C824.467 215.334 710.644 77.3561 541.289 40.6005Z"/>
</mask>
<path d="M541.289 40.6005C371.911 3.84494 211.133 82.2227 182.178 215.667C182.178 215.667 174.111 252.823 192.711 256.867C211.289 260.912 256.533 231.8 256.533 231.8L721.156 332.645C721.156 332.645 750.244 377.889 768.844 381.934C787.444 385.978 795.489 348.8 795.489 348.8C824.467 215.334 710.644 77.3561 541.289 40.6005Z" fill="#DD2E44" stroke="black" stroke-width="20" mask="url(#path-5-inside-5_448_2276)"/>
<mask id="path-6-inside-6_448_2276" fill="white">
<path d="M541.289 40.5997C412.978 12.7552 285.489 98.3552 256.533 231.777C256.533 231.777 248.467 268.955 285.644 277.022C322.822 285.111 386.644 260.022 386.644 260.022L591.067 304.4C591.067 304.4 638.756 353.666 675.933 361.755C713.111 369.8 721.156 332.622 721.156 332.622C750.111 199.2 669.578 68.4441 541.289 40.5997Z"/>
</mask>
<path d="M541.289 40.5997C412.978 12.7552 285.489 98.3552 256.533 231.777C256.533 231.777 248.467 268.955 285.644 277.022C322.822 285.111 386.644 260.022 386.644 260.022L591.067 304.4C591.067 304.4 638.756 353.666 675.933 361.755C713.111 369.8 721.156 332.622 721.156 332.622C750.111 199.2 669.578 68.4441 541.289 40.5997Z" fill="#FFE8B6" stroke="black" stroke-width="20" mask="url(#path-6-inside-6_448_2276)"/>
<mask id="path-7-inside-7_448_2276" fill="white">
<path d="M541.289 40.5997C474.556 26.1331 415.578 126.6 386.622 260.022C386.622 260.022 434.311 309.311 471.467 317.355L490.067 321.422C527.245 329.466 591.045 304.4 591.045 304.4C620.022 170.978 608.022 55.0886 541.289 40.5997Z"/>
</mask>
<path d="M541.289 40.5997C474.556 26.1331 415.578 126.6 386.622 260.022C386.622 260.022 434.311 309.311 471.467 317.355L490.067 321.422C527.245 329.466 591.045 304.4 591.045 304.4C620.022 170.978 608.022 55.0886 541.289 40.5997Z" fill="#DD2E44" stroke="black" stroke-width="20" mask="url(#path-7-inside-7_448_2276)"/>
<mask id="path-8-inside-8_448_2276" fill="white">
<path d="M352.089 621.067C362.511 611.578 390.978 613.822 407.644 607.689C424.311 601.555 434.733 593.755 448.622 599.333C462.511 604.911 466.667 613.267 479.867 614.4C493.067 615.533 502.778 623.333 497.222 629.467C491.667 635.6 447.911 637.822 418.756 637.822C389.6 637.822 339.222 632.8 352.089 621.067Z"/>
</mask>
<path d="M352.089 621.067C362.511 611.578 390.978 613.822 407.644 607.689C424.311 601.555 434.733 593.755 448.622 599.333C462.511 604.911 466.667 613.267 479.867 614.4C493.067 615.533 502.778 623.333 497.222 629.467C491.667 635.6 447.911 637.822 418.756 637.822C389.6 637.822 339.222 632.8 352.089 621.067Z" fill="#FFAC33" stroke="black" stroke-width="20" mask="url(#path-8-inside-8_448_2276)"/>
</g>
<defs>
<clipPath id="clip0_448_2276">
<rect width="800" height="800" fill="white"/>
</clipPath>
</defs>
</svg>
