<svg width="800" height="800" viewBox="0 0 800 800" fill="none" xmlns="http://www.w3.org/2000/svg">
<g clip-path="url(#clip0_447_2219)">
<mask id="path-1-inside-1_447_2219" fill="white">
<path d="M224.64 30.1973L212.243 39.3031C214.85 42.2212 216.824 45.6474 218.042 49.366C219.259 53.0846 219.694 57.015 219.318 60.9097C218.942 64.8043 217.763 68.579 215.856 71.9959C213.95 75.4127 211.356 78.3978 208.24 80.7632C205.123 83.1285 201.55 84.8228 197.746 85.7395C193.942 86.6562 189.989 86.7753 186.137 86.0893C182.285 85.4034 178.616 83.9272 175.363 81.7539C172.109 79.5805 169.34 76.757 167.232 73.4611L10.0869 192.702L774.977 370.618L224.64 30.1973Z"/>
</mask>
<path d="M224.64 30.1973L212.243 39.3031C214.85 42.2212 216.824 45.6474 218.042 49.366C219.259 53.0846 219.694 57.015 219.318 60.9097C218.942 64.8043 217.763 68.579 215.856 71.9959C213.95 75.4127 211.356 78.3978 208.24 80.7632C205.123 83.1285 201.55 84.8228 197.746 85.7395C193.942 86.6562 189.989 86.7753 186.137 86.0893C182.285 85.4034 178.616 83.9272 175.363 81.7539C172.109 79.5805 169.34 76.757 167.232 73.4611L10.0869 192.702L774.977 370.618L224.64 30.1973Z" fill="#FCE875" stroke="black" stroke-width="20" mask="url(#path-1-inside-1_447_2219)"/>
<mask id="path-2-inside-2_447_2219" fill="white">
<path d="M800.002 380.99L0.00891113 194.896L168.337 67.1113L170.906 71.089C172.69 73.8723 175.032 76.2562 177.782 78.0908C180.533 79.9254 183.633 81.171 186.888 81.7493C190.143 82.3276 193.483 82.2261 196.697 81.4511C199.911 80.6762 202.93 79.2445 205.564 77.2462C208.198 75.2479 210.39 72.7262 212.002 69.8397C213.614 66.9532 214.612 63.7643 214.931 60.4737C215.251 57.183 214.887 53.8617 213.861 50.7187C212.835 47.5757 211.17 44.679 208.97 42.2108L205.769 38.6433L224.426 24.9355L226.986 26.4695L800.002 380.99ZM20.1827 190.544L749.951 360.299L224.854 35.4862L218.433 40.1952C223.059 47.1345 224.86 55.5781 223.47 63.801C222.079 72.024 217.601 79.4057 210.951 84.438C204.301 89.4704 195.98 91.7737 187.688 90.8773C179.397 89.9809 171.761 85.9525 166.34 79.6151L20.1827 190.544Z"/>
</mask>
<path d="M800.002 380.99L0.00891113 194.896L168.337 67.1113L170.906 71.089C172.69 73.8723 175.032 76.2562 177.782 78.0908C180.533 79.9254 183.633 81.171 186.888 81.7493C190.143 82.3276 193.483 82.2261 196.697 81.4511C199.911 80.6762 202.93 79.2445 205.564 77.2462C208.198 75.2479 210.39 72.7262 212.002 69.8397C213.614 66.9532 214.612 63.7643 214.931 60.4737C215.251 57.183 214.887 53.8617 213.861 50.7187C212.835 47.5757 211.17 44.679 208.97 42.2108L205.769 38.6433L224.426 24.9355L226.986 26.4695L800.002 380.99ZM20.1827 190.544L749.951 360.299L224.854 35.4862L218.433 40.1952C223.059 47.1345 224.86 55.5781 223.47 63.801C222.079 72.024 217.601 79.4057 210.951 84.438C204.301 89.4704 195.98 91.7737 187.688 90.8773C179.397 89.9809 171.761 85.9525 166.34 79.6151L20.1827 190.544Z" fill="#541018" stroke="black" stroke-width="20" mask="url(#path-2-inside-2_447_2219)"/>
<mask id="path-3-inside-3_447_2219" fill="white">
<path d="M746.535 502.808C746.54 488.544 751.268 474.683 759.98 463.389C768.693 452.095 780.9 444.003 794.696 440.378V383.121L5.80591 199.274V476.302C19.2387 477.084 31.8645 482.972 41.0983 492.759C50.3321 502.546 55.4755 515.493 55.4755 528.948C55.4755 542.404 50.3321 555.351 41.0983 565.138C31.8645 574.925 19.2387 580.812 5.80591 581.594V617.269L794.713 769.776V565.265C780.911 561.639 768.699 553.544 759.983 542.245C751.267 530.946 746.538 517.078 746.535 502.808Z"/>
</mask>
<path d="M746.535 502.808C746.54 488.544 751.268 474.683 759.98 463.389C768.693 452.095 780.9 444.003 794.696 440.378V383.121L5.80591 199.274V476.302C19.2387 477.084 31.8645 482.972 41.0983 492.759C50.3321 502.546 55.4755 515.493 55.4755 528.948C55.4755 542.404 50.3321 555.351 41.0983 565.138C31.8645 574.925 19.2387 580.812 5.80591 581.594V617.269L794.713 769.776V565.265C780.911 561.639 768.699 553.544 759.983 542.245C751.267 530.946 746.538 517.078 746.535 502.808Z" fill="#FFC232" stroke="black" stroke-width="20" mask="url(#path-3-inside-3_447_2219)"/>
<mask id="path-4-inside-4_447_2219" fill="white">
<path d="M799.101 775.091L1.427 620.899V577.447L5.55629 577.216C17.8763 576.505 29.4581 571.11 37.9291 562.136C46.4001 553.162 51.1189 541.289 51.1189 528.948C51.1189 516.608 46.4001 504.735 37.9291 495.761C29.4581 486.787 17.8763 481.392 5.55629 480.681L1.427 480.449V193.754L799.101 379.625V443.741L795.819 444.633C782.954 448.009 771.569 455.552 763.444 466.084C755.32 476.616 750.913 489.542 750.913 502.844C750.913 516.145 755.32 529.072 763.444 539.604C771.569 550.135 782.954 557.679 795.819 561.055L799.101 561.947V775.091ZM10.1939 613.666L790.326 764.487V568.565C776.35 564.147 764.145 555.392 755.483 543.569C746.82 531.746 742.15 517.47 742.15 502.813C742.15 488.156 746.82 473.88 755.483 462.057C764.145 450.233 776.35 441.478 790.326 437.061V386.582L10.1939 204.804V472.307C23.9311 474.119 36.5414 480.862 45.6762 491.281C54.8109 501.699 59.8473 515.083 59.8473 528.939C59.8473 542.796 54.8109 556.179 45.6762 566.598C36.5414 577.017 23.9311 583.76 10.1939 585.572V613.666Z"/>
</mask>
<path d="M799.101 775.091L1.427 620.899V577.447L5.55629 577.216C17.8763 576.505 29.4581 571.11 37.9291 562.136C46.4001 553.162 51.1189 541.289 51.1189 528.948C51.1189 516.608 46.4001 504.735 37.9291 495.761C29.4581 486.787 17.8763 481.392 5.55629 480.681L1.427 480.449V193.754L799.101 379.625V443.741L795.819 444.633C782.954 448.009 771.569 455.552 763.444 466.084C755.32 476.616 750.913 489.542 750.913 502.844C750.913 516.145 755.32 529.072 763.444 539.604C771.569 550.135 782.954 557.679 795.819 561.055L799.101 561.947V775.091ZM10.1939 613.666L790.326 764.487V568.565C776.35 564.147 764.145 555.392 755.483 543.569C746.82 531.746 742.15 517.47 742.15 502.813C742.15 488.156 746.82 473.88 755.483 462.057C764.145 450.233 776.35 441.478 790.326 437.061V386.582L10.1939 204.804V472.307C23.9311 474.119 36.5414 480.862 45.6762 491.281C54.8109 501.699 59.8473 515.083 59.8473 528.939C59.8473 542.796 54.8109 556.179 45.6762 566.598C36.5414 577.017 23.9311 583.76 10.1939 585.572V613.666Z" fill="#541018" stroke="black" stroke-width="20" mask="url(#path-4-inside-4_447_2219)"/>
<mask id="path-5-inside-5_447_2219" fill="white">
<path d="M144.213 371.67C144.213 377.99 145.253 384.248 147.274 390.087C149.295 395.926 152.257 401.231 155.991 405.699C159.725 410.168 164.158 413.713 169.037 416.132C173.916 418.55 179.146 419.795 184.426 419.795C189.707 419.795 194.937 418.55 199.816 416.132C204.695 413.713 209.128 410.168 212.862 405.699C216.596 401.231 219.558 395.926 221.579 390.087C223.6 384.248 224.64 377.99 224.64 371.67C224.64 365.351 223.6 359.093 221.579 353.254C219.558 347.415 216.596 342.11 212.862 337.641C209.128 333.172 204.695 329.628 199.816 327.209C194.937 324.791 189.707 323.546 184.426 323.546C179.146 323.546 173.916 324.791 169.037 327.209C164.158 329.628 159.725 333.172 155.991 337.641C152.257 342.11 149.295 347.415 147.274 353.254C145.253 359.093 144.213 365.351 144.213 371.67Z"/>
</mask>
<path d="M144.213 371.67C144.213 377.99 145.253 384.248 147.274 390.087C149.295 395.926 152.257 401.231 155.991 405.699C159.725 410.168 164.158 413.713 169.037 416.132C173.916 418.55 179.146 419.795 184.426 419.795C189.707 419.795 194.937 418.55 199.816 416.132C204.695 413.713 209.128 410.168 212.862 405.699C216.596 401.231 219.558 395.926 221.579 390.087C223.6 384.248 224.64 377.99 224.64 371.67C224.64 365.351 223.6 359.093 221.579 353.254C219.558 347.415 216.596 342.11 212.862 337.641C209.128 333.172 204.695 329.628 199.816 327.209C194.937 324.791 189.707 323.546 184.426 323.546C179.146 323.546 173.916 324.791 169.037 327.209C164.158 329.628 159.725 333.172 155.991 337.641C152.257 342.11 149.295 347.415 147.274 353.254C145.253 359.093 144.213 365.351 144.213 371.67Z" fill="#F9E769" stroke="black" stroke-width="20" mask="url(#path-5-inside-5_447_2219)"/>
<mask id="path-6-inside-6_447_2219" fill="white">
<path d="M184.427 424.183C159.838 424.183 139.834 400.629 139.834 371.67C139.834 342.712 159.847 319.167 184.427 319.167C209.006 319.167 229.019 342.721 229.019 371.67C229.019 400.62 209.015 424.183 184.427 424.183ZM184.427 327.934C164.672 327.934 148.601 347.555 148.601 371.635C148.601 395.715 164.654 415.38 184.427 415.38C204.199 415.38 220.252 395.759 220.252 371.635C220.252 347.51 204.181 327.934 184.427 327.934Z"/>
</mask>
<path d="M184.427 424.183C159.838 424.183 139.834 400.629 139.834 371.67C139.834 342.712 159.847 319.167 184.427 319.167C209.006 319.167 229.019 342.721 229.019 371.67C229.019 400.62 209.015 424.183 184.427 424.183ZM184.427 327.934C164.672 327.934 148.601 347.555 148.601 371.635C148.601 395.715 164.654 415.38 184.427 415.38C204.199 415.38 220.252 395.759 220.252 371.635C220.252 347.51 204.181 327.934 184.427 327.934Z" fill="#541018" stroke="black" stroke-width="20" mask="url(#path-6-inside-6_447_2219)"/>
<mask id="path-7-inside-7_447_2219" fill="white">
<path d="M343.301 175.712C343.301 181.961 346.383 187.955 351.869 192.374C357.355 196.792 364.796 199.275 372.554 199.275C380.313 199.275 387.753 196.792 393.239 192.374C398.725 187.955 401.807 181.961 401.807 175.712C401.807 169.463 398.725 163.47 393.239 159.051C387.753 154.632 380.313 152.149 372.554 152.149C364.796 152.149 357.355 154.632 351.869 159.051C346.383 163.47 343.301 169.463 343.301 175.712Z"/>
</mask>
<path d="M343.301 175.712C343.301 181.961 346.383 187.955 351.869 192.374C357.355 196.792 364.796 199.275 372.554 199.275C380.313 199.275 387.753 196.792 393.239 192.374C398.725 187.955 401.807 181.961 401.807 175.712C401.807 169.463 398.725 163.47 393.239 159.051C387.753 154.632 380.313 152.149 372.554 152.149C364.796 152.149 357.355 154.632 351.869 159.051C346.383 163.47 343.301 169.463 343.301 175.712Z" fill="#F2B42C" stroke="black" stroke-width="20" mask="url(#path-7-inside-7_447_2219)"/>
<mask id="path-8-inside-8_447_2219" fill="white">
<path d="M372.554 203.663C354.004 203.663 338.914 191.124 338.914 175.712C338.914 160.301 354.004 147.762 372.554 147.762C391.105 147.762 406.186 160.301 406.186 175.712C406.186 191.124 391.087 203.663 372.554 203.663ZM372.554 156.529C358.846 156.529 347.689 165.135 347.689 175.712C347.689 186.29 358.846 194.887 372.554 194.887C386.262 194.887 397.419 186.29 397.419 175.712C397.419 165.135 386.262 156.529 372.554 156.529Z"/>
</mask>
<path d="M372.554 203.663C354.004 203.663 338.914 191.124 338.914 175.712C338.914 160.301 354.004 147.762 372.554 147.762C391.105 147.762 406.186 160.301 406.186 175.712C406.186 191.124 391.087 203.663 372.554 203.663ZM372.554 156.529C358.846 156.529 347.689 165.135 347.689 175.712C347.689 186.29 358.846 194.887 372.554 194.887C386.262 194.887 397.419 186.29 397.419 175.712C397.419 165.135 386.262 156.529 372.554 156.529Z" fill="#541018" stroke="black" stroke-width="20" mask="url(#path-8-inside-8_447_2219)"/>
<mask id="path-9-inside-9_447_2219" fill="white">
<path d="M79.6158 171.003C79.6158 177.193 82.8106 183.13 88.4973 187.507C94.1839 191.884 101.897 194.343 109.939 194.343C117.981 194.343 125.694 191.884 131.381 187.507C137.067 183.13 140.262 177.193 140.262 171.003C140.262 164.813 137.067 158.876 131.381 154.499C125.694 150.122 117.981 147.663 109.939 147.663C101.897 147.663 94.1839 150.122 88.4973 154.499C82.8106 158.876 79.6158 164.813 79.6158 171.003Z"/>
</mask>
<path d="M79.6158 171.003C79.6158 177.193 82.8106 183.13 88.4973 187.507C94.1839 191.884 101.897 194.343 109.939 194.343C117.981 194.343 125.694 191.884 131.381 187.507C137.067 183.13 140.262 177.193 140.262 171.003C140.262 164.813 137.067 158.876 131.381 154.499C125.694 150.122 117.981 147.663 109.939 147.663C101.897 147.663 94.1839 150.122 88.4973 154.499C82.8106 158.876 79.6158 164.813 79.6158 171.003Z" fill="#F2B42C" stroke="black" stroke-width="20" mask="url(#path-9-inside-9_447_2219)"/>
<mask id="path-10-inside-10_447_2219" fill="white">
<path d="M109.93 198.722C90.7908 198.722 75.219 186.29 75.219 171.003C75.219 155.717 90.7908 143.275 109.93 143.275C129.069 143.275 144.641 155.717 144.641 171.003C144.641 186.29 129.069 198.722 109.93 198.722ZM109.93 152.051C95.6603 152.051 83.9948 160.551 83.9948 171.003C83.9948 181.456 95.6335 189.955 109.93 189.955C124.226 189.955 135.874 181.447 135.874 171.003C135.874 160.56 124.235 152.051 109.93 152.051Z"/>
</mask>
<path d="M109.93 198.722C90.7908 198.722 75.219 186.29 75.219 171.003C75.219 155.717 90.7908 143.275 109.93 143.275C129.069 143.275 144.641 155.717 144.641 171.003C144.641 186.29 129.069 198.722 109.93 198.722ZM109.93 152.051C95.6603 152.051 83.9948 160.551 83.9948 171.003C83.9948 181.456 95.6335 189.955 109.93 189.955C124.226 189.955 135.874 181.447 135.874 171.003C135.874 160.56 124.235 152.051 109.93 152.051Z" fill="#541018" stroke="black" stroke-width="20" mask="url(#path-10-inside-10_447_2219)"/>
<mask id="path-11-inside-11_447_2219" fill="white">
<path d="M682.518 702.245C682.518 710.287 685.713 718 691.4 723.687C697.086 729.373 704.799 732.568 712.841 732.568C720.883 732.568 728.596 729.373 734.283 723.687C739.97 718 743.164 710.287 743.164 702.245C743.164 694.203 739.97 686.49 734.283 680.803C728.596 675.117 720.883 671.922 712.841 671.922C704.799 671.922 697.086 675.117 691.4 680.803C685.713 686.49 682.518 694.203 682.518 702.245Z"/>
</mask>
<path d="M682.518 702.245C682.518 710.287 685.713 718 691.4 723.687C697.086 729.373 704.799 732.568 712.841 732.568C720.883 732.568 728.596 729.373 734.283 723.687C739.97 718 743.164 710.287 743.164 702.245C743.164 694.203 739.97 686.49 734.283 680.803C728.596 675.117 720.883 671.922 712.841 671.922C704.799 671.922 697.086 675.117 691.4 680.803C685.713 686.49 682.518 694.203 682.518 702.245Z" fill="#FFE600" stroke="black" stroke-width="20" mask="url(#path-11-inside-11_447_2219)"/>
<mask id="path-12-inside-12_447_2219" fill="white">
<path d="M712.832 736.956C705.967 736.956 699.256 734.92 693.548 731.106C687.84 727.292 683.391 721.871 680.764 715.528C678.136 709.186 677.449 702.207 678.788 695.473C680.128 688.74 683.434 682.555 688.288 677.701C693.142 672.846 699.327 669.54 706.061 668.201C712.794 666.862 719.773 667.549 726.116 670.176C732.458 672.804 737.879 677.253 741.693 682.961C745.508 688.669 747.543 695.38 747.543 702.245C747.524 711.445 743.861 720.263 737.356 726.769C730.85 733.274 722.032 736.937 712.832 736.956ZM712.832 676.31C707.701 676.31 702.684 677.832 698.418 680.683C694.151 683.534 690.826 687.587 688.862 692.328C686.899 697.069 686.386 702.286 687.387 707.319C688.389 712.352 690.861 716.974 694.49 720.602C698.119 724.23 702.743 726.701 707.776 727.701C712.81 728.701 718.026 728.186 722.767 726.221C727.507 724.256 731.559 720.929 734.408 716.661C737.258 712.394 738.778 707.377 738.776 702.245C738.767 695.368 736.03 688.776 731.167 683.914C726.303 679.052 719.709 676.317 712.832 676.31Z"/>
</mask>
<path d="M712.832 736.956C705.967 736.956 699.256 734.92 693.548 731.106C687.84 727.292 683.391 721.871 680.764 715.528C678.136 709.186 677.449 702.207 678.788 695.473C680.128 688.74 683.434 682.555 688.288 677.701C693.142 672.846 699.327 669.54 706.061 668.201C712.794 666.862 719.773 667.549 726.116 670.176C732.458 672.804 737.879 677.253 741.693 682.961C745.508 688.669 747.543 695.38 747.543 702.245C747.524 711.445 743.861 720.263 737.356 726.769C730.85 733.274 722.032 736.937 712.832 736.956ZM712.832 676.31C707.701 676.31 702.684 677.832 698.418 680.683C694.151 683.534 690.826 687.587 688.862 692.328C686.899 697.069 686.386 702.286 687.387 707.319C688.389 712.352 690.861 716.974 694.49 720.602C698.119 724.23 702.743 726.701 707.776 727.701C712.81 728.701 718.026 728.186 722.767 726.221C727.507 724.256 731.559 720.929 734.408 716.661C737.258 712.394 738.778 707.377 738.776 702.245C738.767 695.368 736.03 688.776 731.167 683.914C726.303 679.052 719.709 676.317 712.832 676.31Z" fill="#541018" stroke="black" stroke-width="20" mask="url(#path-12-inside-12_447_2219)"/>
<mask id="path-13-inside-13_447_2219" fill="white">
<path d="M591.174 377.61C591.174 387.75 595.62 397.475 603.533 404.645C611.446 411.815 622.178 415.844 633.368 415.844C644.559 415.844 655.291 411.815 663.203 404.645C671.116 397.475 675.562 387.75 675.562 377.61C675.562 367.47 671.116 357.745 663.203 350.574C655.291 343.404 644.559 339.376 633.368 339.376C622.178 339.376 611.446 343.404 603.533 350.574C595.62 357.745 591.174 367.47 591.174 377.61Z"/>
</mask>
<path d="M591.174 377.61C591.174 387.75 595.62 397.475 603.533 404.645C611.446 411.815 622.178 415.844 633.368 415.844C644.559 415.844 655.291 411.815 663.203 404.645C671.116 397.475 675.562 387.75 675.562 377.61C675.562 367.47 671.116 357.745 663.203 350.574C655.291 343.404 644.559 339.376 633.368 339.376C622.178 339.376 611.446 343.404 603.533 350.574C595.62 357.745 591.174 367.47 591.174 377.61Z" fill="#FFE600" stroke="black" stroke-width="20" mask="url(#path-13-inside-13_447_2219)"/>
<mask id="path-14-inside-14_447_2219" fill="white">
<path d="M633.368 420.232C607.683 420.232 586.787 401.11 586.787 377.61C586.787 354.11 607.683 334.988 633.368 334.988C659.054 334.988 679.941 354.101 679.941 377.61C679.941 401.119 659.054 420.232 633.368 420.232ZM633.368 343.755C612.517 343.755 595.562 358.917 595.562 377.646C595.562 396.375 612.508 411.492 633.368 411.492C654.229 411.492 671.174 396.33 671.174 377.646C671.174 358.961 654.184 343.755 633.368 343.755Z"/>
</mask>
<path d="M633.368 420.232C607.683 420.232 586.787 401.11 586.787 377.61C586.787 354.11 607.683 334.988 633.368 334.988C659.054 334.988 679.941 354.101 679.941 377.61C679.941 401.119 659.054 420.232 633.368 420.232ZM633.368 343.755C612.517 343.755 595.562 358.917 595.562 377.646C595.562 396.375 612.508 411.492 633.368 411.492C654.229 411.492 671.174 396.33 671.174 377.646C671.174 358.961 654.184 343.755 633.368 343.755Z" fill="#541018" stroke="black" stroke-width="20" mask="url(#path-14-inside-14_447_2219)"/>
<mask id="path-15-inside-15_447_2219" fill="white">
<path d="M252.332 530.546C252.331 540.761 254.634 550.877 259.108 560.316C263.582 569.754 270.141 578.33 278.409 585.554C286.678 592.778 296.494 598.509 307.298 602.418C318.102 606.328 329.681 608.34 341.375 608.34C353.069 608.34 364.648 606.328 375.452 602.418C386.256 598.509 396.072 592.778 404.341 585.554C412.609 578.33 419.168 569.754 423.642 560.316C428.116 550.877 430.419 540.761 430.418 530.546C430.419 520.33 428.116 510.214 423.642 500.775C419.168 491.337 412.609 482.761 404.341 475.537C396.072 468.313 386.256 462.583 375.452 458.673C364.648 454.763 353.069 452.751 341.375 452.751C329.681 452.751 318.102 454.763 307.298 458.673C296.494 462.583 286.678 468.313 278.409 475.537C270.141 482.761 263.582 491.337 259.108 500.775C254.634 510.214 252.331 520.33 252.332 530.546Z"/>
</mask>
<path d="M252.332 530.546C252.331 540.761 254.634 550.877 259.108 560.316C263.582 569.754 270.141 578.33 278.409 585.554C286.678 592.778 296.494 598.509 307.298 602.418C318.102 606.328 329.681 608.34 341.375 608.34C353.069 608.34 364.648 606.328 375.452 602.418C386.256 598.509 396.072 592.778 404.341 585.554C412.609 578.33 419.168 569.754 423.642 560.316C428.116 550.877 430.419 540.761 430.418 530.546C430.419 520.33 428.116 510.214 423.642 500.775C419.168 491.337 412.609 482.761 404.341 475.537C396.072 468.313 386.256 462.583 375.452 458.673C364.648 454.763 353.069 452.751 341.375 452.751C329.681 452.751 318.102 454.763 307.298 458.673C296.494 462.583 286.678 468.313 278.409 475.537C270.141 482.761 263.582 491.337 259.108 500.775C254.634 510.214 252.331 520.33 252.332 530.546Z" fill="#F9E769" stroke="black" stroke-width="20" mask="url(#path-15-inside-15_447_2219)"/>
<mask id="path-16-inside-16_447_2219" fill="white">
<path d="M341.375 612.721C289.853 612.721 247.944 575.861 247.944 530.546C247.944 485.23 289.862 448.37 341.375 448.37C392.889 448.37 434.788 485.239 434.788 530.546C434.788 575.852 392.871 612.721 341.375 612.721ZM341.375 457.146C294.695 457.146 256.711 490.073 256.711 530.546C256.711 571.018 294.695 603.954 341.375 603.954C388.055 603.954 426.03 571.027 426.03 530.546C426.03 490.064 388.055 457.146 341.375 457.146Z"/>
</mask>
<path d="M341.375 612.721C289.853 612.721 247.944 575.861 247.944 530.546C247.944 485.23 289.862 448.37 341.375 448.37C392.889 448.37 434.788 485.239 434.788 530.546C434.788 575.852 392.871 612.721 341.375 612.721ZM341.375 457.146C294.695 457.146 256.711 490.073 256.711 530.546C256.711 571.018 294.695 603.954 341.375 603.954C388.055 603.954 426.03 571.027 426.03 530.546C426.03 490.064 388.055 457.146 341.375 457.146Z" fill="#541018" stroke="black" stroke-width="20" mask="url(#path-16-inside-16_447_2219)"/>
</g>
<defs>
<clipPath id="clip0_447_2219">
<rect width="800" height="800" fill="white"/>
</clipPath>
</defs>
</svg>
