<svg width="800" height="800" viewBox="0 0 800 800" fill="none" xmlns="http://www.w3.org/2000/svg">
<mask id="path-1-inside-1_447_2236" fill="white">
<path d="M129.841 230.791C184.192 169.458 96.1001 141.128 126.225 137.775C179.303 131.867 244.889 224.732 244.889 224.732"/>
</mask>
<path d="M129.841 230.791C184.192 169.458 96.1001 141.128 126.225 137.775C179.303 131.867 244.889 224.732 244.889 224.732" fill="#A9B8C2"/>
<path d="M126.225 137.775L125.119 127.837L125.119 127.837L126.225 137.775ZM137.325 237.423C152.07 220.784 158.153 205.201 157.968 190.726C157.785 176.413 151.485 164.966 145.096 156.511C141.892 152.272 138.533 148.613 135.738 145.649C132.712 142.438 130.824 140.512 129.622 138.965C129.034 138.207 129.145 138.196 129.353 138.733C129.59 139.344 130.325 141.722 128.984 144.529C127.733 147.148 125.696 147.95 125.593 147.991C125.417 148.061 125.829 147.881 127.331 147.714L125.119 127.837C122.856 128.089 120.426 128.523 118.204 129.406C116.055 130.26 112.768 132.075 110.937 135.909C109.016 139.931 109.839 143.728 110.706 145.965C111.545 148.127 112.828 149.947 113.826 151.232C115.798 153.771 118.741 156.774 121.185 159.367C123.861 162.206 126.612 165.226 129.14 168.57C134.214 175.284 137.863 182.629 137.97 190.982C138.074 199.173 134.787 210.132 122.357 224.159L137.325 237.423ZM127.331 147.714C137.575 146.574 149.405 150.152 162.151 157.526C174.771 164.826 187.275 175.262 198.477 186.195C209.632 197.082 219.224 208.193 226.042 216.609C229.443 220.807 232.136 224.313 233.969 226.755C234.885 227.976 235.585 228.93 236.051 229.57C236.283 229.889 236.457 230.131 236.569 230.288C236.626 230.367 236.667 230.424 236.692 230.46C236.705 230.478 236.713 230.49 236.718 230.497C236.721 230.5 236.722 230.502 236.723 230.503C236.723 230.503 236.722 230.502 236.722 230.503C236.722 230.502 236.721 230.5 244.889 224.732C253.057 218.963 253.056 218.961 253.054 218.958C253.053 218.957 253.051 218.954 253.05 218.952C253.046 218.947 253.042 218.94 253.036 218.933C253.025 218.917 253.01 218.896 252.991 218.869C252.953 218.815 252.899 218.74 252.829 218.643C252.69 218.449 252.489 218.169 252.229 217.811C251.707 217.093 250.946 216.057 249.965 214.75C248.004 212.137 245.159 208.434 241.582 204.019C234.443 195.207 224.322 183.472 212.446 171.881C200.616 160.336 186.772 148.664 172.166 140.214C157.687 131.837 141.414 126.023 125.119 127.837L127.331 147.714Z" fill="black" mask="url(#path-1-inside-1_447_2236)"/>
<mask id="path-3-inside-2_447_2236" fill="white">
<path d="M138.725 215.428C200.841 161.974 117.366 122.039 147.669 122.774C201.059 124.067 253.542 224.919 253.542 224.919"/>
</mask>
<path d="M138.725 215.428C200.841 161.974 117.366 122.039 147.669 122.774C201.059 124.067 253.542 224.919 253.542 224.919" fill="#D5DEE4"/>
<path d="M147.669 122.774L147.427 132.771L147.427 132.771L147.669 122.774ZM145.248 223.008C162.1 208.506 170.225 193.885 171.992 179.517C173.738 165.309 169.036 153.118 163.844 143.88C161.24 139.248 158.404 135.17 156.034 131.856C153.468 128.267 151.856 126.105 150.874 124.41C150.393 123.58 150.505 123.583 150.639 124.144C150.792 124.781 151.199 127.237 149.493 129.838C147.9 132.265 145.774 132.785 145.666 132.811C145.483 132.857 145.915 132.734 147.427 132.771L147.911 112.777C145.635 112.721 143.168 112.824 140.848 113.4C138.604 113.958 135.103 115.312 132.771 118.865C130.326 122.592 130.63 126.465 131.188 128.798C131.728 131.054 132.754 133.03 133.57 134.438C135.182 137.219 137.694 140.592 139.766 143.49C142.036 146.663 144.355 150.026 146.41 153.68C150.533 161.016 153.16 168.785 152.141 177.077C151.142 185.207 146.408 195.623 132.202 207.849L145.248 223.008ZM147.427 132.771C157.731 133.02 168.971 138.159 180.608 147.182C192.13 156.116 203.115 168.141 212.742 180.482C222.33 192.773 230.338 205.075 235.96 214.332C238.765 218.95 240.962 222.787 242.449 225.454C243.193 226.787 243.758 227.826 244.133 228.523C244.32 228.871 244.46 229.134 244.55 229.304C244.595 229.39 244.628 229.452 244.648 229.491C244.659 229.51 244.666 229.524 244.669 229.531C244.671 229.535 244.673 229.537 244.673 229.538C244.673 229.538 244.673 229.537 244.673 229.538C244.672 229.537 244.672 229.535 253.542 224.919C262.413 220.303 262.412 220.3 262.411 220.298C262.41 220.297 262.408 220.294 262.407 220.291C262.404 220.285 262.4 220.278 262.396 220.27C262.387 220.253 262.375 220.23 262.36 220.201C262.329 220.142 262.286 220.06 262.23 219.955C262.119 219.744 261.957 219.44 261.747 219.049C261.327 218.268 260.712 217.139 259.916 215.712C258.325 212.859 256.004 208.806 253.055 203.95C247.168 194.256 238.718 181.265 228.512 168.181C218.345 155.148 206.198 141.717 192.863 131.377C179.644 121.127 164.302 113.174 147.911 112.777L147.427 132.771Z" fill="black" mask="url(#path-3-inside-2_447_2236)"/>
<mask id="path-5-inside-3_447_2236" fill="white">
<path d="M744.359 409.66C741.428 382.296 715.745 181.18 597.973 224.983C531.534 249.694 364.492 240.132 257.252 207.605L257.392 207.502C257.887 207.138 258.353 206.88 258.823 206.514C259.758 205.819 260.691 205.183 261.598 204.483L266.533 200.894L270.608 198.047L274.62 195.471L274.745 195.391C276.447 194.295 277.651 192.576 278.1 190.603C278.549 188.629 278.206 186.558 277.145 184.835L276.891 184.422C276.719 184.158 276.47 183.719 276.106 183.253C275.38 182.325 274.287 180.771 272.631 179.16C271.014 177.561 269.003 175.994 266.403 174.264C263.897 172.669 261.005 171.214 257.709 169.872C256.134 169.258 254.477 168.766 252.714 168.194C250.917 167.627 249.181 167.305 247.38 166.914C245.532 166.536 243.667 166.247 241.792 166.047C239.919 165.864 238.041 165.751 236.159 165.71C234.208 165.627 232.361 165.719 230.47 165.828C228.598 165.963 226.644 166.114 224.798 166.402C221.117 166.986 217.369 167.777 213.884 168.889C210.325 169.966 206.987 171.363 203.766 172.902C200.646 174.428 197.654 176.199 194.816 178.2C192.084 180.178 189.522 182.236 187.294 184.464C185.03 186.639 183.066 188.974 181.342 191.228C180.509 192.411 179.678 193.458 178.961 194.602C178.228 195.791 177.495 196.835 176.898 197.958C176.297 199.072 175.706 200.049 175.242 201.075C174.739 202.085 174.442 202.93 174.128 203.808C173.629 205.16 173.199 206.535 172.837 207.93C172.698 208.459 172.575 208.993 172.469 209.53L171.536 214.536C170.991 217.577 164.979 218.584 166 221.5L108.5 340.5C107.228 343.046 101.013 343.701 100.5 346.5C89.3141 356.191 93.9437 374.814 93.9437 381.814C93.9437 381.814 107.595 385.672 135.428 385.997C137.003 386.205 138.62 386.305 140.283 386.26C153.523 385.894 165.456 400.599 169.514 413.208C183.636 457.105 205.239 548.835 217.845 563.144C232.564 579.852 242.555 611.747 247.352 633.491C258.608 684.53 255.023 707.336 290.455 707.336C315.466 707.336 323.881 658.688 323.881 635.761C323.881 545.167 420.623 536.169 468.562 536.169C516.5 536.169 552.278 558.317 552.278 630.646C552.278 655.133 524.945 707.335 574.967 707.335C610.289 707.335 638.239 651.702 649.231 619.003C653.669 605.802 661.78 594.097 672.717 585.474C695.423 567.571 734.523 521.875 744.409 415.582C744.588 413.611 744.571 411.627 744.359 409.66Z"/>
</mask>
<path d="M744.359 409.66C741.428 382.296 715.745 181.18 597.973 224.983C531.534 249.694 364.492 240.132 257.252 207.605L257.392 207.502C257.887 207.138 258.353 206.88 258.823 206.514C259.758 205.819 260.691 205.183 261.598 204.483L266.533 200.894L270.608 198.047L274.62 195.471L274.745 195.391C276.447 194.295 277.651 192.576 278.1 190.603C278.549 188.629 278.206 186.558 277.145 184.835L276.891 184.422C276.719 184.158 276.47 183.719 276.106 183.253C275.38 182.325 274.287 180.771 272.631 179.16C271.014 177.561 269.003 175.994 266.403 174.264C263.897 172.669 261.005 171.214 257.709 169.872C256.134 169.258 254.477 168.766 252.714 168.194C250.917 167.627 249.181 167.305 247.38 166.914C245.532 166.536 243.667 166.247 241.792 166.047C239.919 165.864 238.041 165.751 236.159 165.71C234.208 165.627 232.361 165.719 230.47 165.828C228.598 165.963 226.644 166.114 224.798 166.402C221.117 166.986 217.369 167.777 213.884 168.889C210.325 169.966 206.987 171.363 203.766 172.902C200.646 174.428 197.654 176.199 194.816 178.2C192.084 180.178 189.522 182.236 187.294 184.464C185.03 186.639 183.066 188.974 181.342 191.228C180.509 192.411 179.678 193.458 178.961 194.602C178.228 195.791 177.495 196.835 176.898 197.958C176.297 199.072 175.706 200.049 175.242 201.075C174.739 202.085 174.442 202.93 174.128 203.808C173.629 205.16 173.199 206.535 172.837 207.93C172.698 208.459 172.575 208.993 172.469 209.53L171.536 214.536C170.991 217.577 164.979 218.584 166 221.5L108.5 340.5C107.228 343.046 101.013 343.701 100.5 346.5C89.3141 356.191 93.9437 374.814 93.9437 381.814C93.9437 381.814 107.595 385.672 135.428 385.997C137.003 386.205 138.62 386.305 140.283 386.26C153.523 385.894 165.456 400.599 169.514 413.208C183.636 457.105 205.239 548.835 217.845 563.144C232.564 579.852 242.555 611.747 247.352 633.491C258.608 684.53 255.023 707.336 290.455 707.336C315.466 707.336 323.881 658.688 323.881 635.761C323.881 545.167 420.623 536.169 468.562 536.169C516.5 536.169 552.278 558.317 552.278 630.646C552.278 655.133 524.945 707.335 574.967 707.335C610.289 707.335 638.239 651.702 649.231 619.003C653.669 605.802 661.78 594.097 672.717 585.474C695.423 567.571 734.523 521.875 744.409 415.582C744.588 413.611 744.571 411.627 744.359 409.66Z" fill="#CCD6D0" stroke="black" stroke-width="20" mask="url(#path-5-inside-3_447_2236)"/>
<mask id="path-6-inside-4_447_2236" fill="white">
<path d="M184.659 359.5L175.812 354.883L175.805 354.904C169.275 350.436 159.186 340.763 138.436 340.763C106.808 340.763 93.9405 370.474 93.9405 381.814C73.1187 381.814 53.7905 374.111 37.3358 364.535C30.9249 360.804 24.1218 351.274 22.5765 348.91C16.5874 339.743 13.0874 328.68 13.0874 315.75C13.0874 292.754 43.2562 285.939 64.9233 276.868C87.0405 263.458 102.67 232.78 102.67 217.889L102.716 217.877C103.672 193.194 124.725 173.463 150.573 173.463C163.917 173.463 175.976 178.727 184.659 187.211C184.064 187.877 183.489 188.544 182.939 189.213L182.928 189.225C182.378 189.896 181.844 190.564 181.337 191.227C180.505 192.41 179.673 193.457 178.956 194.6C178.223 195.789 177.491 196.833 176.894 197.957C176.292 199.071 175.701 200.047 175.237 201.074C174.734 202.083 174.437 202.929 174.123 203.807C173.625 205.158 173.194 206.534 172.833 207.929C172.693 208.458 172.57 208.991 172.464 209.529L171.531 214.535C171.383 215.361 171.294 216.197 171.262 217.036C170.917 226.11 177.359 233.849 186.048 235.405C186.134 235.421 186.217 235.439 186.303 235.454C187.039 235.574 187.786 235.666 188.55 235.696C188.55 235.696 189.031 235.714 189.884 235.666C190.719 235.588 192.005 235.575 193.52 235.361C195.1 235.138 196.795 234.957 198.672 234.674C199.626 234.55 200.583 234.327 201.616 234.144C202.681 233.955 203.761 233.671 204.906 233.422C207.297 232.82 209.671 232.148 212.023 231.41C214.472 230.569 217.045 229.749 219.597 228.675C220.902 228.178 222.194 227.645 223.47 227.079L225.423 226.233L227.355 225.316C229.964 224.175 232.506 222.736 235.069 221.494C237.581 220.016 240.095 218.797 242.501 217.255C243.112 216.871 243.708 216.558 244.305 216.221L246.058 215.111L247.425 214.238L247.59 214.314C314.84 245.607 259.417 422.753 184.659 359.5ZM382.1 333.932C353.03 337.358 329.391 360.582 325.395 389.579C324.023 399.533 323.573 415.805 311.578 417.258C288.223 420.086 270.347 440.916 270.561 464.441C270.795 490.285 291.819 511.161 317.717 511.161C338.742 511.161 356.553 497.402 362.639 478.397C365.306 470.065 372.912 464.279 381.661 464.24C386.483 464.218 391.492 464.1 395.412 463.786C427.258 461.233 453.055 435.04 455.158 403.161C457.842 362.46 423.194 329.088 382.1 333.932ZM637.869 516.949C622.675 508.635 600.222 520.416 587.719 543.263C575.216 566.111 577.398 591.372 592.592 599.688C607.786 608.004 630.239 596.221 642.742 573.374C655.245 550.525 653.064 525.264 637.869 516.949ZM701.5 230C699.249 228.582 683.615 219.99 681 219.5C664.338 211.675 639.753 208.186 615 219.5C561.061 244.153 512.13 240.719 452.35 238.202C451.9 243.919 451.601 249.679 451.601 255.511C451.601 375.733 549.059 473.191 669.281 473.191C693.139 473.191 716.075 469.297 737.555 462.205C740.623 447.338 743.076 430.919 744.664 412.71C745.884 398.71 746.666 385.21 747.006 372.271C752.58 398.935 755.19 425.26 755.19 446.794C755.19 458.497 756.973 476.483 768.675 476.483C780.376 476.483 782.159 458.497 782.159 446.794C782.159 332.052 749.769 260.505 701.5 230Z"/>
</mask>
<path d="M184.659 359.5L175.812 354.883L175.805 354.904C169.275 350.436 159.186 340.763 138.436 340.763C106.808 340.763 93.9405 370.474 93.9405 381.814C73.1187 381.814 53.7905 374.111 37.3358 364.535C30.9249 360.804 24.1218 351.274 22.5765 348.91C16.5874 339.743 13.0874 328.68 13.0874 315.75C13.0874 292.754 43.2562 285.939 64.9233 276.868C87.0405 263.458 102.67 232.78 102.67 217.889L102.716 217.877C103.672 193.194 124.725 173.463 150.573 173.463C163.917 173.463 175.976 178.727 184.659 187.211C184.064 187.877 183.489 188.544 182.939 189.213L182.928 189.225C182.378 189.896 181.844 190.564 181.337 191.227C180.505 192.41 179.673 193.457 178.956 194.6C178.223 195.789 177.491 196.833 176.894 197.957C176.292 199.071 175.701 200.047 175.237 201.074C174.734 202.083 174.437 202.929 174.123 203.807C173.625 205.158 173.194 206.534 172.833 207.929C172.693 208.458 172.57 208.991 172.464 209.529L171.531 214.535C171.383 215.361 171.294 216.197 171.262 217.036C170.917 226.11 177.359 233.849 186.048 235.405C186.134 235.421 186.217 235.439 186.303 235.454C187.039 235.574 187.786 235.666 188.55 235.696C188.55 235.696 189.031 235.714 189.884 235.666C190.719 235.588 192.005 235.575 193.52 235.361C195.1 235.138 196.795 234.957 198.672 234.674C199.626 234.55 200.583 234.327 201.616 234.144C202.681 233.955 203.761 233.671 204.906 233.422C207.297 232.82 209.671 232.148 212.023 231.41C214.472 230.569 217.045 229.749 219.597 228.675C220.902 228.178 222.194 227.645 223.47 227.079L225.423 226.233L227.355 225.316C229.964 224.175 232.506 222.736 235.069 221.494C237.581 220.016 240.095 218.797 242.501 217.255C243.112 216.871 243.708 216.558 244.305 216.221L246.058 215.111L247.425 214.238L247.59 214.314C314.84 245.607 259.417 422.753 184.659 359.5ZM382.1 333.932C353.03 337.358 329.391 360.582 325.395 389.579C324.023 399.533 323.573 415.805 311.578 417.258C288.223 420.086 270.347 440.916 270.561 464.441C270.795 490.285 291.819 511.161 317.717 511.161C338.742 511.161 356.553 497.402 362.639 478.397C365.306 470.065 372.912 464.279 381.661 464.24C386.483 464.218 391.492 464.1 395.412 463.786C427.258 461.233 453.055 435.04 455.158 403.161C457.842 362.46 423.194 329.088 382.1 333.932ZM637.869 516.949C622.675 508.635 600.222 520.416 587.719 543.263C575.216 566.111 577.398 591.372 592.592 599.688C607.786 608.004 630.239 596.221 642.742 573.374C655.245 550.525 653.064 525.264 637.869 516.949ZM701.5 230C699.249 228.582 683.615 219.99 681 219.5C664.338 211.675 639.753 208.186 615 219.5C561.061 244.153 512.13 240.719 452.35 238.202C451.9 243.919 451.601 249.679 451.601 255.511C451.601 375.733 549.059 473.191 669.281 473.191C693.139 473.191 716.075 469.297 737.555 462.205C740.623 447.338 743.076 430.919 744.664 412.71C745.884 398.71 746.666 385.21 747.006 372.271C752.58 398.935 755.19 425.26 755.19 446.794C755.19 458.497 756.973 476.483 768.675 476.483C780.376 476.483 782.159 458.497 782.159 446.794C782.159 332.052 749.769 260.505 701.5 230Z" fill="#597B91" stroke="black" stroke-width="20" mask="url(#path-6-inside-4_447_2236)"/>
<mask id="path-7-inside-5_447_2236" fill="white">
<path d="M40.7732 300.95C44.0107 301.644 46.1138 305.816 45.4716 310.272L44.0888 318.204C43.4466 322.658 40.3013 325.708 37.0638 325.016C33.8263 324.324 31.7232 320.15 32.3654 315.694L33.7482 307.763C34.3904 303.307 37.5357 300.257 40.7732 300.95ZM144.628 235.346C140.969 235.151 137.382 236.417 134.656 238.867C131.93 241.316 130.289 244.747 130.094 248.407L128.82 272.266C128.679 275.894 129.971 279.431 132.417 282.114C134.863 284.797 138.266 286.409 141.892 286.603C145.517 286.796 149.073 285.555 151.79 283.148C154.508 280.741 156.17 277.362 156.415 273.74L157.689 249.88C157.786 248.068 157.525 246.255 156.921 244.544C156.316 242.833 155.381 241.258 154.169 239.908C152.956 238.558 151.489 237.461 149.852 236.678C148.215 235.895 146.44 235.443 144.628 235.346ZM290.453 707.336C330.958 707.336 312.809 681.516 321.173 662.471L254.886 671.725C259.936 696.079 249.947 707.336 290.453 707.336ZM546.839 662.471C544.589 681.397 539.004 707.336 574.964 707.336C610.923 707.336 610.57 691.48 623.767 671.727L546.839 662.471Z"/>
</mask>
<path d="M40.7732 300.95C44.0107 301.644 46.1138 305.816 45.4716 310.272L44.0888 318.204C43.4466 322.658 40.3013 325.708 37.0638 325.016C33.8263 324.324 31.7232 320.15 32.3654 315.694L33.7482 307.763C34.3904 303.307 37.5357 300.257 40.7732 300.95ZM144.628 235.346C140.969 235.151 137.382 236.417 134.656 238.867C131.93 241.316 130.289 244.747 130.094 248.407L128.82 272.266C128.679 275.894 129.971 279.431 132.417 282.114C134.863 284.797 138.266 286.409 141.892 286.603C145.517 286.796 149.073 285.555 151.79 283.148C154.508 280.741 156.17 277.362 156.415 273.74L157.689 249.88C157.786 248.068 157.525 246.255 156.921 244.544C156.316 242.833 155.381 241.258 154.169 239.908C152.956 238.558 151.489 237.461 149.852 236.678C148.215 235.895 146.44 235.443 144.628 235.346ZM290.453 707.336C330.958 707.336 312.809 681.516 321.173 662.471L254.886 671.725C259.936 696.079 249.947 707.336 290.453 707.336ZM546.839 662.471C544.589 681.397 539.004 707.336 574.964 707.336C610.923 707.336 610.57 691.48 623.767 671.727L546.839 662.471Z" fill="#2B3B47" stroke="black" stroke-width="20" mask="url(#path-7-inside-5_447_2236)"/>
</svg>
