<svg width="800" height="800" viewBox="0 0 800 800" fill="none" xmlns="http://www.w3.org/2000/svg">
<path d="M342.5 58H461.5L511 288.5L669 345.5L726.5 446.5L697 637L643 761H257.5L137.5 597V518.5L175 446.5L92 138.5L211.5 106L324 345.5L342.5 58Z" fill="#FFFE75"/>
<path d="M615.853 299.962C594.431 266.136 555.289 246.812 514.281 252.555V115.625C514.281 51.8687 463.014 0 399.998 0C336.982 0 285.717 51.8687 285.717 115.625L300 262.5L270.814 139.297C247.778 79.4422 181.015 50.1719 122.201 73.7625C63.648 97.2469 35.0449 164.005 57.8246 223.203L144.945 449.652C97.1996 488.645 76.2043 539.978 106.3 593.742L192.007 746.866C210.351 779.641 244.89 800 282.148 800H603.557C651.595 800 693.492 766.5 704.425 719.067L747.279 533.131C749.073 525.34 749.98 517.371 749.981 509.377L750 400C750 329.756 682.401 279.152 615.853 299.962ZM674.979 509.375C674.979 511.7 674.715 514.027 674.195 516.286L631.34 702.225C628.25 715.634 616.825 725 603.556 725H282.148C272.014 725 262.551 719.342 257.453 710.236L171.743 557.111C164.623 544.391 167.651 527.942 178.787 518.848L220.423 484.842C224.501 481.512 227.424 476.979 228.774 471.889C230.124 466.8 229.833 461.414 227.942 456.5L127.801 196.267C108.165 145.244 181.828 116.933 200.796 166.233L294.209 408.978C296.024 413.694 299.224 417.749 303.39 420.609C307.555 423.469 312.489 425 317.542 425H335.717C349.525 425 360.717 413.808 360.717 400V115.625C360.717 61.9141 439.281 61.8281 439.281 115.625V400C439.281 413.808 450.473 425 464.281 425H474.993C488.801 425 499.993 413.808 499.993 400V356.25C499.993 316.997 557.129 316.939 557.129 356.25V400C557.129 413.808 568.321 425 582.129 425H592.842C606.65 425 617.842 413.808 617.842 400C617.842 360.75 674.978 360.688 674.978 400V509.375H674.979Z" fill="black"/>
</svg>
