<svg width="800" height="800" viewBox="0 0 800 800" fill="none" xmlns="http://www.w3.org/2000/svg">
<path d="M148 587L333 439.5L463.5 524.5L550.5 482L653.5 508V656H148V587Z" fill="#FFFE75"/>
<path d="M475.49 531.257L418.243 474.487C391.933 448.397 378.777 435.35 363.63 430.457C350.307 426.15 335.967 426.15 322.641 430.457C307.495 435.35 294.339 448.397 268.027 474.487L134.731 608.74M475.49 531.257L486.867 519.97C513.733 493.33 527.163 480.01 542.577 475.15C556.13 470.873 570.694 471.04 584.147 475.627C599.44 480.843 612.563 494.467 638.807 521.717L666.667 550.003M475.49 531.257L607.333 665.427M134.731 608.74C133.334 596.887 133.333 581.553 133.333 560V240C133.333 202.663 133.333 183.995 140.6 169.734C146.991 157.19 157.19 146.991 169.734 140.6C183.995 133.333 202.663 133.333 240 133.333H366.667M134.731 608.74C135.755 617.42 137.528 624.237 140.6 630.267C146.991 642.81 157.19 653.01 169.734 659.4C183.995 666.667 202.663 666.667 240 666.667H560C597.337 666.667 616.007 666.667 630.267 659.4C642.81 653.01 653.01 642.81 659.4 630.267C666.667 616.007 666.667 597.337 666.667 560V433.333M500 176.19L560 233.333L700 100" stroke="black" stroke-width="66.6667" stroke-linecap="round" stroke-linejoin="round"/>
</svg>
