<svg width="1056" height="1114" viewBox="0 0 1056 1114" fill="none" xmlns="http://www.w3.org/2000/svg">
<path d="M44.625 178.5C19.9795 178.5 0 198.479 0 223.125C0 247.771 19.9795 267.75 44.625 267.75H847.875C872.521 267.75 892.5 247.771 892.5 223.125C892.5 198.479 872.521 178.5 847.875 178.5H44.625Z" fill="black"/>
<path d="M133.875 44.625C133.875 19.9795 153.855 0 178.5 0H714C738.646 0 758.625 19.9795 758.625 44.625C758.625 69.2714 738.646 89.25 714 89.25H178.5C153.855 89.25 133.875 69.2714 133.875 44.625Z" fill="black"/>
<path d="M178.5 357C153.855 357 133.875 376.979 133.875 401.625C133.875 426.271 153.855 446.25 178.5 446.25H714C738.646 446.25 758.625 426.271 758.625 401.625C758.625 376.979 738.646 357 714 357H178.5Z" fill="#21D304"/>
<path d="M456.472 704.812L504.896 692.562L593.953 750.472L623.453 713.165V428.626L670.764 398L699.151 428.626V565.605L742.566 575.628L778.189 620.174L835.519 630.754L855 659.152L914 669.175V919.191L855 994.363L768.726 1030L655.736 1012.18L442 763.836L456.472 704.812Z" fill="#FFFE75"/>
<ellipse cx="661.5" cy="428.5" rx="103.5" ry="102.5" fill="#FFFE75"/>
<path d="M642.203 626.1V719.336C642.203 731.448 637.957 743.176 630.204 752.48C611.9 774.445 579.254 777.413 557.289 759.108L523.477 730.932C513.14 722.317 500.111 717.6 486.655 717.6C476.906 717.6 468.02 723.186 463.792 731.97L462.486 734.685C457.539 744.964 459.038 757.182 466.32 765.961L627.851 960.678C653.98 992.175 692.779 1010.4 733.702 1010.4C824.663 1010.4 898.4 936.661 898.4 845.7V699.3C898.4 689.193 890.207 681 880.101 681C869.994 681 861.801 689.193 861.801 699.3V735.9C861.801 746.007 853.608 754.2 843.501 754.2C833.394 754.2 825.201 746.007 825.201 735.9V662.7C825.201 652.593 817.008 644.4 806.902 644.4C796.795 644.4 788.602 652.593 788.602 662.7V735.9C788.602 746.007 780.409 754.2 770.302 754.2C760.195 754.2 752.002 746.007 752.002 735.9V626.1C752.002 615.993 743.809 607.8 733.702 607.8C723.596 607.8 715.403 615.993 715.403 626.1V735.9C715.403 746.007 707.209 754.2 697.103 754.2C686.996 754.2 678.803 746.007 678.803 735.9V443.1C678.803 432.993 670.61 424.8 660.503 424.8C650.397 424.8 642.203 432.993 642.203 443.1V626.1ZM605.604 626.1V558.869C561.419 537.905 532.405 493.185 532.405 443.1C532.405 372.352 589.756 315 660.503 315C731.25 315 788.602 372.352 788.602 443.1C788.602 493.189 759.583 537.907 715.403 558.869V574.324C721.126 572.301 727.286 571.2 733.702 571.2C759.02 571.2 780.334 588.337 786.679 611.645C792.937 609.164 799.76 607.8 806.902 607.8C832.219 607.8 853.533 624.937 859.878 648.245C866.136 645.764 872.959 644.4 880.101 644.4C910.421 644.4 935 668.98 935 699.3V845.7C935 956.875 844.876 1047 733.702 1047C681.888 1047 632.765 1023.93 599.683 984.046L438.152 789.33C421.732 769.536 418.354 741.988 429.506 718.815L430.813 716.099C441.138 694.643 462.844 681 486.655 681C508.673 681 529.993 688.719 546.908 702.815L580.72 730.992C587.156 736.356 596.723 735.486 602.087 729.049C604.36 726.322 605.604 722.885 605.604 719.336V626.1ZM715.403 516.326C737.964 499.396 752.002 472.548 752.002 443.1C752.002 392.566 711.037 351.6 660.503 351.6C609.97 351.6 569.004 392.566 569.004 443.1C569.004 472.547 583.041 499.394 605.604 516.326V443.1C605.604 412.78 630.183 388.2 660.503 388.2C690.823 388.2 715.403 412.78 715.403 443.1V516.326Z" fill="black"/>
</svg>
