<svg width="1727" height="1084" viewBox="0 0 1727 1084" fill="none" xmlns="http://www.w3.org/2000/svg">
<rect x="15" y="15" width="525" height="506" rx="135" fill="#FFFE75"/>
<rect x="15" y="15" width="525" height="506" rx="135" stroke="black" stroke-width="30"/>
<path d="M196.135 159.75C195.901 154.617 197.535 150.65 201.035 147.85C204.535 144.817 209.435 143.183 215.735 142.95C219.001 142.717 222.151 143.067 225.185 144C228.218 144.933 230.785 146.45 232.885 148.55C235.218 150.65 236.385 153.217 236.385 156.25C234.751 196.85 234.051 237.8 234.285 279.1C234.518 320.167 233.351 361.233 230.785 402.3C230.551 406.733 228.568 410.233 224.835 412.8C221.101 415.367 216.901 416.883 212.235 417.35C205.701 417.35 200.335 416.183 196.135 413.85C192.168 411.75 190.301 408.133 190.535 403C192.168 377.333 193.101 350.967 193.335 323.9C193.568 296.6 193.801 269.067 194.035 241.3C194.268 213.533 194.968 186.35 196.135 159.75ZM222.385 179.7V146.8C227.051 145.4 233.235 144.117 240.935 142.95C248.635 141.783 258.785 141.2 271.385 141.2C280.951 141.2 291.101 142.133 301.835 144C312.801 145.633 322.951 148.667 332.285 153.1C341.851 157.533 349.551 163.717 355.385 171.65C361.451 179.35 364.485 189.267 364.485 201.4C364.485 213.067 360.635 224.85 352.935 236.75C345.468 248.65 332.868 258.217 315.135 265.45C329.135 268.95 340.568 273.967 349.435 280.5C358.535 286.8 365.301 294.15 369.735 302.55C374.401 310.95 376.735 319.7 376.735 328.8C376.735 342.333 372.768 354.467 364.835 365.2C357.135 375.7 346.751 384.567 333.685 391.8C320.851 399.033 306.735 404.517 291.335 408.25C275.935 411.983 260.651 413.85 245.485 413.85C237.785 413.85 230.318 413.5 223.085 412.8C215.851 412.1 210.251 411.517 206.285 411.05L210.135 376.05C215.501 376.983 220.985 377.683 226.585 378.15C232.418 378.383 237.785 378.5 242.685 378.5C253.418 378.5 264.151 377.45 274.885 375.35C285.851 373.25 295.885 370.1 304.985 365.9C314.085 361.467 321.435 356.1 327.035 349.8C332.635 343.5 335.435 336.033 335.435 327.4C335.435 320.4 333.218 314.333 328.785 309.2C324.351 303.833 318.635 299.517 311.635 296.25C304.868 292.75 297.401 290.183 289.235 288.55C281.301 286.683 273.835 285.75 266.835 285.75C260.068 286.683 254.118 287.5 248.985 288.2C243.851 288.667 238.951 288.9 234.285 288.9C224.951 288.9 217.718 287.617 212.585 285.05C207.685 282.483 205.235 277.117 205.235 268.95C205.235 266.383 205.468 263.817 205.935 261.25C206.401 258.45 207.335 256.117 208.735 254.25C210.135 252.15 212.001 251.217 214.335 251.45C218.301 251.683 222.035 252.033 225.535 252.5C229.268 252.733 233.235 252.85 237.435 252.85C246.068 252.85 255.401 252.033 265.435 250.4C275.701 248.533 285.268 245.733 294.135 242C303.001 238.033 310.351 233.017 316.185 226.95C322.018 220.65 324.935 213.183 324.935 204.55C324.935 197.083 322.135 191.25 316.535 187.05C311.168 182.617 304.285 179.467 295.885 177.6C287.718 175.733 279.435 174.8 271.035 174.8C266.135 174.8 260.418 175.15 253.885 175.85C247.585 176.317 241.518 177.017 235.685 177.95C229.851 178.65 225.418 179.233 222.385 179.7Z" fill="black"/>
<rect x="601" y="15" width="525" height="506" rx="135" fill="#20B408"/>
<rect x="601" y="15" width="525" height="506" rx="135" stroke="black" stroke-width="30"/>
<path d="M916.938 147.5C920.438 148.667 923.121 150.533 924.988 153.1C926.855 155.433 927.788 158.117 927.788 161.15C927.788 163.017 927.088 165.233 925.688 167.8C924.521 170.367 922.771 172.817 920.438 175.15C918.105 177.483 915.538 179.35 912.738 180.75C909.938 181.917 906.788 182.267 903.288 181.8C900.021 181.1 896.055 180.05 891.388 178.65C886.955 177.25 881.005 176.55 873.538 176.55C859.771 176.55 847.288 179.817 836.088 186.35C825.121 192.65 815.788 201.283 808.088 212.25C800.621 223.217 794.905 235.35 790.938 248.65C786.971 261.95 784.988 275.6 784.988 289.6C784.988 302.667 786.621 314.917 789.888 326.35C793.388 337.783 798.405 347.817 804.938 356.45C811.471 365.083 819.521 371.85 829.088 376.75C838.655 381.417 849.505 383.75 861.638 383.75C876.805 383.75 890.571 379.783 902.938 371.85C915.305 363.683 925.105 351.783 932.338 336.15C939.571 320.517 943.188 301.383 943.188 278.75C943.188 265.917 942.021 254.367 939.688 244.1C937.355 233.6 934.321 224.5 930.588 216.8C927.088 209.1 923.705 203.033 920.438 198.6C918.338 195.8 916.471 193.35 914.838 191.25C913.438 188.917 912.738 186.35 912.738 183.55C912.738 181.45 913.438 179 914.838 176.2C916.238 173.4 918.105 170.717 920.438 168.15C922.771 165.583 925.221 163.483 927.788 161.85C930.355 160.217 932.571 159.4 934.438 159.4C938.171 159.4 941.321 160.45 943.888 162.55C946.688 164.65 949.138 167.217 951.238 170.25C953.338 173.283 955.205 176.083 956.838 178.65C966.405 192.417 973.405 208.05 977.838 225.55C982.271 242.817 984.488 260.433 984.488 278.4C984.488 297.533 981.571 315.733 975.738 333C970.138 350.033 961.971 365.2 951.238 378.5C940.505 391.567 927.555 401.833 912.388 409.3C897.221 416.767 880.071 420.5 860.938 420.5C844.605 420.5 830.021 417.933 817.188 412.8C804.355 407.433 793.271 400.317 783.938 391.45C774.605 382.35 766.905 372.317 760.838 361.35C755.005 350.15 750.571 338.483 747.538 326.35C744.738 314.217 743.338 302.55 743.338 291.35C743.338 272.683 746.371 254.367 752.438 236.4C758.738 218.433 767.721 202.217 779.388 187.75C791.288 173.05 805.288 161.383 821.388 152.75C837.488 143.883 855.571 139.45 875.638 139.45C881.938 139.45 888.705 140.15 895.938 141.55C903.405 142.717 910.405 144.7 916.938 147.5Z" fill="black"/>
<rect x="1187" y="15" width="525" height="506" rx="135" fill="#FFFE75"/>
<rect x="1187" y="15" width="525" height="506" rx="135" stroke="black" stroke-width="30"/>
<path d="M1435.42 160.1C1435.89 154.733 1438.1 150.767 1442.07 148.2C1446.04 145.633 1450.59 144.35 1455.72 144.35C1461.79 144.35 1466.8 145.633 1470.77 148.2C1474.74 150.767 1476.6 154.967 1476.37 160.8C1472.87 200.933 1470.07 241.417 1467.97 282.25C1465.87 322.85 1464.35 363.333 1463.42 403.7C1463.42 409.3 1461.2 413.267 1456.77 415.6C1452.57 418.167 1447.79 419.45 1442.42 419.45C1437.05 419.45 1432.39 418.167 1428.42 415.6C1424.45 413.033 1422.47 408.6 1422.47 402.3C1423.4 362.633 1424.92 322.5 1427.02 281.9C1429.12 241.067 1431.92 200.467 1435.42 160.1Z" fill="black"/>
<path d="M794.472 674.812L842.896 662.562L931.953 720.472L961.453 683.165V398.626L1008.76 368L1037.15 398.626V535.605L1080.57 545.628L1116.19 590.174L1173.52 600.754L1193 629.152L1252 639.175V889.191L1193 964.363L1106.73 1000L993.736 982.182L780 733.836L794.472 674.812Z" fill="#FFFE75"/>
<ellipse cx="999.5" cy="398.5" rx="103.5" ry="102.5" fill="#FFFE75"/>
<path d="M980.203 596.1V689.336C980.203 701.448 975.957 713.176 968.204 722.48C949.9 744.445 917.254 747.413 895.289 729.108L861.477 700.932C851.14 692.317 838.111 687.6 824.655 687.6C814.906 687.6 806.02 693.186 801.792 701.97L800.486 704.685C795.539 714.964 797.038 727.182 804.32 735.961L965.851 930.678C991.98 962.175 1030.78 980.4 1071.7 980.4C1162.66 980.4 1236.4 906.661 1236.4 815.7V669.3C1236.4 659.193 1228.21 651 1218.1 651C1207.99 651 1199.8 659.193 1199.8 669.3V705.9C1199.8 716.007 1191.61 724.2 1181.5 724.2C1171.39 724.2 1163.2 716.007 1163.2 705.9V632.7C1163.2 622.593 1155.01 614.4 1144.9 614.4C1134.79 614.4 1126.6 622.593 1126.6 632.7V705.9C1126.6 716.007 1118.41 724.2 1108.3 724.2C1098.2 724.2 1090 716.007 1090 705.9V596.1C1090 585.993 1081.81 577.8 1071.7 577.8C1061.6 577.8 1053.4 585.993 1053.4 596.1V705.9C1053.4 716.007 1045.21 724.2 1035.1 724.2C1025 724.2 1016.8 716.007 1016.8 705.9V413.1C1016.8 402.993 1008.61 394.8 998.503 394.8C988.397 394.8 980.203 402.993 980.203 413.1V596.1ZM943.604 596.1V528.869C899.419 507.905 870.405 463.185 870.405 413.1C870.405 342.352 927.756 285 998.503 285C1069.25 285 1126.6 342.352 1126.6 413.1C1126.6 463.189 1097.58 507.907 1053.4 528.869V544.324C1059.13 542.301 1065.29 541.2 1071.7 541.2C1097.02 541.2 1118.33 558.337 1124.68 581.645C1130.94 579.164 1137.76 577.8 1144.9 577.8C1170.22 577.8 1191.53 594.937 1197.88 618.245C1204.14 615.764 1210.96 614.4 1218.1 614.4C1248.42 614.4 1273 638.98 1273 669.3V815.7C1273 926.875 1182.88 1017 1071.7 1017C1019.89 1017 970.765 993.925 937.683 954.046L776.152 759.33C759.732 739.536 756.354 711.988 767.506 688.815L768.813 686.099C779.138 664.643 800.844 651 824.655 651C846.673 651 867.993 658.719 884.908 672.815L918.72 700.992C925.156 706.356 934.723 705.486 940.087 699.049C942.36 696.322 943.604 692.885 943.604 689.336V596.1ZM1053.4 486.326C1075.96 469.396 1090 442.548 1090 413.1C1090 362.566 1049.04 321.6 998.503 321.6C947.97 321.6 907.004 362.566 907.004 413.1C907.004 442.547 921.041 469.394 943.604 486.326V413.1C943.604 382.78 968.183 358.2 998.503 358.2C1028.82 358.2 1053.4 382.78 1053.4 413.1V486.326Z" fill="black"/>
</svg>
