<svg width="800" height="800" viewBox="0 0 800 800" fill="none" xmlns="http://www.w3.org/2000/svg">
<path d="M41 191H326.5V259L375.5 286.5L396 333L375.5 389.5L326.5 406V472.5L396 482L414.5 528L465 539.5L509.5 528L539 472.5H607V751H41V191Z" fill="#FFFE75"/>
<path d="M474 47H761L751 323.5L687.5 333L660 375.5L621.5 395.5L568.5 383L534 333L474 323.5V254.5L529 235V144.5L474 107.5V47Z" fill="#FFFE75"/>
<path d="M599.85 456.3H532.075C531.725 456.275 531.45 456.1 531.1 456.1C520.75 456.1 512.35 464.5 512.35 474.85C512.35 474.9 512.35 474.95 512.35 475C512.35 502.6 489.975 525 462.35 525C434.725 525 412.35 502.625 412.35 475C412.35 474.95 412.35 474.9 412.35 474.825C412.35 464.475 403.95 456.075 393.6 456.075C393.25 456.075 392.975 456.25 392.625 456.275H343.7V423.025C383.3 414.175 412.45 379.325 412.45 337.65C412.45 295.975 383.3 261.15 344.275 252.4L343.7 252.3V199.925C343.7 189.575 335.3 181.175 324.95 181.175H49.9751C39.6251 181.175 31.2251 189.575 31.2251 199.925V474.325L31.1001 474.925V749.925C31.1001 760.275 39.5001 768.675 49.8501 768.675L599.825 768.775C610.175 768.775 618.575 760.375 618.575 750.025V475.025C618.575 464.675 610.175 456.275 599.825 456.275L599.85 456.3ZM68.7501 218.7H306.225V268.95C306.225 279.3 314.625 287.7 324.975 287.7C352.6 287.7 374.975 310.075 374.975 337.7C374.975 365.325 352.6 387.7 324.975 387.7C314.625 387.7 306.225 396.1 306.225 406.45V456.2H272.95C264.175 416.5 229.3 387.25 187.575 387.25C145.85 387.25 110.975 416.5 102.3 455.6L102.2 456.175H68.7501V218.7ZM68.6251 493.7H117.55C117.975 493.725 118.325 493.95 118.75 493.95C129.15 493.8 137.525 485.375 137.6 474.975C137.675 447.45 160 425.15 187.55 425.15C215.125 425.15 237.5 447.5 237.5 475.1C237.5 475.15 237.5 475.175 237.5 475.225C237.5 485.575 245.9 493.975 256.25 493.975C256.675 493.975 257.025 493.75 257.45 493.725H306.15V527.025C266.55 535.9 237.4 570.775 237.4 612.425C237.4 648.475 259.225 679.45 290.4 692.8L290.975 693.025C295.25 694.875 300.325 696.5 305.575 697.675L306.15 697.775V731.225H68.6501L68.6251 493.7ZM581.1 731.3H343.625V682.3C343.65 681.925 343.85 681.6 343.85 681.225C343.7 670.825 335.275 662.45 324.9 662.375C297.35 662.3 275.05 639.975 275.05 612.425C275.05 584.825 297.425 562.475 325 562.475C325.05 562.475 325.075 562.475 325.125 562.475C335.475 562.475 343.875 554.075 343.875 543.725C343.875 543.35 343.675 543.025 343.65 542.65V493.825H377.1C386.025 533.325 420.825 562.375 462.4 562.375C503.975 562.375 538.775 533.325 547.575 494.4L547.675 493.825H581.125L581.1 731.3ZM749.85 31.25H474.9C464.55 31.25 456.15 39.65 456.15 50V117.55C456.125 117.975 455.9 118.325 455.9 118.75C455.9 129.1 464.3 137.5 474.65 137.5C502.275 137.5 524.65 159.875 524.65 187.5C524.65 215.125 502.275 237.5 474.65 237.5C464.3 237.5 455.9 245.9 455.9 256.25C455.9 256.675 456.125 257.025 456.15 257.45V325C456.15 335.35 464.55 343.75 474.9 343.75H526.8C535.65 383.35 570.5 412.5 612.175 412.5C653.85 412.5 688.675 383.35 697.425 344.325L697.525 343.75H749.85C760.2 343.75 768.6 335.35 768.6 325V50C768.6 39.65 760.2 31.25 749.85 31.25ZM731.1 306.25H680.9C670.55 306.25 662.15 314.65 662.15 325C662.15 352.625 639.775 375 612.15 375C584.525 375 562.15 352.625 562.15 325C562.15 314.65 553.75 306.25 543.4 306.25H493.65V272.8C533.125 263.85 562.15 229.075 562.15 187.5C562.15 145.925 533.125 111.15 494.225 102.325L493.65 102.225V68.775H731.1V306.25Z" fill="black"/>
</svg>
