<svg width="1727" height="1990" viewBox="0 0 1727 1990" fill="none" xmlns="http://www.w3.org/2000/svg">
<mask id="mask0_435_1474" style="mask-type:alpha" maskUnits="userSpaceOnUse" x="353" y="0" width="991" height="891">
<rect x="383" y="30" width="931" height="831" fill="#D9D9D9" stroke="black" stroke-width="60"/>
</mask>
<g mask="url(#mask0_435_1474)">
<path d="M677.88 391.719L848.75 220.849V786.663L677.88 615.793L669.093 607.006H656.667H509V400.506H656.667H669.093L677.88 391.719ZM997.583 183.22V153.305C1066.19 175.651 1122.92 215.169 1168.46 272.098C1221.87 338.858 1248.5 415.316 1248.5 502.646C1248.5 589.976 1221.87 666.434 1168.46 733.193C1122.92 790.123 1066.19 829.641 997.583 851.987V822.071C1060.56 799.574 1112.49 761.148 1152.67 707.091C1197.31 647.029 1219.67 578.543 1219.67 502.646C1219.67 426.748 1197.31 358.262 1152.67 298.2C1112.49 244.144 1060.56 205.718 997.583 183.22ZM1023.58 593.083C1016.18 605.228 1007.54 616.005 997.583 625.446V380.015C1007.49 389.506 1016.11 400.366 1023.5 412.634C1040.27 440.473 1048.62 470.645 1048.62 503.756C1048.62 536.012 1040.33 565.589 1023.58 593.083Z" fill="#FFFE75" stroke="black" stroke-width="60"/>
</g>
<rect x="15" y="921" width="525" height="506" rx="135" fill="#FFFE75"/>
<rect x="15" y="921" width="525" height="506" rx="135" stroke="black" stroke-width="30"/>
<path d="M196.135 1065.75C195.901 1060.62 197.535 1056.65 201.035 1053.85C204.535 1050.82 209.435 1049.18 215.735 1048.95C219.001 1048.72 222.151 1049.07 225.185 1050C228.218 1050.93 230.785 1052.45 232.885 1054.55C235.218 1056.65 236.385 1059.22 236.385 1062.25C234.751 1102.85 234.051 1143.8 234.285 1185.1C234.518 1226.17 233.351 1267.23 230.785 1308.3C230.551 1312.73 228.568 1316.23 224.835 1318.8C221.101 1321.37 216.901 1322.88 212.235 1323.35C205.701 1323.35 200.335 1322.18 196.135 1319.85C192.168 1317.75 190.301 1314.13 190.535 1309C192.168 1283.33 193.101 1256.97 193.335 1229.9C193.568 1202.6 193.801 1175.07 194.035 1147.3C194.268 1119.53 194.968 1092.35 196.135 1065.75ZM222.385 1085.7V1052.8C227.051 1051.4 233.235 1050.12 240.935 1048.95C248.635 1047.78 258.785 1047.2 271.385 1047.2C280.951 1047.2 291.101 1048.13 301.835 1050C312.801 1051.63 322.951 1054.67 332.285 1059.1C341.851 1063.53 349.551 1069.72 355.385 1077.65C361.451 1085.35 364.485 1095.27 364.485 1107.4C364.485 1119.07 360.635 1130.85 352.935 1142.75C345.468 1154.65 332.868 1164.22 315.135 1171.45C329.135 1174.95 340.568 1179.97 349.435 1186.5C358.535 1192.8 365.301 1200.15 369.735 1208.55C374.401 1216.95 376.735 1225.7 376.735 1234.8C376.735 1248.33 372.768 1260.47 364.835 1271.2C357.135 1281.7 346.751 1290.57 333.685 1297.8C320.851 1305.03 306.735 1310.52 291.335 1314.25C275.935 1317.98 260.651 1319.85 245.485 1319.85C237.785 1319.85 230.318 1319.5 223.085 1318.8C215.851 1318.1 210.251 1317.52 206.285 1317.05L210.135 1282.05C215.501 1282.98 220.985 1283.68 226.585 1284.15C232.418 1284.38 237.785 1284.5 242.685 1284.5C253.418 1284.5 264.151 1283.45 274.885 1281.35C285.851 1279.25 295.885 1276.1 304.985 1271.9C314.085 1267.47 321.435 1262.1 327.035 1255.8C332.635 1249.5 335.435 1242.03 335.435 1233.4C335.435 1226.4 333.218 1220.33 328.785 1215.2C324.351 1209.83 318.635 1205.52 311.635 1202.25C304.868 1198.75 297.401 1196.18 289.235 1194.55C281.301 1192.68 273.835 1191.75 266.835 1191.75C260.068 1192.68 254.118 1193.5 248.985 1194.2C243.851 1194.67 238.951 1194.9 234.285 1194.9C224.951 1194.9 217.718 1193.62 212.585 1191.05C207.685 1188.48 205.235 1183.12 205.235 1174.95C205.235 1172.38 205.468 1169.82 205.935 1167.25C206.401 1164.45 207.335 1162.12 208.735 1160.25C210.135 1158.15 212.001 1157.22 214.335 1157.45C218.301 1157.68 222.035 1158.03 225.535 1158.5C229.268 1158.73 233.235 1158.85 237.435 1158.85C246.068 1158.85 255.401 1158.03 265.435 1156.4C275.701 1154.53 285.268 1151.73 294.135 1148C303.001 1144.03 310.351 1139.02 316.185 1132.95C322.018 1126.65 324.935 1119.18 324.935 1110.55C324.935 1103.08 322.135 1097.25 316.535 1093.05C311.168 1088.62 304.285 1085.47 295.885 1083.6C287.718 1081.73 279.435 1080.8 271.035 1080.8C266.135 1080.8 260.418 1081.15 253.885 1081.85C247.585 1082.32 241.518 1083.02 235.685 1083.95C229.851 1084.65 225.418 1085.23 222.385 1085.7Z" fill="black"/>
<rect x="601" y="921" width="525" height="506" rx="135" fill="#20B408"/>
<rect x="601" y="921" width="525" height="506" rx="135" stroke="black" stroke-width="30"/>
<path d="M916.938 1053.5C920.438 1054.67 923.121 1056.53 924.988 1059.1C926.855 1061.43 927.788 1064.12 927.788 1067.15C927.788 1069.02 927.088 1071.23 925.688 1073.8C924.521 1076.37 922.771 1078.82 920.438 1081.15C918.105 1083.48 915.538 1085.35 912.738 1086.75C909.938 1087.92 906.788 1088.27 903.288 1087.8C900.021 1087.1 896.055 1086.05 891.388 1084.65C886.955 1083.25 881.005 1082.55 873.538 1082.55C859.771 1082.55 847.288 1085.82 836.088 1092.35C825.121 1098.65 815.788 1107.28 808.088 1118.25C800.621 1129.22 794.905 1141.35 790.938 1154.65C786.971 1167.95 784.988 1181.6 784.988 1195.6C784.988 1208.67 786.621 1220.92 789.888 1232.35C793.388 1243.78 798.405 1253.82 804.938 1262.45C811.471 1271.08 819.521 1277.85 829.088 1282.75C838.655 1287.42 849.505 1289.75 861.638 1289.75C876.805 1289.75 890.571 1285.78 902.938 1277.85C915.305 1269.68 925.105 1257.78 932.338 1242.15C939.571 1226.52 943.188 1207.38 943.188 1184.75C943.188 1171.92 942.021 1160.37 939.688 1150.1C937.355 1139.6 934.321 1130.5 930.588 1122.8C927.088 1115.1 923.705 1109.03 920.438 1104.6C918.338 1101.8 916.471 1099.35 914.838 1097.25C913.438 1094.92 912.738 1092.35 912.738 1089.55C912.738 1087.45 913.438 1085 914.838 1082.2C916.238 1079.4 918.105 1076.72 920.438 1074.15C922.771 1071.58 925.221 1069.48 927.788 1067.85C930.355 1066.22 932.571 1065.4 934.438 1065.4C938.171 1065.4 941.321 1066.45 943.888 1068.55C946.688 1070.65 949.138 1073.22 951.238 1076.25C953.338 1079.28 955.205 1082.08 956.838 1084.65C966.405 1098.42 973.405 1114.05 977.838 1131.55C982.271 1148.82 984.488 1166.43 984.488 1184.4C984.488 1203.53 981.571 1221.73 975.738 1239C970.138 1256.03 961.971 1271.2 951.238 1284.5C940.505 1297.57 927.555 1307.83 912.388 1315.3C897.221 1322.77 880.071 1326.5 860.938 1326.5C844.605 1326.5 830.021 1323.93 817.188 1318.8C804.355 1313.43 793.271 1306.32 783.938 1297.45C774.605 1288.35 766.905 1278.32 760.838 1267.35C755.005 1256.15 750.571 1244.48 747.538 1232.35C744.738 1220.22 743.338 1208.55 743.338 1197.35C743.338 1178.68 746.371 1160.37 752.438 1142.4C758.738 1124.43 767.721 1108.22 779.388 1093.75C791.288 1079.05 805.288 1067.38 821.388 1058.75C837.488 1049.88 855.571 1045.45 875.638 1045.45C881.938 1045.45 888.705 1046.15 895.938 1047.55C903.405 1048.72 910.405 1050.7 916.938 1053.5Z" fill="black"/>
<rect x="1187" y="921" width="525" height="506" rx="135" fill="#FFFE75"/>
<rect x="1187" y="921" width="525" height="506" rx="135" stroke="black" stroke-width="30"/>
<path d="M1435.42 1066.1C1435.89 1060.73 1438.1 1056.77 1442.07 1054.2C1446.04 1051.63 1450.59 1050.35 1455.72 1050.35C1461.79 1050.35 1466.8 1051.63 1470.77 1054.2C1474.74 1056.77 1476.6 1060.97 1476.37 1066.8C1472.87 1106.93 1470.07 1147.42 1467.97 1188.25C1465.87 1228.85 1464.35 1269.33 1463.42 1309.7C1463.42 1315.3 1461.2 1319.27 1456.77 1321.6C1452.57 1324.17 1447.79 1325.45 1442.42 1325.45C1437.05 1325.45 1432.39 1324.17 1428.42 1321.6C1424.45 1319.03 1422.47 1314.6 1422.47 1308.3C1423.4 1268.63 1424.92 1228.5 1427.02 1187.9C1429.12 1147.07 1431.92 1106.47 1435.42 1066.1Z" fill="black"/>
<path d="M794.472 1580.81L842.896 1568.56L931.953 1626.47L961.453 1589.16V1304.63L1008.76 1274L1037.15 1304.63V1441.61L1080.57 1451.63L1116.19 1496.17L1173.52 1506.75L1193 1535.15L1252 1545.18V1795.19L1193 1870.36L1106.73 1906L993.736 1888.18L780 1639.84L794.472 1580.81Z" fill="#FFFE75"/>
<ellipse cx="999.5" cy="1304.5" rx="103.5" ry="102.5" fill="#FFFE75"/>
<path d="M980.203 1502.1V1595.34C980.203 1607.45 975.957 1619.18 968.204 1628.48C949.9 1650.45 917.254 1653.41 895.289 1635.11L861.477 1606.93C851.14 1598.32 838.111 1593.6 824.655 1593.6C814.906 1593.6 806.02 1599.19 801.792 1607.97L800.486 1610.69C795.539 1620.96 797.038 1633.18 804.32 1641.96L965.851 1836.68C991.98 1868.18 1030.78 1886.4 1071.7 1886.4C1162.66 1886.4 1236.4 1812.66 1236.4 1721.7V1575.3C1236.4 1565.19 1228.21 1557 1218.1 1557C1207.99 1557 1199.8 1565.19 1199.8 1575.3V1611.9C1199.8 1622.01 1191.61 1630.2 1181.5 1630.2C1171.39 1630.2 1163.2 1622.01 1163.2 1611.9V1538.7C1163.2 1528.59 1155.01 1520.4 1144.9 1520.4C1134.79 1520.4 1126.6 1528.59 1126.6 1538.7V1611.9C1126.6 1622.01 1118.41 1630.2 1108.3 1630.2C1098.2 1630.2 1090 1622.01 1090 1611.9V1502.1C1090 1491.99 1081.81 1483.8 1071.7 1483.8C1061.6 1483.8 1053.4 1491.99 1053.4 1502.1V1611.9C1053.4 1622.01 1045.21 1630.2 1035.1 1630.2C1025 1630.2 1016.8 1622.01 1016.8 1611.9V1319.1C1016.8 1308.99 1008.61 1300.8 998.503 1300.8C988.397 1300.8 980.203 1308.99 980.203 1319.1V1502.1ZM943.604 1502.1V1434.87C899.419 1413.9 870.405 1369.19 870.405 1319.1C870.405 1248.35 927.756 1191 998.503 1191C1069.25 1191 1126.6 1248.35 1126.6 1319.1C1126.6 1369.19 1097.58 1413.91 1053.4 1434.87V1450.32C1059.13 1448.3 1065.29 1447.2 1071.7 1447.2C1097.02 1447.2 1118.33 1464.34 1124.68 1487.64C1130.94 1485.16 1137.76 1483.8 1144.9 1483.8C1170.22 1483.8 1191.53 1500.94 1197.88 1524.24C1204.14 1521.76 1210.96 1520.4 1218.1 1520.4C1248.42 1520.4 1273 1544.98 1273 1575.3V1721.7C1273 1832.87 1182.88 1923 1071.7 1923C1019.89 1923 970.765 1899.93 937.683 1860.05L776.152 1665.33C759.732 1645.54 756.354 1617.99 767.506 1594.81L768.813 1592.1C779.138 1570.64 800.844 1557 824.655 1557C846.673 1557 867.993 1564.72 884.908 1578.81L918.72 1606.99C925.156 1612.36 934.723 1611.49 940.087 1605.05C942.36 1602.32 943.604 1598.89 943.604 1595.34V1502.1ZM1053.4 1392.33C1075.96 1375.4 1090 1348.55 1090 1319.1C1090 1268.57 1049.04 1227.6 998.503 1227.6C947.97 1227.6 907.004 1268.57 907.004 1319.1C907.004 1348.55 921.041 1375.39 943.604 1392.33V1319.1C943.604 1288.78 968.183 1264.2 998.503 1264.2C1028.82 1264.2 1053.4 1288.78 1053.4 1319.1V1392.33Z" fill="black"/>
</svg>
